<svg width="36" height="40" viewBox="0 0 36 40" xml:space="preserve" xmlns="http://www.w3.org/2000/svg"><path d="M31.095 5.178C28.085 1.742 23.6 0 17.766 0 11.932 0 7.448 1.742 4.437 5.178 1.493 8.538 0 13.525 0 20s1.493 11.462 4.437 14.822C7.447 38.258 11.932 40 17.767 40c5.833 0 10.318-1.742 13.328-5.178 2.945-3.36 4.438-8.347 4.438-14.822S34.04 8.538 31.095 5.178zM17.766 37.695C7.463 37.695 2.312 31.796 2.312 20S7.463 2.305 17.766 2.305 33.221 8.204 33.221 20s-5.152 17.695-15.455 17.695zm0-31.3 7.051 7.051-1.63 1.63-4.268-4.267v7.271h5.061v2.306h-5.06v1.784h5.06v2.306h-5.06v1.784h5.06v2.306h-5.06v5.039h-2.307v-5.04h-5.06V26.26h5.06v-1.784h-5.06V22.17h5.06v-1.784h-5.06V18.08h5.06v-7.27l-4.267 4.267-1.63-1.63Z"/></svg>