<?xml version="1.0"?>
<svg width="480" height="109" xmlns="http://www.w3.org/2000/svg" xmlns:svg="http://www.w3.org/2000/svg">
 <style type="text/css">.st0{fill:#FFFFFF;}</style>
 <g>
  <title>Layer 1</title>
  <g id="svg_1">
   <g id="svg_2">
    <path id="svg_3" d="m132.500002,52.800003c7.3,0 12.2,3.3 15.2,7.4l0,-58.4c0,-1.1 -1.3,-1.8 -2.2,-1.1l-72.1,52.7l1.9,0c7.5,0 11.3,4.8 11.3,10c0,4.1 -2.1,7.1 -5,8.4c-0.5,0.2 -0.5,0.9 0,1.1c3.3,1.4 5.7,4.9 5.7,9.1c0,6 -3.9,10.7 -11.4,10.7l-20.5,0c-0.4,0 -0.8,-0.3 -0.8,-0.8l0,-24.8l-53.7,39.3c-0.9,0.8 -0.5,2.2 0.7,2.2l144.8,0c0.7,0 1.2,-0.5 1.2,-1.2l0,-19.9c-3.9,3.6 -9,5.9 -15.2,5.9c-11.6,0 -21,-8 -21,-20.3c0.1,-12.4 9.6,-20.3 21.1,-20.3zm-28.7,39.2c0,0.4 -0.3,0.7 -0.7,0.7l-6.9,0c-0.4,0 -0.7,-0.3 -0.7,-0.7l0,-37.9c0,-0.4 0.3,-0.7 0.7,-0.7l6.9,0c0.4,0 0.7,0.3 0.7,0.7l0,37.9z" class="st0"/>
   </g>
   <path id="svg_4" d="m63.800002,69.000003l9.7,0c2.8,0 4.6,-1.6 4.6,-4.1c0,-2.4 -1.8,-4.1 -4.6,-4.1l-10.1,0c-0.2,0 -0.4,0.2 -0.4,0.4l0,7.1c0,0.4 0.4,0.7 0.8,0.7z" class="st0"/>
   <path id="svg_5" d="m63.800002,85.400003l10.1,0c3.1,0 5,-1.7 5,-4.5c0,-2.5 -1.8,-4.5 -5,-4.5l-10.1,0c-0.4,0 -0.8,0.3 -0.8,0.8l0,7.4c0,0.4 0.4,0.8 0.8,0.8z" class="st0"/>
   <path id="svg_6" d="m141.400002,64.700003c-1.9,-2.5 -5.1,-4.5 -8.9,-4.5c-7.2,0 -12.4,5.5 -12.4,12.9c0,7.4 5.2,12.9 12.4,12.9c3.3,0 6.4,-1.4 8.1,-2.8c0.1,-0.1 0.2,-0.3 0.2,-0.5l0,-3.8c0,-0.3 -0.3,-0.6 -0.6,-0.6l-8.9,0c-0.5,0 -0.8,-0.4 -0.8,-0.8l0,-5.6c0,-0.5 0.4,-0.8 0.8,-0.8l16.5,0l0,-8.9l-5.3,2.9c-0.4,0.1 -0.9,-0.1 -1.1,-0.4z" class="st0"/>
   <path id="svg_7" d="m153.900002,73.100003c0,-12.1 8.7,-20.3 19.9,-20.3c7.3,0 12,3.7 14.8,8.2c0.2,0.3 0.1,0.8 -0.3,0.9l-4.5,2.4c-0.3,0.2 -0.7,0.1 -0.8,-0.2c-1.9,-3 -5.4,-5.2 -9.2,-5.2c-7.5,0 -13.1,5.9 -13.1,14.2c0,8.2 5.6,14.2 13.1,14.2c3.8,0 7.3,-2.2 9.2,-5.2c0.2,-0.3 0.5,-0.4 0.8,-0.2l4.5,2.3c0.4,0.2 0.5,0.6 0.3,1c-2.9,4.5 -7.6,8.3 -14.8,8.3c-11.2,-0.1 -19.9,-8.4 -19.9,-20.4z" class="st0"/>
   <path id="svg_8" d="m192.500002,73.100003c0,-9.8 5.6,-17.4 14,-19.6c14.3,-3.8 27.4,9.6 24.3,24.5c-1.9,9.2 -9.2,15.5 -18.9,15.5c-11.4,-0.1 -19.4,-8.7 -19.4,-20.4zm31.9,0c0,-8.1 -5,-14.2 -12.6,-14.2c-7.7,0 -12.6,6.1 -12.6,14.2c0,8.1 4.9,14.2 12.6,14.2c7.7,0 12.6,-6.2 12.6,-14.2z" class="st0"/>
   <path id="svg_9" d="m272.000002,92.200003l0,-29.9l-11.9,30.1c0,0.1 -0.2,0.2 -0.3,0.2l-2.5,0c-0.1,0 -0.3,-0.1 -0.3,-0.2l-12,-30.1l0,29.9c0,0.3 -0.2,0.5 -0.5,0.5l-6,0c-0.3,0 -0.5,-0.2 -0.5,-0.5l0,-38.4c0,-0.3 0.2,-0.5 0.5,-0.5l8.6,0c0.4,0 0.7,0.2 0.9,0.6l10.5,27l10.4,-27c0.1,-0.4 0.5,-0.6 0.9,-0.6l8.6,0c0.3,0 0.5,0.2 0.5,0.5l0,38.4c0,0.3 -0.2,0.5 -0.5,0.5l-6,0c-0.1,0 -0.4,-0.2 -0.4,-0.5z" class="st0"/>
   <path id="svg_10" d="m340.000002,92.000003l0,-37.9c0,-0.4 0.3,-0.7 0.7,-0.7l25.5,0c0.4,0 0.7,0.3 0.7,0.7l0,4.6c0,0.4 -0.3,0.7 -0.7,0.7l-18.6,0c-0.4,0 -0.7,0.3 -0.7,0.7l0,8.7c0,0.4 0.3,0.7 0.7,0.7l18.2,0c0.4,0 0.7,0.3 0.7,0.7l0,4.6c0,0.4 -0.3,0.7 -0.7,0.7l-18.2,0c-0.4,0 -0.7,0.3 -0.7,0.7l0,9.5c0,0.4 0.3,0.7 0.7,0.7l18.6,0c0.4,0 0.7,0.3 0.7,0.7l0,4.6c0,0.4 -0.3,0.7 -0.7,0.7l-25.5,0c-0.4,0.3 -0.7,0 -0.7,-0.4z" class="st0"/>
   <path id="svg_11" d="m398.900002,92.300003l-8.3,-14c-0.1,-0.2 -0.4,-0.3 -0.6,-0.3l-5.8,0c-0.4,0 -0.7,0.3 -0.7,0.7l0,13.3c0,0.4 -0.3,0.7 -0.7,0.7l-5.4,0c-0.4,0 -0.7,-0.3 -0.7,-0.7l0,-37.9c0,-0.4 0.3,-0.7 0.7,-0.7l16.6,0c7.8,0 12.9,5 12.9,12.3c0,6.5 -4,10.2 -8.4,11.3c-0.5,0.1 -0.7,0.6 -0.5,1.1c1.6,2.6 6.6,10.6 8.5,13.5c0.3,0.5 0,1.1 -0.6,1.1l-6.3,0c-0.3,0 -0.5,-0.1 -0.7,-0.4zm0.9,-26.7c0,-3.8 -2.8,-6.2 -6.7,-6.2l-8.8,0c-0.4,0 -0.7,0.3 -0.7,0.7l0,11.1c0,0.4 0.3,0.7 0.7,0.7l8.8,0c3.9,0 6.7,-2.4 6.7,-6.3z" class="st0"/>
   <path id="svg_12" d="m453.500002,92.000003l0,-37.9c0,-0.4 0.3,-0.7 0.7,-0.7l25.6,0c0.4,0 0.7,0.3 0.7,0.7l0,4.7c0,0.4 -0.3,0.7 -0.7,0.7l-18.7,0c-0.4,0 -0.7,0.3 -0.7,0.7l0,8.8c0,0.4 0.3,0.7 0.7,0.7l18.2,0c0.4,0 0.7,0.3 0.7,0.7l0,4.7c0,0.4 -0.3,0.7 -0.7,0.7l-18.2,0c-0.4,0 -0.7,0.3 -0.7,0.7l0,9.6c0,0.4 0.3,0.7 0.7,0.7l18.7,0c0.4,0 0.7,0.3 0.7,0.7l0,4.7c0,0.4 -0.3,0.7 -0.7,0.7l-25.6,0c-0.4,-0.2 -0.7,-0.5 -0.7,-0.9z" class="st0"/>
   <path id="svg_13" d="m411.900002,72.900003c0,-12.1 8.7,-20.3 19.9,-20.3c7.3,0 12,3.7 14.8,8.2c0.2,0.3 0.1,0.8 -0.3,0.9l-4.5,2.4c-0.3,0.2 -0.7,0.1 -0.8,-0.2c-1.9,-3 -5.4,-5.2 -9.2,-5.2c-7.5,0 -13.1,5.9 -13.1,14.2c0,8.2 5.6,14.2 13.1,14.2c3.8,0 7.3,-2.2 9.2,-5.2c0.2,-0.3 0.5,-0.4 0.8,-0.2l4.5,2.3c0.4,0.2 0.5,0.6 0.3,1c-2.9,4.5 -7.6,8.3 -14.8,8.3c-11.2,-0.1 -19.9,-8.3 -19.9,-20.4z" class="st0"/>
   <path id="svg_14" d="m323.000002,92.200003l0,-29.9l-11.9,30.1c0,0.1 -0.2,0.2 -0.3,0.2l-2.5,0c-0.1,0 -0.3,-0.1 -0.3,-0.2l-12,-30.1l0,29.9c0,0.3 -0.2,0.5 -0.5,0.5l-6,0c-0.3,0 -0.5,-0.2 -0.5,-0.5l0,-38.4c0,-0.3 0.2,-0.5 0.5,-0.5l8.6,0c0.4,0 0.7,0.2 0.9,0.6l10.5,27l10.4,-27c0.1,-0.4 0.5,-0.6 0.9,-0.6l8.6,0c0.3,0 0.5,0.2 0.5,0.5l0,38.4c0,0.3 -0.2,0.5 -0.5,0.5l-6,0c-0.2,0 -0.4,-0.2 -0.4,-0.5z" class="st0"/>
  </g>
 </g>
</svg>