<svg width="20" height="20" viewBox="0 0 20 20" fill="none" xmlns="http://www.w3.org/2000/svg">
<path d="M12.6829 13.2447C11.5828 14.3468 10.0952 14.9747 8.53815 14.9942H8.50643C7.28775 14.8738 6.14871 14.3339 5.28398 13.4668L4.64946 12.8323L0.887669 9.07505C0.852658 9.03981 0.833008 8.99216 0.833008 8.94248C0.833008 8.89281 0.852658 8.84515 0.887669 8.80991L1.0599 8.63542C2.09121 7.60488 3.48951 7.026 4.94746 7.026C6.4054 7.026 7.8037 7.60488 8.83502 8.63542L12.9231 12.7394C12.9581 12.7746 12.9778 12.8223 12.9778 12.872C12.9778 12.9216 12.9581 12.9693 12.9231 13.0045L12.6829 13.2447Z" fill="#006DB8"/>
<path style="mix-blend-mode:multiply" d="M13.0545 12.8731L12.6828 13.2447C11.5773 14.3524 10.0804 14.9808 8.51541 14.9942C7.29114 14.8756 6.14626 14.3348 5.2771 13.4645L4.64258 12.83L8.82814 8.63538L10.7113 6.75222C11.2663 6.19673 11.9253 5.75607 12.6507 5.45541C13.376 5.15475 14.1536 5 14.9388 5C15.724 5 16.5015 5.15475 17.2269 5.45541C17.9523 5.75607 18.6113 6.19673 19.1663 6.75222L13.0545 12.8731Z" fill="url(#paint0_linear)"/>
<defs>
<linearGradient id="paint0_linear" x1="4.64258" y1="10.0019" x2="19.1663" y2="10.0019" gradientUnits="userSpaceOnUse">
<stop stop-color="#B3E2ED"/>
<stop offset="0.41" stop-color="#0DBCE8"/>
</linearGradient>
</defs>
</svg>
