<?xml version="1.0" encoding="utf-8"?>
<!-- Generator: Adobe Illustrator 21.0.0, SVG Export Plug-In . SVG Version: 6.00 Build 0)  -->
<svg version="1.1" id="Layer_1" xmlns="http://www.w3.org/2000/svg" xmlns:xlink="http://www.w3.org/1999/xlink" x="0px" y="0px"
	 viewBox="0 0 862.6 126" style="enable-background:new 0 0 862.6 126;" xml:space="preserve">
<style type="text/css">
	.st0{fill:#2F9A41;}
	.st1{fill:#90C74C;}
	.st2{fill:#453635;}
</style>
<title>bonsai-logo-color</title>
<desc>Created with Sketch.</desc>
<g>
	<path class="st0" d="M216.8,114v-6.7c-5.3,6.7-12.6,10.3-20.8,10.3c-16.9,0-29.9-12.9-29.9-35.5c0-21.9,12.7-35.4,29.9-35.4
		c8,0,15.5,3.4,20.8,10.3V24.8c0-1.1,0.9-2,2-2h13.9c1.1,0,2,0.9,2,2V114c0,1.1-0.9,2-2,2h-13.9C217.7,116,216.8,115.1,216.8,114z
		 M216.8,94.2V70.3c-2.9-4.5-9.4-7.7-15.2-7.7c-10.2,0-17.2,8-17.2,19.6c0,11.7,7,19.7,17.2,19.7C207.4,101.9,213.9,98.6,216.8,94.2
		z"/>
	<path class="st0" d="M239.6,82.2c0-19.1,13.4-35.4,35.6-35.4c22.4,0,35.8,16.2,35.8,35.4s-13.4,35.5-35.8,35.5
		C253,117.7,239.6,101.3,239.6,82.2z M292.5,82.2c0-10.5-6.1-19.6-17.3-19.6c-11,0-17.2,9.1-17.2,19.6c0,10.6,6.1,19.7,17.2,19.7
		C286.4,101.9,292.5,92.8,292.5,82.2z"/>
	<path class="st0" d="M314.3,81.7c0.2-19.6,16.4-35,36-34.9c12.6,0.1,20.6,5.1,25.3,10.7c0.7,0.8,0.6,2-0.2,2.7l-8.7,8.2
		c-0.8,0.8-2.1,0.7-2.8-0.2c-3.2-3.7-7.6-5.6-13-5.6c-10.8,0-18.3,7.8-18.3,19.6c0,11.7,7.5,19.7,18.3,19.7c5.4,0,9.8-2.1,13-5.8
		c0.7-0.8,2-0.9,2.8-0.2l8.7,8.2c0.8,0.7,0.8,1.9,0.2,2.7c-4.7,5.6-12.8,10.9-25.6,10.9C329.3,117.7,314.1,102.7,314.3,81.7z"/>
	<path class="st0" d="M380.6,105.7l5.6-9.4c0.6-1,2-1.3,2.9-0.6c5.4,4.2,14.1,7.9,21.6,7.9c7.7,0,11.3-2.9,11.3-7.1
		c0-11-40-2-40-28.5c0-11.3,9.8-21.2,27.7-21.2c10.5,0,19.1,3.4,25.7,8.1c0.8,0.6,1.1,1.7,0.6,2.6l-5,8.9c-0.6,1.1-2,1.4-3,0.6
		c-4.3-3.5-11.1-6.2-18.2-6.2c-6.4,0-10.6,2.8-10.6,6.6c0,9.9,40.1,1.5,40.1,28.8c0,12.4-10.6,21.5-29.3,21.5
		c-11,0-21.7-3.5-28.9-9.3C380.3,107.7,380.1,106.6,380.6,105.7z"/>
</g>
<g>
	<g id="Page-1_41_">
		<g id="bonsai-logotype-color_21_">
			<path id="Fill-43_21_" class="st0" d="M523.5,101.8c10.2,0,17-7.7,17-19.4s-6.8-19.5-17-19.5c-5.4,0-11.6,3-14.7,7.2
				c-0.3,0.4-0.4,0.8-0.4,1.2v22.3c0,0.4,0.1,0.9,0.4,1.2C511.9,98.9,518.1,101.8,523.5,101.8 M490.9,113.7V18.1
				c0-1.1,0.9-2.1,2.1-2.1h13.4c1.1,0,2.1,0.9,2.1,2.1v36.5c0,1,1.2,1.5,1.9,0.7c5.1-5.3,11.7-8,18.7-8c17,0,29.6,13.3,29.6,35.1
				c0,22.3-12.7,35-29.6,35c-7.1,0-13.6-2.8-18.7-8.1c-0.7-0.7-1.9-0.2-1.9,0.7v3.6c0,1.1-0.9,2.1-2.1,2.1h-13.4
				C491.8,115.8,490.9,114.8,490.9,113.7"/>
			<path id="Fill-45_21_" class="st0" d="M614.7,82.3c0-10.4-6.2-19.4-17.1-19.4c-10.9,0-17,9-17,19.4c0,10.5,6.1,19.5,17,19.5
				C608.5,101.8,614.7,92.8,614.7,82.3 M562.3,82.3c0-18.9,13.3-35,35.2-35c22.1,0,35.4,16,35.4,35c0,19.1-13.3,35.1-35.4,35.1
				C575.6,117.4,562.3,101.4,562.3,82.3"/>
			<path id="Fill-47_21_" class="st0" d="M685.7,115.8c-1.1,0-2.1-0.9-2.1-2.1V75.4c0-9.3-4.8-12.4-12.3-12.4
				c-6.6,0-11.8,3.5-14.8,7.3c-0.3,0.4-0.4,0.8-0.4,1.3v42.2c0,1.1-0.9,2.1-2.1,2.1h-13.4c-1.1,0-2.1-0.9-2.1-2.1V51.1
				c0-1.1,0.9-2.1,2.1-2.1h13.4c1.1,0,2.1,0.9,2.1,2.1v3.8c0,1,1.2,1.5,1.9,0.8c4.6-4.4,12-8.4,21.5-8.4c14.7,0,21.7,8.3,21.7,21.3
				v45.1c0,1.1-0.9,2.1-2.1,2.1H685.7z"/>
			<path id="Fill-49_21_" class="st0" d="M707.6,105.6l5.4-8.8c0.6-1.1,2-1.3,3-0.5c5.2,4,13.9,7.6,21.3,7.6c7.6,0,11.2-3,11.2-7.2
				c0-4.6-6.1-5.8-13.4-7.2c-11.5-2.2-26.3-5.1-26.3-21.2c0-11.2,9.8-21,27.4-21c10.5,0,19,3.3,25.4,8c0.9,0.6,1.2,1.8,0.6,2.7
				l-4.8,8.2c-0.7,1.1-2.1,1.3-3.1,0.5c-4.3-3.5-10.9-6-17.9-6c-6.4,0-10.5,2.9-10.5,6.6c0,3.9,5.3,5,12.7,6.5
				c11.5,2.2,26.8,5.4,26.8,22.1c0,12.2-10.4,21.4-28.9,21.4c-10.9,0-21.5-3.4-28.5-9.2C707.2,107.6,707.1,106.4,707.6,105.6"/>
			<path id="Fill-51_21_" class="st1" d="M816.6,99v-6.8c0-0.5-0.2-1-0.5-1.3c-3-3.5-8.3-5.2-13.6-5.2c-6.9,0-12.6,3.6-12.6,10.1
				c0,6.2,5.7,9.8,12.6,9.8c5.4,0,10.6-1.7,13.6-5.2C816.4,99.9,816.6,99.5,816.6,99 M816.6,113.7v-2.1c0-1-1.2-1.5-1.9-0.8
				c-4.7,4.2-11.7,6.6-19.3,6.6c-10.6,0-23.2-7.2-23.2-22.1c0-15.6,12.6-21.6,23.2-21.6c7.7,0,14.7,2.2,19.3,6.3
				c0.7,0.6,1.9,0.2,1.9-0.8v-6.3c0-6.8-5.8-11.2-14.7-11.2c-6.4,0-12.4,2.1-17.7,6.3c-1,0.8-2.4,0.5-3.1-0.6l-4.6-8.1
				c-0.5-0.9-0.3-2,0.5-2.6c8-6.4,17.9-9.4,27.9-9.4c15.2,0,29.2,6.1,29.2,25.3v41.1c0,1.1-0.9,2.1-2.1,2.1h-13.4
				C817.5,115.8,816.6,114.8,816.6,113.7"/>
			<path id="Fill-53_21_" class="st1" d="M841.6,31.3c0-7.1,7.2-12.3,14.3-9.7c3.5,1.3,6.1,4.4,6.6,8.1c0.9,6.5-4.1,12.1-10.4,12.1
				C846.4,41.8,841.6,37.1,841.6,31.3"/>
			<path id="Fill-55_21_" class="st1" d="M843.4,113.7V51.1c0-1.1,0.9-2.1,2.1-2.1h13.4c1.1,0,2.1,0.9,2.1,2.1v62.6
				c0,1.1-0.9,2.1-2.1,2.1h-13.4C844.3,115.8,843.4,114.8,843.4,113.7"/>
		</g>
	</g>
</g>
<circle class="st0" cx="461.5" cy="110.2" r="10.4"/>
<g id="Page-1_4_">
	<g id="bonsai-logomark-black_2_">
		<g id="Page-1_5_">
			<path id="Fill-1_2_" class="st0" d="M27.2,23c0.4,0,0.7-0.4,0.7-0.7V18c0-0.4,0.4-0.7,0.7-0.7h17.2c0.4,0,0.7-0.4,0.7-0.7v-0.7
				c0-0.4-0.4-0.7-0.7-0.7h-7.9c-0.4,0-0.7-0.4-0.7-0.7v-2.2c0-0.4,0.4-0.7,0.7-0.7h11.8c0.4,0,0.7,0.4,0.7,0.7v7.9
				c0,0.4-0.4,0.7-0.7,0.7h-7.9c-0.4,0-0.7,0.4-0.7,0.7V28c0,0.4,0.4,0.7,0.7,0.7h11c0.4,0,0.7,0.4,0.7,0.7v2.2
				c0,0.4-0.4,0.7-0.7,0.7H34.9c-0.4,0-0.7-0.4-0.7-0.7v-2.2c0-0.4,0.4-0.7,0.7-0.7h1.6c0.4,0,0.7-0.4,0.7-0.7v-6.5
				c0-0.4-0.4-0.7-0.7-0.7h-3.9c-0.4,0-0.7,0.4-0.7,0.7v4.3c0,0.4-0.4,0.7-0.7,0.7H19.4c-0.4,0-0.7-0.4-0.7-0.7v-2.1
				c0-0.4,0.4-0.7,0.7-0.7H27.2z"/>
			<path id="Fill-3_2_" class="st0" d="M73.6,28.1c0,0.4,0.4,0.7,0.7,0.7h16.4c0.4,0,0.7-0.4,0.7-0.7v-0.7c0-0.4-0.4-0.7-0.7-0.7H86
				c-0.4,0-0.7-0.4-0.7-0.7v-2.2c0-0.4,0.4-0.7,0.7-0.7h8.6c0.4,0,0.7,0.4,0.7,0.7v7.9c0,0.4-0.4,0.7-0.7,0.7h-7.9
				c-0.4,0-0.7,0.4-0.7,0.7v0.7c0,0.4,0.4,0.7,0.7,0.7h14c0.4,0,0.7,0.4,0.7,0.7v10.1c0,0.4,0.4,0.7,0.7,0.7h6.3
				c0.4,0,0.7,0.4,0.7,0.7V49c0,0.4-0.4,0.7-0.7,0.7H98.3c-0.4,0-0.7-0.4-0.7-0.7V39c0-0.4-0.4-0.7-0.7-0.7h-14
				c-0.4,0-0.7-0.4-0.7-0.7v-4.3c0-0.4-0.4-0.7-0.7-0.7h-0.9c-0.4,0-0.7,0.4-0.7,0.7v4.2c0,0.4-0.4,0.7-0.7,0.7h-2.4
				c-0.4,0-0.7-0.4-0.7-0.7v-4.3c0-0.4-0.4-0.7-0.7-0.7h-4.7c-0.4,0-0.7-0.4-0.7-0.7v-4.3c0-0.4-0.4-0.7-0.7-0.7h-0.9
				c-0.4,0-0.7,0.4-0.7,0.7v4.4c0,0.4-0.4,0.7-0.7,0.7h-7.1c-0.4,0-0.7-0.4-0.7-0.7v-2.2c0-0.4,0.4-0.7,0.7-0.7h3.2
				c0.4,0,0.7-0.4,0.7-0.7v-4.4c0-0.4,0.4-0.7,0.7-0.7h8.6c0.4,0,0.7,0.4,0.7,0.7L73.6,28.1L73.6,28.1z"/>
			<path id="Fill-5_2_" class="st0" d="M63.5,43.9c-0.4,0-0.7,0.4-0.7,0.7v1.5c0,0.4-0.4,0.7-0.7,0.7h-8.7c-0.4,0-0.7-0.4-0.7-0.7
				v-2.2c0-0.4,0.4-0.7,0.7-0.7h4.7c0.4,0,0.7-0.4,0.7-0.7v-1.4c0-0.4,0.4-0.7,0.7-0.7h7.1c0.4,0,0.7,0.4,0.7,0.7v2.2
				c0,0.4-0.4,0.7-0.7,0.7L63.5,43.9L63.5,43.9z"/>
			<path id="Fill-7_2_" class="st0" d="M32.5,9.3c-0.4,0-0.7,0.4-0.7,0.7v4.4c0,0.4-0.4,0.7-0.7,0.7h-2.5c-0.4,0-0.7-0.4-0.7-0.7
				V6.5c0-0.4,0.4-0.7,0.7-0.7h13.3c0.4,0,0.7,0.4,0.7,0.7v2.1c0,0.4-0.4,0.7-0.7,0.7H32.5z"/>
			<path id="Fill-9_2_" class="st0" d="M65.8,5.1c0,0.4,0.4,0.7,0.7,0.7h4.7c0.4,0,0.7,0.4,0.7,0.7v2.1c0,0.4-0.4,0.7-0.7,0.7h-8.6
				C62.4,9.4,62,9,62,8.7V4.3c0-0.4-0.4-0.7-0.7-0.7H51.1c-0.4,0-0.7,0.4-0.7,0.7V5c0,0.4,0.4,0.7,0.7,0.7h4.7
				c0.4,0,0.7,0.4,0.7,0.7v4.3c0,0.4,0.4,0.7,0.7,0.7h15.6c0.4,0,0.7,0.4,0.7,0.7v7.9c0,0.4-0.4,0.7-0.7,0.7h-2.4
				c-0.4,0-0.7-0.4-0.7-0.7v-4.4c0-0.4-0.4-0.7-0.7-0.7H53.4c-0.4,0-0.7-0.4-0.7-0.7V10c0-0.4-0.4-0.7-0.7-0.7h-4.7
				c-0.4,0-0.7-0.4-0.7-0.7V0.7C46.6,0.4,46.8,0,47.3,0h17.9c0.4,0,0.7,0.4,0.7,0.7L65.8,5.1L65.8,5.1z"/>
			<path id="Fill-11_2_" class="st0" d="M97.7,21.6c0-0.4-0.4-0.7-0.7-0.7H80.5c-0.4,0-0.7,0.4-0.7,0.7v4.3c0,0.4-0.4,0.7-0.7,0.7
				h-2.4c-0.4,0-0.7-0.4-0.7-0.7v-7.9c0-0.4,0.4-0.7,0.7-0.7h7.9c0.4,0,0.7-0.4,0.7-0.7v-0.7c0-0.4-0.4-0.7-0.7-0.7h-6.3
				c-0.4,0-0.7-0.4-0.7-0.7v-2.2c0-0.4,0.4-0.7,0.7-0.7h10.1c0.4,0,0.7,0.4,0.7,0.7v4.4c0,0.4,0.4,0.7,0.7,0.7h11
				c0.4,0,0.7,0.4,0.7,0.7v5c0,0.4-0.4,0.7-0.7,0.7h-2.4c-0.4,0-0.7-0.4-0.7-0.7L97.7,21.6L97.7,21.6z"/>
			<path id="Fill-13_2_" class="st0" d="M103.9,30.2c0-0.4-0.4-0.7-0.7-0.7h-4.7c-0.4,0-0.7-0.4-0.7-0.7v-2.2c0-0.4,0.4-0.7,0.7-0.7
				h8.6c0.4,0,0.7,0.4,0.7,0.7v10.9c0,0.4-0.4,0.7-0.7,0.7h-2.5c-0.4,0-0.7-0.4-0.7-0.7L103.9,30.2L103.9,30.2z"/>
			<path id="Fill-15_2_" class="st0" d="M121,50.4c0-0.4-0.4-0.7-0.7-0.7h-4.7c-0.4,0-0.7-0.4-0.7-0.7v-4.3c0-0.4-0.4-0.7-0.7-0.7
				h-9.4c-0.4,0-0.7-0.4-0.7-0.7v-2.1c0-0.4,0.4-0.7,0.7-0.7H118c0.4,0,0.7,0.4,0.7,0.7v4.4c0,0.4,0.4,0.7,0.7,0.7h4.7
				c0.4,0,0.7,0.4,0.7,0.7v7.9c0,0.4-0.4,0.7-0.7,0.7h-2.4c-0.4,0-0.7-0.4-0.7-0.7L121,50.4L121,50.4z"/>
			<path id="Fill-17_2_" class="st0" d="M113.1,57.2c-0.4,0-0.7,0.4-0.7,0.7v2.8c0,0.4-0.4,0.7-0.7,0.7h-2.5c-0.4,0-0.7-0.4-0.7-0.7
				v-6.5c0-0.4,0.4-0.7,0.7-0.7h8.7c0.4,0,0.7,0.4,0.7,0.7v2.2c0,0.4-0.4,0.7-0.7,0.7L113.1,57.2z"/>
			<path id="Fill-19_2_" class="st0" d="M61.9,20.9c-0.4,0-0.7,0.4-0.7,0.7v4.3c0,0.4-0.4,0.7-0.7,0.7H47.3c-0.4,0-0.7-0.4-0.7-0.7
				v-2.2c0-0.4,0.4-0.7,0.7-0.7h9.4c0.4,0,0.7-0.4,0.7-0.7v-0.7c0-0.4-0.4-0.7-0.7-0.7h-1.6c-0.4,0-0.7-0.4-0.7-0.7v-2.2
				c0-0.4,0.4-0.7,0.7-0.7h8.6c0.4,0,0.7,0.4,0.7,0.7v2.2c0,0.4-0.4,0.7-0.7,0.7L61.9,20.9L61.9,20.9z"/>
			<path id="Fill-21_2_" class="st0" d="M97.6,61.2c-0.4,0-0.7,0.4-0.7,0.7v4.4c0,0.4-0.4,0.7-0.7,0.7h-2.4c-0.4,0-0.7-0.4-0.7-0.7
				v-7.9c0-0.4,0.4-0.7,0.7-0.7h7.9c0.4,0,0.7-0.4,0.7-0.7v-0.7c0-0.4-0.4-0.7-0.7-0.7H89.1c-0.4,0-0.7-0.4-0.7-0.7v-10
				c0-0.4-0.4-0.7-0.7-0.7h-0.8c-0.4,0-0.7,0.4-0.7,0.7V57c0,0.4-0.4,0.7-0.7,0.7h-8.7c-0.4,0-0.7-0.4-0.7-0.7v-9.4
				c0-0.4-0.4-0.7-0.7-0.7h-4.7c-0.4,0-0.7-0.4-0.7-0.7v-7.2c0-0.4-0.4-0.7-0.7-0.7H53.4c-0.4,0-0.7-0.4-0.7-0.7v-2.2
				c0-0.4,0.4-0.7,0.7-0.7h19.4c0.4,0,0.7,0.4,0.7,0.7v7.2c0,0.4,0.4,0.7,0.7,0.7h4.7c0.4,0,0.7,0.4,0.7,0.7v9
				c0,0.4,0.4,0.7,0.7,0.7h0.9c0.4,0,0.7-0.4,0.7-0.7V41.1c0-0.4,0.4-0.7,0.7-0.7h11.7c0.4,0,0.7,0.4,0.7,0.7v2.2
				c0,0.4-0.4,0.7-0.7,0.7h-1.6c-0.4,0-0.7,0.4-0.7,0.7v6.4c0,0.4,0.4,0.7,0.7,0.7h12.5c0.4,0,0.7,0.4,0.7,0.7v7.9
				c0,0.4-0.4,0.7-0.7,0.7H97.6z"/>
			<path id="Fill-23_2_" class="st0" d="M111.7,68.7c-0.4,0-0.7,0.4-0.7,0.7v8.7c0,0.4-0.4,0.7-0.7,0.7h-2.4c-0.4,0-0.7-0.4-0.7-0.7
				v-8.7c0-0.4-0.4-0.7-0.7-0.7h-4.7c-0.4,0-0.7-0.4-0.7-0.7v-2.2c0-0.4,0.4-0.7,0.7-0.7h14.1c0.4,0,0.7-0.4,0.7-0.7V60
				c0-0.4,0.4-0.7,0.7-0.7h2.5c0.4,0,0.7,0.4,0.7,0.7v7.9c0,0.4-0.4,0.7-0.7,0.7L111.7,68.7L111.7,68.7z"/>
			<path id="Fill-25_2_" class="st0" d="M117.9,74.4c-0.4,0-0.7,0.4-0.7,0.7v0.6c0,0.4,0.4,0.7,0.7,0.7h11c0.4,0,0.7,0.4,0.7,0.7
				v7.9c0,0.4-0.4,0.7-0.7,0.7h-7.1c-0.4,0-0.7-0.4-0.7-0.7v-2.1c0-0.4,0.4-0.7,0.7-0.7h3.2c0.4,0,0.7-0.4,0.7-0.7v-0.7
				c0-0.4-0.4-0.7-0.7-0.7h-7.1c-0.4,0-0.7,0.4-0.7,0.7v4.4c0,0.4-0.4,0.7-0.7,0.7h-4.7c-0.4,0-0.7,0.4-0.7,0.7v0.7
				c0,0.4,0.4,0.7,0.7,0.7h14.1c0.4,0,0.7,0.4,0.7,0.7V91c0,0.4-0.4,0.7-0.7,0.7h-17.9c-0.4,0-0.7-0.4-0.7-0.7v-4.3
				c0-0.4-0.4-0.7-0.7-0.7h-4.7c-0.4,0-0.7-0.4-0.7-0.7v-4.4c0-0.4-0.4-0.7-0.7-0.7h-8.8c-0.4,0-0.7-0.4-0.7-0.7v-7.9
				c0-0.4,0.4-0.7,0.7-0.7h9.5c0.4,0,0.7,0.4,0.7,0.7v2.2c0,0.4-0.4,0.7-0.7,0.7h-5.6c-0.4,0-0.7,0.4-0.7,0.7v0.5
				c0,0.4,0.4,0.7,0.7,0.7h8.7c0.4,0,0.7,0.4,0.7,0.7v4.4c0,0.4,0.4,0.7,0.7,0.7h7.1c0.4,0,0.7-0.4,0.7-0.7v-10
				c0-0.4,0.4-0.7,0.7-0.7h7.9c0.4,0,0.7-0.4,0.7-0.7v-4.4c0-0.4,0.4-0.7,0.7-0.7h2.4c0.4,0,0.7,0.4,0.7,0.7v7.9
				c0,0.4-0.4,0.7-0.7,0.7H117.9z"/>
			<path id="Fill-27_2_" class="st0" d="M10.8,32.4c-0.4,0-0.7,0.4-0.7,0.7v0.7c0,0.4,0.4,0.7,0.7,0.7h7.9c0.4,0,0.7,0.4,0.7,0.7
				v4.4c0,0.4,0.4,0.7,0.7,0.7h7.1c0.4,0,0.7-0.4,0.7-0.7v-10c0-0.4,0.4-0.7,0.7-0.7H31c0.4,0,0.7,0.4,0.7,0.7V34
				c0,0.4,0.4,0.7,0.7,0.7h11c0.4,0,0.7,0.4,0.7,0.7v7.9c0,0.4-0.4,0.7-0.7,0.7h-5.6c-0.4,0-0.7-0.4-0.7-0.7v-2.3
				c0-0.4,0.4-0.7,0.7-0.7h1.6c0.4,0,0.7-0.4,0.7-0.7v-0.7c0-0.4-0.4-0.7-0.7-0.7h-7.1c-0.4,0-0.7,0.4-0.7,0.7v4.4
				c0,0.4-0.4,0.7-0.7,0.7H20.1c-0.4,0-0.7,0.4-0.7,0.7v2.8c0,0.4-0.4,0.7-0.7,0.7h-2.5c-0.4,0-0.7-0.4-0.7-0.7v-8.7
				c0-0.4-0.4-0.7-0.7-0.7H6.9c-0.4,0-0.7-0.4-0.7-0.7v-7.9c0-0.4,0.4-0.7,0.7-0.7h17.9c0.4,0,0.7,0.4,0.7,0.7v2.2
				c0,0.4-0.4,0.7-0.7,0.7L10.8,32.4L10.8,32.4z"/>
			<path id="Fill-29_2_" class="st0" d="M50.4,48.2c0,0.4,0.4,0.7,0.7,0.7h4.7c0.4,0,0.7,0.4,0.7,0.7v2.2c0,0.4-0.4,0.7-0.7,0.7
				h-8.6c-0.4,0-0.7-0.4-0.7-0.7V35.2c0-0.4,0.4-0.7,0.7-0.7h2.5c0.4,0,0.7,0.4,0.7,0.7L50.4,48.2L50.4,48.2z"/>
			<path id="Fill-31_2_" class="st0" d="M10.8,43.9c-0.4,0-0.7,0.4-0.7,0.7v7.2c0,0.4-0.4,0.7-0.7,0.7H6.9c-0.4,0-0.7-0.4-0.7-0.7
				V41.1c0-0.4,0.4-0.7,0.7-0.7h5.5c0.4,0,0.7,0.4,0.7,0.7v2.2c0,0.4-0.4,0.7-0.7,0.7L10.8,43.9L10.8,43.9z"/>
			<path id="Fill-33_2_" class="st0" d="M3.8,54c0,0.4,0.4,0.7,0.7,0.7h7.1c0.4,0,0.7-0.4,0.7-0.7v-1.5c0-0.4,0.4-0.7,0.7-0.7h11
				c0.4,0,0.7-0.4,0.7-0.7v-4.3c0-0.4,0.4-0.7,0.7-0.7h18c0.4,0,0.7,0.4,0.7,0.7V54c0,0.4,0.4,0.7,0.7,0.7h4.7
				c0.4,0,0.7,0.4,0.7,0.7v2.2c0,0.4-0.4,0.7-0.7,0.7h-8.7c-0.4,0-0.7-0.4-0.7-0.7v-1.5c0-0.4-0.4-0.7-0.7-0.7h-4.7
				c-0.4,0-0.7-0.4-0.7-0.7v-2.2c0-0.4,0.4-0.7,0.7-0.7h4.7c0.4,0,0.7-0.4,0.7-0.7v-0.7c0-0.4-0.4-0.7-0.7-0.7H29.4
				c-0.4,0-0.7,0.4-0.7,0.7v10c0,0.4-0.4,0.7-0.7,0.7h-4.7c-0.4,0-0.7,0.4-0.7,0.7v4.4c0,0.4-0.4,0.7-0.7,0.7h-11
				c-0.4,0-0.7,0.4-0.7,0.7v1.5c0,0.4-0.4,0.7-0.7,0.7H6.9c-0.4,0-0.7-0.4-0.7-0.7v-8c0-0.4,0.4-0.7,0.7-0.7h2.4
				c0.4,0,0.7,0.4,0.7,0.7v1.5c0,0.4,0.4,0.7,0.7,0.7h7.1c0.4,0,0.7-0.4,0.7-0.7v-4.3c0-0.4,0.4-0.7,0.7-0.7h4.7
				c0.4,0,0.7-0.4,0.7-0.7v-0.7c0-0.4-0.4-0.7-0.7-0.7H17c-0.4,0-0.7,0.4-0.7,0.7v1.5c0,0.4-0.4,0.7-0.7,0.7H0.7
				C0.4,58.3,0,58,0,57.6V46.8c0-0.4,0.4-0.7,0.7-0.7h2.5c0.4,0,0.7,0.4,0.7,0.7L3.8,54L3.8,54z"/>
			<path id="Fill-35_2_" class="st0" d="M73.3,48.9v2.9c0,0.4-0.4,0.7-0.7,0.7H61.9c-0.4,0-0.7-0.4-0.7-0.7v-2.9"/>
			<path id="Fill-37_2_" class="st2" d="M102.2,88.8c0-0.3-7.4-1.2-12.1-2.6c-3.7-1.2-5.8-2.2-7.6-3.1c-1.1-0.6-0.4-1.8,0.1-2.3
				c1.6-1.7,5.6-4.6,5.3-4.9c-0.3-0.5-4.7,3-7.9,5c-0.5,0.4-1.2,0.5-1.8,0.3c-8.4-2.6-19.2-5.7-19.2-10.2s6.8-5.4,16.4-5.2
				c3.2,0.1,9.4-1.8,11.8-2.9c0.2-0.1,0.1-0.4-0.1-0.3c-3.5,1.1-8.7,2.4-12.8,1.8c-7.2-0.9-8.5-1.5-10.9-0.7
				C63,63.7,62.8,63.4,63,63c1-2,3.3-4.1,8.1-5.9c0.2-0.1,0-0.3-0.1-0.3c-4.4,0.7-9,2-11.2,4.2c-0.2,0.2-0.5,0-0.5-0.2
				c-0.3-3.3-4.6-4.7-5.8-4.9c-0.1,0-0.3,0.1-0.1,0.2c1.7,1.1,5,4.2,3,7.3c-5.1,7.9-14.6,9.4-16.3,16.3c-1.5,5.9,13.2,15.4,13.2,21
				c0,8.4-16.9,13.3-16.9,13.3c-0.6,0.3-0.5,1.3,0.3,1.3h20.7h24.6H90c0.6,0,1-0.5,0.8-1.2c-4-14.2-32.1-23.7-38-28.9
				c-1.5-1.3-2.6-2.7-1.8-4.6c2.7-5.9,29.9,5.8,40.9,7.7C94.3,88.7,102.2,89.2,102.2,88.8"/>
			<path id="Fill-39_2_" class="st2" d="M44.6,70.6c-2.5-2.5-7.9-7.1-9.6-8.6c-0.1-0.1-0.3,0-0.2,0.2c1.4,2.3,2.9,5.3,3.7,6.7
				c0.2,0.3,0,0.5-0.4,0.5c-2.3-0.1-7.5-0.3-10.5-0.4c-0.2,0-0.2,0.3,0,0.3c3.7,0.6,8.8,1.8,14.1,4c0.3,0.1,0.5,0.1,0.7-0.1
				c0.6-0.5,1.3-0.9,2-1.5C44.8,71.5,44.9,70.9,44.6,70.6"/>
			<path id="Fill-41_2_" class="st2" d="M91.7,126c3.7,0,6.8-3.3,7.3-7.5c0.1-0.5-0.4-1.1-0.9-1.1H29.9c-0.5,0-1,0.5-0.9,1.1
				c0.5,4.2,3.6,7.5,7.3,7.5H91.7z"/>
		</g>
	</g>
</g>
</svg>
