<?xml version="1.0" encoding="UTF-8" standalone="no"?>
<svg width="800px" height="200px" viewBox="0 0 800 200" version="1.1" xmlns="http://www.w3.org/2000/svg" xmlns:xlink="http://www.w3.org/1999/xlink">
    <!-- Generator: Sketch 40.3 (33839) - http://www.bohemiancoding.com/sketch -->
    <title>button_pigeon</title>
    <desc>Created with Sketch.</desc>
    <defs>
        <polygon id="path-1" points="0 8.25955863 62.88 0 62.88 77.5737747 0 85.8333333"></polygon>
        <mask id="mask-2" maskContentUnits="userSpaceOnUse" maskUnits="objectBoundingBox" x="-2" y="-2" width="66.88" height="89.8333333">
            <rect x="-2" y="-2" width="66.88" height="89.8333333" fill="white"></rect>
            <use xlink:href="#path-1" fill="black"></use>
        </mask>
        <polygon id="path-3" points="6 12.2595586 68.88 4 68.88 81.5737747 6 89.8333333"></polygon>
        <mask id="mask-4" maskContentUnits="userSpaceOnUse" maskUnits="objectBoundingBox" x="-2" y="-2" width="66.88" height="89.8333333">
            <rect x="4" y="2" width="66.88" height="89.8333333" fill="white"></rect>
            <use xlink:href="#path-3" fill="black"></use>
        </mask>
        <polygon id="path-5" points="14 16.2595586 76.88 8 76.88 85.5737747 14 93.8333333"></polygon>
        <mask id="mask-6" maskContentUnits="userSpaceOnUse" maskUnits="objectBoundingBox" x="-2" y="-2" width="66.88" height="89.8333333">
            <rect x="12" y="6" width="66.88" height="89.8333333" fill="white"></rect>
            <use xlink:href="#path-5" fill="black"></use>
        </mask>
        <polygon id="path-7" points="20 20.2595586 84.88 12 84.88 87.5737747 20 100"></polygon>
        <mask id="mask-8" maskContentUnits="userSpaceOnUse" maskUnits="objectBoundingBox" x="-2" y="-2" width="68.88" height="92">
            <rect x="18" y="10" width="68.88" height="92" fill="white"></rect>
            <use xlink:href="#path-7" fill="black"></use>
        </mask>
        <polygon id="path-9" points="0 9.16666667 19 20.0666667 19 100 0 86.1678363"></polygon>
        <mask id="mask-10" maskContentUnits="userSpaceOnUse" maskUnits="objectBoundingBox" x="-2" y="-2" width="23" height="94.8333333">
            <rect x="-2" y="7.16666667" width="23" height="94.8333333" fill="white"></rect>
            <use xlink:href="#path-9" fill="black"></use>
        </mask>
        <ellipse id="path-11" cx="8.33333333" cy="31.6666667" rx="3.33333333" ry="5"></ellipse>
        <mask id="mask-12" maskContentUnits="userSpaceOnUse" maskUnits="objectBoundingBox" x="0" y="0" width="6.66666667" height="10" fill="white">
            <use xlink:href="#path-11"></use>
        </mask>
    </defs>
    <g id="doc" stroke="none" stroke-width="1" fill="none" fill-rule="evenodd">
        <g id="pictures-of-products" transform="translate(-100.000000, -477.000000)">
            <g id="pigeon" transform="translate(100.000000, 477.000000)">
                <rect id="Rectangle-2" fill="#FFFFFF" x="0" y="0" width="800" height="200"></rect>
                <g id="box" transform="translate(50.000000, 47.000000)">
                    <g id="Group">
                        <use id="Rectangle-4" stroke="#2467AF" mask="url(#mask-2)" stroke-width="4" stroke-linecap="round" stroke-linejoin="round" xlink:href="#path-1"></use>
                        <g id="Rectangle-4">
                            <use fill="#FFFFFF" fill-rule="evenodd" xlink:href="#path-3"></use>
                            <use stroke="#2467AF" mask="url(#mask-4)" stroke-width="4" stroke-linecap="round" stroke-linejoin="round" xlink:href="#path-3"></use>
                        </g>
                        <g id="Rectangle-4">
                            <use fill="#FFFFFF" fill-rule="evenodd" xlink:href="#path-5"></use>
                            <use stroke="#2467AF" mask="url(#mask-6)" stroke-width="4" stroke-linecap="round" stroke-linejoin="round" xlink:href="#path-5"></use>
                        </g>
                        <g id="Combined-Shape">
                            <use fill="#FFFFFF" fill-rule="evenodd" xlink:href="#path-7"></use>
                            <use stroke="#2467AF" mask="url(#mask-8)" stroke-width="4" stroke-linecap="round" stroke-linejoin="round" xlink:href="#path-7"></use>
                        </g>
                        <g id="Rectangle">
                            <use fill="#FFFFFF" fill-rule="evenodd" xlink:href="#path-9"></use>
                            <use stroke="#2467AF" mask="url(#mask-10)" stroke-width="4" stroke-linecap="round" stroke-linejoin="round" xlink:href="#path-9"></use>
                        </g>
                        <use id="Oval-2" stroke="#2467AF" mask="url(#mask-12)" stroke-width="4" xlink:href="#path-11"></use>
                    </g>
                </g>
                <polygon id="Rectangle-4" fill="#FFFFFF" points="97 92 155 92 155 150 97 150"></polygon>
                <path d="M106,129.0577 C106,129.0577 112.46528,140.219534 131.22869,140.219534 C149.992101,140.219534 148.685774,121.235292 150.39333,118.964772 C152.100885,116.694252 154.360001,115.344382 154.360001,115.344382 C154.360001,115.344382 151.535847,114.227784 149.807556,112.786677 C148.079266,111.345571 145.472833,106 139.309253,106 C133.145673,106 126.797548,115.377558 126.797548,115.377558 C126.797548,115.377558 126.797548,112.786677 122.783186,110.677893 C118.768823,108.569109 106.814899,106.526678 106.814899,106.526678 C106.814899,106.526678 105.466065,117.659483 108.923683,123.358591 C112.381301,129.0577 114.19046,129.076362 114.19046,129.076362 L106,129.0577 Z M143.212681,117.38785 C144.385347,117.38785 145.33598,116.437216 145.33598,115.264551 C145.33598,114.091885 144.385347,113.141252 143.212681,113.141252 C142.040015,113.141252 141.089382,114.091885 141.089382,115.264551 C141.089382,116.437216 142.040015,117.38785 143.212681,117.38785 Z" id="Path-107" fill="#2467AF"></path>
                <text id="iDa-Mobile-PiGeon-AP" font-family="HelveticaNeue, Helvetica Neue" font-size="36" font-weight="normal" fill="#000000">
                    <tspan x="206" y="113">iDa Mobile PiGeon API</tspan>
                </text>
            </g>
        </g>
    </g>
</svg>