<?xml version="1.0" encoding="UTF-8" standalone="no"?>
<svg width="800px" height="200px" viewBox="0 0 800 200" version="1.1" xmlns="http://www.w3.org/2000/svg" xmlns:xlink="http://www.w3.org/1999/xlink">
    <!-- Generator: Sketch 40.3 (33839) - http://www.bohemiancoding.com/sketch -->
    <title>button_pro</title>
    <desc>Created with Sketch.</desc>
    <defs>
        <polygon id="path-1" points="0 8.25955863 62.88 0 62.88 77.5737747 0 85.8333333"></polygon>
        <mask id="mask-2" maskContentUnits="userSpaceOnUse" maskUnits="objectBoundingBox" x="-2" y="-2" width="66.88" height="89.8333333">
            <rect x="-2" y="-2" width="66.88" height="89.8333333" fill="white"></rect>
            <use xlink:href="#path-1" fill="black"></use>
        </mask>
        <polygon id="path-3" points="6 12.2595586 68.88 4 68.88 81.5737747 6 89.8333333"></polygon>
        <mask id="mask-4" maskContentUnits="userSpaceOnUse" maskUnits="objectBoundingBox" x="-2" y="-2" width="66.88" height="89.8333333">
            <rect x="4" y="2" width="66.88" height="89.8333333" fill="white"></rect>
            <use xlink:href="#path-3" fill="black"></use>
        </mask>
        <polygon id="path-5" points="14 16.2595586 76.88 8 76.88 85.5737747 14 93.8333333"></polygon>
        <mask id="mask-6" maskContentUnits="userSpaceOnUse" maskUnits="objectBoundingBox" x="-2" y="-2" width="66.88" height="89.8333333">
            <rect x="12" y="6" width="66.88" height="89.8333333" fill="white"></rect>
            <use xlink:href="#path-5" fill="black"></use>
        </mask>
        <polygon id="path-7" points="20 20.2595586 84.88 12 84.88 87.5737747 20 100"></polygon>
        <mask id="mask-8" maskContentUnits="userSpaceOnUse" maskUnits="objectBoundingBox" x="-2" y="-2" width="68.88" height="92">
            <rect x="18" y="10" width="68.88" height="92" fill="white"></rect>
            <use xlink:href="#path-7" fill="black"></use>
        </mask>
        <polygon id="path-9" points="0 9.16666667 19 20.0666667 19 100 0 86.1678363"></polygon>
        <mask id="mask-10" maskContentUnits="userSpaceOnUse" maskUnits="objectBoundingBox" x="-2" y="-2" width="23" height="94.8333333">
            <rect x="-2" y="7.16666667" width="23" height="94.8333333" fill="white"></rect>
            <use xlink:href="#path-9" fill="black"></use>
        </mask>
        <ellipse id="path-11" cx="8.33333333" cy="31.6666667" rx="3.33333333" ry="5"></ellipse>
        <mask id="mask-12" maskContentUnits="userSpaceOnUse" maskUnits="objectBoundingBox" x="0" y="0" width="6.66666667" height="10" fill="white">
            <use xlink:href="#path-11"></use>
        </mask>
    </defs>
    <g id="doc" stroke="none" stroke-width="1" fill="none" fill-rule="evenodd">
        <g id="pictures-of-products" transform="translate(-100.000000, -57.000000)">
            <g id="pro" transform="translate(100.000000, 57.000000)">
                <rect id="Rectangle-2" fill="#FFFFFF" x="0" y="0" width="800" height="200"></rect>
                <g id="box" transform="translate(50.000000, 47.000000)">
                    <g id="Group">
                        <use id="Rectangle-4" stroke="#2467AF" mask="url(#mask-2)" stroke-width="4" stroke-linecap="round" stroke-linejoin="round" xlink:href="#path-1"></use>
                        <g id="Rectangle-4">
                            <use fill="#FFFFFF" fill-rule="evenodd" xlink:href="#path-3"></use>
                            <use stroke="#2467AF" mask="url(#mask-4)" stroke-width="4" stroke-linecap="round" stroke-linejoin="round" xlink:href="#path-3"></use>
                        </g>
                        <g id="Rectangle-4">
                            <use fill="#FFFFFF" fill-rule="evenodd" xlink:href="#path-5"></use>
                            <use stroke="#2467AF" mask="url(#mask-6)" stroke-width="4" stroke-linecap="round" stroke-linejoin="round" xlink:href="#path-5"></use>
                        </g>
                        <g id="Combined-Shape">
                            <use fill="#FFFFFF" fill-rule="evenodd" xlink:href="#path-7"></use>
                            <use stroke="#2467AF" mask="url(#mask-8)" stroke-width="4" stroke-linecap="round" stroke-linejoin="round" xlink:href="#path-7"></use>
                        </g>
                        <g id="Rectangle">
                            <use fill="#FFFFFF" fill-rule="evenodd" xlink:href="#path-9"></use>
                            <use stroke="#2467AF" mask="url(#mask-10)" stroke-width="4" stroke-linecap="round" stroke-linejoin="round" xlink:href="#path-9"></use>
                        </g>
                        <use id="Oval-2" stroke="#2467AF" mask="url(#mask-12)" stroke-width="4" xlink:href="#path-11"></use>
                    </g>
                </g>
                <polygon id="Rectangle-4" fill="#FFFFFF" points="96 92 154 92 154 150 96 150"></polygon>
                <g id="Group-2" transform="translate(109.000000, 101.000000)" fill="#2467AF">
                    <path d="M35.2434403,8.85793554 L40.2383451,8.85793554 C41.3429907,8.85793554 42.2384828,9.75040651 42.2384828,10.8561815 L42.2384828,39.5914471 C42.2384828,40.6950478 41.3438235,41.589693 40.2383451,41.589693 L30.7105371,41.589693 L30.7105371,23.5541065 C30.7105371,20.4637608 28.5291731,17.1186919 25.7223116,15.7392344 L38.8845243,15.7392344 C39.3869702,15.7392344 39.8110048,15.324723 39.8110048,14.8133971 C39.8110048,14.2985064 39.3962054,13.8875598 38.8845243,13.8875598 L20.8394025,13.8875598 L7.29810639,8.85793554 L11.253716,8.85793554 L27.889093,0.110293849 C28.2435857,-0.0993787972 28.6977142,-0.002203296 28.9377009,0.334677455 L35.2434403,8.85793554 Z M5.957517,41.5033147 C5.50967052,41.3671628 5.12849929,41.0784361 4.87483334,40.697329 C5.22629614,40.9816161 5.58755939,41.2507796 5.957517,41.5033147 Z M21.9560047,12.0358852 L14.8915116,9.35256533 L28.0816799,2.87170408 L34.8672215,12.0358852 L21.9560047,12.0358852 Z" id="Rectangle-111"></path>
                    <path d="M0,11.8015645 C0,10.1461942 1.2637848,9.28019129 2.80104872,9.85912302 L24.403225,17.9944764 C26.4669886,18.7716873 28.1399997,21.1855713 28.1399997,23.3975132 L28.1399997,48.7267717 C28.1399997,50.382142 26.8762149,51.248145 25.3389509,50.6692133 L3.73677469,42.5338599 C1.67301102,41.756649 0,39.342765 0,37.1308231 L0,11.8015645 Z" id="Rectangle-111-Copy-2"></path>
                </g>
                <text id="iDa-Mobile-Pro-API" font-family="HelveticaNeue, Helvetica Neue" font-size="36" font-weight="normal" fill="#000000">
                    <tspan x="206" y="113">iDa Mobile Pro API</tspan>
                </text>
            </g>
        </g>
    </g>
</svg>