<?xml version="1.0" encoding="utf-8"?>
<!-- Generator: Adobe Illustrator 18.0.0, SVG Export Plug-In . SVG Version: 6.00 Build 0)  -->
<!DOCTYPE svg PUBLIC "-//W3C//DTD SVG 1.1//EN" "http://www.w3.org/Graphics/SVG/1.1/DTD/svg11.dtd" [
	<!ENTITY ns_flows "http://ns.adobe.com/Flows/1.0/">
	<!ENTITY ns_extend "http://ns.adobe.com/Extensibility/1.0/">
	<!ENTITY ns_ai "http://ns.adobe.com/AdobeIllustrator/10.0/">
	<!ENTITY ns_graphs "http://ns.adobe.com/Graphs/1.0/">
]>
<svg version="1.1" id="Layer_1" xmlns:x="&ns_extend;" xmlns:i="&ns_ai;" xmlns:graph="&ns_graphs;"
	 xmlns="http://www.w3.org/2000/svg" xmlns:xlink="http://www.w3.org/1999/xlink" xmlns:a="http://ns.adobe.com/AdobeSVGViewerExtensions/3.0/"
	 x="0px" y="0px" viewBox="0 0 165 65" style="enable-background:new 0 0 165 65;" xml:space="preserve">
<g id="Chartboost_Logo_horizontal_1_">
	<g>
		<path style="fill:#8CC647;" d="M138.5,44.4h22.7c0,0,7.1-24.6-9.2-8.7C146.3,41.3,138.5,44.4,138.5,44.4z"/>
		<path style="fill:#8CC647;" d="M139.2,42.2c0,0,5.4-2.8,10.5-7.2c4.5-3.9,8.7-9.6,8.7-9.6l-1.4-5l-4.4,3c0,0-1.9,4.9-5.1,9.4
			C144,37.6,139.2,42.2,139.2,42.2z"/>
	</g>
	<path style="fill:#FFFFFF;" d="M2.3,35.7c0-5.4,4-9,9.3-9c3.8,0,6,2.1,7.2,4.2l-3.2,1.6c-0.7-1.4-2.3-2.5-4.1-2.5
		c-3.2,0-5.5,2.4-5.5,5.7c0,3.3,2.3,5.7,5.5,5.7c1.8,0,3.3-1.1,4.1-2.5l3.2,1.5c-1.2,2.2-3.4,4.3-7.2,4.3
		C6.3,44.7,2.3,41.1,2.3,35.7z"/>
	<path style="fill:#FFFFFF;" d="M29.4,44.4v-7.6c0-1.7-0.9-2.3-2.3-2.3c-1.3,0-2.3,0.7-2.9,1.5v8.5h-3.3V27h3.3v6.4
		c0.8-0.9,2.3-1.9,4.4-1.9c2.8,0,4.1,1.5,4.1,4v8.9H29.4z"/>
	<path style="fill:#FFFFFF;" d="M43.5,44.4v-1.3c-0.9,1-2.3,1.6-4,1.6c-2,0-4.3-1.4-4.3-4.2c0-3,2.3-4.1,4.3-4.1
		c1.7,0,3.1,0.5,4,1.5v-1.6c0-1.3-1.1-2.1-2.8-2.1c-1.3,0-2.6,0.5-3.6,1.5l-1.3-2.3c1.5-1.4,3.5-2,5.5-2c2.9,0,5.5,1.1,5.5,4.8v8.1
		H43.5z M43.5,41.4v-1.6c-0.5-0.7-1.6-1.1-2.7-1.1c-1.3,0-2.4,0.7-2.4,1.9c0,1.2,1.1,1.9,2.4,1.9C41.9,42.5,43,42.1,43.5,41.4z"/>
	<path style="fill:#FFFFFF;" d="M50.1,44.4V31.8h3.3v1.7c0.9-1.1,1.8-2,3.4-2v3.2c-0.2-0.1-0.5-0.1-0.9-0.1c-1.1,0-1.9,0.6-2.5,1.4
		v8.3H50.1z"/>
	<path style="fill:#FFFFFF;" d="M61.2,41.2v-6.5h-2.1v-2.9h2.1v-3.4h3.3v3.4H67v2.9h-2.5v5.6c0,0.8,0.4,1.4,1.1,1.4
		c0.5,0,1-0.2,1.1-0.4l0.7,2.5c-0.5,0.4-1.4,0.8-2.8,0.8C62.4,44.7,61.2,43.5,61.2,41.2z"/>
	<path style="fill:#FFFFFF;" d="M70.3,44.4V27h3.3v6.4c1-1.3,2.4-1.9,3.9-1.9c3.2,0,5.6,2.5,5.6,6.6c0,4.2-2.4,6.6-5.6,6.6
		c-1.5,0-2.9-0.7-3.9-1.9v1.6H70.3z M76.5,41.8c1.9,0,3.2-1.5,3.2-3.7c0-2.2-1.3-3.6-3.2-3.6c-1.1,0-2.3,0.6-2.9,1.5v4.4
		C74.2,41.2,75.4,41.8,76.5,41.8z"/>
	<path style="fill:#FFFFFF;" d="M84.8,38.1c0-3.6,2.5-6.6,6.6-6.6c4.2,0,6.7,3,6.7,6.6c0,3.6-2.5,6.6-6.7,6.6
		C87.3,44.7,84.8,41.7,84.8,38.1z M94.6,38.1c0-2-1.1-3.6-3.2-3.6c-2.1,0-3.2,1.7-3.2,3.6c0,2,1.1,3.7,3.2,3.7
		C93.5,41.8,94.6,40.1,94.6,38.1z"/>
	<path style="fill:#FFFFFF;" d="M99.7,38.1c0-3.6,2.5-6.6,6.6-6.6c4.2,0,6.7,3,6.7,6.6c0,3.6-2.5,6.6-6.7,6.6
		C102.2,44.7,99.7,41.7,99.7,38.1z M109.6,38.1c0-2-1.1-3.6-3.2-3.6c-2.1,0-3.2,1.7-3.2,3.6c0,2,1.1,3.7,3.2,3.7
		C108.4,41.8,109.6,40.1,109.6,38.1z"/>
	<path style="fill:#FFFFFF;" d="M114.4,42.7l1.4-2.4c0.9,0.9,2.8,1.7,4.3,1.7c1.4,0,2.1-0.5,2.1-1.3c0-2.1-7.4-0.4-7.4-5.3
		c0-2.1,1.8-4,5.2-4c2.1,0,3.8,0.7,5,1.7l-1.3,2.3c-0.8-0.8-2.2-1.5-3.7-1.5c-1.2,0-2,0.5-2,1.2c0,1.8,7.5,0.3,7.5,5.4
		c0,2.3-2,4-5.5,4C117.8,44.7,115.7,44,114.4,42.7z"/>
	<path style="fill:#FFFFFF;" d="M128.6,41.2v-6.5h-2.1v-2.9h2.1v-3.4h3.3v3.4h2.5v2.9h-2.5v5.6c0,0.8,0.4,1.4,1.1,1.4
		c0.5,0,1-0.2,1.1-0.4l0.7,2.5c-0.5,0.4-1.4,0.8-2.8,0.8C129.8,44.7,128.6,43.5,128.6,41.2z"/>
</g>
</svg>
