<?xml version="1.0" encoding="utf-8"?>
<!-- Generator: Adobe Illustrator 21.0.0, SVG Export Plug-In . SVG Version: 6.00 Build 0)  -->
<svg version="1.1" id="Layer_1" xmlns="http://www.w3.org/2000/svg" xmlns:xlink="http://www.w3.org/1999/xlink" x="0px" y="0px"
	 viewBox="0 0 13.4 13.5" style="enable-background:new 0 0 13.4 13.5;" xml:space="preserve">
<style type="text/css">
	.st0{fill:#327833;}
</style>
<title>cc</title>
<path class="st0" d="M6.7,0c1.8,0,3.5,0.7,4.8,2c0.6,0.6,1.1,1.4,1.4,2.2c0.3,0.8,0.5,1.7,0.5,2.6c0,0.9-0.2,1.8-0.5,2.6
	c-0.3,0.8-0.8,1.5-1.4,2.1c-0.7,0.6-1.4,1.1-2.2,1.5c-0.8,0.3-1.7,0.5-2.6,0.5c-0.9,0-1.7-0.2-2.5-0.6c-0.8-0.3-1.6-0.8-2.2-1.5
	C1.4,10.8,0.9,10,0.5,9.2C0.1,8.4,0,7.6,0,6.7C0,5.8,0.2,5,0.5,4.2C0.8,3.4,1.3,2.6,2,2C3.2,0.7,4.9,0,6.7,0z M6.7,1.2
	c-1.5,0-2.9,0.5-3.9,1.6C2.3,3.4,1.9,4,1.6,4.6C1.4,5.3,1.2,6,1.2,6.7c0,0.7,0.1,1.4,0.4,2.1c0.6,1.4,1.6,2.4,3,3
	c0.7,0.3,1.4,0.4,2.1,0.4c0.7,0,1.4-0.1,2.1-0.4c0.7-0.3,1.3-0.7,1.8-1.2c1-1,1.6-2.4,1.6-3.9c0-0.7-0.1-1.4-0.4-2.1
	c-0.3-0.7-0.7-1.3-1.2-1.8C9.6,1.8,8.2,1.2,6.7,1.2z M6.6,5.6L5.7,6.1C5.6,5.9,5.5,5.8,5.4,5.6C5.3,5.6,5.1,5.5,5,5.5
	c-0.6,0-0.9,0.4-0.9,1.2c0,0.3,0.1,0.6,0.2,0.9C4.5,7.8,4.7,7.9,5,7.9c0.4,0,0.7-0.2,0.8-0.6l0.8,0.4C6.5,8,6.2,8.3,5.9,8.5
	c-0.3,0.2-0.6,0.3-1,0.3c-0.6,0-1.1-0.2-1.5-0.6c-0.4-0.4-0.5-1-0.5-1.5c0-0.6,0.2-1.1,0.6-1.5c0.4-0.4,0.9-0.6,1.4-0.6
	C5.6,4.6,6.3,5,6.6,5.6z M10.5,5.6L9.6,6.1C9.5,5.9,9.4,5.8,9.3,5.6C9.1,5.6,9,5.5,8.9,5.5C8.3,5.5,8,5.9,8,6.7C8,7,8.1,7.3,8.2,7.6
	c0.2,0.2,0.4,0.3,0.7,0.3c0.4,0,0.7-0.2,0.8-0.6l0.8,0.4C10.3,8,10.1,8.3,9.8,8.5c-0.3,0.2-0.6,0.3-1,0.3c-0.6,0-1.1-0.2-1.5-0.6
	c-0.4-0.4-0.5-1-0.5-1.5c0-0.6,0.2-1.1,0.6-1.5c0.4-0.4,0.9-0.6,1.4-0.6C9.5,4.6,10.2,5,10.5,5.6z"/>
</svg>
