<?xml version="1.0" encoding="UTF-8" standalone="no"?>
<svg xmlns="http://www.w3.org/2000/svg" xmlns:xlink="http://www.w3.org/1999/xlink"
     contentScriptType="application/ecmascript" contentStyleType="text/css" height="304px" preserveAspectRatio="none"
     style="width:307px;height:304px;" version="1.1" viewBox="0 0 307 304" width="307px" zoomAndPan="magnify">
  <defs>
    <filter height="300%" id="fcztp4q" width="300%" x="-1" y="-1">
      <feGaussianBlur result="blurOut" stdDeviation="2.0"/>
      <feColorMatrix in="blurOut" result="blurOut2" type="matrix" values="0 0 0 0 0 0 0 0 0 0 0 0 0 0 0 0 0 0 .4 0"/>
      <feOffset dx="4.0" dy="4.0" in="blurOut2" result="blurOut3"/>
      <feBlend in="SourceGraphic" in2="blurOut3" mode="normal"/>
    </filter>
  </defs>
  <g>
    <rect fill="#FFFFFF" filter="url(#fcztp4q)" height="75.9316" style="stroke: #000000; stroke-width: 2.0;"
          width="285.5" x="13" y="114.1094"/>
    <line style="stroke: #A80036; stroke-width: 1.0; stroke-dasharray: 5.0,5.0;" x1="52" x2="52" y1="38.4883"
          y2="265.6621"/>
    <line style="stroke: #A80036; stroke-width: 1.0; stroke-dasharray: 5.0,5.0;" x1="260.5" x2="260.5" y1="38.4883"
          y2="265.6621"/>
    <rect fill="#FEFECE" filter="url(#fcztp4q)" height="30.4883" style="stroke: #A80036; stroke-width: 1.5;" width="54"
          x="23" y="3"/>
    <text fill="#000000" font-family="sans-serif" font-size="14" lengthAdjust="spacingAndGlyphs" textLength="40" x="30"
          y="23.5352">Client
    </text>
    <rect fill="#FEFECE" filter="url(#fcztp4q)" height="30.4883" style="stroke: #A80036; stroke-width: 1.5;" width="54"
          x="23" y="264.6621"/>
    <text fill="#000000" font-family="sans-serif" font-size="14" lengthAdjust="spacingAndGlyphs" textLength="40" x="30"
          y="285.1973">Client
    </text>
    <rect fill="#FEFECE" filter="url(#fcztp4q)" height="30.4883" style="stroke: #A80036; stroke-width: 1.5;" width="51"
          x="233.5" y="3"/>
    <text fill="#000000" font-family="sans-serif" font-size="14" lengthAdjust="spacingAndGlyphs" textLength="37"
          x="240.5" y="23.5352">Line5
    </text>
    <rect fill="#FEFECE" filter="url(#fcztp4q)" height="30.4883" style="stroke: #A80036; stroke-width: 1.5;" width="51"
          x="233.5" y="264.6621"/>
    <text fill="#000000" font-family="sans-serif" font-size="14" lengthAdjust="spacingAndGlyphs" textLength="37"
          x="240.5" y="285.1973">Line5
    </text>
    <polygon fill="#A80036" points="249,65.4883,259,69.4883,249,73.4883,253,69.4883"
             style="stroke: #A80036; stroke-width: 1.0;"/>
    <line style="stroke: #A80036; stroke-width: 1.0;" x1="52" x2="255" y1="69.4883" y2="69.4883"/>
    <text fill="#000000" font-family="sans-serif" font-size="13" lengthAdjust="spacingAndGlyphs" textLength="127" x="59"
          y="65.0566">POST api/v1/quotes
    </text>
    <polygon fill="#A80036" points="63,94.7988,53,98.7988,63,102.7988,59,98.7988"
             style="stroke: #A80036; stroke-width: 1.0;"/>
    <line style="stroke: #A80036; stroke-width: 1.0; stroke-dasharray: 2.0,2.0;" x1="57" x2="260" y1="98.7988"
          y2="98.7988"/>
    <text fill="#000000" font-family="sans-serif" font-size="13" lengthAdjust="spacingAndGlyphs" textLength="130" x="69"
          y="94.3672">200: quote data json
    </text>
    <rect fill="none" height="75.9316" style="stroke: #000000; stroke-width: 2.0;" width="285.5" x="13" y="114.1094"/>
    <polygon fill="#EEEEEE" points="13,114.1094,87,114.1094,87,121.1094,77,131.1094,13,131.1094,13,114.1094"
             style="stroke: #000000; stroke-width: 2.0;"/>
    <text fill="#000000" font-family="sans-serif" font-size="13" font-weight="bold" lengthAdjust="spacingAndGlyphs"
          textLength="29" x="28" y="127.6777">loop
    </text>
    <text fill="#000000" font-family="sans-serif" font-size="11" font-weight="bold" lengthAdjust="spacingAndGlyphs"
          textLength="53" x="102" y="126.7441">[n-times]
    </text>
    <polygon fill="#A80036" points="249,148.4199,259,152.4199,249,156.4199,253,152.4199"
             style="stroke: #A80036; stroke-width: 1.0;"/>
    <line style="stroke: #A80036; stroke-width: 1.0;" x1="52" x2="255" y1="152.4199" y2="152.4199"/>
    <text fill="#000000" font-family="sans-serif" font-size="13" lengthAdjust="spacingAndGlyphs" textLength="119" x="59"
          y="147.9883">PUT api/v1/quotes
    </text>
    <polygon fill="#A80036" points="63,177.7305,53,181.7305,63,185.7305,59,181.7305"
             style="stroke: #A80036; stroke-width: 1.0;"/>
    <line style="stroke: #A80036; stroke-width: 1.0; stroke-dasharray: 2.0,2.0;" x1="57" x2="260" y1="181.7305"
          y2="181.7305"/>
    <text fill="#000000" font-family="sans-serif" font-size="13" lengthAdjust="spacingAndGlyphs" textLength="185" x="69"
          y="177.2988">200: updated quote data json
    </text>
    <polygon fill="#A80036" points="249,214.041,259,218.041,249,222.041,253,218.041"
             style="stroke: #A80036; stroke-width: 1.0;"/>
    <line style="stroke: #A80036; stroke-width: 1.0;" x1="52" x2="255" y1="218.041" y2="218.041"/>
    <text fill="#000000" font-family="sans-serif" font-size="13" lengthAdjust="spacingAndGlyphs" textLength="172" x="59"
          y="213.6094">PUT api/v1/quotes/finalize
    </text>
    <polygon fill="#A80036" points="63,243.3516,53,247.3516,63,251.3516,59,247.3516"
             style="stroke: #A80036; stroke-width: 1.0;"/>
    <line style="stroke: #A80036; stroke-width: 1.0; stroke-dasharray: 2.0,2.0;" x1="57" x2="260" y1="247.3516"
          y2="247.3516"/>
    <text fill="#000000" font-family="sans-serif" font-size="13" lengthAdjust="spacingAndGlyphs" textLength="125" x="69"
          y="242.9199">finalized quote json
    </text>
  </g>
</svg>
