<?xml version="1.0" encoding="UTF-8"?>
<svg width="40px" height="30px" viewBox="0 0 40 30" version="1.1" xmlns="http://www.w3.org/2000/svg" xmlns:xlink="http://www.w3.org/1999/xlink">
    <!-- Generator: Sketch 42 (36781) - http://www.bohemiancoding.com/sketch -->
    <title>email</title>
    <desc>Created with Sketch.</desc>
    <defs></defs>
    <g id="Page-1" stroke="none" stroke-width="1" fill="none" fill-rule="evenodd">
        <g id="Docs-Home-V2" transform="translate(-944.000000, -1059.000000)" fill-rule="nonzero" fill="#47AB48">
            <g id="email" transform="translate(944.000000, 1059.000000)">
                <g id="eye-fill-71">
                    <g id="Group">
                        <path d="M4.54602273,26.9028409 L15.8446023,16.4684659 L19.0713068,19.4497159 C19.3167614,19.6747159 19.6286932,19.7897727 19.9380682,19.7897727 C20.25,19.7897727 20.5619318,19.6747159 20.8073864,19.4497159 L24.0340909,16.4710227 L35.3326705,26.9028409 L4.54602273,26.9028409 Z M2.55681818,4.19829545 L13.9602273,14.7298295 L2.55681818,25.2613636 L2.55681818,4.19829545 Z M35.3326705,2.55681818 L19.9380682,16.7701705 L4.54602273,2.55681818 L35.3326705,2.55681818 Z M37.321875,25.2613636 L25.9184659,14.7298295 L37.321875,4.19829545 L37.321875,25.2613636 Z M39.8428977,1.09176136 C39.8275568,0.997159091 39.8198864,0.9 39.7866477,0.815625 C39.7508523,0.723579545 39.6894886,0.644318182 39.6332386,0.5625 C39.5974432,0.511363636 39.5821023,0.455113636 39.5386364,0.409090909 C39.5335227,0.403977273 39.5258523,0.401420455 39.5207386,0.396306818 C39.4440341,0.317045455 39.3519886,0.265909091 39.2625,0.209659091 C39.2113636,0.178977273 39.1704545,0.132954545 39.1142045,0.109943182 C39.0477273,0.0792613636 38.9761364,0.0767045455 38.9071023,0.0613636364 C38.8150568,0.0383522727 38.7255682,0.00511363636 38.6258523,0.00511363636 C38.6181818,0.00511363636 38.6105114,0 38.6002841,0 L1.27840909,0 C1.27073864,0 1.26306818,0.00255681818 1.25539773,0.00255681818 C1.13778409,0.00511363636 1.03295455,0.0383522727 0.925568182,0.0690340909 C0.871875,0.084375 0.818181818,0.084375 0.767045455,0.107386364 C0.703125,0.135511364 0.654545455,0.184090909 0.595738636,0.222443182 C0.513920455,0.276136364 0.429545455,0.322159091 0.357954545,0.396306818 C0.352840909,0.401420455 0.345170455,0.403977273 0.3375,0.409090909 C0.296590909,0.455113636 0.278693182,0.511363636 0.245454545,0.5625 C0.189204545,0.644318182 0.127840909,0.723579545 0.0920454545,0.815625 C0.0588068182,0.9 0.0511363636,0.997159091 0.0357954545,1.09176136 C0.0255681818,1.153125 0,1.21193182 0,1.27840909 L0,28.18125 C0,28.2477273 0.0255681818,28.3039773 0.0357954545,28.3678977 C0.0511363636,28.4625 0.0588068182,28.5571023 0.0920454545,28.6440341 C0.127840909,28.7335227 0.189204545,28.8127841 0.245454545,28.8971591 C0.278693182,28.9457386 0.296590909,29.0045455 0.3375,29.0480114 C0.345170455,29.0556818 0.352840909,29.0556818 0.357954545,29.0633523 C0.467897727,29.1784091 0.598295455,29.2653409 0.736363636,29.3292614 C0.751704545,29.3369318 0.761931818,29.3497159 0.774715909,29.3573864 C0.935795455,29.4238636 1.10710227,29.4596591 1.27840909,29.4596591 L38.6002841,29.4596591 C38.7715909,29.4596591 38.9428977,29.4238636 39.1014205,29.3573864 C39.1167614,29.3497159 39.1269886,29.3369318 39.1423295,29.3292614 C39.2803977,29.2653409 39.4082386,29.1784091 39.5207386,29.0633523 C39.5258523,29.0556818 39.5335227,29.0556818 39.5386364,29.0480114 C39.5821023,29.0045455 39.5974432,28.9457386 39.6332386,28.8971591 C39.6894886,28.8127841 39.7508523,28.7335227 39.7866477,28.6440341 C39.8198864,28.5571023 39.8275568,28.4625 39.8428977,28.3678977 C39.8505682,28.3039773 39.8786932,28.2477273 39.8786932,28.18125 L39.8786932,1.27840909 C39.8786932,1.21193182 39.8505682,1.153125 39.8428977,1.09176136 L39.8428977,1.09176136 Z" id="Shape"></path>
                    </g>
                </g>
            </g>
        </g>
    </g>
</svg>