<svg width="20" height="20" viewBox="0 0 20 20" fill="none" xmlns="http://www.w3.org/2000/svg">
<path d="M15.8915 4.10843C14.5242 2.73218 12.7196 1.87611 10.7887 1.6878C8.85786 1.49949 6.92181 1.99075 5.31434 3.07688C3.70687 4.163 2.52872 5.77594 1.98299 7.63761C1.43726 9.49928 1.55817 11.493 2.32485 13.2751C2.40476 13.4407 2.43098 13.6272 2.39985 13.8084L1.66652 17.3334C1.63827 17.4686 1.64404 17.6086 1.68331 17.741C1.72258 17.8734 1.79413 17.9939 1.89152 18.0918C1.97136 18.171 2.06642 18.2333 2.17097 18.2748C2.27552 18.3164 2.38739 18.3363 2.49985 18.3334H2.66652L6.23319 17.6168C6.41446 17.595 6.59829 17.6208 6.76652 17.6918C8.5486 18.4585 10.5423 18.5794 12.404 18.0336C14.2657 17.4879 15.8786 16.3097 16.9647 14.7023C18.0509 13.0948 18.5421 11.1588 18.3538 9.22792C18.1655 7.29707 17.3094 5.49242 15.9332 4.1251L15.8915 4.10843ZM6.66652 10.8334C6.5017 10.8334 6.34059 10.7846 6.20355 10.693C6.0665 10.6014 5.95969 10.4713 5.89662 10.319C5.83355 10.1667 5.81705 9.99918 5.8492 9.83753C5.88135 9.67587 5.96072 9.52739 6.07727 9.41085C6.19381 9.2943 6.34229 9.21493 6.50395 9.18278C6.6656 9.15063 6.83315 9.16713 6.98542 9.2302C7.1377 9.29327 7.26784 9.40008 7.35941 9.53713C7.45098 9.67417 7.49985 9.83528 7.49985 10.0001C7.49985 10.2211 7.41206 10.4331 7.25578 10.5894C7.0995 10.7456 6.88753 10.8334 6.66652 10.8334ZM9.99985 10.8334C9.83504 10.8334 9.67392 10.7846 9.53688 10.693C9.39984 10.6014 9.29303 10.4713 9.22995 10.319C9.16688 10.1667 9.15038 9.99918 9.18253 9.83753C9.21469 9.67587 9.29405 9.52739 9.4106 9.41085C9.52714 9.2943 9.67563 9.21493 9.83728 9.18278C9.99893 9.15063 10.1665 9.16713 10.3188 9.2302C10.471 9.29327 10.6012 9.40008 10.6927 9.53713C10.7843 9.67417 10.8332 9.83528 10.8332 10.0001C10.8332 10.2211 10.7454 10.4331 10.5891 10.5894C10.4328 10.7456 10.2209 10.8334 9.99985 10.8334ZM13.3332 10.8334C13.1684 10.8334 13.0073 10.7846 12.8702 10.693C12.7332 10.6014 12.6264 10.4713 12.5633 10.319C12.5002 10.1667 12.4837 9.99918 12.5159 9.83753C12.548 9.67587 12.6274 9.52739 12.7439 9.41085C12.8605 9.2943 13.009 9.21493 13.1706 9.18278C13.3323 9.15063 13.4998 9.16713 13.6521 9.2302C13.8044 9.29327 13.9345 9.40008 14.0261 9.53713C14.1176 9.67417 14.1665 9.83528 14.1665 10.0001C14.1665 10.2211 14.0787 10.4331 13.9224 10.5894C13.7662 10.7456 13.5542 10.8334 13.3332 10.8334Z" fill="#425466"/>
</svg>
