<?xml version="1.0" encoding="UTF-8"?>
<svg width="46px" height="41px" viewBox="0 0 46 41" version="1.1" xmlns="http://www.w3.org/2000/svg" xmlns:xlink="http://www.w3.org/1999/xlink">
    <!-- Generator: Sketch 42 (36781) - http://www.bohemiancoding.com/sketch -->
    <title>forums</title>
    <desc>Created with Sketch.</desc>
    <defs></defs>
    <g id="Page-1" stroke="none" stroke-width="1" fill="none" fill-rule="evenodd">
        <g id="Docs-Home-V2" transform="translate(-404.000000, -1050.000000)" fill-rule="nonzero" fill="#47AB48">
            <path d="M446.842263,1076.84062 C446.842263,1078.79862 445.248368,1080.39252 443.290361,1080.39252 L432.347703,1080.39252 C432.070399,1080.39252 431.800329,1080.48897 431.58572,1080.66259 L423.519791,1087.25278 L423.519791,1081.59819 C423.519791,1080.93025 422.979651,1080.39252 422.314121,1080.39252 L416.915133,1080.39252 C414.957125,1080.39252 413.36323,1078.79862 413.36323,1076.84062 L413.36323,1075.14303 L413.36323,1062.42081 C413.36323,1060.46039 414.957125,1058.86891 416.915133,1058.86891 L443.290361,1058.86891 C445.248368,1058.86891 446.842263,1060.46039 446.842263,1062.42081 L446.842263,1076.84062 Z M409.963242,1073.93736 C408.005234,1073.93736 406.411339,1072.34588 406.411339,1070.38546 L406.411339,1055.96324 C406.411339,1054.00282 408.005234,1052.41134 409.963242,1052.41134 L434.37564,1052.41134 C436.336058,1052.41134 437.927542,1054.00282 437.927542,1055.96324 L437.927542,1056.45757 L416.915133,1056.45757 C413.628477,1056.45757 410.951891,1059.13174 410.951891,1062.42081 L410.951891,1073.93736 L409.963242,1073.93736 Z M443.290361,1056.45757 L440.338881,1056.45757 L440.338881,1055.96324 C440.338881,1052.67659 437.664706,1050 434.37564,1050 L409.963242,1050 C406.676586,1050 404,1052.67659 404,1055.96324 L404,1070.38546 C404,1073.67453 406.676586,1076.3487 409.963242,1076.3487 L410.951891,1076.3487 L410.951891,1076.84062 C410.951891,1080.12727 413.628477,1082.80386 416.915133,1082.80386 L421.108451,1082.80386 L421.108451,1089.79433 C421.108451,1090.25972 421.37611,1090.68411 421.798094,1090.88426 C421.962066,1090.96142 422.138093,1091 422.314121,1091 C422.586602,1091 422.856672,1090.90837 423.078516,1090.72993 L432.776922,1082.80386 L443.290361,1082.80386 C446.579427,1082.80386 449.253602,1080.12727 449.253602,1076.84062 L449.253602,1062.42081 C449.253602,1059.13174 446.579427,1056.45757 443.290361,1056.45757 L443.290361,1056.45757 Z" id="forums"></path>
        </g>
    </g>
</svg>