<?xml version="1.0" encoding="UTF-8"?>
<svg width="794px" height="388px" viewBox="0 0 794 388" version="1.1" xmlns="http://www.w3.org/2000/svg" xmlns:xlink="http://www.w3.org/1999/xlink">
    <!-- Generator: Sketch 47.1 (45422) - http://www.bohemiancoding.com/sketch -->
    <title>Group</title>
    <desc>Created with Sketch.</desc>
    <defs>
        <rect id="path-1" x="0" y="0" width="794" height="387.675228"></rect>
        <rect id="path-3" x="0" y="0" width="509.263055" height="388"></rect>
        <polygon id="path-5" points="0.635290973 0.14778253 188.12023 0.14778253 188.12023 115.012676 0.635290973 115.012676 0.635290973 0.14778253"></polygon>
        <path d="M56.2943472,2.49205884 L60.2169949,0.228084453 L67.9300284,4.68045494 L64.0080555,6.94577893 L65.6491838,7.89320666 L51.8912376,15.8370238 L56.1269953,18.282521 L52.2050224,20.5464954 L55.626964,22.5223276 L41.937848,30.4256563 L47.3201012,33.5338131 L46.1736057,32.8711535 L59.8627217,24.9678248 L59.8633966,24.9678248 L63.7846947,22.7038504 L63.7840198,22.7038504 L77.5433157,14.7600333 L80.4672504,16.4477233 L79.1756716,15.7020626 L83.0976445,13.4380882 L90.810678,17.8911335 L86.8887051,20.1551079 L80.9659321,16.7358655 L49.5955473,34.8469857 L47.8680438,33.8496223 L43.9460708,36.1142715 L36.300518,31.6996902 L40.2224909,29.435041 L38.5159064,28.4504989 L52.2050224,20.5464954 L47.9685899,18.1009982 L41.1355035,22.0465893 L37.7128871,20.0700823 L62.227917,5.91737447 L56.2943472,2.49205884 Z M32.0303452,14.5252008 L54.5837138,1.50414274 L58.0063302,3.47997493 L35.3841314,16.5408465 L33.673498,15.5522556 L31.7570487,16.6589376 L41.1112105,22.0600854 L37.1892376,24.3247346 L38.9005458,25.3126507 L35.9914568,26.992243 L38.5159064,28.4504989 L34.5939335,30.7144733 L32.0688091,29.2568922 L30.0491145,30.4229571 L26.6264981,28.4471249 L26.7216458,28.3924656 L20.7894256,24.96715 L24.7113985,22.7031756 L30.6436187,26.1278164 L35.4779294,23.3368185 L27.8350758,18.9235868 L29.8196805,17.7777661 L23.8915091,14.3551496 L13.0554731,20.6112768 L9.63353153,18.6361194 L20.4688927,12.3799923 L22.1734528,13.3638595 L26.0954257,11.0992103 L32.0303452,14.5252008 Z M35.4786042,23.3368185 L35.4779294,23.3368185 L37.1892376,24.3247346 L35.4786042,23.3368185 Z M44.9542311,42.3582522 L85.149055,19.1516712 L88.5723462,21.1268286 L48.3761727,44.3340843 L46.6655393,43.3461682 L40.7717831,46.7492153 L37.3498415,44.7727083 L43.2429229,41.3696613 L44.9542311,42.3582522 Z M55.626964,22.5223276 L59.5489369,20.2583532 L63.7840198,22.7038504 L59.8627217,24.9678248 L55.626964,22.5223276 Z M4.24790424,25.6622002 L13.0257817,20.5944066 L16.4477233,22.5702388 L7.67052066,27.6373576 L11.0674944,29.5990189 L4.16827713,33.5823991 L28.7399907,47.7681725 L24.8072209,50.0382201 L0.236856932,35.8524468 L4.16827713,33.5823991 L0.747010325,31.606567 L7.64555283,27.6231867 L4.24790424,25.6622002 Z M28.7399907,47.7681725 L35.6385333,43.785467 L39.0604749,45.7606244 L32.1619324,49.7440046 L28.7399907,47.7681725 Z" id="path-7"></path>
    </defs>
    <g id="Private-Beta" stroke="none" stroke-width="1" fill="none" fill-rule="evenodd">
        <g id="API-Document" transform="translate(-230.000000, 0.000000)">
            <g id="Group" transform="translate(230.000000, -10.000000)">
                <g id="Page-1" transform="translate(0.000000, 10.000000)">
                    <mask id="mask-2" fill="white">
                        <use xlink:href="#path-1"></use>
                    </mask>
                    <use id="Mask" fill="#4E4E4E" xlink:href="#path-1"></use>
                    <g mask="url(#mask-2)">
                        <g transform="translate(-157.707623, 118.273173)">
                            <polygon id="Fill-3" fill="#DBDBDB" points="565.808827 -0.000138502908 2.05559092 325.814796 379.530725 543.86685 943.056816 218.38363"></polygon>
                            <polygon id="Fill-5" fill="#B7B7B7" points="379.530448 543.866642 378.07132 573.961246 941.41528 248.408775 943.056539 218.384115"></polygon>
                            <polygon id="Fill-6" fill="#F4F4F4" points="565.808827 -0.000138502908 538.72666 15.9401612 915.546676 233.72629 943.056816 218.38363"></polygon>
                            <polygon id="Fill-7" fill="#D8D8D8" points="916.27991 233.841593 943.056677 218.383976 941.415418 248.409329 914.525771 263.953511"></polygon>
                            <g id="Group-116" stroke-width="1" fill="none" transform="translate(1.385029, 12.290056)">
                                <path d="M608.492376,24.3256121 L609.497907,24.9066318 L605.511793,27.2078576 L605.534646,27.2217079 C606.024947,27.1233708 606.566493,27.1005178 607.072721,27.1649217 C607.568562,27.2217079 608.054707,27.3505156 608.432127,27.5679651 C609.175195,27.9973242 609.835854,28.9883125 607.63158,30.2611542 L603.830368,32.4564253 L602.823452,31.8754056 L606.493086,29.7563111 C607.523548,29.1621336 608.063017,28.4675415 607.114272,27.9197625 C606.461923,27.5437271 605.419689,27.5513448 604.603907,27.8117303 C604.38715,27.870594 604.205018,27.9626984 603.979951,28.0921987 L600.125415,30.3179404 L599.119884,29.7369207 L608.492376,24.3256121 Z" id="Fill-8" fill="#A5A4A5"></path>
                                <path d="M614.856238,29.3260518 L613.021767,30.3855991 L614.462198,31.2166165 L613.577164,31.7276922 L612.136734,30.8959823 L608.691474,32.8855766 C607.899237,33.3426362 607.645084,33.713824 608.205329,34.0372282 C608.467792,34.1888889 608.701862,34.2782233 608.867373,34.3280844 L608.041895,34.857858 C607.755194,34.7989942 607.380544,34.6584138 606.992043,34.4340391 C606.523211,34.1632659 606.317534,33.8467867 606.393711,33.5247675 C606.451189,33.1618899 606.915867,32.7747742 607.66863,32.3405676 L611.153363,30.3281204 L610.29603,29.8329725 L611.180371,29.3225892 L612.038397,29.8177371 L613.569546,28.9333961 L614.856238,29.3260518 Z" id="Fill-10" fill="#A5A4A5"></path>
                                <path d="M618.641384,31.51142 L616.806913,32.5702747 L618.247344,33.4019847 L617.36231,33.9130604 L615.92188,33.0813504 L612.47662,35.0709447 C611.684383,35.5280043 611.43023,35.8991921 611.990475,36.2225964 C612.252938,36.3742571 612.487008,36.4635914 612.652519,36.5134525 L611.826349,37.0425336 C611.54034,36.9836699 611.164997,36.8437819 610.777189,36.6194072 C610.308357,36.348634 610.10268,36.0321549 610.178857,35.7101356 C610.236335,35.347258 610.701013,34.9601424 611.453776,34.5259358 L614.938509,32.5134885 L614.081176,32.0183406 L614.965517,31.5079574 L615.823543,32.0024128 L617.354692,31.1187642 L618.641384,31.51142 Z" id="Fill-12" fill="#A5A4A5"></path>
                                <path d="M616.585447,36.8178819 C616.413704,36.9169115 616.278663,37.0214812 616.156088,37.1191257 C615.533518,37.6890652 615.585456,38.3594193 616.305671,38.774928 C617.368681,39.3884959 618.989165,39.1661987 620.454526,38.3199459 C621.734985,37.5810329 622.247446,36.6115126 621.184436,35.9972522 C620.498154,35.6018264 619.290409,35.559583 618.224629,35.9508537 C618.045268,36.014565 617.839591,36.0935117 617.681005,36.1849236 L616.585447,36.8178819 Z M617.293197,35.2604167 C618.112442,34.7881218 618.749555,34.394081 619.334037,34.0298183 L620.236384,34.5512818 L619.187224,35.2105556 L619.209385,35.2237134 C620.40051,35.011804 621.513381,35.1205287 622.417112,35.6419922 C623.75505,36.4141459 623.453806,37.7500065 621.513381,38.870495 C619.21631,40.1966603 616.869378,40.1523394 615.565373,39.3995761 C614.834078,38.9771422 614.563305,38.394045 614.865934,37.8372633 L614.842388,37.8241055 L611.371505,39.8282426 L610.376362,39.254148 L617.293197,35.2604167 Z" id="Fill-14" fill="#A5A4A5"></path>
                                <path d="M619.929669,40.9740079 C620.418584,40.6921545 621.046695,40.6589138 621.446969,40.8902137 C621.847934,41.120821 621.76691,41.4712334 621.29046,41.7593194 C620.828553,42.02663 620.208753,42.0806462 619.785626,41.8361885 C619.386045,41.6048887 619.467762,41.2413185 619.929669,40.9740079 M624.5896,38.2835889 C625.078515,38.0017355 625.707318,37.9684948 626.107591,38.1997947 C626.507865,38.4310945 626.427533,38.7808144 625.949698,39.0695929 C625.487791,39.336211 624.868683,39.3902272 624.445556,39.1457695 C624.045283,38.9144697 624.127692,38.550207 624.5896,38.2835889" id="Fill-16" fill="#A5A4A5"></path>
                                <polygon id="Fill-18" fill="#A5A4A5" points="620.489636 42.6843111 633.249217 39.0001337 634.026911 39.4495757 621.254865 43.1268279"></polygon>
                                <polygon id="Fill-20" fill="#A5A4A5" points="624.411416 44.9488336 637.171688 41.2646563 637.94869 41.7134057 625.177337 45.3906579"></polygon>
                                <path d="M636.496625,43.9388012 L633.98072,46.2358719 C633.428093,46.7400225 632.917018,47.2067773 632.359543,47.6472165 L632.394169,47.6672995 C633.166323,47.3667482 634.036121,47.075892 634.905227,46.7850359 L639.069317,45.4242449 L639.91557,45.9124676 L637.578333,48.2517817 C637.018089,48.8127185 636.504935,49.2933236 635.984165,49.7399955 L636.018098,49.7593859 C636.756318,49.4387517 637.578333,49.1361228 638.513228,48.8071784 L642.510422,47.4110691 L643.504872,47.9851636 L635.331816,50.6444195 L634.417697,50.1160309 L636.621278,47.8667437 C637.139279,47.3438952 637.612959,46.884758 638.228604,46.3716048 L638.205751,46.358447 C637.302712,46.7213246 636.471002,47.003178 635.590124,47.287109 L631.662874,48.525325 L630.748062,47.9976289 L635.468241,43.3446237 L636.496625,43.9388012 Z" id="Fill-22" fill="#A5A4A5"></path>
                                <path d="M645.050219,48.8770531 L642.534313,51.1741239 C641.981687,51.6782744 641.469918,52.1450292 640.913137,52.5854685 L640.947763,52.6055514 C641.719916,52.3050001 642.589714,52.014144 643.458128,51.7232879 L647.62291,50.3624968 L648.469163,50.8507196 L646.131234,53.1900337 C645.571682,53.7509705 645.058529,54.2322681 644.537065,54.6782474 L644.571691,54.6983304 C645.309912,54.3776961 646.131926,54.0743748 647.066821,53.7454304 L651.064015,52.349321 L652.057773,52.9234156 L643.885409,55.5826714 L642.970597,55.0542828 L645.174179,52.8049956 C645.692872,52.2821471 646.16586,51.8237025 646.781505,51.3098567 L646.759345,51.2966989 C645.855613,51.6595765 645.024596,51.94143 644.143025,52.2253609 L640.215775,53.4635769 L639.300963,52.9358809 L644.021835,48.2835682 L645.050219,48.8770531 Z" id="Fill-24" fill="#A5A4A5"></path>
                                <path d="M653.603881,53.8155821 L651.087976,56.1126528 C650.534657,56.6168034 650.023581,57.0835582 649.466107,57.5239974 L649.500733,57.5440804 C650.272886,57.2428365 651.142685,56.9519804 652.01179,56.6618168 L656.17588,55.3003333 L657.022133,55.7892485 L654.684896,58.1285626 C654.125345,58.6894994 653.611499,59.1701045 653.090728,59.6160839 L653.124661,59.6361668 C653.862882,59.3155326 654.685589,59.0129037 655.619791,58.6839593 L659.616985,57.2871575 L660.611436,57.861252 L652.438379,60.5205079 L651.52426,59.9928118 L653.727841,57.7435246 C654.246535,57.2199836 654.719522,56.7615389 655.335168,56.2476931 L655.312315,56.2345354 C654.409276,56.5981055 653.577566,56.8799589 652.696687,57.1638899 L648.769437,58.4021059 L647.853933,57.8737173 L652.574805,53.2214046 L653.603881,53.8155821 Z" id="Fill-26" fill="#A5A4A5"></path>
                                <path d="M655.231013,61.3399603 C655.719236,61.0581069 656.348039,61.0248662 656.748313,61.2554736 C657.149279,61.4867734 657.080027,61.8434184 656.591805,62.1252718 C656.116047,62.4002001 655.496939,62.4535237 655.07312,62.2097586 C654.673539,61.9784587 654.755256,61.6141961 655.231013,61.3399603" id="Fill-28" fill="#A5A4A5"></path>
                                <polygon id="Fill-30" fill="#A5A4A5" points="666.523571 57.8300196 667.529795 58.4110393 658.157303 63.822348 657.151079 63.2413283"></polygon>
                                <path d="M667.174881,64.6233103 C667.925567,64.2029539 668.800213,63.3816317 667.667951,62.727898 C666.649955,62.1406456 665.122268,62.5083709 664.237234,62.9273422 L667.174881,64.6233103 Z M663.393752,63.4003296 C661.845982,64.3206814 662.067586,65.1960198 663.07381,65.7770395 C663.794025,66.1925482 664.37366,66.3594442 664.935981,66.4702466 L664.275323,67.0491887 C663.735854,66.9515442 662.919379,66.7243994 662.039193,66.2154012 C660.335607,65.2320306 660.611921,63.8982475 662.539881,62.7853767 C664.466457,61.6725058 666.967819,61.3636443 668.5793,62.2943839 C670.386071,63.3373108 669.031512,64.6738638 667.855623,65.3518356 C667.618783,65.4889535 667.411028,65.5824429 667.280143,65.6447692 L663.393752,63.4003296 Z" id="Fill-32" fill="#A5A4A5"></path>
                                <path d="M675.015046,64.0586339 L673.179882,65.1174887 L674.620313,65.9491986 L673.735279,66.4602743 L672.294849,65.6285644 L668.850281,67.6181587 C668.058045,68.0752183 667.803199,68.4464061 668.364136,68.7698103 C668.626599,68.921471 668.859977,69.0108054 669.02618,69.0606665 L668.20001,69.5904401 C667.913309,69.5315763 667.538659,69.3909959 667.150851,69.1666212 C666.681326,68.895848 666.476342,68.5793688 666.552518,68.2573496 C666.609997,67.8951645 667.074674,67.5073563 667.827437,67.0731497 L671.312171,65.0607025 L670.454838,64.5662471 L671.339179,64.0551713 L672.197204,64.5503192 L673.728354,63.6659782 L675.015046,64.0586339 Z" id="Fill-34" fill="#A5A4A5"></path>
                                <path d="M670.414256,69.5270057 C670.48697,69.8282496 670.775056,70.2693813 671.278514,70.5595449 C672.010502,70.9819788 672.775731,70.9362728 673.304119,70.6308739 C673.858824,70.3109322 673.876136,69.9709076 673.449548,69.3587247 C672.864373,68.5484827 673.028499,67.9113693 673.79442,67.469545 C674.824189,66.8753676 676.389964,66.8033461 677.579012,67.489628 C678.138563,67.8130323 678.445347,68.2036105 678.542299,68.5034693 L677.446049,68.846264 C677.387185,68.6295069 677.198821,68.2763245 676.684283,67.9799283 C676.090105,67.636441 675.362273,67.6738368 674.887208,67.9480726 C674.358819,68.252779 674.453001,68.5817234 674.856737,69.180056 C675.394128,69.9785252 675.331802,70.5823979 674.38098,71.1308694 C673.258414,71.779063 671.712029,71.800531 670.397636,71.0415351 C669.791686,70.6918152 669.403185,70.2693813 669.27784,69.8926534 L670.414256,69.5270057 Z" id="Fill-36" fill="#A5A4A5"></path>
                                <path d="M677.447642,72.0026067 C677.302214,72.086401 677.179639,72.183353 677.070914,72.2726874 C676.459423,72.849552 676.488509,73.5067483 677.220497,73.9291822 C678.271734,74.5358249 679.890833,74.3273781 681.356194,73.4818178 C682.636653,72.7422123 683.160887,71.779617 682.086104,71.159124 C681.400515,70.7630057 680.219085,70.7062195 679.128375,71.0981827 C678.973944,71.1612016 678.780732,71.2325306 678.595831,71.3391778 L677.447642,72.0026067 Z M673.846566,72.8807152 C674.305011,72.6417977 674.974672,72.2816901 675.541842,71.9541307 L683.264071,67.4957221 L684.259215,68.0698166 L680.246093,70.3869703 L680.268946,70.4001281 C681.336111,70.1930662 682.438594,70.2955584 683.32986,70.8107892 C684.702424,71.6023333 684.354089,72.9257286 682.401891,74.039292 C680.117978,75.3578397 677.737113,75.2941284 676.501667,74.5815309 C675.701813,74.1196237 675.417882,73.5441441 675.850703,72.8183889 L675.81677,72.7983059 L674.715672,73.3820957 L673.846566,72.8807152 Z" id="Fill-38" fill="#A5A4A5"></path>
                                <path d="M687.723103,76.4869846 C688.473789,76.0666283 689.348435,75.2453061 688.216174,74.5915723 C687.198177,74.00432 685.67049,74.3713527 684.785457,74.790324 L687.723103,76.4869846 Z M683.941974,75.264004 C682.394204,76.1843558 682.615808,77.0596942 683.622032,77.6400214 C684.342247,78.0562226 684.921882,78.2231186 685.484204,78.3339209 L684.823545,78.9128631 C684.284076,78.8152185 683.467601,78.5873813 682.587415,78.0790756 C680.88383,77.0957049 681.160143,75.7612294 683.088103,74.6490511 C685.014679,73.5361802 687.516041,73.2273187 689.127523,74.1573657 C690.934293,75.2009851 689.579735,76.5368457 688.403845,77.2155099 C688.167005,77.3526278 687.959251,77.4461173 687.828365,77.5084436 L683.941974,75.264004 Z" id="Fill-40" fill="#A5A4A5"></path>
                                <polygon id="Fill-42" fill="#A5A4A5" points="695.499626 74.5593012 696.50585 75.1403209 687.133358 80.5516295 686.127134 79.9706098"></polygon>
                                <path d="M695.001916,81.3295311 C693.930596,80.680645 692.459695,80.0906226 691.219401,80.8073751 C690.466638,81.2415817 690.544892,81.6979488 691.059431,81.9950376 C691.779646,82.4112388 692.765094,82.3696879 693.465919,82.1501608 C693.619657,82.1009923 693.77478,82.0379735 693.892508,81.9694145 L695.001916,81.3295311 Z M691.889755,83.2976574 L692.614818,82.7865817 L692.580885,82.7671913 C691.76995,82.8779936 690.727024,82.7941993 689.93825,82.3392173 C688.817761,81.6917162 689.157786,80.8357682 690.0816,80.302532 C691.625907,79.4105733 693.659823,79.609325 695.784457,80.8516961 L695.916035,80.7748269 C696.444424,80.4701205 697.268516,79.848935 696.13764,79.1952013 C695.622409,78.8981125 694.900809,78.6952058 694.221452,78.6377271 L694.758151,78.064325 C695.55939,78.1294214 696.446501,78.3835742 697.143863,78.7859252 C698.835676,79.7623707 697.913939,80.7699793 696.63348,81.5088924 L694.244305,82.8883813 C693.689601,83.2090156 693.170907,83.5344974 692.804567,83.8253535 L691.889755,83.2976574 Z" id="Fill-44" fill="#A5A4A5"></path>
                                <path d="M694.382462,83.9592858 L700.648333,83.2328381 C701.23143,83.1732818 701.763282,83.1296534 702.358152,83.0770223 L702.384467,83.061787 L699.389342,81.3325782 L700.327006,80.7910318 L704.545805,83.2266054 L703.806892,83.6393441 L697.62897,84.3554041 C697.043795,84.4288107 696.498786,84.4800567 695.917074,84.5250702 L695.890758,84.5403055 L699.126186,86.4087097 L698.201679,86.9419459 L693.708645,84.3477865 L694.382462,83.9592858 Z" id="Fill-46" fill="#A5A4A5"></path>
                                <path d="M706.260679,84.2172475 L703.697682,87.0967229 C703.400594,87.4132021 703.036331,87.7816198 702.745475,88.0558556 L702.768328,88.0690134 C703.253088,87.9076575 703.856268,87.6915929 704.455293,87.5039215 L709.302203,85.9727718 L710.365905,86.5870322 L704.302248,88.3446341 C701.390917,89.1943495 699.776665,89.5579196 698.404101,89.5586121 C697.411035,89.5648448 696.721983,89.3951787 696.417277,89.2802213 L697.14234,88.5710864 C697.48652,88.6624983 698.002443,88.7476776 698.590388,88.7511402 C699.116006,88.7649905 699.906858,88.7040492 700.730258,88.4928323 C700.894384,88.4505889 701.021806,88.4173482 701.086903,88.3792599 C701.153384,88.3411716 701.223328,88.2746902 701.322358,88.1645804 L705.163736,83.5835967 L706.260679,84.2172475 Z" id="Fill-48" fill="#A5A4A5"></path>
                                <path d="M704.892547,90.0120014 C705.38077,89.730148 706.009573,89.6969073 706.409846,89.9282072 C706.81012,90.1588145 706.741561,90.5154595 706.253338,90.7973129 C705.777581,91.0722412 705.158473,91.1255648 704.734654,90.8817997 C704.33438,90.6504998 704.41679,90.2862372 704.892547,90.0120014" id="Fill-50" fill="#A5A4A5"></path>
                                <path d="M713.602441,88.455575 L711.086536,90.7526457 C710.533216,91.2567963 710.022141,91.7242436 709.465359,92.1646829 L709.499292,92.1840733 C710.272139,91.883522 711.141244,91.5926659 712.01035,91.3018097 L716.17444,89.9410187 L717.020693,90.4292414 L714.683456,92.7692481 C714.123904,93.3294923 713.610059,93.8107899 713.089288,94.2567693 L713.123913,94.2768522 C713.861441,93.9555255 714.684149,93.6528966 715.618351,93.3239522 L719.615545,91.9278429 L720.609996,92.5019374 L712.436939,95.1611933 L711.52282,94.6328047 L713.726401,92.38421 C714.245094,91.860669 714.718082,91.4022244 715.333727,90.8883786 L715.310874,90.8752208 C714.407835,91.2380984 713.576125,91.5199518 712.695247,91.8038828 L708.767997,93.0420988 L707.853185,92.5137102 L712.574057,87.86209 L713.602441,88.455575 Z" id="Fill-52" fill="#A5A4A5"></path>
                                <path d="M722.439411,96.5303638 C723.190097,96.1100075 724.06405,95.2886852 722.931789,94.6349515 C721.914485,94.0476992 720.386106,94.4147319 719.501072,94.8337032 L722.439411,96.5303638 Z M718.657589,95.3073831 C717.110512,96.2277349 717.332117,97.1030733 718.337648,97.6834005 C719.057863,98.0996017 719.637497,98.2664977 720.200512,98.3773001 L719.539853,98.9562422 C719.000384,98.8585977 718.183217,98.6307604 717.303031,98.1224547 C715.599445,97.1390841 715.875758,95.8046086 717.803719,94.6924302 C719.730987,93.5795593 722.231657,93.2700053 723.843138,94.2007449 C725.650601,95.2436718 724.29535,96.5802248 723.120153,97.2588891 C722.883313,97.396007 722.675559,97.4894964 722.544673,97.5518227 L718.657589,95.3073831 Z" id="Fill-54" fill="#A5A4A5"></path>
                                <path d="M724.399297,99.1100497 C724.253869,99.193844 724.131294,99.290796 724.021876,99.3801304 C723.411078,99.956995 723.440164,100.614191 724.172152,101.036625 C725.223389,101.643268 726.841795,101.434821 728.307849,100.589261 C729.588308,99.8496552 730.111849,98.88706 729.037759,98.266567 C728.351477,97.8704487 727.170047,97.8136625 726.080029,98.2056257 C725.924906,98.2686445 725.732387,98.3399735 725.547486,98.4466208 L724.399297,99.1100497 Z M720.798221,99.9881582 C721.255973,99.7492406 721.925635,99.3891331 722.493497,99.0615737 L730.215726,94.6031651 L731.21087,95.1772596 L727.197748,97.4944133 L727.220601,97.5075711 C728.287766,97.3005092 729.390249,97.4030014 730.281515,97.9182322 C731.654079,98.7097763 731.305744,100.033172 729.352853,101.146735 C727.06894,102.465283 724.688768,102.401571 723.453322,101.688974 C722.653467,101.227067 722.369537,100.651587 722.802358,99.9258318 L722.768425,99.9057489 L721.666634,100.489539 L720.798221,99.9881582 Z" id="Fill-56" fill="#A5A4A5"></path>
                                <polygon id="Fill-58" fill="#A5A4A5" points="725.975737 103.586741 738.73601 99.9032559 739.513011 100.352005 726.741658 104.029258"></polygon>
                                <polygon id="Fill-60" fill="#A5A4A5" points="740.644303 100.623609 741.650526 101.204629 732.278035 106.615938 731.271811 106.034918"></polygon>
                                <path d="M733.970055,107.59266 L740.359887,103.903635 L741.366111,104.484655 L734.976279,108.17368 L733.970055,107.59266 Z M743.275373,103.514442 C742.890335,103.749205 742.322473,103.787293 741.921507,103.555993 C741.567632,103.351701 741.632729,103.023449 742.028847,102.79492 C742.438816,102.558772 743.017758,102.527609 743.384098,102.738826 C743.761518,102.956275 743.683957,103.278295 743.275373,103.514442 L743.275373,103.514442 Z" id="Fill-62" fill="#A5A4A5"></path>
                                <path d="M736.749601,109.197147 L742.253707,106.019198 L741.476013,105.570449 L742.361046,105.059373 L743.13874,105.508122 L743.442062,105.332916 C744.33956,104.814915 745.329856,104.44165 746.313227,104.414642 C747.113081,104.389019 747.786898,104.580153 748.25573,104.850926 C748.610298,105.055218 748.826362,105.286518 748.928854,105.452029 L747.894238,105.891083 C747.824294,105.760198 747.684406,105.602997 747.39909,105.438178 C746.541757,104.94303 745.452431,105.320451 744.475986,105.884158 L744.132499,106.082217 L745.471129,106.855063 L744.586096,107.365446 L743.248157,106.593293 L737.744052,109.771242 L736.749601,109.197147 Z" id="Fill-64" fill="#A5A4A5"></path>
                                <path d="M747.161003,110.803712 C747.911689,110.383355 748.786335,109.562033 747.654073,108.908299 C746.636077,108.321047 745.10839,108.68808 744.223356,109.107051 L747.161003,110.803712 Z M743.379874,109.580731 C741.832104,110.501083 742.054401,111.375729 743.059932,111.956748 C743.780147,112.372257 744.359782,112.539846 744.922796,112.650648 L744.261445,113.22959 C743.722668,113.131946 742.905501,112.904108 742.025315,112.395803 C740.32173,111.412432 740.598043,110.077957 742.526003,108.965086 C744.452579,107.852907 746.953941,107.543353 748.565423,108.474093 C750.372193,109.51702 749.017635,110.853573 747.842437,111.532237 C747.604905,111.669355 747.397151,111.762844 747.266265,111.825171 L743.379874,109.580731 Z" id="Fill-66" fill="#A5A4A5"></path>
                                <path d="M745.565588,114.287198 L751.954727,110.598173 L752.960951,111.179193 L746.571812,114.868218 L745.565588,114.287198 Z M754.870906,110.20898 C754.485868,110.444435 753.918006,110.481831 753.51704,110.250531 C753.163165,110.046239 753.228262,109.717987 753.62438,109.489458 C754.033656,109.25331 754.612598,109.222147 754.978938,109.433364 C755.356359,109.650814 755.27949,109.972833 754.870906,110.20898 L754.870906,110.20898 Z" id="Fill-68" fill="#A5A4A5"></path>
                                <path d="M749.29194,115.06697 C749.364654,115.368214 749.65274,115.809345 750.156198,116.099509 C750.888186,116.521943 751.652722,116.476237 752.18111,116.170838 C752.735814,115.850896 752.753127,115.510872 752.327231,114.898689 C751.742056,114.088447 751.906182,113.451333 752.672103,113.009509 C753.701872,112.415332 755.267648,112.34331 756.456695,113.030285 C757.016247,113.352996 757.323031,113.743575 757.419983,114.043433 L756.323732,114.386228 C756.264869,114.169471 756.076505,113.816289 755.561966,113.519892 C754.967096,113.176405 754.239956,113.213801 753.764891,113.488037 C753.236502,113.792743 753.330684,114.121687 753.733728,114.72002 C754.271812,115.518489 754.209485,116.122362 753.258663,116.670833 C752.136097,117.319027 750.589712,117.340495 749.275319,116.582192 C748.669369,116.231779 748.280868,115.809345 748.155523,115.432617 L749.29194,115.06697 Z" id="Fill-70" fill="#A5A4A5"></path>
                                <path d="M758.945246,118.247204 C757.873926,117.598318 756.403025,117.008296 755.162732,117.725048 C754.409968,118.159255 754.488222,118.615622 755.002761,118.912711 C755.722976,119.328912 756.708424,119.287361 757.409249,119.067834 C757.562987,119.018666 757.71811,118.955647 757.835838,118.887088 L758.945246,118.247204 Z M755.833086,120.215331 L756.558148,119.704255 L756.524215,119.684865 C755.713281,119.795667 754.670354,119.711873 753.88158,119.256891 C752.761091,118.609389 753.101116,117.753441 754.02493,117.220205 C755.569238,116.328247 757.603153,116.526998 759.727788,117.769369 L759.859365,117.6925 C760.387754,117.387794 761.211846,116.766608 760.080277,116.112875 C759.565739,115.815786 758.844139,115.612879 758.164782,115.5554 L758.701481,114.981998 C759.502028,115.047095 760.389831,115.301247 761.087194,115.703598 C762.779007,116.680044 761.85727,117.687653 760.576118,118.426566 L758.186943,119.806055 C757.632931,120.126689 757.114238,120.452171 756.747205,120.743027 L755.833086,120.215331 Z" id="Fill-72" fill="#A5A4A5"></path>
                                <polygon id="Fill-74" fill="#A5A4A5" points="767.653755 116.217306 768.659979 116.798325 759.287487 122.209634 758.281263 121.628614"></polygon>
                                <path d="M764.778158,121.706384 C763.378586,122.514548 763.020556,123.526312 764.003926,124.094174 C764.964444,124.648878 766.726893,124.462592 768.165939,123.631574 C769.248339,123.006234 770.152763,121.943224 768.963715,121.256942 C767.773975,120.57066 765.992828,121.004866 764.778158,121.706384 M769.234489,124.202899 C766.870937,125.567152 764.424283,125.342778 763.086345,124.570624 C761.589128,123.706366 761.702008,122.308179 763.722073,121.141984 C765.859865,119.907231 768.325217,119.8823 769.857752,120.767334 C771.447073,121.684916 771.188072,123.074792 769.234489,124.202899" id="Fill-76" fill="#A5A4A5"></path>
                                <path d="M776.69294,122.762399 L774.858468,123.821946 L776.298899,124.653656 L775.413865,125.16404 L773.973435,124.33233 L770.528175,126.321924 C769.735938,126.778983 769.481786,127.150171 770.04203,127.473576 C770.304493,127.625236 770.538563,127.714571 770.704766,127.765124 L769.878596,128.294205 C769.591895,128.235342 769.217245,128.095454 768.828744,127.870386 C768.359912,127.600306 768.154235,127.283134 768.230412,126.961807 C768.288583,126.59893 768.75326,126.211122 769.505331,125.776915 L772.990064,123.76516 L772.133424,123.270012 L773.017765,122.759629 L773.875098,123.254084 L775.40694,122.370436 L776.69294,122.762399 Z" id="Fill-78" fill="#A5A4A5"></path>
                                <path d="M774.597806,128.092199 C774.452378,128.175993 774.329803,128.272945 774.221078,128.362279 C773.61028,128.939837 773.638673,129.59634 774.370661,130.018774 C775.421898,130.62611 777.040997,130.41697 778.507051,129.57141 C779.786817,128.831804 780.311051,127.869209 779.236268,127.249409 C778.550679,126.852598 777.369249,126.795812 776.279231,127.187775 C776.124108,127.250794 775.931589,127.322815 775.746688,127.42877 L774.597806,128.092199 Z M770.99673,128.970307 C771.455175,128.73139 772.124837,128.371282 772.692006,128.043723 L780.414236,123.585314 L781.409379,124.159409 L777.396257,126.476562 L777.41911,126.48972 C778.486968,126.282658 779.588758,126.385843 780.480717,126.900381 C781.852588,127.691925 781.504254,129.015321 779.552055,130.128884 C777.268142,131.448124 774.887277,131.38372 773.652524,130.671123 C772.851977,130.209216 772.568046,129.633736 773.00156,128.907981 L772.967627,128.887898 L771.865836,129.471688 L770.99673,128.970307 Z" id="Fill-80" fill="#A5A4A5"></path>
                                <path d="M784.87396,132.576646 C785.623953,132.15629 786.498599,131.334967 785.366338,130.681234 C784.349034,130.093981 782.820654,130.461707 781.935621,130.880678 L784.87396,132.576646 Z M781.092138,131.353665 C779.544368,132.274017 779.766665,133.149356 780.772196,133.730375 C781.492412,134.145884 782.072046,134.31278 782.635061,134.423582 L781.974402,135.002524 C781.434933,134.90488 780.617766,134.677735 779.73758,134.168737 C778.033994,133.185366 778.310307,131.851583 780.238268,130.738712 C782.165536,129.625842 784.666206,129.31698 786.277687,130.24772 C788.084457,131.290646 786.729899,132.6272 785.554702,133.305171 C785.317862,133.442289 785.109415,133.535779 784.97853,133.598105 L781.092138,131.353665 Z" id="Fill-82" fill="#A5A4A5"></path>
                                <path d="M792.713432,132.011623 L790.878961,133.071171 L792.319392,133.902881 L791.434358,134.413264 L789.993928,133.582246 L786.548668,135.571148 C785.756431,136.028208 785.502279,136.399396 786.062523,136.7228 C786.324986,136.87446 786.559056,136.964487 786.725259,137.014348 L785.898397,137.54343 C785.612388,137.484566 785.237738,137.344678 784.849237,137.120303 C784.379712,136.84953 784.174728,136.532358 784.250905,136.211032 C784.308383,135.848154 784.773061,135.460346 785.525824,135.026139 L789.010557,133.014384 L788.153224,132.519237 L789.037565,132.008853 L789.895591,132.503309 L791.42674,131.61966 L792.713432,132.011623 Z" id="Fill-84" fill="#A5A4A5"></path>
                                <path d="M796.497886,134.196992 L794.663415,135.256539 L796.103845,136.087556 L795.218812,136.598632 L793.778381,135.766922 L790.333121,137.756516 C789.540885,138.213576 789.286732,138.584764 789.846976,138.908168 C790.109439,139.059829 790.343509,139.149163 790.509713,139.199024 L789.683543,139.728798 C789.396842,139.669934 789.022191,139.529353 788.633691,139.304979 C788.164858,139.034206 787.959182,138.717726 788.035358,138.395707 C788.093529,138.033522 788.558207,137.645714 789.310277,137.211507 L792.795011,135.19906 L791.93837,134.704605 L792.822711,134.193529 L793.680044,134.688677 L795.211886,133.804336 L796.497886,134.196992 Z" id="Fill-86" fill="#A5A4A5"></path>
                                <path d="M798.103412,140.214943 C798.854097,139.794587 799.728051,138.973264 798.596482,138.319531 C797.578486,137.732278 796.050106,138.100003 795.165072,138.518282 L798.103412,140.214943 Z M794.32159,138.991962 C792.774512,139.912314 792.996117,140.787652 794.002341,141.368672 C794.721863,141.784181 795.30219,141.951077 795.864512,142.061879 L795.203853,142.640821 C794.664384,142.543177 793.847217,142.315339 792.967031,141.807034 C791.263445,140.823663 791.540451,139.48988 793.467719,138.377009 C795.394987,137.264138 797.89635,136.955277 799.507831,137.886016 C801.314602,138.928943 799.960043,140.265496 798.784153,140.943468 C798.547313,141.080586 798.339559,141.174076 798.208674,141.236402 L794.32159,138.991962 Z" id="Fill-88" fill="#A5A4A5"></path>
                                <path d="M800.903179,141.161056 C801.655942,140.72685 802.29167,140.346659 802.851222,139.983782 L803.731408,140.492087 L802.511197,141.235848 L802.557596,141.262163 C803.667004,140.912444 804.813808,140.949147 805.488317,141.33834 C805.602582,141.404821 805.670449,141.458837 805.734853,141.526704 L804.639295,142.15897 C804.562426,142.084178 804.473091,142.017697 804.335281,141.938058 C803.627531,141.529474 802.50358,141.596648 801.494586,142.020467 C801.31384,142.098721 801.106085,142.19221 800.908026,142.306475 L797.50224,144.273217 L796.507096,143.699122 L800.903179,141.161056 Z" id="Fill-90" fill="#A5A4A5"></path>
                                <path d="M566.217202,5.17121384 C564.051017,6.4218951 560.774038,6.55762795 558.898016,5.47453521 C557.021994,4.39144247 557.257449,2.49949274 559.422942,1.24811896 C561.589128,-0.00186978926 564.866799,-0.138295154 566.742821,0.94479759 C568.618843,2.02789033 568.383388,3.92053258 566.217202,5.17121384" id="Fill-92" fill="#F9CDD5"></path>
                                <path d="M578.647285,12.0162353 C576.480407,13.2669166 573.20412,13.4026494 571.328098,12.3195567 C569.452076,11.236464 569.687531,9.34451423 571.853024,8.09383296 C574.01921,6.8431517 577.296881,6.70741885 579.172903,7.79051159 C581.048925,8.87360434 580.81347,10.7655541 578.647285,12.0162353" id="Fill-94" fill="#FFF797"></path>
                                <path d="M591.339137,19.4942151 C589.172952,20.7448964 585.895973,20.8806292 584.019951,19.7975365 C582.143929,18.7144437 582.379384,16.822494 584.544877,15.5718127 C586.711755,14.3211315 589.988734,14.1847061 591.864756,15.2684914 C593.740777,16.3515841 593.506015,18.2435338 591.339137,19.4942151" id="Fill-96" fill="#B8F978"></path>
                                <polygon id="Fill-98" fill="#EFEFEF" points="561.335806 46.8880821 837.606865 208.122088 703.094918 286.473876 425.917357 124.787658"></polygon>
                                <polygon id="Fill-102" fill="#EFEFEF" points="319.540337 188.2821 444.752506 260.566076 419.987494 275.64835 293.869515 202.91147"></polygon>
                                <polygon id="Fill-104" fill="#EFEFEF" points="399.724241 142.535559 573.57794 242.880224 548.812927 257.962498 374.05342 157.164929"></polygon>
                                <polygon id="Fill-106" fill="#EFEFEF" points="362.816402 164.719362 536.669408 265.064027 511.905087 280.146301 337.14558 179.348732"></polygon>
                                <polygon id="Fill-110" fill="#EFEFEF" points="266.113602 219.750307 417.675257 306.678195 309.168616 368.228888 158.123577 280.437434"></polygon>
                            </g>
                        </g>
                    </g>
                </g>
                <g id="Page-1" transform="translate(120.000000, 0.000000)">
                    <g id="IA-group">
                        <mask id="mask-4" fill="white">
                            <use xlink:href="#path-3"></use>
                        </mask>
                        <use id="Mask" fill="#D8D8D8" opacity="0" xlink:href="#path-3"></use>
                        <g mask="url(#mask-4)">
                            <g transform="translate(146.000000, 24.000000)">
                                <g id="Group-45" transform="translate(0.000000, 0.527698)">
                                    <path d="M193.269386,316.137806 C144.505875,344.291391 70.7401233,347.348937 28.5100843,322.966844 C-13.7206295,298.585425 -8.42475141,255.997064 40.3394348,227.84348 C89.1029462,199.689896 162.868023,196.631675 205.098737,221.013768 C247.328776,245.395861 242.032897,287.984222 193.269386,316.137806" id="Fill-1" fill="#91F9CE" opacity="0.46948596"></path>
                                    <path d="M153.617579,293.244808 C130.1404,306.798963 94.6273811,308.271389 74.2954741,296.533138 C53.9642418,284.794886 56.514334,264.290903 79.9908374,250.736074 C103.467341,237.181919 138.981035,235.709492 159.312267,247.448419 C179.644174,259.18667 177.094757,279.690653 153.617579,293.244808" id="Fill-4" fill="#00C479" opacity="0.501358696"></path>
                                    <path d="M131.026421,280.201751 C121.957027,285.438246 108.23687,286.007108 100.381453,281.471736 C92.5267098,276.937039 93.5119267,269.015491 102.581995,263.77967 C111.652064,258.5425 125.372221,257.974314 133.226963,262.509011 C141.081706,267.043707 140.096489,274.965256 131.026421,280.201751" id="Fill-6" fill="#06F49E"></path>
                                    <polygon id="Fill-8" fill="#06F49E" points="117.075885 201.419424 109.881777 205.543164 116.637261 209.443543 123.753091 205.268518"></polygon>
                                    <polygon id="Fill-10" fill="#05C476" points="123.753159 205.268585 123.367169 213.34264 116.175761 217.467055 116.637328 209.44361"></polygon>
                                    <polyline id="Fill-12" fill="#047242" points="116.175761 217.46719 109.428375 213.554664 109.881845 205.543366 116.637328 209.443745"></polyline>
                                    <polygon id="Fill-14" fill="#06F49E" points="117.075885 171.250194 109.881777 175.373934 116.637261 179.274313 123.753091 175.099288"></polygon>
                                    <polygon id="Fill-16" fill="#05C476" points="123.753159 175.099355 123.367169 183.17341 116.175761 187.297825 116.637328 179.27438"></polygon>
                                    <polyline id="Fill-18" fill="#047242" points="116.175761 187.29796 109.428375 183.385434 109.881845 175.374136 116.637328 179.274515"></polyline>
                                    <polygon id="Fill-20" fill="#06F49E" points="117.075885 141.081301 109.881777 145.204366 116.637261 149.10542 123.753091 144.930395"></polygon>
                                    <polygon id="Fill-22" fill="#05C476" points="123.753159 144.930125 123.367169 153.00418 116.175761 157.129269 116.637328 149.10515"></polygon>
                                    <polyline id="Fill-24" fill="#047242" points="116.175761 157.129067 109.428375 153.215867 109.881845 145.204569 116.637328 149.104948"></polyline>
                                    <polygon id="Fill-26" fill="#06F49E" points="117.075885 231.588654 109.881777 235.712394 116.637261 239.612773 123.753091 235.437748"></polygon>
                                    <polygon id="Fill-28" fill="#05C476" points="123.753159 235.437815 123.367169 243.51187 116.175761 247.636285 116.637328 239.61284"></polygon>
                                    <polyline id="Fill-30" fill="#047242" points="116.175761 247.63642 109.428375 243.723894 109.881845 235.712596 116.637328 239.612975"></polyline>
                                    <polygon id="Fill-32" fill="#06F49E" points="117.075885 261.757951 109.881777 265.881691 116.637261 269.78207 123.753091 265.607045"></polygon>
                                    <polygon id="Fill-34" fill="#05C476" points="123.753159 265.607113 123.367169 273.681167 116.175761 277.805582 116.637328 269.782138"></polygon>
                                    <polyline id="Fill-36" fill="#047242" points="116.175761 277.80565 109.428375 273.892449 109.881845 265.881826 116.637328 269.782205"></polyline>
                                    <g id="Group-40" transform="translate(25.642631, 0.000000)">
                                        <mask id="mask-6" fill="white">
                                            <use xlink:href="#path-5"></use>
                                        </mask>
                                        <g id="Clip-39"></g>
                                        <path d="M87.1735407,113.941816 L4.73045807,66.831579 C-0.715226959,63.7200482 -0.733446723,55.874078 4.69806738,52.7369046 L93.867617,1.2370545 C96.37992,-0.213778565 99.4752555,-0.215802983 101.989583,1.23233085 L184.05005,48.5024964 C189.472117,51.6261738 189.478191,59.4485258 184.060847,62.5809756 L95.2745876,113.920897 C92.7703823,115.36903 89.6851689,115.377128 87.1735407,113.941816" id="Fill-38" fill="#06F49E" mask="url(#mask-6)"></path>
                                    </g>
                                    <path d="M213.719452,55.778323 L213.048694,73.2591744 C213.048694,73.2591744 212.711291,76.9510384 209.958083,78.7547951 C207.204874,80.5585517 120.242615,130.791116 120.242615,130.791116 L116.949561,131.81952 L117.004895,115.033719 C117.004895,115.033719 118.651422,115.035069 119.784422,114.477679 C120.917421,113.920964 211.326589,61.4291491 211.326589,61.4291491 C211.326589,61.4291491 213.910422,58.5335562 213.719452,55.778323" id="Fill-41" fill="#05C476"></path>
                                    <path d="M117.065358,114.988912 C117.065358,114.988912 114.703537,114.756779 112.876162,113.897076 C111.048787,113.037373 30.3230858,66.9069549 29.0902151,66.0249833 C27.6859437,65.0195223 26.4409264,62.3256964 26.2836966,60.1319019 C26.1271416,57.9374325 25.6426309,76.8374011 25.6426309,76.8374011 C25.6426309,76.8374011 25.8781382,80.5204926 27.9929804,82.2446222 C30.1091723,83.9680769 110.32607,129.968257 113.008424,131.206527 C113.925485,131.630305 117.009349,131.774713 117.009349,131.774713 L117.065358,114.988912 Z" id="Fill-43" fill="#047242"></path>
                                </g>
                                <g id="Group-48" transform="translate(74.228668, 29.544360)">
                                    <mask id="mask-8" fill="white">
                                        <use xlink:href="#path-7"></use>
                                    </mask>
                                    <g id="Clip-47"></g>
                                    <polygon id="Fill-46" fill="#FFFFFF" mask="url(#mask-8)" points="-19.1261636 30.3360421 30.9943829 59.2730762 101.645229 18.4837482 51.5240081 -10.4539608"></polygon>
                                </g>
                            </g>
                        </g>
                    </g>
                </g>
            </g>
        </g>
    </g>
</svg>