<?xml version="1.0" encoding="utf-8"?>
<!-- Generator: Adobe Illustrator 19.2.1, SVG Export Plug-In . SVG Version: 6.00 Build 0)  -->
<svg version="1.1" id="Layer_1" xmlns="http://www.w3.org/2000/svg" xmlns:xlink="http://www.w3.org/1999/xlink" x="0px" y="0px"
	 viewBox="0 0 414 842.9" style="enable-background:new 0 0 414 842.9;" xml:space="preserve">
<style type="text/css">
	.st0{display:none;}
	.st1{display:inline;}
	.st2{fill:#FFFFFF;}
	.st3{display:inline;fill:#34313E;}
	.st4{clip-path:url(#SVGID_2_);}
	.st5{clip-path:url(#SVGID_4_);}
	.st6{fill:#F3F3F3;}
	.st7{clip-path:url(#SVGID_6_);}
	.st8{clip-path:url(#SVGID_8_);}
	.st9{fill:#919596;}
	.st10{clip-path:url(#SVGID_10_);}
	.st11{clip-path:url(#SVGID_12_);}
	.st12{fill:#4B71FC;}
	.st13{clip-path:url(#SVGID_14_);}
	.st14{clip-path:url(#SVGID_16_);}
	.st15{clip-path:url(#SVGID_18_);}
	.st16{clip-path:url(#SVGID_20_);}
	.st17{fill:#EAEAEA;}
	.st18{clip-path:url(#SVGID_22_);}
	.st19{clip-path:url(#SVGID_24_);}
	.st20{clip-path:url(#SVGID_26_);}
	.st21{clip-path:url(#SVGID_28_);}
	.st22{fill:#4E00C0;}
	.st23{clip-path:url(#SVGID_30_);}
	.st24{clip-path:url(#SVGID_32_);}
	.st25{fill:#72B5ED;}
	.st26{clip-path:url(#SVGID_34_);}
	.st27{clip-path:url(#SVGID_36_);}
	.st28{clip-path:url(#SVGID_38_);}
	.st29{clip-path:url(#SVGID_40_);}
	.st30{clip-path:url(#SVGID_42_);}
	.st31{clip-path:url(#SVGID_44_);}
	.st32{clip-path:url(#SVGID_46_);}
	.st33{clip-path:url(#SVGID_48_);}
	.st34{clip-path:url(#SVGID_50_);}
	.st35{clip-path:url(#SVGID_52_);}
	.st36{clip-path:url(#SVGID_54_);}
	.st37{clip-path:url(#SVGID_56_);}
	.st38{clip-path:url(#SVGID_58_);}
	.st39{clip-path:url(#SVGID_60_);}
	.st40{clip-path:url(#SVGID_62_);}
	.st41{clip-path:url(#SVGID_64_);}
	.st42{clip-path:url(#SVGID_66_);}
	.st43{clip-path:url(#SVGID_68_);}
	.st44{fill:#D1D7E0;}
	.st45{clip-path:url(#SVGID_70_);}
	.st46{clip-path:url(#SVGID_72_);}
	.st47{clip-path:url(#SVGID_74_);}
	.st48{clip-path:url(#SVGID_76_);}
	.st49{clip-path:url(#SVGID_78_);}
	.st50{clip-path:url(#SVGID_80_);}
	.st51{clip-path:url(#SVGID_82_);}
	.st52{clip-path:url(#SVGID_84_);}
	.st53{fill:#494751;}
</style>
<g id="Layer_5" class="st0">
	<g class="st1">
		<g>
			<path class="st2" d="M237.6,218.4c-0.3-0.3-0.7-0.6-1.1-0.7s-0.9-0.3-1.3-0.3s-0.9,0.1-1.3,0.3c-0.4,0.2-0.8,0.4-1.1,0.7
				s-0.6,0.7-0.7,1.1c-0.2,0.4-0.3,0.9-0.3,1.3c0,0.5,0.1,0.9,0.3,1.3c0.2,0.4,0.4,0.8,0.7,1.1s0.7,0.5,1.1,0.7
				c0.4,0.2,0.9,0.3,1.3,0.3c0.5,0,0.9-0.1,1.3-0.3s0.8-0.4,1.1-0.7s0.6-0.7,0.7-1.1c0.2-0.4,0.3-0.9,0.3-1.3c0-0.5-0.1-0.9-0.3-1.3
				C238.2,219.1,238,218.7,237.6,218.4z M235.5,219.4c-0.1,0.1-0.2,0.1-0.3,0.1c-0.4,0-0.7,0.1-0.9,0.4c-0.3,0.3-0.4,0.6-0.4,0.9
				c0,0.1,0,0.2-0.1,0.3s-0.2,0.1-0.3,0.1s-0.2,0-0.3-0.1s-0.1-0.2-0.1-0.3c0-0.3,0.1-0.6,0.2-0.8s0.3-0.5,0.5-0.7s0.4-0.4,0.7-0.5
				s0.5-0.2,0.8-0.2c0.1,0,0.2,0,0.3,0.1s0.1,0.2,0.1,0.3C235.7,219.2,235.6,219.3,235.5,219.4z"/>
			<path class="st2" d="M249.3,209.5c-6.9-7.1-18.3-7.4-25.4-0.5c-7.1,6.9-7.4,18.3-0.5,25.4c6.9,7.1,18.3,7.4,25.4,0.5
				C256,228,256.2,216.6,249.3,209.5z M243.1,227.8c-0.1,0.2-0.2,0.3-0.4,0.5s-0.3,0.3-0.5,0.4c-0.2,0.1-0.3,0.2-0.4,0.2
				c-0.2,0-0.3-0.1-0.4-0.2l-3.1-3.1c-0.5,0.3-1,0.5-1.5,0.7s-1.1,0.2-1.6,0.2c-0.8,0-1.5-0.1-2.2-0.4c-0.7-0.3-1.3-0.7-1.8-1.2
				s-0.9-1.1-1.2-1.8s-0.4-1.4-0.4-2.2s0.1-1.5,0.4-2.2c0.3-0.7,0.7-1.3,1.2-1.8s1.1-0.9,1.8-1.2s1.4-0.4,2.2-0.4s1.5,0.1,2.2,0.4
				c0.7,0.3,1.3,0.7,1.8,1.2s0.9,1.1,1.2,1.8s0.4,1.4,0.4,2.2c0,0.6-0.1,1.1-0.2,1.6c-0.2,0.5-0.4,1-0.7,1.5l3.1,3.1
				c0.1,0.1,0.2,0.2,0.2,0.4C243.2,227.5,243.2,227.6,243.1,227.8z"/>
		</g>
		<rect x="91.2" y="210.7" class="st2" width="4.1" height="20.1"/>
		<rect x="234.3" y="193.2" class="st2" width="4.1" height="19.4"/>
		<g>
			<path class="st2" d="M169,308.9c0-0.1,0.1-0.3,0.2-0.3c0.1,0,0.3,0.1,0.3,0.2l0,0l0,0c0,0.3,0.1,0.5,0.1,0.8
				c0,0.2,0.1,0.5,0.1,0.7c0,0.4,0.1,0.7,0.1,1c0.2-0.2,0.4-0.5,0.7-0.7c0.6-0.5,1.5-0.9,2.9-1.4c0.1,0,0.3,0,0.3,0.2
				c0,0.1,0,0.3-0.2,0.3c-1.3,0.4-2.1,0.8-2.7,1.3c-0.5,0.4-0.8,0.8-1.2,1.3c-0.1,0.2-0.2,0.4-0.3,0.4s-0.3-0.1-0.3-0.2s0-0.1,0-0.2
				c0.1-0.1,0.2-0.3,0.2-0.4c0-0.3,0-0.9-0.1-1.6c0-0.2,0-0.5-0.1-0.7C169.1,309.4,169.1,309.1,169,308.9L169,308.9L169,308.9
				L169,308.9L169,308.9z"/>
			<path class="st2" d="M167.2,312.8c0-0.1,0.1-0.3,0.2-0.3c0.1,0,0.3,0.1,0.3,0.2l0,0l0,0c0,0.3,0.1,0.5,0.1,0.8
				c0,0.2,0.1,0.5,0.1,0.7c0,0.4,0.1,0.7,0.1,1c0.2-0.2,0.4-0.5,0.7-0.7c0.7-0.5,1.5-0.9,2.9-1.4c0.1,0,0.3,0,0.3,0.2s0,0.3-0.2,0.3
				c-1.3,0.4-2.1,0.8-2.7,1.3c-0.5,0.4-0.8,0.8-1.2,1.3c-0.1,0.2-0.2,0.4-0.3,0.4s-0.3-0.1-0.3-0.2s0-0.1,0-0.2
				c0.1-0.1,0.2-0.3,0.2-0.4c0-0.3,0-0.9-0.1-1.6c0-0.2,0-0.5-0.1-0.7C167.3,313.4,167.3,313.1,167.2,312.8L167.2,312.8L167.2,312.8
				L167.2,312.8L167.2,312.8z"/>
			<path class="st2" d="M160.7,314.6c0-0.1,0.2-0.2,0.3-0.2s0.2,0.2,0.2,0.3l0,0l0,0c0,0.3-0.1,0.5-0.1,0.8s-0.1,0.5-0.1,0.7
				c-0.1,0.7-0.1,1.3-0.1,1.6c0.1,0.1,0.2,0.3,0.3,0.4l0,0c0,0.1,0,0.1,0,0.2s-0.2,0.2-0.3,0.2c-0.2,0-0.3-0.2-0.3-0.4
				c-0.3-0.5-0.7-0.9-1.2-1.3c-0.6-0.5-1.4-0.9-2.7-1.3c-0.1,0-0.2-0.2-0.2-0.3c0-0.1,0.2-0.2,0.3-0.2c1.4,0.4,2.3,0.9,2.9,1.4
				c0.3,0.2,0.5,0.4,0.7,0.7c0-0.3,0-0.6,0.1-1c0-0.3,0-0.5,0.1-0.7C160.6,315.1,160.6,314.9,160.7,314.6L160.7,314.6L160.7,314.6
				L160.7,314.6L160.7,314.6z"/>
			<path class="st2" d="M162,322.1c0.3,0,0.5,0.3,0.5,0.6c0,0.3-0.3,0.5-0.6,0.5l0,0l0,0c-0.5-0.1-1-0.2-1.5-0.3
				c-0.5-0.2-1-0.3-1.4-0.5c-2.3-1.1-4.1-2.9-4.8-4.6c-0.9-2.1-0.7-4.4-0.4-6.7c0.1-1.3,0.3-2.7,0.2-4.1c0-0.3,0.2-0.6,0.5-0.6
				c0.1,0,0.2,0,0.3,0.1c4.3,1.9,6.9,3.4,8.3,5.4c1.5,2.1,1.8,4.7,1.4,8.9c0,0.3-0.3,0.5-0.6,0.5s-0.5-0.3-0.5-0.6
				c0.3-3.9,0.1-6.3-1.2-8.2c-1.3-1.8-3.5-3.1-7.1-4.7c0,1.1-0.1,2.3-0.2,3.4c-0.2,2.2-0.4,4.4,0.4,6.2c0.6,1.6,2.2,3.1,4.3,4.1
				c0.4,0.2,0.8,0.4,1.3,0.5C161,321.9,161.5,322,162,322.1L162,322.1L162,322.1L162,322.1z"/>
			<path class="st2" d="M164.4,315.8c0,0.3-0.2,0.5-0.5,0.6c-0.3,0-0.5-0.2-0.6-0.5l0,0c0-1.5,0.1-2.8,0.3-4.1
				c0.2-1.3,0.6-2.4,1-3.4c2.4-5.2,7.4-7.5,11.8-7.8c0.3,0,0.6,0.2,0.6,0.5c0,0.1,0,0.1,0,0.2c-0.3,1.9-0.2,3.6-0.1,5.3
				c0.1,2.5,0.2,4.9-0.8,7.7c-1.1,3.1-3.9,4.6-6.6,6.1c-1,0.6-2,1.1-2.9,1.8c-0.2,0.2-0.6,0.1-0.8-0.1s-0.1-0.6,0.1-0.8
				c0.9-0.7,2-1.3,3-1.9c2.5-1.4,5.1-2.8,6.1-5.5c1-2.6,0.8-4.9,0.7-7.3c-0.1-1.5-0.2-3.1,0-4.8c-3.9,0.5-8.1,2.6-10.2,7.1
				c-0.4,0.9-0.8,2-1,3.1C164.4,313.1,164.3,314.4,164.4,315.8L164.4,315.8L164.4,315.8z"/>
			<path class="st2" d="M166,326.3c-0.1,0.3-0.3,0.5-0.6,0.4s-0.5-0.3-0.4-0.6l0,0l0,0l0,0c0.2-1,0.4-2.1,0.5-3.2c0.3-2,0.6-4,1.3-6
				l0,0l0,0l0,0l0,0l0,0c0.1-0.4,0.3-0.8,0.5-1.2c0.2-0.5,0.4-1,0.6-1.5c1.3-2.8,3.2-6.3,5.3-7.9c0.2-0.2,0.6-0.1,0.8,0.1
				s0.1,0.6-0.1,0.8c-1.9,1.4-3.8,4.8-5,7.5c-0.2,0.5-0.5,1-0.6,1.5c-0.2,0.4-0.3,0.8-0.4,1.2l0,0l0,0l0,0c-0.6,1.8-0.9,3.8-1.2,5.8
				C166.4,324.1,166.3,325.2,166,326.3L166,326.3L166,326.3L166,326.3z"/>
			<path class="st2" d="M162.9,326c0,0.3-0.2,0.6-0.5,0.6s-0.6-0.2-0.6-0.5c-0.2-2-0.6-4.5-1.3-6.8s-1.6-4.4-3.1-5.7
				c-0.2-0.2-0.2-0.5,0-0.8c0.2-0.2,0.5-0.2,0.8,0c1.6,1.5,2.6,3.8,3.4,6.2C162.3,321.4,162.7,323.9,162.9,326L162.9,326z"/>
		</g>
		<path class="st2" d="M229.5,340.3c1-0.8,2.5-3,0.8-5.2c-1.1-1.6-2.8-2.4-3.6-3.7c-1.4-2-1.6-3.9-1.6-3.9s-1.9,3.9-1.7,8.1
			c0.1,3,1.5,5.1,3.1,5.3c0.8,0.1,1.4,0.1,1.8,0c0.4,1.1,0.8,2.1,1.6,3.1l1-1.9C230.2,341.5,229.8,340.9,229.5,340.3z"/>
		<path class="st2" d="M89.1,332.5c0.6-1.6,0.9-5.1-2.4-6.6c-2.4-1.1-4.8-1-6.6-1.9c-2.9-1.4-4.4-3.5-4.4-3.5S76,326.3,79,331
			c2.1,3.3,5.1,4.9,7,4.2c1-0.4,1.7-0.9,2.1-1.2c1.1,1,2.4,1.9,3.8,2.5l-0.1-2.8C90.7,333.5,89.8,333,89.1,332.5z"/>
		<path class="st2" d="M148.3,286.8c-0.7-1.9-1-5.9,2.8-7.7c2.8-1.2,5.6-1.1,7.8-2.2c3.3-1.6,5.2-4.1,5.2-4.1s-0.4,6.8-3.9,12.2
			c-2.5,3.9-5.9,5.8-8.2,4.9c-1.1-0.5-1.9-1-2.4-1.4c-1.3,1.1-2.7,2.2-4.5,3l0.1-3.3C146.4,288,147.5,287.4,148.3,286.8z"/>
		<path class="st2" d="M147.4,224.9c-0.5-1.3-0.7-4.2,2-5.4c1.9-0.9,4-0.8,5.5-1.5c2.4-1.2,3.7-2.9,3.7-2.9s-0.3,4.8-2.7,8.6
			c-1.7,2.8-4.2,4.1-5.8,3.4c-0.8-0.3-1.4-0.7-1.7-1c-0.9,0.8-1.9,1.6-3.2,2.1l0.1-2.3C146.1,225.7,146.8,225.3,147.4,224.9z"/>
		<path class="st2" d="M145.2,267.7h-2.9v-8.8c0-4.7,0-8.5-0.7-9.8c-0.2-0.5-0.5-0.6-3-0.6h-16.1c-1.7,0-3,0-4-1
			c-1.4-1.4-1.3-3.5-1.3-10.8c0-0.9,0-2,0-3.1h2.9c0,1.1,0,2.2,0,3.1c0,4.6,0,8.3,0.5,8.7c0.2,0.1,1.2,0.1,1.9,0.1h0.4h15.6
			c2.5,0,4.6,0,5.7,2.3c0.8,1.7,0.9,4.7,0.9,11L145.2,267.7L145.2,267.7z"/>
		<g>
			<circle class="st2" cx="103.5" cy="183.8" r="3.3"/>
			<circle class="st2" cx="230.1" cy="171.7" r="3.3"/>
			<circle class="st2" cx="164.3" cy="159.6" r="3.3"/>
			<circle class="st2" cx="256.3" cy="190.3" r="3.3"/>
			<circle class="st2" cx="288.2" cy="297" r="3.3"/>
			<circle class="st2" cx="83.4" cy="220" r="3.3"/>
			<circle class="st2" cx="110.4" cy="198.3" r="3.3"/>
			<circle class="st2" cx="71.9" cy="225.6" r="3.3"/>
			<circle class="st2" cx="65.4" cy="302.1" r="3.3"/>
			<circle class="st2" cx="77.2" cy="293.8" r="3.3"/>
			<circle class="st2" cx="122.7" cy="375.2" r="2.4"/>
			<circle class="st2" cx="113.5" cy="180.9" r="1.6"/>
			<circle class="st2" cx="249" cy="181.7" r="1.5"/>
			<circle class="st2" cx="171.5" cy="203.9" r="1.5"/>
			<circle class="st2" cx="120.6" cy="206.7" r="1.6"/>
			<circle class="st2" cx="83.9" cy="343" r="1.5"/>
			<circle class="st2" cx="170" cy="230" r="1.5"/>
			<circle class="st2" cx="264.2" cy="195.7" r="1.5"/>
			<circle class="st2" cx="255.7" cy="207" r="1.6"/>
			<circle class="st2" cx="270.9" cy="205.8" r="1.5"/>
			<circle class="st2" cx="256.4" cy="239.3" r="1.5"/>
			<circle class="st2" cx="178.1" cy="241.7" r="1.5"/>
			<circle class="st2" cx="111.9" cy="253" r="1.6"/>
			<circle class="st2" cx="128.7" cy="321.9" r="1.5"/>
			<circle class="st2" cx="136.1" cy="329.3" r="1.5"/>
			<circle class="st2" cx="161" cy="295.4" r="1.5"/>
			<circle class="st2" cx="187.5" cy="316.5" r="1.5"/>
			<circle class="st2" cx="244.4" cy="286.5" r="1.5"/>
			<circle class="st2" cx="243.6" cy="367.1" r="1.5"/>
			<circle class="st2" cx="240.1" cy="360.5" r="1.5"/>
			<circle class="st2" cx="276.7" cy="330.5" r="1.5"/>
			<circle class="st2" cx="284.1" cy="307.1" r="1.5"/>
			<circle class="st2" cx="226" cy="305.6" r="1.5"/>
			<circle class="st2" cx="141.1" cy="319.2" r="1.5"/>
			<circle class="st2" cx="220.2" cy="163.8" r="1.5"/>
			<circle class="st2" cx="246.3" cy="198.5" r="1.5"/>
			<circle class="st2" cx="101.8" cy="222" r="1.6"/>
			<circle class="st2" cx="76.2" cy="212.2" r="1.6"/>
			<circle class="st2" cx="117.5" cy="171.4" r="1.6"/>
			<circle class="st2" cx="64.8" cy="238.9" r="1.6"/>
			<circle class="st2" cx="69" cy="315.2" r="2.7"/>
			<circle class="st2" cx="83.9" cy="264.1" r="1.5"/>
			<circle class="st2" cx="61.7" cy="254.2" r="1.6"/>
			<circle class="st2" cx="116.4" cy="262.3" r="1.5"/>
			<circle class="st2" cx="75.9" cy="302.3" r="1.6"/>
			<circle class="st2" cx="61.6" cy="291.1" r="1.5"/>
			<circle class="st2" cx="77.7" cy="314.9" r="1.5"/>
			<circle class="st2" cx="85.7" cy="315.8" r="1.5"/>
		</g>
		<path class="st2" d="M174.8,355.4v102.2h4.1V355.4c0-11.6-9.4-21-21-21h-29.5c-10.1,0-16.9-7-16.9-17.3v-3.8h-4.1v3.8
			c0,12.6,8.6,21.4,21,21.4h29.5C167.2,338.5,174.8,346,174.8,355.4z"/>
		<path class="st2" d="M166.1,474.6v-83.7c0-3.4,0-9,0.7-9.7c0.3-0.2,1.4-0.2,2.4-0.2h44.3c1.5,0,3.3-0.1,4.6-1.4
			c1.8-1.8,1.8-4.8,1.8-12.7c0-1,0-2,0-3.1V198.3h-4.1v165.5c0,1.1,0,2.2,0,3.1c0,5,0,9.2-0.6,9.8c-0.1,0-0.4,0.2-1.7,0.2h-44.4l0,0
			c-2.5,0-4.9,0-6.1,2.7c-0.8,1.8-1,4.5-1,11.3v83.7L166.1,474.6L166.1,474.6z"/>
		<path class="st2" d="M159,433.6v-69.2c0-8,6.5-14.5,14.5-14.5h46.2c10.9,0,18.6-7.8,18.6-18.9v-98h-4.1v98
			c0,8.9-5.8,14.8-14.5,14.8h-46.2c-10.2,0-18.6,8.3-18.6,18.6v69.2L159,433.6L159,433.6z"/>
		<path class="st2" d="M177.3,329.1c10.8,0,19.5,8.8,19.5,19.5v101.9h4.1V348.6c0-13-10.6-23.6-23.6-23.6h-11.7
			c-11.7,0-19.5-8-19.5-20V199.5H142V305c0,14.2,9.7,24.1,23.6,24.1H177.3L177.3,329.1z"/>
		<path class="st2" d="M96.6,236.6h-8.2c0.7-1.7,1.6-3.2,2.8-4.5c0.4,0,0.8-0.1,1.3-0.1c0.4,0,0.9,0,1.3,0.1
			C95,233.4,95.9,234.9,96.6,236.6L96.6,236.6z M101.9,236.6h-3c-0.5-1.3-1.1-2.5-1.8-3.6C99,233.8,100.7,235,101.9,236.6
			L101.9,236.6z M104.5,243H100c0-1.5-0.2-2.9-0.5-4.3h3.8C103.9,240.1,104.4,241.5,104.5,243L104.5,243z M103.3,249.4h-4.4
			c0.5-1.3,0.8-2.8,1-4.3h4.6C104.4,246.7,103.9,248.1,103.3,249.4L103.3,249.4z M94.8,255.9c1.2-1.2,2.3-2.7,3.1-4.3h4
			C100.2,253.8,97.7,255.3,94.8,255.9L94.8,255.9z M92.5,255.2c-1.2-1-2.2-2.2-3-3.6h6C94.7,253,93.7,254.2,92.5,255.2L92.5,255.2z
			 M83.1,251.6h4c0.8,1.6,1.9,3.1,3.1,4.3C87.4,255.3,84.9,253.8,83.1,251.6L83.1,251.6z M80.6,245.2h4.6c0.2,1.5,0.5,2.9,1,4.3
			h-4.4C81.1,248.1,80.7,246.7,80.6,245.2L80.6,245.2z M81.8,238.8h3.8c-0.3,1.4-0.5,2.8-0.5,4.3h-4.5
			C80.7,241.5,81.1,240.1,81.8,238.8L81.8,238.8z M97.7,245.2c-0.2,1.5-0.6,2.9-1.1,4.3h-8.2c-0.5-1.3-0.9-2.8-1.1-4.3H97.7
			L97.7,245.2z M87.2,243c0-1.5,0.2-2.9,0.6-4.3h9.6c0.4,1.4,0.6,2.8,0.6,4.3H87.2L87.2,243z M88,233c-0.7,1.1-1.3,2.3-1.8,3.6h-3
			C84.4,235,86.1,233.8,88,233L88,233z M76.5,244.1c0,8.9,7.2,16,16,16c8.9,0,16-7.2,16-16c0-8.9-7.2-16-16-16
			S76.5,235.3,76.5,244.1L76.5,244.1z"/>
		<g>
			<g>
				<path class="st2" d="M158.4,231.9c8.6,0.1,15.5,7.1,15.4,15.7s-7.1,15.5-15.7,15.4c-8.6-0.1-15.5-7.1-15.4-15.7
					C142.8,238.7,149.8,231.8,158.4,231.9L158.4,231.9z M168.7,251.5c-2.1,3.6-6,6-10.5,6s-8.4-2.5-10.4-6.1
					c2.8,1.8,6.5,2.9,10.4,2.9C162.2,254.2,165.8,253.2,168.7,251.5L168.7,251.5z M153.7,240.9c1.6,0,2.8,1.3,2.8,2.8
					c0,1.6-1.3,2.8-2.8,2.8c-1.6,0-2.8-1.3-2.8-2.8C150.9,242.1,152.1,240.8,153.7,240.9L153.7,240.9z M162.9,240.9
					c1.6,0,2.8,1.3,2.8,2.8c0,1.6-1.3,2.8-2.8,2.8c-1.6,0-2.8-1.3-2.8-2.8C160.1,242.2,161.4,240.9,162.9,240.9L162.9,240.9z"/>
			</g>
		</g>
		<g>
			<path class="st2" d="M110.5,359.2l-0.1-0.8l-1.3,0.3l8.1-10.9c0.4,0.4,0.6,0.9,0.8,1.3L110.5,359.2L110.5,359.2z M107.7,360.2
				c0,0-1,0.6-1.8,0.7c-0.5,0-0.3-2.1-0.3-2.1l0,0l0,0c0,0,0.3,0,0.7,0.1c0.2,0.1,0.4,0.2,0.6,0.4c0.4,0.3,0.6,0.6,0.7,0.8
				C107.7,360.1,107.8,360.2,107.7,360.2L107.7,360.2z M113.4,345.8c0.4,0.1,0.9,0.2,1.4,0.4h0.1l-8,10.8v-1.4h-0.7L113.4,345.8
				L113.4,345.8z M108.6,358.1c0-0.4,0-0.8,0-1.1c0-0.2-0.6,0-1.1,0.3l8-10.8c0.2,0.1,0.4,0.2,0.7,0.4c0.2,0.1,0.4,0.3,0.5,0.4
				L108.6,358.1L108.6,358.1z M117.7,344.7c-1.8-1.2-3.5-1.3-3.7-1l-0.5,0.7l-0.9,1.3l-7.4,9.9l-0.2,0.3c0,0-0.4,2.1-0.3,3.9
				c0.1,0.8,0.2,1.7,0.4,1.9c0.2,0.2,1.4-0.2,1.4-0.2l4.1-1.5l7.6-10.2l0.1-0.2l0.8-1.1l0.5-0.7
				C119.9,347.6,119.4,345.8,117.7,344.7L117.7,344.7z"/>
		</g>
		<g>
			<polygon class="st2" points="69.1,272 69.7,273.1 70.3,274.2 70.8,275.3 72,274.7 71.4,273.6 70.8,272.5 70.2,271.4 69.7,270.3 
				70.8,269.7 71.9,269.1 71.3,268 70.2,268.6 69.1,269.1 68,269.7 68.5,270.8 			"/>
			<polygon class="st2" points="73.1,271.4 73.6,272.5 74.2,273.6 75.3,273 74.8,271.9 74.2,270.8 73.6,269.7 74.7,269.1 74.2,268 
				73,268.5 71.9,269.1 72.5,270.2 			"/>
			
				<rect x="75" y="268.7" transform="matrix(0.8908 -0.4543 0.4543 0.8908 -114.0988 63.7599)" class="st2" width="1.3" height="1.3"/>
			<polygon class="st2" points="76.4,269.6 77,270.8 77.6,271.9 78.1,273 78.7,274.1 79.3,275.3 79.9,276.4 80.4,277.5 81.6,276.9 
				81,275.8 80.4,274.7 79.8,273.6 79.3,272.4 78.7,271.3 78.1,270.2 77.6,269.1 			"/>
			<polygon class="st2" points="79.9,279.2 80.5,280.3 81,281.4 82.2,280.9 81.6,279.7 81,278.6 80.4,277.5 79.3,278.1 			"/>
			<polygon class="st2" points="80.5,283.1 81.1,284.3 79.9,284.8 78.8,285.4 77.7,286 76.6,286.5 75.4,287.1 74.3,287.7 
				73.2,288.3 72.1,288.8 71,289.4 71.5,290.5 72.6,290 73.8,289.4 74.9,288.8 76,288.2 77.1,287.7 78.3,287.1 79.4,286.5 80.5,286 
				81.6,285.4 82.7,284.8 82.2,283.7 81.6,282.6 81,281.4 79.9,282 			"/>
			<polygon class="st2" points="69.8,287.2 68.7,287.7 69.3,288.9 69.8,290 71,289.4 70.4,288.3 			"/>
			<polygon class="st2" points="67.5,285.5 66.4,286.1 67,287.2 67.6,288.3 68.7,287.7 68.1,286.6 			"/>
			
				<rect x="64.9" y="285.1" transform="matrix(0.8909 -0.4543 0.4543 0.8909 -122.6677 60.9677)" class="st2" width="1.3" height="1.3"/>
			<polygon class="st2" points="63.6,283.3 62.5,283.8 63,285 63.6,286.1 64.7,285.5 64.1,284.4 			"/>
			<polygon class="st2" points="61.3,281.6 60.7,280.5 61.9,279.9 63,279.3 62.4,278.2 61.3,278.8 60.2,279.4 59,279.9 59.6,281 
				60.2,282.2 60.8,283.3 61.3,284.4 62.5,283.8 61.9,282.7 			"/>
			<polygon class="st2" points="64.7,279.9 65.2,281 65.8,282.1 66.4,283.2 67.5,282.7 66.9,281.6 66.4,280.4 65.8,279.3 
				65.2,278.2 64.7,277.1 64.1,275.9 63.5,274.8 62.9,273.7 62.4,272.6 61.8,271.5 61.2,270.3 60.6,269.2 60.1,268.1 59.5,267 
				60.6,266.4 61.8,265.9 62.3,266.9 62.9,268.1 63.5,269.2 64,270.3 64.6,271.4 65.2,272.6 65.8,273.7 66.3,274.8 66.9,275.9 
				67.5,277 68.6,276.5 68,275.3 67.4,274.2 66.9,273.1 66.3,272 65.7,270.9 66.9,270.3 68,269.7 67.4,268.6 66.3,269.2 65.2,269.7 
				64.6,268.6 64,267.5 63.4,266.4 62.9,265.2 61.7,265.8 61.2,264.7 60.1,265.3 59,265.9 59.5,267 58.4,267.5 59,268.7 59.5,269.8 
				60.1,270.9 60.7,272 61.2,273.1 61.8,274.3 62.4,275.4 63,276.5 63.5,277.6 64.1,278.8 63,279.3 63.6,280.5 			"/>
		</g>
		<g>
			<g>
				<g>
					<path class="st2" d="M204.8,159.7l1.7,0.2l0.1,1.3l1.5,1l1.1-0.2l0.9,1.4l-1,0.8l0.1,1.7l0.9,0.7l-0.5,1.6l-1.3-0.2l-1.3,1.2
						v1.2l-1.6,0.6l-0.6-1.1l-1.8-0.3l-0.9,0.7l-1.5-0.9l0.5-1.2l-0.9-1.5l-1.1-0.3l-0.2-1.7l1.2-0.3l0.6-1.6l-0.5-1l1.2-1.2l1,0.7
						l1.7-0.5L204.8,159.7L204.8,159.7z M204.7,163c1.3,0,2.3,1,2.3,2.3s-1,2.3-2.3,2.3s-2.3-1-2.3-2.3S203.4,163,204.7,163
						L204.7,163z"/>
				</g>
			</g>
		</g>
		<g>
			<g>
				<g>
					<path class="st2" d="M133.5,211.4l2,0.2l0.1,1.5l1.7,1.1l1.3-0.3l1.1,1.6l-1.1,1l0.2,2l1,0.9l-0.6,1.8l-1.5-0.2l-1.5,1.4v1.3
						l-1.9,0.7l-0.7-1.3l-2-0.3l-1.1,0.8l-1.7-1l0.6-1.3l-1-1.7l-1.3-0.3l-0.2-1.9l1.4-0.4l0.7-1.9l-0.6-1.2l1.4-1.4l1.2,0.8l2-0.6
						L133.5,211.4L133.5,211.4z M133.4,215.2c1.5,0,2.7,1.2,2.7,2.7s-1.2,2.7-2.7,2.7s-2.7-1.2-2.7-2.7S131.9,215.2,133.4,215.2
						L133.4,215.2z"/>
				</g>
			</g>
		</g>
		<rect x="137.9" y="217.2" class="st2" width="5.7" height="1.1"/>
		<rect x="80.4" y="275.3" class="st2" width="11.8" height="1"/>
		<g>
			<path class="st2" d="M242.8,189.8h-9.6v-3.5c-0.3,0.3-0.7,0.4-1.1,0.5v6.6c0,0.3,0.2,0.5,0.5,0.5h10.7c0.3,0,0.5-0.2,0.5-0.5
				v-6.6c-0.4-0.1-0.8-0.2-1.1-0.5v3.5H242.8z"/>
			<path class="st2" d="M243.7,181.3c0.1,0,0.1,0,0.2,0v-0.6c0-0.3-0.2-0.5-0.5-0.5h-10.7c-0.3,0-0.5,0.2-0.5,0.5v0.6
				c0.1,0,0.2,0,0.2,0H243.7z"/>
			<path class="st2" d="M243.7,181.9h-0.9h-9.6h-0.8l-2.1,2.3c0,0.9,0.7,1.6,1.6,1.6c0.2,0,0.3,0,0.5-0.1l0,0c0,0,0.1,0,0.1-0.1l0,0
				l0.1-0.1l0,0c0.2-0.1,0.4-0.3,0.5-0.5l0,0c0-0.1,0.1-0.1,0.1-0.2l0,0c0.1-0.2,0.1-0.4,0.1-0.7c0,0.9,0.7,1.6,1.6,1.6
				c0.9,0,1.6-0.7,1.6-1.6c0,0.9,0.7,1.6,1.6,1.6c0.9,0,1.6-0.7,1.6-1.6c0,0.9,0.7,1.6,1.6,1.6c0.9,0,1.6-0.7,1.6-1.6
				c0,0.3,0.1,0.5,0.2,0.8l0,0c0,0,0,0.1,0.1,0.1l0,0l0.1,0.1l0,0l0.1,0.1l0,0c0.1,0.1,0.3,0.2,0.5,0.3l0,0c0.1,0,0.1,0,0.2,0.1l0,0
				c0.1,0,0.2,0,0.4,0c0.9,0,1.6-0.7,1.6-1.6L243.7,181.9z"/>
		</g>
		<g>
			<path class="st2" d="M155.7,176h-21.1c-0.3,0-0.5,0.2-0.5,0.5v2.1h22v-2.1C156.1,176.2,155.9,176,155.7,176z"/>
			<path class="st2" d="M134.1,190.1c0,0.3,0.2,0.5,0.5,0.5h21.1c0.3,0,0.5-0.2,0.5-0.5v-7.6h-22L134.1,190.1L134.1,190.1z
				 M148,186.7h5.1c0.2,0,0.3,0.1,0.3,0.3s-0.1,0.3-0.3,0.3H148c-0.2,0-0.3-0.1-0.3-0.3S147.8,186.7,148,186.7z"/>
			<path class="st2" d="M145.1,159.9c-13.3,0-24,10.7-24,24s10.7,24,24,24s24-10.7,24-24C169.1,170.7,158.4,159.9,145.1,159.9z
				 M157.9,190.1c0,1.2-1,2.3-2.3,2.3h-21.1c-1.2,0-2.3-1-2.3-2.3v-13.6c0-1.2,1-2.3,2.3-2.3h21.1c1.2,0,2.3,1,2.3,2.3V190.1z"/>
		</g>
		<g>
			<path class="st2" d="M132.1,258.3c0.2-0.3,0.6-0.5,0.9-0.3c0.3,0.2,0.4,0.6,0.2,1l-1.1,1.9c-0.1,0.2-0.4,0.4-0.6,0.4
				c-0.1,0-0.2,0-0.3-0.1s-0.3-0.2-0.3-0.4c-0.1-0.2,0-0.4,0.1-0.6L132.1,258.3z"/>
			<path class="st2" d="M124.1,263.9l3.5-6.8c0.8-1.4,2.3-2.3,4.1-2.3c0.8,0,1.5,0.2,2.2,0.5l0.4-0.9c0.3-0.6,1.5-1.9,3.3-1l0.9,0.4
				l0,0c0.1,0.1,1.8,0.8,2.4-0.4l0.9-1.8c0.1-0.3,0.5-0.4,0.7-0.3c0.3,0.1,0.4,0.5,0.3,0.7l-0.9,1.9c-0.8,1.6-2.7,1.4-3.7,1l0,0l0,0
				c0,0,0,0-0.1-0.1l0,0l0,0c-0.2-0.1-0.4-0.2-0.9-0.5c-1.2-0.6-1.7,0.4-1.8,0.5l-0.5,0.9l0,0c2.1,1.5,2.9,4.2,1.7,6.3l-3.9,6.5l0,0
				c-1,1.4-2.5,2.3-4.1,2.3c-0.8,0-1.7-0.2-2.5-0.7C123.8,269,122.9,266.4,124.1,263.9z M126.8,269.1c0.6,0.3,1.2,0.5,1.8,0.5
				c1.2,0,2.2-0.6,2.9-1.7l3.9-6.5c0.9-1.6,0.1-3.7-1.7-4.7c-0.6-0.4-1.3-0.5-2-0.5c-1.3,0-2.3,0.6-2.9,1.6l-3.5,6.7
				C124.5,266.4,125,268.2,126.8,269.1z"/>
		</g>
		<g>
			<path class="st2" d="M288.6,232.2h-7.3c-0.9,0-1.7,0.8-1.7,1.7v16.6c0,0.9,0.7,1.7,1.7,1.7h7.3c0.9,0,1.7-0.7,1.7-1.7v-16.6
				C290.3,233,289.5,232.2,288.6,232.2z M283.9,233.6h2c0.2,0,0.3,0.1,0.3,0.3s-0.1,0.3-0.3,0.3h-2c-0.2,0-0.3-0.1-0.3-0.3
				S283.8,233.6,283.9,233.6z M284.9,251.6c-0.6,0-1-0.4-1-1s0.4-1,1-1s1,0.4,1,1S285.5,251.6,284.9,251.6z M289.6,248.9h-9.3v-13.3
				h9.3V248.9z"/>
		</g>
		<path class="st2" d="M126.7,221.7c0.3,0,0.6,0.1,0.8,0.3c0.2,0.2,0.3,0.5,0.3,0.8v10.1c0,0.3-0.1,0.6-0.3,0.8
			c-0.2,0.2-0.5,0.3-0.8,0.3h-15.2c-0.3,0-0.6-0.1-0.8-0.3c-0.2-0.2-0.3-0.5-0.3-0.8v-10.1c0-0.3,0.1-0.6,0.3-0.8
			c0.2-0.2,0.5-0.3,0.8-0.3h3.5l0.5-1.2c0.1-0.3,0.3-0.5,0.6-0.7c0.3-0.2,0.6-0.3,0.9-0.3h4.2c0.3,0,0.6,0.1,0.9,0.3
			s0.5,0.4,0.6,0.7l0.5,1.2H126.7L126.7,221.7z M119.1,232.4c0.6,0,1.2-0.1,1.8-0.4c0.6-0.2,1-0.6,1.4-1s0.7-0.9,1-1.4
			c0.2-0.5,0.4-1.1,0.4-1.8c0-0.6-0.1-1.2-0.4-1.8c-0.2-0.6-0.6-1-1-1.4s-0.9-0.7-1.4-1c-0.6-0.2-1.1-0.4-1.8-0.4
			c-0.6,0-1.2,0.1-1.8,0.4c-0.6,0.2-1,0.6-1.4,1s-0.7,0.9-1,1.4c-0.2,0.6-0.4,1.1-0.4,1.8c0,0.6,0.1,1.2,0.4,1.8
			c0.2,0.5,0.6,1,1,1.4s0.9,0.7,1.4,1C117.9,232.3,118.4,232.4,119.1,232.4z M119.1,224.8c0.4,0,0.8,0.1,1.2,0.2
			c0.4,0.2,0.7,0.4,1,0.7s0.5,0.6,0.7,1s0.2,0.8,0.2,1.2s-0.1,0.8-0.2,1.2c-0.2,0.4-0.4,0.7-0.7,1c-0.3,0.3-0.6,0.5-1,0.7
			s-0.8,0.2-1.2,0.2c-0.4,0-0.8-0.1-1.2-0.2c-0.4-0.2-0.7-0.4-1-0.7s-0.5-0.6-0.7-1s-0.2-0.8-0.2-1.2s0.1-0.8,0.2-1.2
			c0.2-0.4,0.4-0.7,0.7-1c0.3-0.3,0.6-0.5,1-0.7C118.2,224.9,118.6,224.8,119.1,224.8z"/>
		<g>
			<path class="st2" d="M257,260.4c-0.3,0-0.5,0.1-0.7,0.3c-0.2,0.2-0.3,0.4-0.3,0.7s0.1,0.5,0.3,0.7s0.4,0.3,0.7,0.3
				c0.3,0,0.5-0.1,0.7-0.3c0.2-0.2,0.3-0.5,0.3-0.7s-0.1-0.5-0.3-0.7C257.5,260.5,257.3,260.4,257,260.4z"/>
			<g>
				<path class="st2" d="M268.2,230.2h-4.1V251c1.5,0.4,2.8,1,4.1,1.9V230.2z"/>
				<path class="st2" d="M264.1,251v11.6l3.1,3.5c0.2,0.2,0.3,0.5,0.3,0.8s-0.1,0.5-0.3,0.8l-3.1,3.1v9.5c1.5-0.4,2.8-1,4.1-1.9
					v-25.5C266.9,252,265.5,251.4,264.1,251z"/>
				<path class="st2" d="M286.4,253.7c0-0.9,0-0.2,0-1.3l-1.5-1l-1.4,1c0,1.1,0,0.4,0,1.4c0,4.6,0,8.3-0.5,8.7
					c-0.2,0.1-1.2,0.1-1.9,0.1h-6.3c-0.8-4.1-3.3-7.6-6.7-9.8c-1.2-0.8-2.6-1.4-4.1-1.9c-1.3-0.4-2.7-0.6-4.2-0.6
					c-8.4,0-15.2,6.8-15.2,15.2s6.8,15.2,15.2,15.2c1.5,0,2.9-0.2,4.2-0.6c1.5-0.4,2.8-1,4.1-1.9c4.2-2.7,7-7.4,7-12.8
					c0,0,0,0,0-0.1h6c1.7,0,3,0,4-1C286.5,263.2,286.5,261,286.4,253.7z M267.2,267.6l-0.9,0.9l-2.2,2.2l-0.9,0.9l-0.7,0.7
					c-0.2,0.2-0.5,0.3-0.8,0.3s-0.6-0.1-0.8-0.3l-6-6.7c-0.2-0.2-0.4-0.5-0.5-0.9c-0.2-0.4-0.2-0.7-0.2-1v-4.1
					c0-0.3,0.1-0.5,0.3-0.8c0.2-0.2,0.5-0.3,0.8-0.3h4.1c0.3,0,0.6,0.1,1,0.2s0.7,0.3,0.8,0.6l2.9,3.2l0.9,1l2,2.2l0.2,0.3
					c0.2,0.2,0.3,0.5,0.3,0.8C267.5,267.2,267.4,267.4,267.2,267.6z"/>
			</g>
		</g>
		<g>
			<path class="st2" d="M173.5,362.2h-10.6c-0.2,1.4-0.5,2.8-1,4.1h11.6c8,0,14.5,6.5,14.5,14.5v90.8h4.1v-90.8
				C192.1,370.5,183.8,362.2,173.5,362.2z"/>
			<path class="st2" d="M151,364.8c0.3,0.3,0.3,0.8,0,1.1c-0.3,0.3-0.8,0.3-1.1,0l0,0c-0.3-0.3-0.3-0.8,0-1.1
				C150.2,364.5,150.7,364.5,151,364.8z"/>
			<path class="st2" d="M109.8,362.2c-8.7,0-14.5-6-14.5-14.8v-88.7h-4.1v88.7c0,11.1,7.6,18.9,18.6,18.9H125
				c-0.5-1.4-0.8-2.7-1-4.1H109.8L109.8,362.2z"/>
			<path class="st2" d="M151.5,362.2l1.2,1c0.8,0.8,1.1,2,0.8,3.1h8.5c0.5-1.3,0.8-2.7,1-4.1H151.5z"/>
			<path class="st2" d="M134.9,365.4l3.2-3.2H124c0.2,1.4,0.5,2.7,1,4.1h9.8C134.7,366,134.7,365.6,134.9,365.4z"/>
			<path class="st2" d="M141.8,362.2l0.5,0.5c0.3,0.3,0.3,0.7,0,1l-2.6,2.6h7.4l-3.6-4.1H141.8L141.8,362.2z"/>
			<path class="st2" d="M161.9,352.9c-3.7-10.2-15-15.4-25.2-11.6c-8.8,3.2-13.8,12-12.7,20.9c0.2,1.4,0.5,2.7,1,4.1
				c0,0.1,0,0.1,0.1,0.2c3.7,10.2,15,15.4,25.2,11.7c5.7-2.1,9.8-6.5,11.7-11.8c0.5-1.3,0.8-2.7,1-4.1
				C163.3,359.1,163,356,161.9,352.9z M149.5,352.6l0.5-1.2l1.4-1.1l1.4,1.4l-1.1,1.4l-1.2,0.5l-3.4,3.4l-1.1-1L149.5,352.6z
				 M137.7,368.2c-0.3,0.3-0.7,0.3-1,0l-1.8-1.8l-0.1-0.1c-0.2-0.3-0.1-0.6,0.1-0.9l3.2-3.2l1.4-1.4c0.3-0.3,0.7-0.3,1,0l1.2,1.4
				l0.5,0.5c0.3,0.3,0.3,0.7,0,1l-2.6,2.6L137.7,368.2z M153.4,366.3c-0.1,0.5-0.4,0.9-0.8,1.3c-0.6,0.6-1.4,0.9-2.2,0.9
				s-1.6-0.3-2.2-0.9l-1.1-1.3l-3.6-4.1l-2.6-2.9c-0.7,0.1-1.4,0.2-2,0.2c-1.5,0-2.7-0.4-3.5-1.2c-1.3-1.3-1.9-3.2-1.5-5
				c0-0.1,0.1-0.2,0.2-0.2c0.1,0,0.2,0,0.3,0.1l2.4,2.4l2.3,0.5l1.9-1.9l-0.5-2.3l-2.4-2.4c-0.1-0.1-0.1-0.2-0.1-0.3
				c0-0.1,0.1-0.2,0.2-0.2c0.4-0.1,0.7-0.1,1.1-0.1c1.5,0,2.9,0.6,3.9,1.6c1.6,1.6,1.2,4.5,1,5.5l1.8,1.6l0.2,0.2l5.1,4.5l1.2,1
				C153.5,364,153.7,365.2,153.4,366.3z"/>
			<path class="st2" d="M149.9,365.9L149.9,365.9c0.3,0.3,0.8,0.3,1.1,0s0.3-0.8,0-1.1c-0.3-0.3-0.8-0.3-1.1,0
				C149.6,365.1,149.6,365.6,149.9,365.9z"/>
			<path class="st2" d="M149.9,365.9L149.9,365.9c0.3,0.3,0.8,0.3,1.1,0s0.3-0.8,0-1.1c-0.3-0.3-0.8-0.3-1.1,0
				C149.6,365.1,149.6,365.6,149.9,365.9z"/>
		</g>
		<g>
			<rect x="109.3" y="295.4" class="st2" width="5" height="3.5"/>
			<polygon class="st2" points="104.4,298.9 108,298.9 108,295.4 103.7,295.4 			"/>
			<rect x="109.3" y="291.1" class="st2" width="5" height="3.1"/>
			<polygon class="st2" points="103.4,294.2 108,294.2 108,291.1 102.8,291.1 			"/>
			<polygon class="st2" points="115.5,294.2 120,294.2 120.7,291.1 115.5,291.1 			"/>
			<polygon class="st2" points="115.5,298.9 118.9,298.9 119.7,295.4 115.5,295.4 			"/>
			<path class="st2" d="M111.3,269.4c-14.6,0-26.5,11.9-26.5,26.5s11.9,26.5,26.5,26.5s26.5-11.9,26.5-26.5S125.9,269.4,111.3,269.4
				z M106.7,308.1c-1.3,0-2.3-1-2.3-2.3s1-2.3,2.3-2.3s2.3,1,2.3,2.3C109,307,108,308.1,106.7,308.1z M116.6,308.1
				c-1.3,0-2.3-1-2.3-2.3s1-2.3,2.3-2.3s2.3,1,2.3,2.3C118.9,307,117.9,308.1,116.6,308.1z M123.5,288.2l-2.8,11.9
				c-0.1,0.5-0.5,0.8-1,0.8h-16.1c-0.5,0-0.9-0.3-1-0.8l-2.6-12.5h-3.9c-0.6,0-1-0.5-1-1c0-0.6,0.5-1,1-1h4.7c0.5,0,0.9,0.3,1,0.8
				l0.5,2.6h18.9l0.3-1.3c0.1-0.6,0.7-0.9,1.2-0.8C123.3,287.1,123.6,287.7,123.5,288.2z"/>
		</g>
		<g>
			<path class="st2" d="M206.6,168.8h-4.1v74.9c1.4,0.1,2.7,0.3,4.1,0.6V168.8z"/>
			<path class="st2" d="M202.5,325.9c0,1.1,0,2.2,0,3.1c0,5,0,9.2-0.6,9.8c-0.1,0-0.4,0.2-1.7,0.2H188l0,0c-2.5,0-4.9,0-6.1,2.7
				c-0.8,1.8-1,4.5-1,11.3v112.6h4.1V353c0-3.4,0-9,0.7-9.7c0.3-0.2,1.4-0.2,2.4-0.2h12.2c1.5,0,3.3-0.1,4.6-1.4
				c1.8-1.8,1.8-4.8,1.8-12.7c0-1,0-2,0-3.1v-19.4c-1.3,0.3-2.7,0.5-4.1,0.6L202.5,325.9L202.5,325.9z"/>
			<path class="st2" d="M206.6,270.5c-1.3-0.5-2.6-0.9-4.1-1.2c-1.2-0.2-2.3-0.3-3.6-0.3c-5,0-7.6,1.7-8.9,4.5
				c1.1,2.2,3.3,3.6,7.5,3.6c1.8,0,3.4-0.3,5-0.7c1.5-0.4,2.9-1.1,4.1-1.9c1.1-0.7,2-1.6,2.8-2.5C208.6,271.4,207.6,271,206.6,270.5
				z"/>
			<path class="st2" d="M207.4,244.5c-0.3-0.1-0.5-0.1-0.8-0.2c-1.4-0.3-2.7-0.5-4.1-0.6c-15.3-1.2-29.7,9-33.3,24.4
				c-4,17.1,6.6,34.2,23.7,38.2c3.2,0.8,6.5,1,9.6,0.8c1.4-0.1,2.7-0.3,4.1-0.6c11.7-2.4,21.6-11.4,24.5-23.9
				C235.1,265.6,224.5,248.5,207.4,244.5z M206.6,291.8c-1.3,0.5-2.6,0.9-4.1,1.2c-1.2,0.2-2.3,0.3-3.6,0.3
				c-8.9,0-10.1-5.4-10.1-12.1c0-2.9,0.2-5.5,1.2-7.6c-1-1.8-1.2-4.2-1.2-6.9c0-5.8,1.1-10.4,8.7-10.4c1.8,0,3.4,0.3,5,0.7
				c1.5,0.4,2.9,1.1,4.1,1.9c2.9,1.9,4.7,4.7,4.7,7.9c0,1.9-0.7,3.8-2,5.3c3.4,2.2,5.6,5.5,5.6,9.2
				C215,285.7,211.6,289.7,206.6,291.8z"/>
		</g>
		<g>
			<circle class="st2" cx="193.8" cy="214.9" r="2.2"/>
			<path class="st2" d="M198.3,202.7c-0.2,0-0.2,0-0.5-0.1c-0.1,0-0.2,0-0.2,0c-0.1-0.1-0.1-0.2-0.2-0.3c-1.1-2.3-3.2-2.3-5.7-2.3
				h-6.9c-1.2,0-1.8-0.1-2.1-0.3c-0.8-0.8-0.8-4.3-0.7-10.3c0-1,0-2,0-3.1v-7h-3v7c0,1.1,0,2.1,0,3.1c0,7.8,0,10.7,1.6,12.3
				c1.1,1.1,2.7,1.2,4.1,1.2h4.6c-7.8,2.1-13.5,9.1-13.5,17.5c0,10,8.1,18.2,18.2,18.2s18.2-8.1,18.2-18.2
				C212.2,211.7,206.2,204.6,198.3,202.7z M193.8,229.5c-3,0-5.9-0.8-5.9-2.3c0-1.4,2.3-2.1,4.9-2.3l-3.4-6.9l0,0
				c-0.4-0.8-0.7-1.6-0.7-2.6c0-2.8,2.3-5.1,5.1-5.1s5.1,2.3,5.1,5.1c0,0.9-0.3,1.8-0.7,2.6l0,0l-4.4,9l-0.6-1.3
				c-2.7,0.1-4.5,0.9-4.5,1.5s2,1.5,5.1,1.5s5.1-0.9,5.1-1.5c0-0.5-1.2-1.1-3.3-1.4l0.4-0.8c2.1,0.3,3.7,1,3.7,2.2
				C199.7,228.7,196.7,229.5,193.8,229.5z"/>
		</g>
		<g>
			<path class="st2" d="M266.1,312.9c-0.2,0-0.4,0.1-0.6,0.2c-0.2,0.2-0.2,0.4-0.2,0.6s0.1,0.4,0.2,0.6c0.2,0.2,0.4,0.2,0.6,0.2
				s0.4-0.1,0.6-0.2c0.2-0.2,0.3-0.4,0.3-0.6s-0.1-0.4-0.2-0.6C266.5,313,266.3,312.9,266.1,312.9z"/>
			<path class="st2" d="M259.3,307.9c-0.1,0-0.2,0.1-0.2,0.1l-1.7,1.6c0,0-0.1,0.1-0.1,0.2s-0.1,0.2-0.1,0.2v0.5h2.9v-2.7h-0.6
				C259.5,307.9,259.4,307.9,259.3,307.9z"/>
			<path class="st2" d="M259.3,312.9c-0.2,0-0.4,0.1-0.6,0.2c-0.2,0.2-0.3,0.4-0.3,0.6s0.1,0.4,0.3,0.6c0.2,0.2,0.4,0.2,0.6,0.2
				s0.4-0.1,0.6-0.2c0.2-0.2,0.2-0.4,0.2-0.6s-0.1-0.4-0.2-0.6C259.7,313,259.5,312.9,259.3,312.9z"/>
			<g>
				<path class="st2" d="M264.1,331.3c0,12-7.9,20-19.5,20h-54.4c-13,0-23.6,10.6-23.6,23.6v88.7h4.1v-88.7
					c0-10.8,8.8-19.5,19.5-19.5h54.4c13.9,0,23.6-9.9,23.6-24.1v-5.4c-1.3,0.5-2.7,0.8-4.1,0.9V331.3L264.1,331.3z"/>
				<path class="st2" d="M268.2,278.4c-1.2,0.8-2.6,1.4-4.1,1.9v13.4c1.4,0.1,2.8,0.5,4.1,0.9V278.4z"/>
				<g>
					<path class="st2" d="M260.2,305v0.6c0.1-0.4,0.3-0.7,0.4-1.1c-0.1,0-0.2,0.1-0.2,0.1C260.2,304.7,260.2,304.8,260.2,305z"/>
					<path class="st2" d="M261.8,276.8h-4.1v17.5c1.3-0.4,2.7-0.6,4.1-0.7V276.8z"/>
					<path class="st2" d="M240.8,313.9h-29.5c-11.6,0-21,9.4-21,21v127.6h4.1V334.9c0-9.3,7.6-16.9,16.9-16.9h29.5
						c2.3,0,4.5-0.3,6.5-0.9c-0.6-1.2-1-2.5-1.2-3.9C244.5,313.7,242.7,313.9,240.8,313.9z"/>
					<path class="st2" d="M260.2,306.4v-0.9c-0.1,0.3-0.3,0.6-0.4,0.9H260.2z"/>
				</g>
				<path class="st2" d="M268.2,294.6c-1.3-0.5-2.7-0.8-4.1-0.9c-0.5,0-1.1-0.1-1.6-0.1c-0.2,0-0.4,0-0.7,0
					c-1.4,0.1-2.8,0.3-4.1,0.7c-6.9,2-11.9,8.4-11.9,16c0,1,0.1,2,0.3,3c0.2,1.4,0.7,2.7,1.2,3.9c2.6,5.7,8.4,9.7,15.1,9.7
					c0.5,0,1.1,0,1.6-0.1c1.4-0.1,2.8-0.5,4.1-0.9c6.4-2.3,11-8.4,11-15.6C279.1,303,274.6,296.9,268.2,294.6z M269.5,313.1
					c0,0.2-0.1,0.3-0.2,0.4s-0.2,0.2-0.4,0.2h-0.6v0.1c0,0.3-0.1,0.6-0.2,0.9l0,0c-0.1,0.3-0.3,0.5-0.5,0.7s-0.4,0.4-0.7,0.5
					c-0.3,0.1-0.6,0.2-0.9,0.2s-0.6-0.1-0.9-0.2s-0.5-0.3-0.7-0.5s-0.3-0.4-0.4-0.6c0-0.1-0.1-0.1-0.1-0.2c-0.1-0.3-0.2-0.6-0.2-0.9
					v-0.1h-2.3v0.1c0,0.3-0.1,0.6-0.2,0.9s-0.3,0.5-0.5,0.7s-0.4,0.4-0.7,0.5c-0.3,0.1-0.6,0.2-0.9,0.2s-0.6-0.1-0.9-0.2
					s-0.5-0.3-0.7-0.5s-0.4-0.4-0.5-0.7c-0.1-0.3-0.2-0.6-0.2-0.9v-0.1h-0.6c-0.2,0-0.3-0.1-0.4-0.2c-0.1-0.1-0.2-0.2-0.2-0.4v-1v-2
					c0-0.1,0-0.2,0-0.4c0-0.1,0.1-0.3,0.1-0.4s0.1-0.3,0.2-0.4c0.1-0.1,0.2-0.2,0.2-0.3l1.6-1.6c0.1-0.1,0.2-0.2,0.3-0.2
					c0.1-0.1,0.3-0.1,0.4-0.2s0.3-0.1,0.4-0.1s0.3,0,0.4,0h0.2c0.1-0.3,0.3-0.6,0.4-0.9V305c0-0.2,0.1-0.3,0.2-0.4s0.1-0.1,0.2-0.1
					s0.1,0,0.2,0h3.4h4.1h0.8c0.2,0,0.3,0.1,0.4,0.2s0.2,0.2,0.2,0.4L269.5,313.1L269.5,313.1z"/>
			</g>
		</g>
		<path class="st2" d="M217.9,173.4c-8.4-2.3-17.1,2.5-19.4,10.9c-2.3,8.4,2.5,17.1,10.9,19.4s17.1-2.5,19.4-10.9
			C231.2,184.4,226.3,175.7,217.9,173.4z M220.3,191.7c-0.2,0.4-0.4,0.8-0.8,1.1c-0.3,0.3-0.7,0.6-1.1,0.8c-0.4,0.2-0.9,0.3-1.4,0.3
			h-7.5c-0.4,0-0.8-0.1-1.1-0.2c-0.4-0.1-0.7-0.4-0.9-0.6c-0.3-0.3-0.5-0.6-0.6-0.9c-0.1-0.4-0.2-0.7-0.2-1.1c0-0.3,0.1-0.7,0.2-1
			c0.1-0.3,0.3-0.6,0.5-0.8c0.2-0.3,0.4-0.5,0.7-0.6c0.3-0.2,0.6-0.3,0.9-0.4c-0.2-0.2-0.3-0.4-0.4-0.7c-0.1-0.2-0.1-0.5-0.1-0.8
			s0.1-0.6,0.2-0.9c0.1-0.3,0.3-0.5,0.5-0.7s0.4-0.4,0.7-0.5s0.6-0.2,0.9-0.2c0.6,0,1,0.2,1.4,0.5c0.1-0.4,0.2-0.7,0.5-1
			s0.5-0.6,0.8-0.8s0.6-0.4,1-0.6c0.4-0.1,0.8-0.2,1.2-0.2c0.5,0,0.9,0.1,1.3,0.3c0.4,0.2,0.8,0.4,1.1,0.7s0.6,0.7,0.7,1.1
			c0.2,0.4,0.3,0.9,0.3,1.3c0,0.3,0,0.6-0.1,0.8c-0.1,0.3-0.2,0.5-0.3,0.7c0.6,0.3,1,0.7,1.4,1.3s0.5,1.2,0.5,1.8
			C220.6,190.9,220.5,191.3,220.3,191.7z"/>
		<path class="st2" d="M275.9,212.8c-5.7-3.6-13.3-2-16.9,3.7s-2,13.3,3.7,16.9c5.7,3.6,13.3,2,16.9-3.7
			C283.3,224,281.7,216.4,275.9,212.8z M274.8,223.8c-0.3,0.5-0.7,1-1.3,1.4c-0.5,0.4-1.2,0.7-1.9,0.9s-1.5,0.3-2.3,0.3
			c-0.4,0-0.7,0-1.1-0.1c-0.7,0.6-1.6,1-2.5,1.2c-0.1,0-0.2,0-0.3,0.1c-0.1,0-0.2,0-0.3,0.1c-0.1,0-0.1,0-0.2,0c0,0-0.1-0.1-0.1-0.2
			c0-0.1,0-0.1,0-0.2l0.1-0.1c0.1-0.1,0.2-0.2,0.3-0.3c0.1-0.1,0.2-0.2,0.2-0.3c0.1-0.1,0.1-0.3,0.2-0.4c0.1-0.2,0.1-0.4,0.1-0.6
			c-0.7-0.4-1.3-0.9-1.7-1.5c-0.4-0.6-0.6-1.2-0.6-2c0-0.6,0.2-1.2,0.5-1.7s0.7-1,1.3-1.4c0.5-0.4,1.2-0.7,1.9-0.9
			c0.7-0.2,1.5-0.3,2.3-0.3s1.6,0.1,2.3,0.3c0.7,0.2,1.3,0.5,1.9,0.9c0.5,0.4,1,0.9,1.3,1.4s0.5,1.1,0.5,1.7
			C275.3,222.8,275.1,223.3,274.8,223.8z"/>
		<g>
			<path class="st2" d="M191.4,168.8l-3.6-1.8l0,0c-0.1,0-0.1,0-0.2-0.1c-0.1,0-0.1,0-0.2,0l0,0h-11.6h-0.1c-0.1,0-0.1,0-0.2,0
				c-0.1,0-0.1,0.1-0.2,0.1c0,0-0.1,0-0.1,0.1l-3.6,2.8c-0.4,0.3-0.5,1-0.2,1.4c0.2,0.3,0.5,0.4,0.8,0.4c0.2,0,0.4-0.1,0.6-0.2
				l2-1.6v7.9c0,0.9,0.7,1.6,1.6,1.6h10.3c0.9,0,1.6-0.7,1.6-1.6v-8.3l2.2,1.1c0.1,0.1,0.3,0.1,0.4,0.1c0.4,0,0.7-0.2,0.9-0.6
				C192.1,169.7,191.9,169.1,191.4,168.8z"/>
			<path class="st2" d="M178.7,161.7l2.6,3.5c0.1,0.1,0.2,0.2,0.3,0.2s0.2-0.1,0.3-0.2l2.6-3.5v-0.1c0.1-0.1,0.1-0.3,0-0.4
				c-0.1-0.1-0.2-0.2-0.3-0.2h-1.7v-0.1v-1v-1.3v-2.3c0-0.5-0.4-0.9-0.9-0.9s-0.9,0.4-0.9,0.9v2.3v1.3v1v0.1H179
				c-0.1,0-0.3,0.1-0.3,0.2C178.5,161.4,178.6,161.5,178.7,161.7L178.7,161.7z"/>
		</g>
		<path class="st2" d="M259.8,344c0.1,0.1,0.1,0.3,0,0.4s-0.1,0.1-0.3,0.1c-0.1,0-0.1,0-0.1,0l-4-2.3c-0.4,0.4-0.8,0.8-1.2,1
			c-0.4,0.3-0.8,0.5-1.2,0.6s-0.8,0.2-1.2,0.2s-0.7-0.2-1-0.4c-0.4-0.3-0.6-0.7-0.7-1.2c-0.1-0.5-0.1-1.1,0.1-1.8l-2.3-1.7
			c-0.4,0.2-0.8,0.3-1.1,0.2c-0.4,0-0.7-0.1-0.9-0.3c-0.3-0.2-0.4-0.5-0.6-0.8c-0.1-0.3-0.1-0.7-0.1-1.1s0.2-0.9,0.3-1.3
			c0.2-0.5,0.4-0.9,0.8-1.4c0.3-0.4,0.7-0.8,1.1-1.1c0.4-0.3,0.8-0.6,1.2-0.7c0.4-0.2,0.8-0.2,1.1-0.2c0.4,0,0.7,0.1,0.9,0.3
			c0.3,0.2,0.5,0.5,0.6,0.8s0.1,0.7,0.1,1.1l2.3,1.7c0.6-0.3,1.1-0.5,1.7-0.6c0.5,0,1,0.1,1.4,0.4c0.3,0.2,0.5,0.5,0.6,0.8
			s0.2,0.7,0.2,1.2c0,0.4-0.1,0.9-0.2,1.4s-0.4,1-0.6,1.4L259.8,344L259.8,344z M246.6,337.9c0.1,0.1,0.2,0.1,0.4,0.1s0.3,0,0.5-0.1
			s0.4-0.2,0.5-0.4c0.2-0.1,0.4-0.3,0.6-0.5c0.2-0.2,0.4-0.4,0.5-0.6c0.1-0.1,0.1-0.2,0.1-0.2c0-0.1-0.1-0.2-0.1-0.2
			c-0.1-0.1-0.1-0.1-0.2-0.1c-0.1,0-0.2,0-0.2,0.1c-0.4,0.5-0.8,0.9-1.1,1.1s-0.5,0.3-0.6,0.3s-0.2-0.1-0.2-0.1
			c-0.1,0-0.2,0.1-0.2,0.1c0,0.1-0.1,0.2-0.1,0.2C246.5,337.7,246.5,337.8,246.6,337.9L246.6,337.9z M251.5,340.6
			c0,0,0.1,0.1,0.2,0.1c0.1,0,0.2,0,0.3-0.1s0.1-0.1,0.1-0.2s-0.1-0.1-0.1-0.2l-2.7-2c-0.1,0.1-0.2,0.1-0.3,0.2s-0.2,0.1-0.2,0.2
			L251.5,340.6z M255,340.8c0.1-0.1,0.1-0.1,0.1-0.2s-0.1-0.2-0.1-0.2c-0.1,0-0.1-0.1-0.2-0.1c-0.1,0-0.2,0.1-0.2,0.1
			c-0.3,0.3-0.5,0.6-0.8,0.9c-0.3,0.2-0.5,0.4-0.7,0.6c-0.2,0.1-0.4,0.2-0.6,0.3c-0.2,0-0.3,0-0.4,0c-0.1,0-0.1-0.1-0.2-0.1
			s-0.1,0.1-0.2,0.1c-0.1,0.1-0.1,0.1-0.1,0.2s0.1,0.2,0.1,0.2c0.1,0.1,0.3,0.2,0.5,0.2s0.4-0.1,0.7-0.2s0.5-0.3,0.7-0.4
			c0.2-0.2,0.5-0.4,0.7-0.7C254.6,341.3,254.8,341,255,340.8z"/>
		<path class="st2" d="M104.5,203.6c0.3,0,0.5,0.1,0.7,0.3s0.3,0.4,0.3,0.7v5.1c0,0.3-0.1,0.5-0.3,0.7c-0.2,0.2-0.4,0.3-0.7,0.3
			h-5.1c-0.3,0-0.5-0.1-0.7-0.3s-0.3-0.4-0.3-0.7v-5.1c0-0.3,0.1-0.5,0.3-0.7c0.2-0.2,0.4-0.3,0.7-0.3h1.8v-2c0-0.2-0.1-0.2-0.3-0.2
			H94v2.3h1.8c0.3,0,0.5,0.1,0.7,0.3s0.3,0.4,0.3,0.7v5.1c0,0.3-0.1,0.5-0.3,0.7c-0.2,0.2-0.4,0.3-0.7,0.3h-5.1
			c-0.3,0-0.5-0.1-0.7-0.3s-0.3-0.4-0.3-0.7v-5.1c0-0.3,0.1-0.5,0.3-0.7c0.2-0.2,0.4-0.3,0.7-0.3h1.8v-2.3h-6.8
			c-0.2,0-0.3,0.1-0.3,0.2v2h1.8c0.3,0,0.5,0.1,0.7,0.3s0.3,0.4,0.3,0.7v5.1c0,0.3-0.1,0.5-0.3,0.7c-0.2,0.2-0.4,0.3-0.7,0.3h-5.1
			c-0.3,0-0.5-0.1-0.7-0.3s-0.3-0.4-0.3-0.7v-5.1c0-0.3,0.1-0.5,0.3-0.7c0.2-0.2,0.4-0.3,0.7-0.3h1.8v-2c0-0.5,0.2-0.9,0.5-1.2
			c0.4-0.3,0.8-0.5,1.3-0.5h6.8v-2.3h-1.8c-0.3,0-0.5-0.1-0.7-0.3s-0.3-0.4-0.3-0.7v-5.1c0-0.3,0.1-0.5,0.3-0.7
			c0.2-0.2,0.4-0.3,0.7-0.3h5.1c0.3,0,0.5,0.1,0.7,0.3s0.3,0.4,0.3,0.7v5.1c0,0.3-0.1,0.5-0.3,0.7c-0.2,0.2-0.4,0.3-0.7,0.3H94v2.3
			h6.9c0.5,0,0.9,0.2,1.3,0.5s0.5,0.8,0.5,1.2v2H104.5L104.5,203.6z"/>
	</g>
	
		<image style="display:inline;overflow:visible;enable-background:new    ;" width="465" height="454" xlink:href="../Screen Shot 2016-03-29 at 3.51.50 PM.png"  transform="matrix(1.8562 0 0 1.8562 -449.1498 0)">
	</image>
	<g id="_x33_AE3mA_1_" class="st1">
	</g>
</g>
<g id="Layer_3" class="st0">
	<rect x="2" class="st3" width="413.6" height="842.7"/>
</g>
<g>
	<g>
		<g>
			<defs>
				<polygon id="SVGID_1_" points="414.6,267.5 414.6,214.5 361.6,214.5 				"/>
			</defs>
			<clipPath id="SVGID_2_">
				<use xlink:href="#SVGID_1_"  style="overflow:visible;"/>
			</clipPath>
			<g class="st4">
				<defs>
					<rect id="SVGID_3_" x="-305" y="-32.8" width="1860" height="1052.1"/>
				</defs>
				<clipPath id="SVGID_4_">
					<use xlink:href="#SVGID_3_"  style="overflow:visible;"/>
				</clipPath>
				<g class="st5">
					<rect x="357.5" y="210.4" class="st6" width="61.2" height="61.2"/>
				</g>
			</g>
		</g>
		<g>
			<defs>
				<polygon id="SVGID_5_" points="414.6,159.1 414.6,106.1 361.6,106.1 				"/>
			</defs>
			<clipPath id="SVGID_6_">
				<use xlink:href="#SVGID_5_"  style="overflow:visible;"/>
			</clipPath>
			<g class="st7">
				<defs>
					<rect id="SVGID_7_" x="-305" y="-32.8" width="1860" height="1052.1"/>
				</defs>
				<clipPath id="SVGID_8_">
					<use xlink:href="#SVGID_7_"  style="overflow:visible;"/>
				</clipPath>
				<g class="st8">
					<rect x="357.5" y="102" class="st9" width="61.2" height="61.2"/>
				</g>
			</g>
		</g>
		<g>
			<defs>
				<polygon id="SVGID_9_" points="362.4,159.1 362.4,106.1 309.4,106.1 				"/>
			</defs>
			<clipPath id="SVGID_10_">
				<use xlink:href="#SVGID_9_"  style="overflow:visible;"/>
			</clipPath>
			<g class="st10">
				<defs>
					<rect id="SVGID_11_" x="-305" y="-32.8" width="1860" height="1052.1"/>
				</defs>
				<clipPath id="SVGID_12_">
					<use xlink:href="#SVGID_11_"  style="overflow:visible;"/>
				</clipPath>
				<g class="st11">
					<rect x="305.3" y="102" class="st12" width="61.2" height="61.2"/>
				</g>
			</g>
		</g>
		<g>
			<defs>
				<polygon id="SVGID_13_" points="414.6,262.6 414.6,315.6 361.6,315.6 				"/>
			</defs>
			<clipPath id="SVGID_14_">
				<use xlink:href="#SVGID_13_"  style="overflow:visible;"/>
			</clipPath>
			<g class="st13">
				<defs>
					<rect id="SVGID_15_" x="-305" y="-32.8" width="1860" height="1052.1"/>
				</defs>
				<clipPath id="SVGID_16_">
					<use xlink:href="#SVGID_15_"  style="overflow:visible;"/>
				</clipPath>
				<g class="st14">
					<rect x="357.5" y="258.5" class="st12" width="61.2" height="61.2"/>
				</g>
			</g>
		</g>
		<g>
			<defs>
				<polygon id="SVGID_17_" points="308.6,214.4 361.6,214.4 361.6,161.4 				"/>
			</defs>
			<clipPath id="SVGID_18_">
				<use xlink:href="#SVGID_17_"  style="overflow:visible;"/>
			</clipPath>
			<g class="st15">
				<defs>
					<rect id="SVGID_19_" x="-305" y="-32.8" width="1860" height="1052.1"/>
				</defs>
				<clipPath id="SVGID_20_">
					<use xlink:href="#SVGID_19_"  style="overflow:visible;"/>
				</clipPath>
				<g class="st16">
					<rect x="304.5" y="157.3" class="st17" width="61.2" height="61.2"/>
				</g>
			</g>
		</g>
		<g>
			<defs>
				<path id="SVGID_21_" d="M256.8,368.6h53v-53c0,0-24.4-0.7-39.2,13.8C255.9,343.8,256.8,368.6,256.8,368.6"/>
			</defs>
			<clipPath id="SVGID_22_">
				<use xlink:href="#SVGID_21_"  style="overflow:visible;"/>
			</clipPath>
			<g class="st18">
				<defs>
					<rect id="SVGID_23_" x="-305" y="-32.8" width="1860" height="1052.1"/>
				</defs>
				<clipPath id="SVGID_24_">
					<use xlink:href="#SVGID_23_"  style="overflow:visible;"/>
				</clipPath>
				<g class="st19">
					<rect x="252.7" y="311.5" class="st9" width="61.2" height="61.2"/>
				</g>
			</g>
		</g>
		<g>
			<defs>
				<path id="SVGID_25_" d="M203.8,161.4h53v53c0,0-24.4,0.7-39.2-13.8C202.9,186.2,203.8,161.4,203.8,161.4"/>
			</defs>
			<clipPath id="SVGID_26_">
				<use xlink:href="#SVGID_25_"  style="overflow:visible;"/>
			</clipPath>
			<g class="st20">
				<defs>
					<rect id="SVGID_27_" x="-305" y="-32.8" width="1860" height="1052.1"/>
				</defs>
				<clipPath id="SVGID_28_">
					<use xlink:href="#SVGID_27_"  style="overflow:visible;"/>
				</clipPath>
				<g class="st21">
					<rect x="199.7" y="157.3" class="st22" width="61.2" height="61.2"/>
				</g>
			</g>
		</g>
		<g>
			<defs>
				<polygon id="SVGID_29_" points="414.6,368.6 361.6,368.6 361.6,315.6 				"/>
			</defs>
			<clipPath id="SVGID_30_">
				<use xlink:href="#SVGID_29_"  style="overflow:visible;"/>
			</clipPath>
			<g class="st23">
				<defs>
					<rect id="SVGID_31_" x="-305" y="-32.8" width="1860" height="1052.1"/>
				</defs>
				<clipPath id="SVGID_32_">
					<use xlink:href="#SVGID_31_"  style="overflow:visible;"/>
				</clipPath>
				<g class="st24">
					<rect x="357.5" y="311.5" class="st25" width="61.2" height="61.2"/>
				</g>
			</g>
		</g>
		<g>
			<defs>
				<polygon id="SVGID_33_" points="308.6,106.1 361.6,106.1 361.6,53.1 				"/>
			</defs>
			<clipPath id="SVGID_34_">
				<use xlink:href="#SVGID_33_"  style="overflow:visible;"/>
			</clipPath>
			<g class="st26">
				<defs>
					<rect id="SVGID_35_" x="-305" y="-32.8" width="1860" height="1052.1"/>
				</defs>
				<clipPath id="SVGID_36_">
					<use xlink:href="#SVGID_35_"  style="overflow:visible;"/>
				</clipPath>
				<g class="st27">
					<rect x="304.5" y="49" class="st17" width="61.2" height="61.2"/>
				</g>
			</g>
		</g>
		<g>
			<defs>
				<polygon id="SVGID_37_" points="143.9,106.1 196.9,106.1 196.9,53.1 				"/>
			</defs>
			<clipPath id="SVGID_38_">
				<use xlink:href="#SVGID_37_"  style="overflow:visible;"/>
			</clipPath>
			<g class="st28">
				<defs>
					<rect id="SVGID_39_" x="-305" y="-32.8" width="1860" height="1052.1"/>
				</defs>
				<clipPath id="SVGID_40_">
					<use xlink:href="#SVGID_39_"  style="overflow:visible;"/>
				</clipPath>
				<g class="st29">
					<rect x="139.8" y="49" class="st17" width="61.2" height="61.2"/>
				</g>
			</g>
		</g>
		<g>
			<defs>
				<polygon id="SVGID_41_" points="414.6,106.1 361.6,106.1 361.6,53.1 				"/>
			</defs>
			<clipPath id="SVGID_42_">
				<use xlink:href="#SVGID_41_"  style="overflow:visible;"/>
			</clipPath>
			<g class="st30">
				<defs>
					<rect id="SVGID_43_" x="-305" y="-32.8" width="1860" height="1052.1"/>
				</defs>
				<clipPath id="SVGID_44_">
					<use xlink:href="#SVGID_43_"  style="overflow:visible;"/>
				</clipPath>
				<g class="st31">
					<rect x="357.5" y="49" class="st25" width="61.2" height="61.2"/>
				</g>
			</g>
		</g>
		<g>
			<defs>
				<polygon id="SVGID_45_" points="361.6,421.6 308.6,421.6 308.6,368.6 				"/>
			</defs>
			<clipPath id="SVGID_46_">
				<use xlink:href="#SVGID_45_"  style="overflow:visible;"/>
			</clipPath>
			<g class="st32">
				<defs>
					<rect id="SVGID_47_" x="-305" y="-32.8" width="1860" height="1052.1"/>
				</defs>
				<clipPath id="SVGID_48_">
					<use xlink:href="#SVGID_47_"  style="overflow:visible;"/>
				</clipPath>
				<g class="st33">
					<rect x="304.5" y="364.5" class="st25" width="61.2" height="61.2"/>
				</g>
			</g>
		</g>
		<g>
			<defs>
				<polygon id="SVGID_49_" points="309.8,214.6 256.8,214.6 256.8,161.6 				"/>
			</defs>
			<clipPath id="SVGID_50_">
				<use xlink:href="#SVGID_49_"  style="overflow:visible;"/>
			</clipPath>
			<g class="st34">
				<defs>
					<rect id="SVGID_51_" x="-305" y="-32.8" width="1860" height="1052.1"/>
				</defs>
				<clipPath id="SVGID_52_">
					<use xlink:href="#SVGID_51_"  style="overflow:visible;"/>
				</clipPath>
				<g class="st35">
					<rect x="252.7" y="157.5" class="st25" width="61.2" height="61.2"/>
				</g>
			</g>
		</g>
		<g>
			<defs>
				<polygon id="SVGID_53_" points="248.6,53.1 195.6,53.1 195.6,0.2 				"/>
			</defs>
			<clipPath id="SVGID_54_">
				<use xlink:href="#SVGID_53_"  style="overflow:visible;"/>
			</clipPath>
			<g class="st36">
				<defs>
					<rect id="SVGID_55_" x="-305" y="-32.8" width="1860" height="1052.1"/>
				</defs>
				<clipPath id="SVGID_56_">
					<use xlink:href="#SVGID_55_"  style="overflow:visible;"/>
				</clipPath>
				<g class="st37">
					<rect x="191.5" y="-3.9" class="st12" width="61.2" height="61.2"/>
				</g>
			</g>
		</g>
		<g>
			<defs>
				<polygon id="SVGID_57_" points="414.6,368.6 361.6,368.6 361.6,421.6 				"/>
			</defs>
			<clipPath id="SVGID_58_">
				<use xlink:href="#SVGID_57_"  style="overflow:visible;"/>
			</clipPath>
			<g class="st38">
				<defs>
					<rect id="SVGID_59_" x="-305" y="-32.8" width="1860" height="1052.1"/>
				</defs>
				<clipPath id="SVGID_60_">
					<use xlink:href="#SVGID_59_"  style="overflow:visible;"/>
				</clipPath>
				<g class="st39">
					<rect x="357.5" y="364.5" class="st22" width="61.2" height="61.2"/>
				</g>
			</g>
		</g>
		<g>
			<defs>
				<polygon id="SVGID_61_" points="308.6,527.6 361.6,527.6 361.6,580.5 				"/>
			</defs>
			<clipPath id="SVGID_62_">
				<use xlink:href="#SVGID_61_"  style="overflow:visible;"/>
			</clipPath>
			<g class="st40">
				<defs>
					<rect id="SVGID_63_" x="-305" y="-32.8" width="1860" height="1052.1"/>
				</defs>
				<clipPath id="SVGID_64_">
					<use xlink:href="#SVGID_63_"  style="overflow:visible;"/>
				</clipPath>
				<g class="st41">
					<rect x="304.5" y="523.5" class="st12" width="61.2" height="61.2"/>
				</g>
			</g>
		</g>
		<g>
			<defs>
				<polygon id="SVGID_65_" points="256.8,214.5 309.8,214.5 309.8,267.5 				"/>
			</defs>
			<clipPath id="SVGID_66_">
				<use xlink:href="#SVGID_65_"  style="overflow:visible;"/>
			</clipPath>
			<g class="st42">
				<defs>
					<rect id="SVGID_67_" x="-305" y="-32.8" width="1860" height="1052.1"/>
				</defs>
				<clipPath id="SVGID_68_">
					<use xlink:href="#SVGID_67_"  style="overflow:visible;"/>
				</clipPath>
				<g class="st43">
					<rect x="252.7" y="210.4" class="st44" width="61.2" height="61.2"/>
				</g>
			</g>
		</g>
		<g>
			<defs>
				<polygon id="SVGID_69_" points="256.8,0.2 309.8,0.2 309.8,53.1 				"/>
			</defs>
			<clipPath id="SVGID_70_">
				<use xlink:href="#SVGID_69_"  style="overflow:visible;"/>
			</clipPath>
			<g class="st45">
				<defs>
					<rect id="SVGID_71_" x="-305" y="-32.8" width="1860" height="1052.1"/>
				</defs>
				<clipPath id="SVGID_72_">
					<use xlink:href="#SVGID_71_"  style="overflow:visible;"/>
				</clipPath>
				<g class="st46">
					<rect x="252.7" y="-3.9" class="st17" width="61.2" height="61.2"/>
				</g>
			</g>
		</g>
		<g>
			<defs>
				<polygon id="SVGID_73_" points="308.6,214.5 308.6,267.5 361.6,267.5 				"/>
			</defs>
			<clipPath id="SVGID_74_">
				<use xlink:href="#SVGID_73_"  style="overflow:visible;"/>
			</clipPath>
			<g class="st47">
				<defs>
					<rect id="SVGID_75_" x="-305" y="-32.8" width="1860" height="1052.1"/>
				</defs>
				<clipPath id="SVGID_76_">
					<use xlink:href="#SVGID_75_"  style="overflow:visible;"/>
				</clipPath>
				<g class="st48">
					<rect x="304.5" y="210.4" class="st12" width="61.2" height="61.2"/>
				</g>
			</g>
		</g>
		<g>
			<defs>
				<polygon id="SVGID_77_" points="308.6,0.2 308.6,53.1 361.6,53.1 				"/>
			</defs>
			<clipPath id="SVGID_78_">
				<use xlink:href="#SVGID_77_"  style="overflow:visible;"/>
			</clipPath>
			<g class="st49">
				<defs>
					<rect id="SVGID_79_" x="-305" y="-32.8" width="1860" height="1052.1"/>
				</defs>
				<clipPath id="SVGID_80_">
					<use xlink:href="#SVGID_79_"  style="overflow:visible;"/>
				</clipPath>
				<g class="st50">
					<rect x="304.5" y="-3.9" class="st22" width="61.2" height="61.2"/>
				</g>
			</g>
		</g>
		<g>
			<defs>
				<polygon id="SVGID_81_" points="414.6,0.2 361.6,53.1 308.6,0.2 				"/>
			</defs>
			<clipPath id="SVGID_82_">
				<use xlink:href="#SVGID_81_"  style="overflow:visible;"/>
			</clipPath>
			<g class="st51">
				<defs>
					<rect id="SVGID_83_" x="-305" y="-32.8" width="1860" height="1052.1"/>
				</defs>
				<clipPath id="SVGID_84_">
					<use xlink:href="#SVGID_83_"  style="overflow:visible;"/>
				</clipPath>
				<g class="st52">
					<rect x="304.5" y="-3.9" class="st44" width="114.2" height="61.2"/>
				</g>
			</g>
		</g>
	</g>
	<g>
		<g>
			<path class="st53" d="M415.2,526.9v55.2L360,526.9H415.2z M413.9,579v-50.8h-50.8L413.9,579z"/>
		</g>
		<g>
			<path class="st53" d="M415.2,421v55.2L360,421H415.2z M413.9,473v-50.8h-50.8L413.9,473z"/>
		</g>
		<g>
			<path class="st53" d="M415.2,473v55.2H360L415.2,473z M413.9,526.9v-50.8l-50.8,50.8H413.9z"/>
		</g>
		<g>
			<path class="st53" d="M362.2,314.1v55.2H307L362.2,314.1z M360.9,368v-50.8L310.1,368H360.9z"/>
		</g>
		<g>
			<path class="st53" d="M415.2,160.8V215h-53.5l0-0.6c0-0.3-0.7-25.2,13.8-39.7c14.6-14.5,38.9-14,39.2-14L415.2,160.8z
				 M413.9,213.8v-51.7c-3.9,0-24.7,0.7-37.6,13.6c-12.9,12.8-13.4,34.2-13.4,38.1H413.9z"/>
		</g>
		<g>
			<path class="st53" d="M309.2,473.3v55.2L254,473.3H309.2z M307.9,525.4v-50.8h-50.8L307.9,525.4z"/>
		</g>
		<g>
			<path class="st53" d="M363.1,528.2h-55.2V473L363.1,528.2z M309.2,526.9H360l-50.8-50.8V526.9z"/>
		</g>
		<g>
			<path class="st53" d="M413.9,581.2V526 M415.2,529.1v50.8"/>
		</g>
		<g>
			<path class="st53" d="M416.1,475.2H307l54.5-54.5L416.1,475.2z M310.1,473.9H413l-51.4-51.4L310.1,473.9z"/>
		</g>
	</g>
</g>
</svg>
