<?xml version="1.0" encoding="UTF-8"?> <!-- Generator: Adobe Illustrator 24.0.0, SVG Export Plug-In . SVG Version: 6.00 Build 0) --> <svg xmlns:serif="http://www.serif.com/" xmlns="http://www.w3.org/2000/svg" xmlns:xlink="http://www.w3.org/1999/xlink" version="1.1" id="Layer_1" x="0px" y="0px" viewBox="0 0 1544 500" style="enable-background:new 0 0 1544 500;" xml:space="preserve"> <style type="text/css"> .st0{fill:#FFFFFF;} .st1{fill-rule:evenodd;clip-rule:evenodd;fill:#FFFFFF;} </style> <g> <path class="st0" d="M55.7,370.3H62v65.6h-7l0.1-50.8l-21.3,40.4h-5.4L7,385.5l0.1,50.4H0v-65.6h6.3l24.8,47.6L55.7,370.3 L55.7,370.3z"></path> <path class="st0" d="M95.6,389.5c5.8,0,10.1,1.5,12.9,4.4c2.8,2.9,4.2,7.4,4.2,13.4v28.6h-7.4v-7.7c-1.2,2.7-3,4.7-5.4,6.2 c-2.4,1.5-5.2,2.2-8.4,2.2c-2.9,0-5.6-0.6-8-1.8c-2.5-1.2-4.4-2.8-5.8-4.9c-1.4-2.1-2.1-4.4-2.1-7c0-3.4,0.9-6.1,2.6-8 c1.7-1.9,4.6-3.3,8.6-4.1c4-0.8,9.5-1.3,16.6-1.3h2v-3.1c0-3.8-0.8-6.5-2.3-8.2c-1.6-1.7-4.1-2.6-7.5-2.6c-5.2,0-10.4,1.6-15.5,4.8 l-2.5-5.5c2.4-1.7,5.2-3,8.5-4C89.3,390,92.5,389.5,95.6,389.5L95.6,389.5z M92.6,430.6c3.7,0,6.8-1.3,9.2-3.8 c2.4-2.5,3.6-5.8,3.6-9.7v-2.7h-1.7c-5.5,0-9.6,0.2-12.5,0.7c-2.9,0.5-4.9,1.2-6.1,2.3c-1.2,1.1-1.8,2.7-1.8,4.8 c0,2.4,0.9,4.4,2.7,6S89.9,430.6,92.6,430.6z"></path> <path class="st0" d="M152.2,396l-4.9,0.5c-4.7,0.4-8,1.9-10.1,4.4c-2.1,2.5-3.1,5.6-3.1,9.2v25.9h-7.5v-45.3h7.4v7.9 c2.5-5.3,7.5-8.2,15-8.8l2.7-0.2L152.2,396L152.2,396z"></path> <path class="st0" d="M199.7,435.9h-9.8l-23.1-21.7v21.7h-7.5v-65.6h7.5v40.9l21.1-20.5h9.6l-22.5,21.7L199.7,435.9L199.7,435.9z"></path> <path class="st0" d="M243,414.4h-33.1c0.2,5.3,1.7,9.3,4.3,12c2.6,2.7,6.3,4,11.1,4c5.3,0,10.1-1.8,14.5-5.4l2.5,5.5 c-2,1.9-4.5,3.3-7.6,4.4c-3.1,1.1-6.3,1.6-9.5,1.6c-7.1,0-12.6-2.1-16.7-6.2c-4.1-4.2-6.1-9.9-6.1-17.2c0-4.7,0.9-8.8,2.7-12.3 c1.8-3.6,4.3-6.3,7.6-8.3c3.3-2,7-3,11.1-3c6,0,10.7,2,14.1,5.9c3.4,3.9,5.1,9.4,5.1,16.2V414.4L243,414.4z M223.8,395.4 c-4,0-7.2,1.2-9.5,3.7s-3.8,6-4.2,10.5h26.3c-0.1-4.6-1.3-8.1-3.4-10.6C230.8,396.6,227.7,395.4,223.8,395.4L223.8,395.4z"></path> <path class="st0" d="M273.7,430.5c1.4,0,2.7-0.1,4.1-0.3l-0.4,6c-1.4,0.2-3,0.4-4.7,0.4c-5.5,0-9.6-1.4-12.3-4.3s-4.1-6.8-4.1-11.9 v-23.8h-8.8v-6h8.8v-13.8h7.5v13.8h12.8v6h-12.8v23.3C263.8,427,267.1,430.5,273.7,430.5L273.7,430.5z"></path> <path class="st0" d="M285.4,435.9v-45.3h7.5v45.3L285.4,435.9L285.4,435.9z M284.7,371h9.1v8.5h-9.1V371z"></path> <path class="st0" d="M329.8,389.5c10.9,0,16.3,6,16.3,18v28.5h-7.5v-28c0-4.2-0.8-7.3-2.5-9.2s-4.3-2.9-7.9-2.9 c-4.2,0-7.5,1.3-10,3.8s-3.7,6-3.7,10.3v26H307v-45.3h7.4v7.4c1.5-2.8,3.6-4.9,6.2-6.4C323.4,390.2,326.4,389.5,329.8,389.5 L329.8,389.5z"></path> <path class="st0" d="M400.5,390.6v42.3c0,6.8-1.7,11.9-5.2,15.3c-3.5,3.4-8.6,5.2-15.4,5.2c-7.9,0-14.6-2-20-6.1l2.5-5.6 c3,2,5.9,3.4,8.6,4.3c2.7,0.9,5.6,1.3,8.9,1.3c4.3,0,7.6-1.2,9.9-3.5c2.2-2.3,3.3-5.7,3.3-10.2v-8c-1.3,2.9-3.3,5.2-6,6.7 c-2.7,1.6-5.9,2.3-9.5,2.3c-4,0-7.5-0.9-10.6-2.8c-3.1-1.9-5.5-4.5-7.2-7.9c-1.7-3.4-2.6-7.4-2.6-11.8s0.9-8.4,2.6-11.8 c1.7-3.4,4.1-6,7.2-7.9c3.1-1.9,6.6-2.8,10.6-2.8c3.6,0,6.7,0.8,9.4,2.3c2.7,1.6,4.7,3.8,6,6.6v-7.8L400.5,390.6L400.5,390.6z M379,428.3c4.3,0,7.8-1.4,10.2-4.3c2.5-2.9,3.7-6.9,3.7-12c0-5-1.2-9-3.7-11.9c-2.5-2.9-5.9-4.3-10.3-4.3c-4.4,0-7.9,1.4-10.4,4.3 c-2.5,2.9-3.8,6.8-3.8,11.9c0,5.1,1.3,9.1,3.8,12C371.1,426.9,374.6,428.3,379,428.3L379,428.3z"></path> <path class="st0" d="M489.7,435.9l-7.3-16.8h-34.2l-7.3,16.8h-7.8l28.8-65.6h6.6l28.8,65.6H489.7z M450.9,412.8h28.9l-14.4-33.6 L450.9,412.8L450.9,412.8z"></path> <path class="st0" d="M544.2,390.6v45.3h-7.4v-7.7c-1.4,2.7-3.4,4.8-6,6.2c-2.6,1.4-5.5,2.1-8.7,2.1c-5.4,0-9.5-1.5-12.2-4.5 c-2.7-3-4.1-7.5-4.1-13.4v-28.1h7.5v27.9c0,4,0.8,7,2.4,8.9c1.6,1.9,4.2,2.8,7.6,2.8c4,0,7.2-1.3,9.6-3.9c2.4-2.6,3.6-6,3.6-10.2 v-25.6L544.2,390.6L544.2,390.6z"></path> <path class="st0" d="M578.2,430.5c1.4,0,2.7-0.1,4.1-0.3l-0.4,6c-1.4,0.2-3,0.4-4.7,0.4c-5.5,0-9.6-1.4-12.3-4.3 c-2.8-2.9-4.1-6.8-4.1-11.9v-23.8H552v-6h8.8v-13.8h7.5v13.8h12.8v6h-12.8v23.3C568.3,427,571.6,430.5,578.2,430.5z"></path> <path class="st0" d="M608.7,436.6c-4.3,0-8-1-11.3-2.9c-3.3-1.9-5.8-4.7-7.5-8.2c-1.8-3.6-2.7-7.7-2.7-12.4c0-4.7,0.9-8.9,2.7-12.4 c1.8-3.6,4.3-6.3,7.5-8.2c3.3-1.9,7-2.9,11.3-2.9c4.3,0,8.1,1,11.4,2.9c3.3,1.9,5.8,4.7,7.6,8.2c1.8,3.6,2.7,7.7,2.7,12.4 c0,4.7-0.9,8.9-2.7,12.4c-1.8,3.6-4.3,6.3-7.6,8.2C616.8,435.6,613,436.6,608.7,436.6z M608.7,430.3c4.5,0,7.9-1.5,10.3-4.4 c2.4-2.9,3.6-7.2,3.6-12.9c0-5.5-1.2-9.8-3.6-12.8c-2.4-3-5.8-4.5-10.2-4.5c-4.4,0-7.8,1.5-10.2,4.5c-2.4,3-3.6,7.3-3.6,12.8 c0,5.6,1.2,9.9,3.6,12.8C600.8,428.9,604.3,430.3,608.7,430.3z"></path> <path class="st0" d="M692,389.5c10.1,0,15.1,6,15.1,18v28.5h-7.5v-28.1c0-4.2-0.7-7.2-2.2-9.1c-1.5-1.9-3.8-2.9-7-2.9 c-3.8,0-6.8,1.3-8.9,3.8c-2.2,2.5-3.3,6-3.3,10.4v25.9h-7.5v-28.1c0-4.2-0.7-7.3-2.2-9.2c-1.5-1.9-3.8-2.8-7.1-2.8 c-3.8,0-6.8,1.3-8.9,3.8s-3.3,6-3.3,10.4v25.9h-7.5v-45.3h7.4v7.2c1.4-2.7,3.3-4.7,5.7-6.1c2.4-1.4,5.2-2.1,8.4-2.1 c7,0,11.6,3,13.9,8.9c1.3-2.8,3.3-5,6-6.6C685.6,390.3,688.6,389.5,692,389.5L692,389.5z"></path> <path class="st0" d="M739.3,389.5c5.8,0,10.1,1.5,12.9,4.4c2.8,2.9,4.2,7.4,4.2,13.4v28.6h-7.4v-7.7c-1.2,2.7-3,4.7-5.4,6.2 c-2.4,1.5-5.2,2.2-8.4,2.2c-2.9,0-5.6-0.6-8-1.8c-2.5-1.2-4.4-2.8-5.8-4.9c-1.4-2.1-2.1-4.4-2.1-7c0-3.4,0.9-6.1,2.6-8 c1.7-1.9,4.6-3.3,8.6-4.1c4-0.8,9.5-1.3,16.6-1.3h2v-3.1c0-3.8-0.8-6.5-2.3-8.2c-1.6-1.7-4.1-2.6-7.5-2.6c-5.2,0-10.4,1.6-15.5,4.8 l-2.5-5.5c2.4-1.7,5.2-3,8.5-4C733,390,736.2,389.5,739.3,389.5L739.3,389.5z M736.3,430.6c3.7,0,6.8-1.3,9.2-3.8 c2.4-2.5,3.6-5.8,3.6-9.7v-2.7h-1.7c-5.5,0-9.6,0.2-12.5,0.7c-2.9,0.5-4.9,1.2-6.1,2.3c-1.2,1.1-1.8,2.7-1.8,4.8 c0,2.4,0.9,4.4,2.7,6C731.4,429.8,733.7,430.6,736.3,430.6L736.3,430.6z"></path> <path class="st0" d="M790.1,430.5c1.4,0,2.7-0.1,4.1-0.3l-0.4,6c-1.4,0.2-3,0.4-4.7,0.4c-5.5,0-9.6-1.4-12.3-4.3 c-2.8-2.9-4.1-6.8-4.1-11.9v-23.8h-8.8v-6h8.8v-13.8h7.5v13.8h12.8v6h-12.8v23.3C780.3,427,783.5,430.5,790.1,430.5z"></path> <path class="st0" d="M801.8,435.9v-45.3h7.5v45.3L801.8,435.9L801.8,435.9z M801.1,371h9.1v8.5h-9.1V371z"></path> <path class="st0" d="M842.2,436.6c-4.3,0-8-1-11.3-2.9c-3.3-1.9-5.8-4.7-7.5-8.2c-1.8-3.6-2.7-7.7-2.7-12.4c0-4.7,0.9-8.9,2.7-12.4 c1.8-3.6,4.3-6.3,7.5-8.2c3.3-1.9,7-2.9,11.3-2.9c4.3,0,8.1,1,11.4,2.9c3.3,1.9,5.8,4.7,7.6,8.2c1.8,3.6,2.7,7.7,2.7,12.4 c0,4.7-0.9,8.9-2.7,12.4c-1.8,3.6-4.3,6.3-7.6,8.2C850.3,435.6,846.5,436.6,842.2,436.6z M842.2,430.3c4.5,0,7.9-1.5,10.3-4.4 c2.4-2.9,3.6-7.2,3.6-12.9c0-5.5-1.2-9.8-3.6-12.8c-2.4-3-5.8-4.5-10.2-4.5c-4.4,0-7.8,1.5-10.2,4.5c-2.4,3-3.6,7.3-3.6,12.8 c0,5.6,1.2,9.9,3.6,12.8C834.3,428.9,837.8,430.3,842.2,430.3z"></path> <path class="st0" d="M897.9,389.5c10.9,0,16.3,6,16.3,18v28.5h-7.5v-28c0-4.2-0.8-7.3-2.5-9.2s-4.3-2.9-7.9-2.9 c-4.2,0-7.5,1.3-10,3.8s-3.7,6-3.7,10.3v26h-7.5v-45.3h7.4v7.4c1.5-2.8,3.6-4.9,6.2-6.4C891.4,390.2,894.5,389.5,897.9,389.5 L897.9,389.5z"></path> <path class="st0" d="M962,390.6h12.8v6H962v39.4h-7.5v-39.4h-8.8v-6h8.8v-1.5c0-6,1.5-10.6,4.5-13.7c3-3.1,7.6-4.8,13.9-5.2 l3.7-0.2l0.6,5.9l-4.3,0.3c-3.8,0.2-6.5,1.3-8.3,3.2c-1.7,1.9-2.6,4.8-2.6,8.7L962,390.6L962,390.6z"></path> <path class="st0" d="M1000.8,436.6c-4.3,0-8-1-11.3-2.9c-3.3-1.9-5.8-4.7-7.5-8.2c-1.8-3.6-2.7-7.7-2.7-12.4 c0-4.7,0.9-8.9,2.7-12.4c1.8-3.6,4.3-6.3,7.5-8.2c3.3-1.9,7-2.9,11.3-2.9c4.3,0,8.1,1,11.4,2.9c3.3,1.9,5.8,4.7,7.6,8.2 c1.8,3.6,2.7,7.7,2.7,12.4c0,4.7-0.9,8.9-2.7,12.4c-1.8,3.6-4.3,6.3-7.6,8.2C1008.9,435.6,1005.1,436.6,1000.8,436.6z M1000.8,430.3c4.5,0,7.9-1.5,10.3-4.4c2.4-2.9,3.6-7.2,3.6-12.9c0-5.5-1.2-9.8-3.6-12.8c-2.4-3-5.8-4.5-10.2-4.5 s-7.8,1.5-10.2,4.5c-2.4,3-3.6,7.3-3.6,12.8c0,5.6,1.2,9.9,3.6,12.8C992.9,428.9,996.4,430.3,1000.8,430.3L1000.8,430.3z"></path> <path class="st0" d="M1059.3,396l-4.9,0.5c-4.7,0.4-8,1.9-10.1,4.4c-2.1,2.5-3.1,5.6-3.1,9.2v25.9h-7.5v-45.3h7.4v7.9 c2.5-5.3,7.5-8.2,15-8.8l2.7-0.2L1059.3,396z"></path> <path class="st0" d="M1175.4,370.3h7.4l-22.9,65.6h-6.5l-18.7-53.7l-18.7,53.7h-6.4l-23-65.6h7.7l18.6,54.8l19.1-54.8l5.8,0.1 l18.8,54.8L1175.4,370.3L1175.4,370.3z"></path> <path class="st0" d="M1206.6,436.6c-4.3,0-8-1-11.3-2.9c-3.3-1.9-5.8-4.7-7.5-8.2c-1.8-3.6-2.7-7.7-2.7-12.4 c0-4.7,0.9-8.9,2.7-12.4c1.8-3.6,4.3-6.3,7.5-8.2c3.3-1.9,7-2.9,11.3-2.9c4.3,0,8.1,1,11.4,2.9c3.3,1.9,5.8,4.7,7.6,8.2 c1.8,3.6,2.7,7.7,2.7,12.4c0,4.7-0.9,8.9-2.7,12.4c-1.8,3.6-4.3,6.3-7.6,8.2C1214.6,435.6,1210.9,436.6,1206.6,436.6z M1206.6,430.3c4.5,0,7.9-1.5,10.3-4.4c2.4-2.9,3.6-7.2,3.6-12.9c0-5.5-1.2-9.8-3.6-12.8c-2.4-3-5.8-4.5-10.2-4.5 c-4.4,0-7.8,1.5-10.2,4.5c-2.4,3-3.6,7.3-3.6,12.8c0,5.6,1.2,9.9,3.6,12.8C1198.7,428.9,1202.1,430.3,1206.6,430.3L1206.6,430.3z"></path> <path class="st0" d="M1265.1,396l-4.9,0.5c-4.7,0.4-8,1.9-10.1,4.4c-2.1,2.5-3.1,5.6-3.1,9.2v25.9h-7.5v-45.3h7.4v7.9 c2.5-5.3,7.5-8.2,15-8.8l2.7-0.2L1265.1,396z"></path> <path class="st0" d="M1311.6,370.3v65.6h-7.5v-8.3c-1.4,2.9-3.4,5.1-6,6.6c-2.6,1.6-5.7,2.3-9.3,2.3c-4,0-7.5-1-10.5-3 c-3-2-5.4-4.8-7.1-8.3c-1.7-3.6-2.5-7.7-2.5-12.4c0-4.7,0.8-8.7,2.5-12.3c1.7-3.5,4-6.3,7.1-8.2c3-1.9,6.5-2.9,10.5-2.9 c3.5,0,6.6,0.8,9.3,2.3c2.6,1.6,4.6,3.8,6,6.6v-28.1H1311.6z M1290.3,430.3c4.4,0,7.8-1.5,10.2-4.5c2.4-3,3.6-7.3,3.6-12.8 s-1.2-9.8-3.6-12.8c-2.4-3-5.8-4.5-10.2-4.5c-4.4,0-7.8,1.5-10.3,4.5c-2.5,3-3.7,7.2-3.7,12.6c0,5.5,1.2,9.8,3.7,12.9 C1282.4,428.8,1285.8,430.3,1290.3,430.3z"></path> <path class="st0" d="M1326.6,370.3h26c6.9,0,12.2,1.7,16.1,5c3.8,3.3,5.7,8.1,5.7,14.2s-1.9,10.9-5.8,14.3c-3.8,3.4-9.2,5.1-16,5.1 h-18.3v26.9h-7.6V370.3L1326.6,370.3z M1351.9,402.7c10,0,15-4.4,15-13.1c0-8.6-5-12.9-15-12.9h-17.6v26.1H1351.9z"></path> <path class="st0" d="M1410.3,396l-4.9,0.5c-4.7,0.4-8,1.9-10.1,4.4c-2.1,2.5-3.1,5.6-3.1,9.2v25.9h-7.5v-45.3h7.4v7.9 c2.5-5.3,7.5-8.2,15-8.8l2.7-0.2L1410.3,396z"></path> <path class="st0" d="M1454.5,414.4h-33.1c0.2,5.3,1.7,9.3,4.3,12c2.6,2.7,6.3,4,11.1,4c5.3,0,10.1-1.8,14.5-5.4l2.5,5.5 c-2,1.9-4.5,3.3-7.6,4.4c-3.1,1.1-6.3,1.6-9.5,1.6c-7.1,0-12.6-2.1-16.7-6.2c-4.1-4.2-6.1-9.9-6.1-17.2c0-4.7,0.9-8.8,2.7-12.3 c1.8-3.6,4.3-6.3,7.6-8.3c3.3-2,7-3,11.1-3c6,0,10.7,2,14.1,5.9c3.4,3.9,5.1,9.4,5.1,16.2L1454.5,414.4L1454.5,414.4z M1435.3,395.4c-4,0-7.2,1.2-9.5,3.7c-2.4,2.5-3.8,6-4.2,10.5h26.3c-0.1-4.6-1.3-8.1-3.4-10.6 C1442.3,396.6,1439.2,395.4,1435.3,395.4L1435.3,395.4z"></path> <path class="st0" d="M1480.9,436.6c-7.6,0-13.7-2-18.1-5.9l2.5-5.6c2.4,1.9,4.9,3.3,7.4,4.1c2.5,0.8,5.4,1.3,8.5,1.3 c3.4,0,5.9-0.6,7.7-1.7c1.8-1.1,2.7-2.8,2.7-5c0-1.8-0.6-3.2-1.8-4.3c-1.2-1.1-3.1-1.9-5.9-2.5l-7.6-1.8c-3.8-0.9-6.8-2.4-8.8-4.5 c-2-2.1-3.1-4.7-3.1-7.8c0-4,1.6-7.3,4.7-9.8c3.2-2.5,7.4-3.7,12.7-3.7c3.2,0,6.2,0.5,9,1.5c2.9,1,5.2,2.5,7.2,4.4l-2.5,5.5 c-4.2-3.5-8.7-5.3-13.7-5.3c-3.2,0-5.6,0.6-7.4,1.8c-1.8,1.2-2.7,2.9-2.7,5.1c0,1.8,0.5,3.2,1.6,4.3c1.1,1.1,2.8,1.9,5.3,2.5 l7.7,1.9c4.2,1,7.4,2.5,9.4,4.5c2,2,3.1,4.6,3.1,7.9c0,4-1.6,7.1-4.8,9.5C1490.8,435.4,1486.5,436.6,1480.9,436.6L1480.9,436.6z"></path> <path class="st0" d="M1525.6,436.6c-7.6,0-13.7-2-18.1-5.9l2.5-5.6c2.4,1.9,4.9,3.3,7.4,4.1c2.5,0.8,5.4,1.3,8.5,1.3 c3.4,0,5.9-0.6,7.7-1.7c1.8-1.1,2.7-2.8,2.7-5c0-1.8-0.6-3.2-1.8-4.3c-1.2-1.1-3.1-1.9-5.9-2.5l-7.6-1.8c-3.8-0.9-6.8-2.4-8.8-4.5 c-2-2.1-3.1-4.7-3.1-7.8c0-4,1.6-7.3,4.7-9.8s7.4-3.7,12.7-3.7c3.2,0,6.2,0.5,9,1.5c2.9,1,5.2,2.5,7.2,4.4l-2.5,5.5 c-4.2-3.5-8.7-5.3-13.7-5.3c-3.2,0-5.6,0.6-7.4,1.8c-1.8,1.2-2.7,2.9-2.7,5.1c0,1.8,0.5,3.2,1.6,4.3c1.1,1.1,2.8,1.9,5.3,2.5 l7.7,1.9c4.2,1,7.4,2.5,9.4,4.5c2,2,3.1,4.6,3.1,7.9c0,4-1.6,7.1-4.8,9.5C1535.5,435.4,1531.1,436.6,1525.6,436.6L1525.6,436.6z"></path> </g> <g> <path class="st0" d="M408.4,85c3.4-0.3,6.1,0.1,7.9,1.4c1.8,1.3,2.7,3.3,2.7,6.1c0,5.3-2.9,8.3-8.8,8.8l-7.5,0.5 c-9.8,0.7-17.1,3.7-21.9,8.9c-4.8,5.2-7.6,13.1-8.5,23.6l-0.5,7.2h28.1c2.8,0,4.9,0.7,6.3,2.2c1.5,1.5,2.2,3.4,2.2,5.8 c0,2.6-0.8,4.6-2.3,6.2c-1.5,1.5-3.8,2.3-6.7,2.3h-28.9l-8,100.3c-0.2,3.3-1.3,5.8-3.4,7.5c-2.1,1.7-4.6,2.6-7.5,2.6 c-2.9,0-5.4-0.9-7.3-2.6c-2-1.7-2.9-4.2-2.7-7.5l8-100.3h-17.3c-2.8,0-4.9-0.7-6.3-2.2c-1.5-1.5-2.2-3.4-2.2-5.8 c0-2.6,0.8-4.6,2.3-6.2c1.5-1.5,3.9-2.3,7-2.3h17.8l0.3-4.6c1.2-16.7,6.1-29.2,14.7-37.5c8.6-8.3,21.1-13,37.4-14.1L408.4,85 L408.4,85z"></path> <path class="st0" d="M433.9,268.4c-2.9,0-5.3-0.9-7.2-2.6c-1.9-1.7-2.8-4.3-2.6-7.7l13.1-164.5c0.2-3.3,1.4-5.7,3.6-7.3 c2.2-1.6,4.8-2.4,7.7-2.4s5.3,0.8,7.1,2.4c1.8,1.6,2.6,4.1,2.4,7.3L445,258c-0.2,3.4-1.3,6-3.5,7.7 C439.4,267.5,436.9,268.4,433.9,268.4L433.9,268.4z"></path> <path class="st0" d="M583.7,138.9c3.1,0,5.5,0.9,7.3,2.7c1.8,1.8,2.5,4.3,2.2,7.6l-8.8,109.6c-0.2,2.9-1.3,5.2-3.5,7 c-2.1,1.7-4.7,2.6-7.6,2.6c-2.9,0-5.2-0.8-7-2.4c-1.7-1.6-2.5-3.9-2.3-6.8l1-12.4c-4.3,7-10.1,12.5-17.3,16.4 c-7.2,3.9-15.3,5.8-24.2,5.8c-13.9,0-24.5-3.7-31.7-11c-7.2-7.3-10.8-18-10.8-32.1c0-3.1,0.1-5.4,0.3-7l5.4-69.6 c0.3-3.3,1.6-5.8,3.7-7.6c2.1-1.8,4.7-2.7,7.6-2.7c3.1,0,5.5,0.9,7.3,2.7c1.8,1.8,2.5,4.3,2.2,7.6l-5.4,68.3 c-0.2,1.2-0.3,3-0.3,5.4c0,18.9,9,28.4,27.1,28.4c11.2,0,20.1-3.4,26.8-10.3c6.7-6.9,10.5-16.4,11.3-28.6l5.2-63.2 c0.3-3.3,1.6-5.8,3.7-7.6C578.3,139.8,580.8,138.9,583.7,138.9L583.7,138.9z"></path> <path class="st0" d="M638.7,207.5v1c0,13.8,3.4,24.4,10.2,32c6.8,7.6,16.6,11.3,29.5,11.3c13.6,0,25.5-3.8,35.8-11.3 c1.7-1.2,3.4-1.8,5.2-1.8c2.1,0,3.7,0.8,5,2.3c1.3,1.5,1.9,3.4,1.9,5.4c0,3.1-1.4,5.9-4.1,8.5c-4.6,4.1-11.1,7.5-19.5,10.1 c-8.3,2.6-16.8,3.9-25.4,3.9c-18.2,0-32.7-5.5-43.4-16.5c-10.7-11-16.1-25.8-16.1-44.4c0-13.8,2.5-25.9,7.6-36.4 c5.1-10.5,12.3-18.7,21.7-24.5c9.4-5.8,20.2-8.8,32.6-8.8c16.8,0,29.7,5,38.7,15.1c8.9,10.1,13.4,24.6,13.4,43.7 c0,3.3-0.9,5.8-2.6,7.6c-1.7,1.8-4,2.7-7,2.7L638.7,207.5L638.7,207.5z M680.4,154.6c-11.5,0-20.7,3.4-27.6,10.2 c-6.9,6.8-11.3,16.5-13.1,29.3h73.2c0.5-12.9-2.1-22.7-7.9-29.4C699.3,158,691.1,154.6,680.4,154.6z"></path> <path class="st0" d="M827.7,138.4c14.1,0,24.8,3.7,32.2,11.1c7.4,7.4,11.1,18.1,11.1,32.2c0,3.1-0.1,5.4-0.3,7l-5.4,69.4 c-0.3,3.4-1.5,6-3.6,7.7c-2.1,1.7-4.6,2.6-7.5,2.6c-3.3,0-5.8-0.9-7.6-2.6c-1.8-1.7-2.5-4.3-2.2-7.7l5.4-68.1 c0.2-1.2,0.3-3,0.3-5.4c0-19.1-9.2-28.6-27.6-28.6c-11.7,0-21,3.5-27.8,10.4c-6.9,7-10.8,16.5-11.9,28.8l-5.2,62.9 c-0.2,3.4-1.3,6-3.4,7.7c-2.1,1.7-4.6,2.6-7.7,2.6s-5.5-0.9-7.3-2.6c-1.8-1.7-2.6-4.3-2.4-7.7l9-109.3c0.2-3.1,1.3-5.5,3.5-7.2 c2.1-1.7,4.7-2.6,7.6-2.6c2.9,0,5.2,0.9,7,2.6c1.7,1.7,2.5,4,2.3,7l-1,12.4c4.3-7,10.1-12.5,17.5-16.5 C810.1,140.4,818.4,138.4,827.7,138.4L827.7,138.4z"></path> <path class="st0" d="M934.2,221.7c-0.2,1.2-0.3,2.9-0.3,5.2c0,8.3,1.9,14.5,5.7,18.8c3.8,4.3,9.1,6.4,16,6.4c2.2,0,4.4-0.1,6.4-0.4 c2.1-0.3,3.6-0.4,4.6-0.4c1.7,0,3.1,0.7,4.3,2.1c1.1,1.4,1.7,3.3,1.7,5.7c0,3.6-1.5,6.1-4.5,7.6c-3,1.5-8.3,2.2-15.9,2.2 c-12.4,0-22-3.5-28.9-10.6c-6.9-7-10.3-17-10.3-29.9c0-2.4,0.1-4.3,0.3-5.7l4.9-64.7h-17c-2.8,0-4.9-0.7-6.3-2.2s-2.2-3.4-2.2-5.8 c0-2.8,0.8-4.9,2.4-6.3c1.6-1.5,3.9-2.2,6.8-2.2h17.5l2.3-29.4c0.3-2.9,1.5-5.3,3.5-7.1c2-1.8,4.5-2.7,7.6-2.7 c3.3,0,5.8,0.9,7.6,2.8c1.8,1.9,2.5,4.4,2.2,7.5l-2.3,28.9h28.4c2.6,0,4.6,0.7,6.2,2.2c1.5,1.5,2.3,3.4,2.3,5.8 c0,2.8-0.8,4.9-2.3,6.3c-1.5,1.5-3.8,2.2-6.7,2.2h-29.1L934.2,221.7L934.2,221.7z"></path> <path class="st0" d="M1090.9,269.4c-18.9,0-35.4-3.9-49.4-11.6c-14-7.7-24.8-18.7-32.2-32.7c-7.5-14.1-11.2-30.4-11.2-49 c0-18.6,3.7-34.9,11.2-48.9c7.5-14,18.2-24.9,32.2-32.6c14-7.7,30.5-11.6,49.4-11.6c11.9,0,23.3,1.8,34.4,5.4 c11.1,3.6,20.2,8.4,27.2,14.4l-14.7,33.5c-15-10.5-30.3-15.7-45.9-15.7c-14.8,0-26.1,4.6-33.9,13.9c-7.8,9.3-11.7,23.1-11.7,41.5 c0,18.4,3.9,32.3,11.7,41.6c7.8,9.4,19.1,14.1,33.9,14.1c15.6,0,30.9-5.2,45.9-15.7l14.7,33.5c-7,6-16.1,10.8-27.2,14.4 C1114.3,267.6,1102.8,269.4,1090.9,269.4z"></path> <path class="st0" d="M1341.1,267.1H1289l-31.5-58c-4-6.7-10.2-10.1-18.8-10.1h-14.4v68.1h-46.7V85.3h86.6c22,0,38.5,4.8,49.6,14.3 c11.1,9.5,16.6,23.3,16.6,41.4c0,13.8-3.8,25.4-11.3,34.9c-7.6,9.5-18.2,15.9-32,19.2c10.5,2.2,18.8,9,25,20.4L1341.1,267.1 L1341.1,267.1z M1256.7,163.4c10.5,0,18-1.6,22.6-4.9c4.6-3.3,6.8-8.6,6.8-16c0-7.6-2.3-13-6.8-16.4c-4.6-3.4-12.1-5-22.6-5h-33 v42.3H1256.7z"></path> <path class="st0" d="M1506.9,85.3h36.6v181.8h-41.3v-95.4l-35.1,65.2h-30.4l-34.8-63.7l-0.3,93.9h-41.3V85.3h37.4l54.7,103.4 C1452.5,188.7,1506.9,85.3,1506.9,85.3z"></path> </g> <path class="st1" d="M233.2,46.6H25.9C11.6,46.6,0,58.2,0,72.5v207.2c0,14.3,11.6,25.9,25.9,25.9h207.2c14.3,0,25.9-11.6,25.9-25.9 V72.5C259.1,58.2,247.5,46.6,233.2,46.6z M149.8,180.4c0,20.7-13.9,38.8-33.9,44.1c-31.5,8.4-73.6,19.7-73.6,19.7s0-8,0-16.4 c0-11,7.4-20.7,18-23.5C91,196.2,149.8,180.4,149.8,180.4C149.8,180.4,149.8,180.4,149.8,180.4z M182.8,152.2 c-50.7,13.6-140.5,37.6-140.5,37.6s0-8,0-16.4c0-11,7.4-20.7,18-23.5c44.6-11.9,156.3-41.9,156.3-41.9 C216.7,128.7,202.8,146.8,182.8,152.2z"></path> </svg> 