<?xml version="1.0" encoding="utf-8"?>
<!-- Generator: Adobe Illustrator 17.0.0, SVG Export Plug-In . SVG Version: 6.00 Build 0)  -->
<!DOCTYPE svg PUBLIC "-//W3C//DTD SVG 1.1//EN" "http://www.w3.org/Graphics/SVG/1.1/DTD/svg11.dtd">
<svg version="1.1" id="Layer_1" xmlns="http://www.w3.org/2000/svg" xmlns:xlink="http://www.w3.org/1999/xlink" x="0px" y="0px"
	 width="156px" height="150.244px" viewBox="0 0 156 150.244" enable-background="new 0 0 156 150.244" xml:space="preserve">
<g>
	<g>
		<path opacity="0.85" fill="#274A9C" enable-background="new    " d="M3.037,64.74L3.037,64.74
			c-0.006-0.015-0.012-0.029-0.018-0.044C3.025,64.711,3.031,64.726,3.037,64.74z"/>
		<path fill="#648ACC" d="M53.097,2.541L53.097,2.541L20.458,16.803C8.691,21.944,1.359,33.581,0.236,46.343
			c0.005-0.033,0.008-0.068,0.013-0.101l11.289,4.708l11.782,4.927l12.364-5.403C53.047,42.887,60.843,21.427,53.097,2.541z"/>
		<path fill="#B9CEED" d="M3.614,66.124c2.374,5.579,6.522,10.038,12.37,12.472l22.28,9.317l0,0
			c4.802-12.234-0.914-26.169-12.766-31.125l-2.179-0.911L3.037,64.74C3.23,65.215,3.424,65.678,3.614,66.124z"/>
		<path fill="#3155A4" d="M11.538,50.95L0.249,46.243c-0.005,0.033-0.009,0.067-0.013,0.101c-0.259,1.884-0.235,4.171-0.033,6.483
			c0.111,1.432,0.301,2.867,0.573,4.297c0.42,2.729,1.322,5.302,2.244,7.573c0.006,0.015,0.012,0.029,0.018,0.044l20.283-8.863
			L11.538,50.95z"/>
	</g>
	<g>
		<path fill="#FFFFFF" d="M87.96,47.482c-3.372-1.98-7.219-2.985-11.433-2.985s-8.07,1.004-11.46,2.984
			c-3.399,1.982-6.098,4.754-8.021,8.237c-1.92,3.477-2.894,7.433-2.894,11.759c0,4.327,0.973,8.284,2.894,11.76
			c1.925,3.484,4.623,6.256,8.021,8.238c3.392,1.98,7.247,2.984,11.46,2.984c4.212,0,8.059-1.005,11.433-2.985
			c3.378-1.982,6.074-4.753,8.016-8.233c1.94-3.479,2.924-7.437,2.924-11.764c0-4.326-0.984-8.284-2.924-11.762
			C94.036,52.235,91.339,49.465,87.96,47.482z M87.867,67.477c0,2.468-0.501,4.692-1.489,6.612
			c-0.979,1.904-2.343,3.406-4.055,4.467c-1.715,1.06-3.665,1.598-5.796,1.598c-2.134,0-4.084-0.538-5.797-1.598
			c-1.712-1.06-3.076-2.562-4.055-4.467c-0.988-1.921-1.489-4.146-1.489-6.612s0.501-4.689,1.489-6.61
			c0.979-1.905,2.343-3.407,4.055-4.467c1.711-1.06,3.662-1.598,5.797-1.598c2.133,0,4.084,0.538,5.796,1.598
			s3.076,2.563,4.056,4.467C87.366,62.786,87.867,65.009,87.867,67.477z"/>
		<polygon fill="#FFFFFF" points="117.562,63.181 107.625,45.227 95.862,45.227 111.709,73.816 111.709,89.729 122.63,89.729 
			122.63,73.938 138.532,45.227 127.498,45.227 		"/>
		<polygon fill="#FFFFFF" points="153.991,74.942 155.846,45.227 143.458,45.227 145.313,74.942 		"/>
		<path fill="#FFFFFF" d="M154.168,79.184c-1.182-1.214-2.701-1.83-4.516-1.83c-1.814,0-3.333,0.616-4.515,1.83
			c-1.185,1.215-1.786,2.743-1.786,4.54c0,1.794,0.609,3.34,1.807,4.594c1.202,1.258,2.713,1.896,4.493,1.896
			c1.779,0,3.291-0.638,4.494-1.896c1.199-1.254,1.807-2.8,1.807-4.594C155.953,81.927,155.352,80.399,154.168,79.184z"/>
	</g>
</g>
<g>
	<polygon fill="#FFFFFF" points="82.246,122.986 85.518,122.986 83.881,119.337 	"/>
	<path fill="#FFFFFF" d="M72.642,122.904h-2.438v2.454h2.438c0.6,0,1.027-0.095,1.284-0.286c0.256-0.19,0.385-0.505,0.385-0.94
		c0-0.437-0.129-0.75-0.385-0.941C73.669,123,73.242,122.904,72.642,122.904z"/>
	<path fill="#FFFFFF" d="M73.59,120.368c0.262-0.174,0.393-0.452,0.393-0.834c0-0.403-0.131-0.698-0.393-0.884
		s-0.676-0.278-1.243-0.278h-2.144v2.258h2.144C72.915,120.629,73.329,120.542,73.59,120.368z"/>
	<path fill="#FFFFFF" d="M40.41,118.257c-0.873,0-1.555,0.303-2.045,0.908c-0.491,0.605-0.736,1.502-0.736,2.691
		c0,1.188,0.245,2.089,0.736,2.699c0.49,0.611,1.172,0.916,2.045,0.916c0.872,0,1.555-0.308,2.045-0.924
		c0.491-0.616,0.736-1.514,0.736-2.691c0-1.179-0.248-2.072-0.744-2.684C41.95,118.563,41.271,118.257,40.41,118.257z"/>
	<polygon fill="#FFFFFF" points="102.485,122.986 105.757,122.986 104.121,119.337 	"/>
	<path fill="#FFFFFF" d="M115.201,107.007H40.799c-8.206,0-14.858,6.652-14.858,14.858c0,8.206,6.652,14.858,14.858,14.858h74.402
		c8.206,0,14.858-6.652,14.858-14.858C130.059,113.659,123.407,107.007,115.201,107.007z M45.465,124.99
		c-0.469,0.89-1.137,1.576-2.004,2.062s-1.885,0.729-3.052,0.729c-1.178,0-2.201-0.243-3.067-0.729
		c-0.867-0.485-1.536-1.172-2.005-2.062c-0.469-0.889-0.703-1.933-0.703-3.133s0.234-2.244,0.703-3.134
		c0.469-0.889,1.138-1.573,2.005-2.053c0.866-0.48,1.89-0.72,3.067-0.72s2.2,0.239,3.067,0.72c0.867,0.479,1.532,1.164,1.996,2.053
		c0.464,0.89,0.695,1.934,0.695,3.134S45.934,124.101,45.465,124.99z M56.526,118.274l-3.437,3.976v3.992
		c0,0.48-0.139,0.848-0.417,1.104c-0.278,0.256-0.636,0.385-1.071,0.385c-0.447,0-0.812-0.129-1.097-0.385
		c-0.283-0.257-0.425-0.624-0.425-1.104v-3.992l-3.403-3.976c-0.251-0.284-0.376-0.59-0.376-0.917c0-0.359,0.142-0.676,0.425-0.948
		S47.331,116,47.691,116c0.381,0,0.714,0.163,0.998,0.49l2.896,3.437l2.896-3.437c0.283-0.327,0.615-0.49,0.998-0.49
		c0.359,0,0.684,0.139,0.973,0.417s0.434,0.598,0.434,0.957C56.885,117.69,56.765,117.99,56.526,118.274z M60.444,127.272
		c-0.3,0.306-0.674,0.459-1.12,0.459c-0.459,0-0.838-0.153-1.138-0.459c-0.3-0.305-0.45-0.682-0.45-1.129
		c0-0.446,0.15-0.823,0.45-1.129c0.3-0.305,0.679-0.458,1.138-0.458c0.446,0,0.82,0.153,1.12,0.458c0.3,0.306,0.45,0.683,0.45,1.129
		C60.894,126.59,60.744,126.967,60.444,127.272z M61.058,117.865l-0.867,5.072c-0.033,0.283-0.129,0.501-0.287,0.654
		c-0.158,0.152-0.352,0.229-0.58,0.229c-0.229,0-0.423-0.076-0.581-0.229c-0.158-0.153-0.26-0.371-0.303-0.654l-0.851-5.089
		c-0.012-0.065-0.017-0.152-0.017-0.262c0-0.491,0.166-0.875,0.499-1.153c0.332-0.278,0.75-0.417,1.252-0.417
		c0.512,0,0.933,0.142,1.26,0.425c0.327,0.284,0.49,0.671,0.49,1.162C61.074,117.711,61.069,117.799,61.058,117.865z M76.61,126.135
		c-0.333,0.475-0.808,0.843-1.424,1.104s-1.339,0.393-2.168,0.393h-4.353c-0.447,0-0.791-0.12-1.03-0.36
		c-0.24-0.239-0.36-0.583-0.36-1.03v-8.754c0-0.446,0.12-0.79,0.36-1.03c0.239-0.24,0.583-0.36,1.03-0.36h4.188
		c1.211,0,2.174,0.271,2.889,0.811c0.714,0.54,1.071,1.268,1.071,2.184c0,0.589-0.158,1.11-0.475,1.562
		c-0.316,0.453-0.758,0.783-1.325,0.99c0.676,0.207,1.194,0.554,1.555,1.039c0.359,0.485,0.54,1.083,0.54,1.791
		C77.109,125.107,76.942,125.661,76.61,126.135z M89.436,127.305c-0.289,0.251-0.619,0.376-0.99,0.376
		c-0.251,0-0.479-0.065-0.687-0.196s-0.371-0.327-0.491-0.589l-0.736-1.652h-5.301l-0.753,1.652
		c-0.12,0.262-0.286,0.458-0.499,0.589s-0.444,0.196-0.695,0.196c-0.371,0-0.706-0.125-1.006-0.376
		c-0.301-0.251-0.45-0.557-0.45-0.916c0-0.196,0.049-0.398,0.147-0.605l4.319-8.868c0.142-0.295,0.352-0.521,0.63-0.679
		S83.51,116,83.849,116c0.327,0,0.632,0.079,0.916,0.237c0.283,0.158,0.496,0.384,0.638,0.679l4.319,8.868
		c0.099,0.207,0.147,0.409,0.147,0.605C89.87,126.749,89.725,127.054,89.436,127.305z M95.481,126.242
		c0,0.48-0.139,0.848-0.417,1.104c-0.278,0.256-0.636,0.385-1.071,0.385c-0.447,0-0.812-0.129-1.097-0.385
		c-0.283-0.257-0.425-0.624-0.425-1.104v-3.992l-3.403-3.976c-0.251-0.284-0.376-0.59-0.376-0.917c0-0.359,0.142-0.676,0.425-0.948
		S89.722,116,90.082,116c0.381,0,0.714,0.163,0.998,0.49l2.896,3.437l2.896-3.437c0.283-0.327,0.615-0.49,0.998-0.49
		c0.359,0,0.684,0.139,0.973,0.417s0.434,0.598,0.434,0.957c0,0.316-0.12,0.616-0.359,0.9l-3.437,3.976V126.242z M109.675,127.305
		c-0.289,0.251-0.619,0.376-0.99,0.376c-0.251,0-0.479-0.065-0.687-0.196s-0.371-0.327-0.491-0.589l-0.736-1.652h-5.301
		l-0.753,1.652c-0.12,0.262-0.286,0.458-0.499,0.589s-0.444,0.196-0.695,0.196c-0.371,0-0.706-0.125-1.006-0.376
		c-0.301-0.251-0.45-0.557-0.45-0.916c0-0.196,0.049-0.398,0.147-0.605l4.319-8.868c0.142-0.295,0.352-0.521,0.63-0.679
		s0.586-0.237,0.925-0.237c0.327,0,0.632,0.079,0.916,0.237c0.283,0.158,0.496,0.384,0.638,0.679l4.319,8.868
		c0.099,0.207,0.147,0.409,0.147,0.605C110.109,126.749,109.964,127.054,109.675,127.305z M120.932,127.428
		c-0.289,0.234-0.624,0.352-1.006,0.352c-0.262,0-0.508-0.061-0.736-0.181c-0.229-0.119-0.426-0.3-0.589-0.539l-2.127-3.109
		c-0.153-0.218-0.314-0.379-0.483-0.482s-0.368-0.155-0.597-0.155h-1.063v2.929c0,0.458-0.131,0.82-0.393,1.088
		s-0.622,0.401-1.08,0.401s-0.821-0.134-1.088-0.401c-0.268-0.268-0.401-0.63-0.401-1.088v-8.754c0-0.446,0.12-0.79,0.36-1.03
		c0.239-0.24,0.583-0.36,1.03-0.36h4.107c1.396,0,2.445,0.303,3.149,0.908c0.703,0.605,1.055,1.48,1.055,2.626
		c0,0.873-0.239,1.612-0.72,2.217c-0.479,0.605-1.156,1.013-2.028,1.22c0.359,0.055,0.673,0.174,0.94,0.359s0.532,0.464,0.794,0.835
		l1.014,1.456c0.197,0.294,0.295,0.572,0.295,0.834C121.366,126.902,121.221,127.194,120.932,127.428z"/>
	<path fill="#FFFFFF" d="M116.392,118.372h-2.095v2.684h2.095c0.665,0,1.143-0.104,1.432-0.311c0.289-0.208,0.434-0.546,0.434-1.015
		c0-0.48-0.145-0.826-0.434-1.039S117.057,118.372,116.392,118.372z"/>
</g>
</svg>
