<?xml version="1.0" encoding="UTF-8"?>
<svg width="715px" height="139px" viewBox="0 0 715 139" version="1.1" xmlns="http://www.w3.org/2000/svg" xmlns:xlink="http://www.w3.org/1999/xlink">
    <!-- Generator: Sketch 44.1 (41455) - http://www.bohemiancoding.com/sketch -->
    <title>Sensum Logo (R)</title>
    <desc>Created with Sketch.</desc>
    <defs></defs>
    <g id="Page-1" stroke="none" stroke-width="1" fill="none" fill-rule="evenodd">
        <g id="Styleguide-Template" transform="translate(-424.000000, -1140.000000)" fill="#FFFFFF">
            <path d="M1133.8726,1253.02943 C1133.71459,1253.16703 1133.50852,1253.2355 1133.25373,1253.2355 L1132.12331,1253.2355 L1132.12331,1251.65343 L1133.25373,1251.65343 C1133.50852,1251.65343 1133.71459,1251.72322 1133.8726,1251.86279 C1134.03061,1252.00237 1134.10896,1252.19724 1134.10896,1252.44808 C1134.10896,1252.69892 1134.03061,1252.89314 1133.8726,1253.02943 L1133.8726,1253.02943 Z M1135.02739,1255.99803 L1133.86865,1253.77273 C1134.15175,1253.69307 1134.38943,1253.53901 1134.58233,1253.31384 C1134.77523,1253.08736 1134.87267,1252.79505 1134.87267,1252.43689 C1134.87267,1252.22555 1134.83515,1252.02804 1134.76272,1251.84765 C1134.68964,1251.6666 1134.58431,1251.51056 1134.44802,1251.38086 C1134.31174,1251.25182 1134.1478,1251.15043 1133.95753,1251.07669 C1133.76661,1251.00427 1133.55066,1250.9674 1133.31035,1250.9674 L1131.36091,1250.9674 L1131.36091,1255.99803 L1132.12331,1255.99803 L1132.12331,1253.87873 L1133.07795,1253.87873 L1134.13727,1255.99803 L1135.02739,1255.99803 Z M1137.44033,1253.43169 C1137.44033,1255.91508 1135.41978,1257.93562 1132.9364,1257.93562 C1130.45302,1257.93562 1128.43247,1255.91508 1128.43247,1253.43169 C1128.43247,1250.94831 1130.45302,1248.92777 1132.9364,1248.92777 C1135.41978,1248.92777 1137.44033,1250.94831 1137.44033,1253.43169 L1137.44033,1253.43169 Z M1138.26922,1253.43169 C1138.26922,1250.4914 1135.87669,1248.09887 1132.9364,1248.09887 C1129.99545,1248.09887 1127.60292,1250.4914 1127.60292,1253.43169 C1127.60292,1256.37264 1129.99545,1258.76517 1132.9364,1258.76517 C1135.87669,1258.76517 1138.26922,1256.37264 1138.26922,1253.43169 L1138.26922,1253.43169 Z M1070.258,1230.47753 C1051.96906,1230.47753 1037.08984,1215.59896 1037.08984,1197.30937 C1037.08984,1179.02043 1051.96906,1164.14121 1070.258,1164.14121 L1070.258,1140 C1038.65743,1140 1012.94863,1165.70945 1012.94863,1197.30937 C1012.94863,1228.90994 1038.65743,1254.6194 1070.258,1254.6194 L1070.258,1230.47753 Z M1070.26063,1278.756 L1070.26063,1254.61808 C1088.54693,1254.61808 1103.42352,1239.74149 1103.42352,1221.45519 C1103.42352,1203.16889 1088.54693,1188.29164 1070.26063,1188.29164 L1070.26063,1164.15438 C1101.85594,1164.15438 1127.56144,1189.85922 1127.56144,1221.45519 C1127.56144,1253.05115 1101.85594,1278.756 1070.26063,1278.756 L1070.26063,1278.756 Z M932.666002,1253.00704 C932.508651,1253.14464 932.30258,1253.21377 932.047132,1253.21377 L930.916706,1253.21377 L930.916706,1251.63104 L932.047132,1251.63104 C932.30258,1251.63104 932.508651,1251.70083 932.666002,1251.84041 C932.824011,1251.97998 932.903016,1252.17486 932.903016,1252.4257 C932.903016,1252.67654 932.824011,1252.87076 932.666002,1253.00704 L932.666002,1253.00704 Z M933.821446,1255.9763 L932.662052,1253.75035 C932.945152,1253.67068 933.182825,1253.51662 933.376386,1253.29146 C933.569289,1253.06498 933.666729,1252.77266 933.666729,1252.41451 C933.666729,1252.20317 933.629201,1252.00632 933.556122,1251.82526 C933.483701,1251.64421 933.378361,1251.48818 933.24142,1251.35914 C933.105137,1251.22944 932.941202,1251.12805 932.75159,1251.05431 C932.560004,1250.98189 932.344716,1250.94502 932.10441,1250.94502 L930.15431,1250.94502 L930.15431,1255.9763 L930.916706,1255.9763 L930.916706,1253.85634 L931.871346,1253.85634 L932.931326,1255.9763 L933.821446,1255.9763 Z M936.233724,1253.40931 C936.233724,1255.89335 934.213178,1257.91324 931.729796,1257.91324 C929.246414,1257.91324 927.225868,1255.89335 927.225868,1253.40931 C927.225868,1250.92593 929.246414,1248.90604 931.729796,1248.90604 C934.213178,1248.90604 936.233724,1250.92593 936.233724,1253.40931 L936.233724,1253.40931 Z M937.063273,1253.40931 C937.063273,1250.46902 934.670747,1248.07649 931.729796,1248.07649 C928.789503,1248.07649 926.396977,1250.46902 926.396977,1253.40931 C926.396977,1256.35026 928.789503,1258.74279 931.729796,1258.74279 C934.670747,1258.74279 937.063273,1256.35026 937.063273,1253.40931 L937.063273,1253.40931 Z M905.897226,1159.27057 L863.31697,1244.74973 L863.30907,1244.76553 L863.301828,1244.74973 L820.720914,1159.27057 L809.410729,1159.27057 L809.410729,1258.58741 L819.534526,1258.58741 L819.534526,1179.59322 L858.889414,1258.59794 L858.895998,1258.59794 L858.897314,1258.59794 L858.904556,1258.59794 L867.714242,1258.59794 L867.720825,1258.59794 L867.722801,1258.59794 L867.728726,1258.59794 L917.208069,1159.27057 L905.897226,1159.27057 Z M907.084272,1258.59794 L917.208069,1258.59794 L917.208069,1203.86874 L907.084272,1203.86874 L907.084272,1258.59794 Z M647.22917,1258.59794 L575.951764,1159.27057 L572.885723,1159.27057 L563.490086,1159.27057 L562.761925,1159.27057 L562.761925,1258.59794 L572.885723,1258.59794 L572.885723,1172.36297 L634.767491,1258.59794 L647.22917,1258.59794 Z M637.135658,1213.89378 L647.259455,1213.89378 L647.259455,1159.26991 L637.135658,1159.26991 L637.135658,1213.89378 Z M794.209562,1229.74344 L794.209562,1159.26991 L784.085764,1159.26991 L784.085764,1229.74344 C784.085764,1242.56064 773.657141,1252.98927 760.839282,1252.98927 C748.021424,1252.98927 737.594117,1242.56064 737.594117,1229.74344 L737.594117,1159.26991 L727.470319,1159.26991 L727.470319,1229.74344 C727.470319,1248.14299 742.43974,1263.11306 760.839282,1263.11306 C779.240141,1263.11306 794.209562,1248.14299 794.209562,1229.74344 L794.209562,1229.74344 Z M492.418751,1258.5907 L547.538373,1258.5907 L547.538373,1248.4669 L492.418751,1248.4669 L492.418751,1258.5907 Z M492.418751,1213.99253 L547.538373,1213.99253 L547.538373,1203.86874 L492.418751,1203.86874 L492.418751,1213.99253 Z M492.418751,1169.39437 L547.538373,1169.39437 L547.538373,1159.27057 L492.418751,1159.27057 L492.418751,1169.39437 Z M696.836895,1207.01773 L696.83887,1207.01313 L696.709829,1206.96836 C696.702587,1206.96572 696.696004,1206.96243 696.68942,1206.9598 L696.688761,1206.96111 L681.280865,1201.57958 L681.28284,1201.57431 C673.895898,1198.9948 668.933085,1192.00091 668.933085,1184.17088 C668.933085,1174.00956 677.198954,1165.74369 687.360278,1165.74369 L687.360278,1155.88258 C671.76277,1155.88258 659.071978,1168.57338 659.071978,1184.17088 C659.071978,1196.042 666.513565,1206.64839 677.624263,1210.7224 L677.616362,1210.74412 L693.458785,1216.27709 C700.833876,1218.86252 705.788131,1225.84983 705.788131,1233.67195 C705.788131,1243.83328 697.521603,1252.09981 687.360278,1252.09981 L687.360278,1261.96091 C702.958445,1261.96091 715.649237,1249.27012 715.649237,1233.67195 C715.649237,1221.70735 708.093752,1211.01866 696.836895,1207.01773 L696.836895,1207.01773 Z M480.577259,1233.67195 C480.577259,1249.27012 467.886467,1261.96091 452.288959,1261.96091 L452.288959,1252.09981 C462.450283,1252.09981 470.716153,1243.83328 470.716153,1233.67195 C470.716153,1225.84983 465.761898,1218.86252 458.386807,1216.27709 L442.544384,1210.74412 L442.552285,1210.7224 C431.441587,1206.64839 424,1196.042 424,1184.17088 C424,1168.57338 436.690792,1155.88258 452.288959,1155.88258 L452.288959,1165.74369 C442.127634,1165.74369 433.861107,1174.00956 433.861107,1184.17088 C433.861107,1192.00091 438.82392,1198.9948 446.210862,1201.57431 L446.208887,1201.57958 L461.616783,1206.96111 L461.617442,1206.9598 C461.624684,1206.96243 461.631268,1206.96572 461.637851,1206.96836 L461.766892,1207.01313 L461.764917,1207.01773 C473.021774,1211.01866 480.577259,1221.70735 480.577259,1233.67195 L480.577259,1233.67195 Z" id="Sensum-Logo-(R)"></path>
        </g>
    </g>
</svg>