<?xml version="1.0" encoding="UTF-8"?>
<svg width="118px" height="38px" viewBox="0 0 118 38" version="1.1" xmlns="http://www.w3.org/2000/svg" xmlns:xlink="http://www.w3.org/1999/xlink">
    <!-- Generator: Sketch 47.1 (45422) - http://www.bohemiancoding.com/sketch -->
    <title>Page 1 Copy</title>
    <desc>Created with Sketch.</desc>
    <defs>
        <polygon id="path-1" points="18.0954387 0.126200721 18.0954387 17.4541935 0.219661931 17.4541935 0.219661931 0.126200721 18.0954387 0.126200721"></polygon>
        <polygon id="path-3" points="10.8417552 14.9441441 0.205071006 14.9441441 0.205071006 0.0969823423 10.8417552 0.0969823423"></polygon>
    </defs>
    <g id="Page-1" stroke="none" stroke-width="1" fill="none" fill-rule="evenodd">
        <g id="Mockup-1" transform="translate(-661.000000, -16.000000)">
            <g id="Group-28">
                <g id="Base">
                    <g id="Page-1-Copy" transform="translate(661.000000, 16.000000)">
                        <path d="M58.6095085,4.82567027 C58.6095085,3.82286667 59.151768,3.31012793 60.1400125,3.31012793 L62.0478084,3.31012793 C63.0370937,3.31012793 63.5788328,3.82286667 63.5788328,4.82567027 L63.5788328,13.804009 C63.5788328,15.2036054 64.4973434,15.8802144 65.8868183,15.8802144 C67.3002317,15.8802144 68.2187423,15.2036054 68.2187423,13.8277135 L68.2187423,4.82567027 C68.2187423,3.82286667 68.7365428,3.31012793 69.7492463,3.31012793 L71.633624,3.31012793 C72.6463275,3.31012793 73.1646484,3.82286667 73.1646484,4.82567027 L73.1646484,13.804009 C73.1646484,17.6054901 70.3149239,20.3577892 65.9102364,20.3577892 C61.4592331,20.3577892 58.6095085,17.6054901 58.6095085,13.804009 L58.6095085,4.82567027 Z" id="Fill-1" fill="#003E51"></path>
                        <path d="M74.4296951,4.82567027 C74.4296951,3.82286667 74.9714342,3.31012793 75.9841376,3.31012793 L83.8739612,3.31012793 C84.8632465,3.31012793 85.4049856,3.82286667 85.4049856,4.82567027 L85.4049856,5.99182883 C85.4049856,6.97144324 84.8632465,7.50788649 83.8739612,7.50788649 L79.3990194,7.50788649 L79.3990194,9.53668288 L82.6020973,9.53668288 C83.6148007,9.53668288 84.1565398,10.0731261 84.1565398,11.0522252 L84.1565398,12.2183838 C84.1565398,13.2211874 83.6148007,13.7344414 82.6020973,13.7344414 L79.3990194,13.7344414 L79.3990194,15.8802144 L84.1565398,15.8802144 C85.1692432,15.8802144 85.7109823,16.4161423 85.7109823,17.3957568 L85.7109823,18.5619153 C85.7109823,19.5415297 85.1692432,20.077973 84.1565398,20.077973 L75.9841376,20.077973 C74.9714342,20.077973 74.4296951,19.5415297 74.4296951,18.5619153 L74.4296951,4.82567027 Z" id="Fill-3" fill="#003E51"></path>
                        <path d="M92.5782148,10.7024807 C93.7558859,10.7024807 94.345502,10.1892267 94.345502,8.92979604 C94.345502,8.48714018 94.2742069,7.97388613 93.5909183,7.69406991 C93.2141468,7.53071495 92.8139572,7.50701045 92.2722181,7.50701045 L91.5186752,7.50701045 L91.5186752,10.7024807 L92.5782148,10.7024807 Z M86.5488305,4.82530955 C86.5488305,3.82250595 87.09109,3.30976721 88.103273,3.30976721 L92.6963462,3.30976721 C94.2502683,3.30976721 95.3103284,3.40252396 96.0638714,3.65966631 C97.9716672,4.28938162 99.3845602,6.22490595 99.3845602,8.6963582 C99.3845602,10.3994753 98.6783739,12.381378 97.0297386,13.3841816 L97.0297386,13.43056 C97.0297386,13.43056 97.40651,13.850542 97.7832815,14.5034465 L99.9028812,18.2348447 C100.562231,19.4010032 99.973656,20.0770969 98.8433416,20.0770969 L96.6529671,20.0770969 C95.9223218,20.0770969 95.2634922,19.7972807 94.8393641,19.0047258 L92.6963462,14.9002393 L91.5186752,14.9002393 L91.5186752,18.5615546 C91.5186752,19.541169 91.0003542,20.0770969 89.9876508,20.0770969 L88.103273,20.0770969 C87.09109,20.0770969 86.5488305,19.541169 86.5488305,18.5615546 L86.5488305,4.82530955 Z" id="Fill-5" fill="#003E51"></path>
                        <g id="Group-9" transform="translate(99.917296, 2.903132)">
                            <mask id="mask-2" fill="white">
                                <use xlink:href="#path-1"></use>
                            </mask>
                            <g id="Clip-8"></g>
                            <path d="M9.14560707,12.9766187 C11.4067563,12.9766187 12.9611988,11.1343665 12.9611988,8.68558811 C12.9611988,6.35327099 11.4067563,4.60429081 9.14560707,4.60429081 C6.90839636,4.60429081 5.35395384,6.35327099 5.35395384,8.68558811 C5.35395384,11.1343665 6.90839636,12.9766187 9.14560707,12.9766187 M9.14560707,0.126200721 C14.5156414,0.126200721 18.0954907,3.88130342 18.0954907,8.68558811 C18.0954907,13.6058187 14.5156414,17.4541935 9.14560707,17.4541935 C3.7760932,17.4541935 0.219661931,13.6058187 0.219661931,8.68558811 C0.219661931,3.88130342 3.7760932,0.126200721 9.14560707,0.126200721" id="Fill-7" fill="#003E51" mask="url(#mask-2)"></path>
                        </g>
                        <path d="M44.9611701,11.5886685 C44.9611701,9.25686667 46.5156126,7.50788649 48.7528234,7.50788649 C51.0139726,7.50788649 52.5684151,9.25686667 52.5684151,11.5886685 C52.5684151,12.1019225 52.4965996,12.5858036 52.3680601,13.0341279 C51.5661197,12.297227 50.3036231,12.3126865 49.52406,13.0846288 L49.5115703,13.0969964 C48.7606294,13.8411117 48.7169156,15.0294288 49.3799085,15.825591 C49.1774719,15.8580559 48.9698312,15.8796991 48.7528234,15.8796991 C46.5156126,15.8796991 44.9611701,14.0374468 44.9611701,11.5886685 M57.702707,11.5886685 C57.702707,6.78438378 54.1228576,3.0297964 48.7528234,3.0297964 C43.3833095,3.0297964 39.8268782,6.78438378 39.8268782,11.5886685 C39.8268782,16.5094144 43.3833095,20.3577892 48.7528234,20.3577892 C50.3390104,20.3577892 51.7680359,20.019227 52.9956656,19.4194 L53.1268071,19.5492595 C53.9245843,20.3387225 55.2292335,20.3387225 56.0275311,19.5492595 L56.0400208,19.5368919 C56.8070942,18.7773171 56.8341551,17.5539586 56.1264076,16.758827 C57.1385906,15.3185207 57.702707,13.5386216 57.702707,11.5886685" id="Fill-10" fill="#003E51"></path>
                        <path d="M45.3603189,31.869418 L45.8442933,29.8715405 C46.1065762,28.8919261 46.4297462,27.2135441 46.4297462,27.2135441 L46.4698172,27.2135441 C46.4698172,27.2135441 46.8132829,28.8919261 47.0750454,29.8715405 L47.5194692,31.869418 L45.3603189,31.869418 Z M52.98838,36.2063117 L49.0530956,24.3963153 C48.810588,23.6769351 48.3266136,23.336827 47.5600606,23.336827 L45.3603189,23.336827 C44.5729498,23.336827 44.1087507,23.6769351 43.8667635,24.3963153 L39.9314791,36.2063117 C39.6088295,37.1055369 40.0527329,37.7048486 41.0014268,37.7048486 L42.6360114,37.7048486 C43.4025644,37.7048486 43.8870592,37.3446432 44.0889754,36.6051658 L44.3913293,35.2066 L48.4879384,35.2066 L48.7908127,36.6051658 C49.0327999,37.3446432 49.4969991,37.7048486 50.2838478,37.7048486 L51.9189527,37.7048486 C52.8671262,37.7048486 53.3110296,37.1055369 52.98838,36.2063117 L52.98838,36.2063117 Z" id="Fill-12" fill="#00B0C7"></path>
                        <path d="M53.7347934,24.6360915 C53.7347934,23.7770609 54.1989925,23.3369816 55.0665036,23.3369816 L56.6813129,23.3369816 C57.548824,23.3369816 57.9927274,23.7770609 57.9927274,24.6360915 L57.9927274,34.107587 L62.3318441,34.107587 C63.1993552,34.107587 63.6635544,34.5672483 63.6635544,35.4066969 L63.6635544,36.4058933 C63.6635544,37.2448267 63.1993552,37.7039726 62.3318441,37.7039726 L55.0665036,37.7039726 C54.1989925,37.7039726 53.7347934,37.2448267 53.7347934,36.4058933 L53.7347934,24.6360915 Z" id="Fill-14" fill="#00B0C7"></path>
                        <g id="Group-18" transform="translate(63.489115, 23.000429)" fill="#00B0C7">
                            <path d="M0.295692749,1.63566234 C0.295692749,0.776631712 0.759891855,0.336552432 1.60762767,0.336552432 L3.24169178,0.336552432 C4.089948,0.336552432 4.5536267,0.776631712 4.5536267,1.63566234 L4.5536267,9.32880468 C4.5536267,10.5279434 5.34047541,11.1071578 6.53063612,11.1071578 C7.74213334,11.1071578 8.52898205,10.5279434 8.52898205,9.34890198 L8.52898205,1.63566234 C8.52898205,0.776631712 8.97340586,0.336552432 9.84091697,0.336552432 L11.4546854,0.336552432 C12.3227169,0.336552432 12.7671407,0.776631712 12.7671407,1.63566234 L12.7671407,9.32880468 C12.7671407,12.5861128 10.3248914,14.9441957 6.55145223,14.9441957 C2.73690128,14.9441957 0.295692749,12.5861128 0.295692749,9.32880468 L0.295692749,1.63566234 Z" id="Fill-16"></path>
                        </g>
                        <path d="M77.7492911,24.6360915 C77.7492911,23.7770609 78.2134902,23.3369816 79.0810013,23.3369816 L81.0184602,23.3369816 C81.7652379,23.3369816 82.2492123,23.5967005 82.592678,24.2166249 L84.9740402,28.8323041 C85.5589727,29.8716951 86.2047923,31.4702032 86.2047923,31.4702032 L86.2453837,31.4702032 C86.2453837,31.4702032 86.0637632,29.7913059 86.0637632,28.8323041 L86.0637632,24.6360915 C86.0637632,23.7770609 86.5076666,23.3369816 87.3751777,23.3369816 L88.989987,23.3369816 C89.8574981,23.3369816 90.3216972,23.7770609 90.3216972,24.6360915 L90.3216972,36.4058933 C90.3216972,37.2448267 89.8574981,37.7039726 88.989987,37.7039726 L87.0525281,37.7039726 C86.3260461,37.7039726 85.8415513,37.4442537 85.498606,36.8248447 L83.0969481,32.2292627 C82.5114952,31.2104843 81.866196,29.6114609 81.866196,29.6114609 L81.8256046,29.6114609 C81.8256046,29.6114609 82.0072251,31.2702609 82.0072251,32.2292627 L82.0072251,36.4058933 C82.0072251,37.2448267 81.5633217,37.7039726 80.6958106,37.7039726 L79.0810013,37.7039726 C78.2134902,37.7039726 77.7492911,37.2448267 77.7492911,36.4058933 L77.7492911,24.6360915 Z" id="Fill-19" fill="#00B0C7"></path>
                        <path d="M98.9587669,34.1077932 C100.896226,34.1077932 102.227936,32.5293823 102.227936,30.4310184 C102.227936,28.4326256 100.896226,26.9340886 98.9587669,26.9340886 C97.0416037,26.9340886 95.7093731,28.4326256 95.7093731,30.4310184 C95.7093731,32.5293823 97.0416037,34.1077932 98.9587669,34.1077932 M98.9587669,23.0975661 C103.559646,23.0975661 106.627419,26.3146796 106.627419,30.4310184 C106.627419,34.6473283 103.559646,37.9443157 98.9587669,37.9443157 C94.3573672,37.9443157 91.3104101,34.6473283 91.3104101,30.4310184 C91.3104101,26.3146796 94.3573672,23.0975661 98.9587669,23.0975661" id="Fill-21" fill="#00B0C7"></path>
                        <g id="Group-25" transform="translate(106.682530, 23.000429)">
                            <mask id="mask-4" fill="white">
                                <use xlink:href="#path-3"></use>
                            </mask>
                            <g id="Clip-24"></g>
                            <path d="M0.529977993,11.7467157 L1.296531,10.6475481 C1.78102581,9.94826523 2.32588731,9.90858595 3.11273602,10.3280526 C3.57693513,10.5078977 4.38407954,11.147404 5.51439395,11.147404 C6.34183407,11.147404 6.58382127,10.8474905 6.58382127,10.5078977 C6.58382127,8.98926342 0.449315592,9.28866162 0.449315592,4.69307964 C0.449315592,1.93511207 2.75001542,0.0969823423 5.83756396,0.0969823423 C7.51221948,0.0969823423 9.1275491,0.636517477 9.87328601,1.13585802 C10.5799927,1.63571387 10.6403594,2.23502559 10.2974141,2.93430847 L9.71196121,4.07315532 C9.2274664,5.01257514 8.5821672,4.85282739 7.91605189,4.53281658 C7.18904947,4.21332108 6.64470837,3.89382559 5.77667686,3.89382559 C4.96953245,3.89382559 4.68695384,4.1736418 4.68695384,4.55291387 C4.68695384,6.19161658 10.8417552,5.67217874 10.8417552,10.287858 C10.8417552,12.7660094 8.9448878,14.9442472 5.51439395,14.9442472 C3.51656843,14.9442472 1.61970101,14.1841571 0.792260896,13.5451661 C0.287990791,13.1653787 -0.0955459147,12.6459409 0.529977993,11.7467157" id="Fill-23" fill="#00B0C7" mask="url(#mask-4)"></path>
                        </g>
                        <path d="M22.413323,21.840609 L22.413323,29.0107063 C22.413323,30.8441982 20.9119616,32.3308829 19.0593284,32.3308829 C18.1330118,32.3308829 17.2951636,31.9598559 16.6883742,31.3584829 C16.0815848,30.7576252 15.7063745,29.9269369 15.7063745,29.0107063 L15.7063745,21.840609 L8.46549294,21.840609 C6.79812305,21.840609 5.44715794,20.5028505 5.44715794,18.8522955 C5.44715794,18.026245 5.78541962,17.2790378 6.33080153,16.7384721 C6.87774465,16.197391 7.63128759,15.862436 8.46549294,15.862436 L15.7074153,15.862436 L15.7084561,15.863982 C16.5920997,16.6637514 17.76873,17.1522703 19.0603692,17.1522703 C20.3504472,17.1522703 21.5255162,16.6652973 22.4086394,15.8670739 L22.4122822,15.862436 L29.6542046,15.862436 C31.3215745,15.862436 32.6725396,17.2012252 32.6725396,18.8522955 C32.6725396,19.6783459 32.3353187,20.4245225 31.788896,20.9656036 C31.2419529,21.5056541 30.4873691,21.840609 29.6542046,21.840609 L22.413323,21.840609 Z M22.4206087,12.0181838 C22.4206087,13.8568288 20.9156044,15.3466054 19.0603692,15.3466054 C17.2040931,15.3466054 15.6990889,13.8568288 15.6990889,12.0181838 C15.6990889,11.5760432 15.7865165,11.1514234 15.9462801,10.7649369 L17.7682096,11.774955 C18.1621543,11.9929333 18.6081393,12.1078486 19.0603692,12.1078486 C19.5110378,12.1078486 19.9570228,11.9929333 20.3509676,11.774955 L22.172897,10.7659676 C22.333181,11.1529694 22.4206087,11.5760432 22.4206087,12.0181838 L22.4206087,12.0181838 Z M14.8102413,7.58801802 L18.5946089,5.49223063 C18.8839527,5.33196757 19.2362652,5.33196757 19.5250887,5.49223063 L23.3094563,7.58801802 C23.5061685,7.69674955 23.5061685,7.97811171 23.3094563,8.08684324 L19.5250887,10.1821153 C19.2362652,10.3423784 18.8839527,10.3423784 18.5946089,10.1821153 L14.8102413,8.08684324 C14.6130087,7.97811171 14.6130087,7.69674955 14.8102413,7.58801802 L14.8102413,7.58801802 Z M38.1195935,18.8729081 C38.1195935,8.44962523 29.5865523,0 19.0598488,0 C8.53366567,0 0.000104080517,8.4284973 0.000104080517,18.8512649 C0.000104080517,29.2750631 8.53366567,37.703045 19.0598488,37.703045 L36.2451033,37.703045 L31.4225326,33.2131027 C35.5201825,29.7512144 38.1195935,24.6243423 38.1195935,18.8729081 L38.1195935,18.8729081 Z" id="Fill-26" fill="#003E51"></path>
                    </g>
                </g>
            </g>
        </g>
    </g>
</svg>