<svg version="1.1" xmlns="http://www.w3.org/2000/svg" xmlns:xlink="http://www.w3.org/1999/xlink" xmlns:a="http://ns.adobe.com/AdobeSVGViewerExtensions/3.0/" x="0px" y="0px" width="188.4px" height="45px" viewBox="0 0 188.4 45" enable-background="new 0 0 188.4 45" xml:space="preserve">
<defs>
</defs>
<g class="ice-cream">
    <path fill="#5FB500" d="M21.3,7.5H18c-1,0-1.5,0.5-1.5,1.5v19.5h12V15.6C22.5,15.2,21.4,12,21.3,7.5z"></path>
    <path fill="#5FB500" d="M22.5,0C10.1,0,0,10.1,0,22.5S10.1,45,22.5,45S45,34.9,45,22.5S34.9,0,22.5,0z M30,28.5
        c0,0.8-0.7,1.5-1.5,1.5H24v8.1c0,0.8-0.7,1.5-1.5,1.5S21,38.9,21,38.1V30h-4.5c-0.8,0-1.5-0.7-1.5-1.5V9c0-1.7,1.3-3,3-3h4.5
        c0,0.4,0,0.8,0,1.5H27c1,0,1.5,0.5,1.5,1.5v5.4c0.8,0,1.1,0,1.5,0V28.5z"></path>
</g>
<g class="wordmark">
    <path fill="#ffffff" d="M79.1,28.9c1.1-1.9,1.7-4,1.7-6.3c0-3.3-1.1-6.1-3.2-8.4c-1.2-1.3-2.7-2.4-4.3-3.1
        c-1.7-0.7-3.5-1.1-5.4-1.1c-3.5,0-6.5,1.1-8.9,3.4c-1.3,1.2-2.3,2.6-2.9,4.2c-0.7,1.6-1,3.3-1,5c0,3.1,1,5.8,3,8.1
        c2.5,2.9,5.8,4.4,10,4.4c2.4,0,4.6-0.6,6.6-1.8l1.2,1.2h5.2L77.5,31C78.2,30.2,78.8,29.5,79.1,28.9z M67.8,30.8
        c-2.6,0-4.6-1-6.2-2.9c-1.2-1.5-1.8-3.2-1.8-5.3c0-2.2,0.7-4.1,2-5.6c0.8-0.9,1.7-1.5,2.7-2c1.1-0.5,2.2-0.7,3.3-0.7
        c2.3,0,4.2,0.8,5.8,2.4c1.6,1.6,2.4,3.6,2.4,5.9c0,2-0.6,3.7-1.9,5l-2.2-2.2h-5.2l4.5,4.5C70.2,30.5,69.1,30.8,67.8,30.8z"></path>
    <path fill="#ffffff" d="M93.5,27.7c0,1.2-0.3,2.1-0.8,2.7c-0.5,0.6-1.3,0.9-2.4,0.9c-1.2,0-2.1-0.4-2.6-1.2
        c-0.4-0.5-0.5-1.3-0.5-2.3v-8.8h-4.4v9.6c0,2,0.6,3.5,1.7,4.6c1.4,1.3,3.3,2,5.9,2c2.5,0,4.5-0.7,5.9-2c1.1-1.1,1.7-2.6,1.7-4.6
        v-9.6h-4.4V27.7z"></path>
    <path fill="#ffffff" d="M102.6,9.7c-0.7,0-1.4,0.3-1.9,0.8c-0.5,0.5-0.8,1.1-0.8,1.8c0,0.7,0.3,1.3,0.8,1.8
        c0.5,0.5,1.1,0.8,1.8,0.8c0.7,0,1.3-0.3,1.8-0.8c0.5-0.5,0.8-1.1,0.8-1.8c0-0.7-0.3-1.3-0.8-1.8C104,10,103.4,9.7,102.6,9.7z"></path>
    <rect x="100.4" y="18.9" fill="#ffffff" width="4.4" height="15.6"></rect>
    <path fill="#ffffff" d="M116.9,18.4c-2.1,0-3.8,0.8-5.1,2.5v-2h-4.4v23.9h4.4V32.5c0.5,0.6,1,1,1.4,1.3c1.1,0.8,2.4,1.2,3.8,1.2
        c1.9,0,3.6-0.7,5-2c1.7-1.6,2.6-3.7,2.6-6.3c0-2.3-0.7-4.2-2-5.7C121.1,19.3,119.2,18.4,116.9,18.4z M118.8,29.8
        c-0.8,0.9-1.9,1.3-3.1,1.3c-1.2,0-2.2-0.4-3.1-1.3c-0.9-0.9-1.3-1.9-1.3-3.1c0-1.2,0.4-2.2,1.3-3.1c0.9-0.9,1.9-1.3,3-1.3
        c1.2,0,2.3,0.4,3.1,1.3c0.9,0.8,1.3,1.9,1.3,3.1C120,27.9,119.6,28.9,118.8,29.8z"></path>
    <path fill="#ffffff" d="M137.3,18.9v8.8c0,1.2-0.3,2.1-0.8,2.7c-0.5,0.6-1.3,0.9-2.4,0.9c-1.2,0-2.1-0.4-2.6-1.2
        c-0.4-0.5-0.5-1.3-0.5-2.3v-8.8h-4.4v9.6c0,2,0.6,3.5,1.7,4.6c1.4,1.3,3.3,2,5.9,2c2.5,0,4.5-0.7,5.9-2c1.1-1.1,1.7-2.6,1.7-4.6
        v-9.6H137.3z"></path>
</g>
</svg>