<svg width="45px" height="58px" viewBox="0 0 45 58" version="1.1" xmlns="http://www.w3.org/2000/svg" xmlns:xlink="http://www.w3.org/1999/xlink"><title>Qunitype Logo</title><desc>Created with Sketch.</desc><defs><path d="M44.51691,46.2919654 L45,46.7891732 L36.4673307,58 L35.4992108,57.1716842 C34.2114809,47.9489105 27.8217715,48.2803318 27.8217715,48.2803318 C27.8217715,48.2803318 27.8126215,48.2803318 20.2470222,47.9489105 C0.741043875,47.0946349 4.39397999e-05,26.7974646 4.39397999e-05,26.7974646 C-0.0334260573,3.49216905 19.0654323,0.730944373 19.0654323,0.730944373 L19.0654323,2.05631645 C11.5594329,2.99511283 11.106973,13.3774721 11.106973,13.3774721 C21.0870921,10.5610931 30.7281012,-0.42879284 31.4257012,0.0129473079 C32.1233111,0.45483909 42.5863702,7.96550326 43.8741001,22.6002357 C45.16183,37.2349782 32.1230111,45.7949092 32.1230111,45.7949092 C39.0984805,43.9173164 41.9956503,49.4950819 41.9956503,49.4950819 L44.51691,46.2919654 Z M10.419123,27.5704745 C10.472863,33.2587002 12.3321029,39.0022522 12.3321029,39.0020904 L14.8620726,38.1737746 L14.8620726,13.2118372 L10.829703,14.7305022 C10.829703,14.7305022 10.365533,21.8822386 10.419123,27.5704745 Z M28.6731014,46.4577519 L28.6731014,10.8923527 L24.4697518,6.69528552 L24.4697518,36.737922 L12.5015828,39.9686965 C12.5015828,39.9686965 15.2804526,46.01585 20.3241822,46.7338572 C25.3679117,47.4518542 28.6731014,46.4577519 28.6731014,46.4577519 Z M29.5738214,11.9969356 C42.1839002,29.7794785 29.5738214,46.1263305 29.5738214,46.1263305 L29.5738214,11.9969356 Z" id="path-1"></path></defs><g id="Page-1" stroke="none" stroke-width="1" fill="none" fill-rule="evenodd"><mask id="mask-2" fill="white"><use xmlns:xlink="http://www.w3.org/1999/xlink" xlink:href="#path-1"></use></mask><use id="Clip-5-Copy" fill="#FFFFFF" xmlns:xlink="http://www.w3.org/1999/xlink" xlink:href="#path-1"></use></g></svg>