<?xml version="1.0" encoding="UTF-8" standalone="no"?>
<svg
   version="1.1"
   viewBox="0 0 230 92.000001"
   fill="none"
   stroke="none"
   stroke-linecap="square"
   stroke-miterlimit="10"
   id="svg29"
   sodipodi:docname="logo.svg"
   width="230"
   height="92"
   inkscape:export-filename="logo.png"
   inkscape:export-xdpi="66.782608"
   inkscape:export-ydpi="66.782608"
   inkscape:version="1.2.2 (1:1.2.2+202212051552+b0a8486541)"
   xmlns:inkscape="http://www.inkscape.org/namespaces/inkscape"
   xmlns:sodipodi="http://sodipodi.sourceforge.net/DTD/sodipodi-0.dtd"
   xmlns="http://www.w3.org/2000/svg"
   xmlns:svg="http://www.w3.org/2000/svg">
  <defs
     id="defs33">
    <clipPath
       clipPathUnits="userSpaceOnUse"
       id="clipPath331">
      <g
         id="g335">
        <path
           d="M 0,0 H 283.46457 V 113.38583 H 0 Z"
           clip-rule="nonzero"
           id="path333" />
      </g>
    </clipPath>
    <clipPath
       clipPathUnits="userSpaceOnUse"
       id="clipPath337">
      <g
         id="g341">
        <path
           d="M 0,0 H 283.46457 V 113.38583 H 0 Z"
           clip-rule="nonzero"
           id="path339" />
      </g>
    </clipPath>
    <clipPath
       clipPathUnits="userSpaceOnUse"
       id="clipPath343">
      <g
         id="g347">
        <path
           d="M 0,0 H 283.46457 V 113.38583 H 0 Z"
           clip-rule="nonzero"
           id="path345" />
      </g>
    </clipPath>
    <clipPath
       clipPathUnits="userSpaceOnUse"
       id="clipPath349">
      <g
         id="g353">
        <path
           d="M 0,0 H 283.46457 V 113.38583 H 0 Z"
           clip-rule="nonzero"
           id="path351" />
      </g>
    </clipPath>
    <clipPath
       clipPathUnits="userSpaceOnUse"
       id="clipPath355">
      <g
         id="g359">
        <path
           d="M 0,0 H 283.46457 V 113.38583 H 0 Z"
           clip-rule="nonzero"
           id="path357" />
      </g>
    </clipPath>
    <clipPath
       clipPathUnits="userSpaceOnUse"
       id="clipPath361">
      <g
         id="g365">
        <path
           d="M 0,0 H 283.46457 V 113.38583 H 0 Z"
           clip-rule="nonzero"
           id="path363" />
      </g>
    </clipPath>
    <clipPath
       clipPathUnits="userSpaceOnUse"
       id="clipPath367">
      <g
         id="g371">
        <path
           d="M 0,0 H 283.46457 V 113.38583 H 0 Z"
           clip-rule="nonzero"
           id="path369" />
      </g>
    </clipPath>
    <clipPath
       clipPathUnits="userSpaceOnUse"
       id="clipPath373">
      <g
         id="g377">
        <path
           d="M 0,0 H 283.46457 V 113.38583 H 0 Z"
           clip-rule="nonzero"
           id="path375" />
      </g>
    </clipPath>
    <clipPath
       clipPathUnits="userSpaceOnUse"
       id="clipPath379">
      <g
         id="g383">
        <path
           d="M 0,0 H 283.46457 V 113.38583 H 0 Z"
           clip-rule="nonzero"
           id="path381" />
      </g>
    </clipPath>
    <clipPath
       clipPathUnits="userSpaceOnUse"
       id="clipPath385">
      <g
         id="g389">
        <path
           d="M 0,0 H 283.46457 V 113.38583 H 0 Z"
           clip-rule="nonzero"
           id="path387" />
      </g>
    </clipPath>
    <clipPath
       clipPathUnits="userSpaceOnUse"
       id="clipPath391">
      <g
         id="g395">
        <path
           d="M 0,0 H 283.46457 V 113.38583 H 0 Z"
           clip-rule="nonzero"
           id="path393" />
      </g>
    </clipPath>
  </defs>
  <sodipodi:namedview
     id="namedview31"
     pagecolor="#ffffff"
     bordercolor="#000000"
     borderopacity="0.25"
     inkscape:showpageshadow="2"
     inkscape:pageopacity="0.0"
     inkscape:pagecheckerboard="true"
     inkscape:deskcolor="#d1d1d1"
     showgrid="false"
     inkscape:zoom="3.7667185"
     inkscape:cx="111.63563"
     inkscape:cy="63.715937"
     inkscape:window-width="1872"
     inkscape:window-height="1011"
     inkscape:window-x="0"
     inkscape:window-y="0"
     inkscape:window-maximized="1"
     inkscape:current-layer="svg29" />
  <g
     id="g1029"
     transform="translate(10.406469,4.885463)">
    <path
       fill="#ffffff"
       d="m 100.4761,15.397023 c -0.0129,0 -0.0189,0.004 -0.0179,0.01093 2.62784,22.561977 3.39793,43.514584 -10.804138,53.967545 H 104.15091 C 114.43404,63.525134 116.0427,37.561625 115.20513,23.344527 106.68349,18.585958 100.83137,15.39702 100.4761,15.39702 Z m 13.63641,-9.751591 c -0.0129,0 -0.0189,0.00397 -0.0179,0.011921 0.72444,5.850358 1.11048,11.769263 1.11048,17.664326 23.55731,13.152132 67.4328,38.231483 71.03517,40.249153 0,0 -9.67282,25.37341 -26.66152,41.495918 H 176.8394 C 193.44304,87.108364 203.31929,55.952152 203.31929,55.952152 198.44866,53.210262 115.50285,5.6454269 114.1125,5.6454269 Z"
       fill-rule="evenodd"
       id="path9"
       clip-path="url(#clipPath379)"
       transform="matrix(0.73492349,0,0,0.73492349,0.43289495,0.43167978)" />
    <path
       fill="#ffffff"
       d="m 11.890541,76.17856 c -3.4197712,0 -6.2063975,2.766724 -6.2292223,6.212967 v 20.770803 c 0,1.04312 0.8385682,1.88158 1.8805761,1.88158 1.0191832,-0.0219 1.8577509,-0.86131 1.8577509,-1.88158 V 92.186822 H 26.637436 c 0.0129,9.99e-4 0.02679,9.99e-4 0.03969,9.99e-4 1.023152,0 1.839888,-0.853363 1.839888,-1.882568 -0.02283,-1.020264 -0.860401,-1.836868 -1.879583,-1.836868 H 9.3996456 v -6.099709 c 0.021833,-1.360016 1.1323154,-2.44883 2.4908954,-2.44883 h 16.580826 c 1.020176,-0.04569 1.834927,-0.861305 1.880577,-1.85971 -0.02283,-1.043114 -0.860401,-1.858727 -1.880577,-1.881577 z"
       fill-rule="evenodd"
       id="path11"
       clip-path="url(#clipPath373)"
       transform="matrix(0.73492349,0,0,0.73492349,0.43289495,0.43167978)" />
    <path
       fill="#ffffff"
       d="m 55.85732,79.965546 c 1.359573,0 2.469063,1.087814 2.491886,2.44883 v 16.439415 c -0.02282,1.382869 -1.132313,2.471669 -2.491886,2.494519 H 39.638715 c -1.358578,-0.0228 -2.446236,-1.13351 -2.446236,-2.494519 V 82.414376 c 0,-1.338166 1.087658,-2.426972 2.446236,-2.44883 z M 39.638715,76.201409 c -1.65332,0 -3.216331,0.657654 -4.371471,1.814018 -1.177964,1.179214 -1.834927,2.743874 -1.834927,4.398949 v 16.439415 c 0,3.424379 2.786629,6.190119 6.206398,6.190119 H 55.85732 c 3.420761,0 6.184567,-2.76574 6.206398,-6.190119 V 82.414376 c 0,-1.655075 -0.656963,-3.219735 -1.834927,-4.398949 -1.15514,-1.156364 -2.739986,-1.814018 -4.371471,-1.814018 z"
       fill-rule="evenodd"
       id="path13"
       clip-path="url(#clipPath367)"
       transform="matrix(0.73492349,0,0,0.73492349,0.43289495,0.43167978)" />
    <path
       fill="#ffffff"
       d="m 89.28791,76.17757 c -0.01389,0 -0.02779,9.92e-4 -0.04168,9.92e-4 H 72.868843 c -3.420761,0 -6.206398,2.766723 -6.206398,6.190117 v 16.439415 c 0,1.656056 0.656959,3.242586 1.812103,4.399936 1.177963,1.15637 2.740974,1.81402 4.394295,1.81402 h 16.377388 c 2.49089,0 2.49089,-3.71943 0,-3.71943 H 72.868843 c -1.381409,-0.0229 -2.469063,-1.11067 -2.49189,-2.494526 V 82.368679 c 0.02283,-1.360016 1.132316,-2.44883 2.49189,-2.44883 h 16.377388 c 1.042007,0 1.879577,-0.839454 1.879577,-1.85971 0.02283,-1.051064 -0.792915,-1.882569 -1.837898,-1.882569 z"
       fill-rule="evenodd"
       id="path15"
       clip-path="url(#clipPath361)"
       transform="matrix(0.73492349,0,0,0.73492349,0.43289495,0.43167978)" />
    <path
       fill="#ffffff"
       d="m 121.04831,76.15571 c -1.04201,0 -1.87959,0.884163 -1.85676,1.927269 l 0.0228,20.770813 c -0.0228,1.382868 -1.13331,2.494518 -2.49189,2.494518 h -15.01782 c -0.67978,0 -1.31392,-0.24935 -1.790264,-0.7262 -0.475357,-0.45301 -0.747269,-1.087814 -0.747269,-1.768318 V 78.082979 c 0,-1.223915 -0.916969,-1.836861 -1.83493,-1.836861 -0.916962,0 -1.834923,0.612946 -1.834923,1.836861 v 20.770813 c 0,3.424378 2.763802,6.212958 6.184566,6.212958 h 15.04064 c 1.63049,0 3.21633,-0.65765 4.37147,-1.81402 1.15514,-1.15635 1.8121,-2.74387 1.8121,-4.398938 V 78.082979 c 0.0457,-1.043106 -0.79292,-1.927269 -1.85775,-1.927269 z"
       fill-rule="evenodd"
       id="path17"
       clip-path="url(#clipPath355)"
       transform="matrix(0.73492349,0,0,0.73492349,0.43289495,0.43167978)" />
    <path
       fill="#ffffff"
       d="m 134.16371,76.20141 c -1.65332,0 -3.21632,0.657654 -4.39429,1.814018 -1.15515,1.179215 -1.81211,2.743874 -1.81211,4.398949 v 3.900238 c 0,1.632217 0.65696,3.219734 1.81211,4.376091 1.17797,1.179214 2.74097,1.814018 4.39429,1.814018 h 12.88915 c 1.35858,0.02285 2.44624,1.133515 2.44624,2.49453 v 3.854538 c 0,1.361008 -1.08766,2.471668 -2.44624,2.494518 h -17.26062 c -2.49189,0 -2.49189,3.71844 0,3.71844 h 17.26062 c 3.42076,-0.0228 6.16075,-2.78858 6.16075,-6.212958 v -3.854538 c 0.0228,-1.655075 -0.63414,-3.219734 -1.78928,-4.398949 -1.15515,-1.156364 -2.71815,-1.836868 -4.37147,-1.836868 h -12.88915 c -0.0139,0 -0.0278,0 -0.0417,0 -1.36255,0 -2.47304,-1.102715 -2.49487,-2.448822 v -3.900238 c 0,-0.657662 0.27191,-1.292465 0.74726,-1.769318 0.45551,-0.434135 1.07775,-0.681496 1.70691,-0.681496 0.0278,0 0.0556,9.92e-4 0.0824,0.002 h 17.19313 c 1.01918,-0.02285 1.83493,-0.862305 1.85677,-1.882568 0.0228,-1.043106 -0.83759,-1.881569 -1.85677,-1.881569 z"
       fill-rule="evenodd"
       id="path19"
       clip-path="url(#clipPath349)"
       transform="matrix(0.73492349,0,0,0.73492349,0.43289495,0.43167978)" />
    <path
       fill="#ffffff"
       d="m 204.83665,76.20141 c -1.65332,0 -3.21632,0.657654 -4.39429,1.814018 -1.15515,1.179215 -1.8121,2.743874 -1.8121,4.398949 v 20.770803 c 0,1.23584 0.92291,1.85375 1.84584,1.85375 0.92392,0 1.84683,-0.61791 1.84683,-1.85375 V 82.414377 c 0,-0.657662 0.27191,-1.315315 0.74727,-1.769318 0.45253,-0.475853 1.1095,-0.725212 1.76645,-0.725212 h 14.99599 c 1.35858,0 2.46905,1.110665 2.49089,2.49453 l -0.0218,20.770803 c 0,1.02027 0.81476,1.85873 1.83394,1.88157 0.0139,0 0.0268,0.001 0.0407,0.001 1.02414,0 1.86171,-0.85336 1.83987,-1.88257 V 82.414377 c 0,-1.655075 -0.65695,-3.219734 -1.81209,-4.398949 -1.15515,-1.156364 -2.74098,-1.814018 -4.3943,-1.814018 z"
       fill-rule="evenodd"
       id="path21"
       clip-path="url(#clipPath343)"
       transform="matrix(0.73492349,0,0,0.73492349,0.43289495,0.43167978)" />
    <path
       fill="#ffffff"
       d="m 236.0056,76.17856 c -3.42076,0 -6.20641,2.766724 -6.22923,6.212967 v 20.770803 c 0,1.04312 0.83758,1.88158 1.85775,1.88158 1.04201,-0.0219 1.85676,-0.86131 1.87958,-1.88158 V 92.186822 h 17.2378 c 0.0139,9.99e-4 0.0268,9.99e-4 0.0407,9.99e-4 1.02316,0 1.83889,-0.853363 1.81707,-1.882568 -0.0228,-1.020264 -0.83857,-1.836868 -1.85775,-1.836868 h -17.2378 v -6.099709 c 0.0228,-1.360016 1.13233,-2.44883 2.4919,-2.44883 h 16.58083 c 1.01918,-0.04569 1.83491,-0.861305 1.87957,-1.85971 -0.0218,-1.043114 -0.86039,-1.858727 -1.87957,-1.881577 z"
       fill-rule="evenodd"
       id="path23"
       clip-path="url(#clipPath337)"
       transform="matrix(0.73492349,0,0,0.73492349,0.43289495,0.43167978)" />
    <path
       fill="#ffffff"
       d="m 271.8179,89.85125 c 0.63416,0 1.24545,0.250351 1.69897,0.703354 0.45255,0.454002 0.72446,1.065964 0.72446,1.700767 v 2.06337 h -15.04065 v -2.06337 c 0,-1.338157 1.08768,-2.404121 2.42343,-2.404121 z m -10.14816,-3.536636 c -1.58582,0 -3.12601,0.611953 -4.23551,1.745468 -1.1333,1.111656 -1.76744,2.653473 -1.76744,4.240989 v 6.779221 c 0,1.587518 0.63414,3.106488 1.76744,4.240988 1.13233,1.11067 2.64969,1.74547 4.23551,1.74547 h 13.72674 c 0.97452,-0.0228 1.76645,-0.8166 1.78928,-1.81402 -0.0228,-0.97456 -0.81476,-1.76832 -1.78928,-1.76832 h -13.77237 c -1.33575,0 -2.4006,-1.0888 -2.42343,-2.404118 v -1.201065 h 16.78528 c 0.0129,0 0.0268,0 0.0407,0 1.00034,0 1.79324,-0.807663 1.77139,-1.79216 v -3.785996 c 0,-3.311134 -2.67349,-5.986458 -5.98013,-5.986458 z"
       fill-rule="evenodd"
       id="path25"
       clip-path="url(#clipPath331)"
       transform="matrix(0.73492349,0,0,0.73492349,0.43289495,0.43167978)" />
  </g>
</svg>
