<?xml version="1.0" encoding="utf-8"?>
<!-- Generator: Adobe Illustrator 21.1.0, SVG Export Plug-In . SVG Version: 6.00 Build 0)  -->
<svg version="1.1" id="Layer_1" xmlns="http://www.w3.org/2000/svg" xmlns:xlink="http://www.w3.org/1999/xlink" x="0px" y="0px"
	 viewBox="0 0 626.8 137.6" style="enable-background:new 0 0 626.8 137.6;" xml:space="preserve">
<style type="text/css">
	.st0{fill:#FFFFFF;}
	.st1{fill-rule:evenodd;clip-rule:evenodd;fill:#EA6120;}
	.st2{fill:#EA6120;}
</style>
<title>Sensum Logo (R)</title>
<desc>Created with Sketch.</desc>
<path class="st0" d="M39,128.9h45.6c1.2,0,2.2-1,2.2-2.2v-4.8c0-1.2-1-2.2-2.2-2.2H39c-1.2,0-2.2,1-2.2,2.2v4.7
	C36.7,127.9,37.7,128.9,39,128.9z"/>
<path class="st1" d="M63.2,33.7h45.2c1.2,0,2.2-1,2.2-2.2v-4.7c0-1.2-1-2.2-2.2-2.2H63.2c-1.2,0-2.2,1-2.2,2.2v4.7
	C61,32.7,62,33.7,63.2,33.7z"/>
<path class="st1" d="M63.2,73.9h45.2c1.2,0,2.2-1,2.2-2.2V67c0-1.2-1-2.2-2.2-2.2H63.2c-1.2,0-2.2,1-2.2,2.2v4.7
	C61,72.9,62,73.9,63.2,73.9z"/>
<path class="st1" d="M63.2,114h45.2c1.2,0,2.2-1,2.2-2.2v-4.7c0-1.2-1-2.2-2.2-2.2H63.2c-1.2,0-2.2,1-2.2,2.2v4.7
	C61,113,62,114,63.2,114z"/>
<path class="st1" d="M332.8,83.4V26.8c0-1.2-1-2.2-2.2-2.2h-4.7c-1.2,0-2.2,1-2.2,2.2v56.7c0,11.7-9.6,21.6-21.3,21.4
	c-11.4-0.2-20.6-9.5-20.6-20.9V26.8c0-1.2-1-2.2-2.2-2.2h-4.7c-1.2,0-2.2,1-2.2,2.2V84c0,16.4,13.2,29.8,29.5,30
	C319.1,114.3,332.8,100.2,332.8,83.4z"/>
<path class="st1" d="M200.5,96.2V26.8c0-1.2-1-2.2-2.2-2.2h-4.7c-1.2,0-2.2,1-2.2,2.2v58.8c0,0.5,0.1,0.9,0.4,1.3l7.1,9.9
	C199.4,97.4,200.5,97.1,200.5,96.2z"/>
<path class="st1" d="M198.9,111.9l-62-86.4c-0.4-0.6-1.1-0.9-1.8-0.9h-8.5c-1.2,0-2.2,1-2.2,2.2v85c0,1.2,1,2.2,2.2,2.2h4.7
	c1.2,0,2.2-1,2.2-2.2V37.7c0-0.4,0.6-0.6,0.8-0.3l54.3,75.6c0.4,0.6,1.1,0.9,1.8,0.9h7.5C198.9,114,199.6,112.8,198.9,111.9z"/>
<path class="st1" d="M436.7,114h4.7c1.2,0,2.2-1,2.2-2.2V50.1c0-0.9-1.3-1.2-1.7-0.4l-7.2,14.5c-0.2,0.3-0.2,0.6-0.2,1v46.6
	C434.5,113,435.5,114,436.7,114z"/>
<path class="st1" d="M432.8,25.8l-37.3,75c-0.2,0.3-0.6,0.3-0.8,0l-37.3-75c-0.4-0.8-1.1-1.2-2-1.2h-6.6c-1.2,0-2.2,1-2.2,2.2v85
	c0,1.2,1,2.2,2.2,2.2h4.7c1.2,0,2.2-1,2.2-2.2v-67c0-0.5,0.6-0.6,0.8-0.2l34,68.2c0.4,0.8,1.1,1.2,2,1.2h5.2c0.8,0,1.6-0.5,2-1.2
	l43.3-86.9c0.3-0.6-0.1-1.3-0.8-1.3h-7.4C433.9,24.6,433.2,25.1,432.8,25.8z"/>
<path class="st1" d="M466.9,109.4c0-4.2-3.4-7.6-7.6-7.6c-4.2,0-7.6,3.4-7.6,7.6c0,4.2,3.4,7.6,7.6,7.6
	C463.5,116.9,466.9,113.5,466.9,109.4z M465.7,109.4c0,3.5-2.9,6.4-6.4,6.4c-3.5,0-6.4-2.9-6.4-6.4c0-3.5,2.9-6.4,6.4-6.4
	C462.8,103,465.7,105.8,465.7,109.4z M462.3,113l-1.6-3.2c0.4-0.1,0.7-0.3,1-0.7c0.3-0.3,0.4-0.7,0.4-1.2c0-0.3-0.1-0.6-0.2-0.8
	c-0.1-0.3-0.3-0.5-0.4-0.7c-0.2-0.2-0.4-0.3-0.7-0.4c-0.3-0.1-0.6-0.2-0.9-0.2h-2.8v7.1h1.1v-3h1.4l1.5,3H462.3z M460.7,108.8
	c-0.2,0.2-0.5,0.3-0.9,0.3h-1.6v-2.2h1.6c0.4,0,0.7,0.1,0.9,0.3c0.2,0.2,0.3,0.5,0.3,0.8C461,108.3,460.9,108.6,460.7,108.8z"/>
<path class="st1" d="M551.8,135.4v-21.7c18.1,0,32.9-14.8,32.9-32.9c0-17.4-13.6-31.8-30.8-32.8c-1.2-0.1-2.1-1-2.1-2.2V23.9
	c31.4,0,56.9,25.5,56.9,56.9c0,30.6-24.3,55.6-54.5,56.8C552.9,137.7,551.8,136.7,551.8,135.4z"/>
<path class="st1" d="M551.8,91.9c0-1.2-0.9-2.1-2.1-2.2c-17.2-1.1-30.8-15.4-30.8-32.9c0-18.1,14.8-32.9,32.9-32.9V2.2
	c0-1.3-1.1-2.3-2.3-2.2C519.2,1.2,495,26.3,495,56.8c0,31.4,25.5,56.9,56.9,56.9V91.9z"/>
<path class="st1" d="M626.8,109.4c0-4.2-3.4-7.6-7.6-7.6c-4.2,0-7.6,3.4-7.6,7.6c0,4.2,3.4,7.6,7.6,7.6
	C623.4,116.9,626.8,113.5,626.8,109.4z M625.6,109.4c0,3.5-2.9,6.4-6.4,6.4c-3.5,0-6.4-2.9-6.4-6.4c0-3.5,2.9-6.4,6.4-6.4
	C622.7,103,625.6,105.9,625.6,109.4z M622.2,113l-1.6-3.2c0.4-0.1,0.7-0.3,1-0.7c0.3-0.3,0.4-0.7,0.4-1.2c0-0.3-0.1-0.6-0.2-0.8
	c-0.1-0.3-0.3-0.5-0.4-0.7c-0.2-0.2-0.4-0.3-0.7-0.4c-0.3-0.1-0.6-0.2-0.9-0.2H617v7.1h1.1v-3h1.4l1.5,3H622.2z M620.5,108.8
	c-0.2,0.2-0.5,0.3-0.9,0.3h-1.6v-2.2h1.6c0.4,0,0.7,0.1,0.9,0.3c0.2,0.2,0.3,0.5,0.3,0.8S620.8,108.6,620.5,108.8z"/>
<path class="st2" d="M24.6,64.7L24.6,64.7c-8.6,0-15.5-7-15.5-15.5c0-7.9,6-14.5,13.6-15.4c1.1-0.1,1.9-1.1,1.9-2.2v-4.7
	c0-1.3-1.1-2.3-2.4-2.2C9.8,25.9,0,36.4,0,49.2c0,13.6,11.1,24.6,24.6,24.6v0c8.6,0,15.5,7,15.5,15.5c0,7.9-6,14.5-13.6,15.4
	c-1.1,0.1-1.9,1.1-1.9,2.2l0,4.7c0,1.3,1.1,2.3,2.4,2.2c12.5-1.2,22.2-11.7,22.2-24.5C49.3,75.8,38.2,64.7,24.6,64.7z"/>
<path class="st2" d="M236.6,64.7L236.6,64.7c-8.6,0-15.5-7-15.5-15.5c0-7.9,6-14.5,13.6-15.4c1.1-0.1,1.9-1.1,1.9-2.2v-4.7
	c0-1.3-1.1-2.3-2.4-2.2c-12.5,1.2-22.2,11.7-22.2,24.5c0,13.6,11.1,24.6,24.6,24.6v0c8.6,0,15.5,7,15.5,15.5c0,7.9-6,14.5-13.6,15.4
	c-1.1,0.1-1.9,1.1-1.9,2.2v4.7c0,1.3,1.1,2.3,2.4,2.2c12.5-1.2,22.2-11.7,22.2-24.5C261.2,75.8,250.2,64.7,236.6,64.7z"/>
</svg>
