<svg width="194" height="47" viewBox="0 0 194 47" fill="none" xmlns="http://www.w3.org/2000/svg">
<path fill-rule="evenodd" clip-rule="evenodd" d="M41.3519 23.4777C41.3511 23.8565 41.3034 24.2337 41.2099 24.6008L43.5487 26.9547C48.0602 31.5413 48.0283 38.904 43.4771 43.4513C38.9259 47.9986 31.5569 48.0305 26.9664 43.5228L24.6472 41.2056C23.8857 41.4075 23.0846 41.4075 22.3231 41.2056L20.0186 43.5106C15.4396 48.0864 8.01489 48.087 3.43516 43.5118C-1.14457 38.9367 -1.14512 31.5183 3.43393 26.9425L6.02498 24.3512C5.90905 23.7697 5.90905 23.171 6.02498 22.5894L3.43638 20.0006C0.474252 17.0406 -0.682357 12.7264 0.402236 8.68332C1.48683 4.6402 4.64785 1.48234 8.69457 0.399266C12.7413 -0.683807 17.0589 0.472455 20.0211 3.4325L22.0513 5.461C22.984 5.157 23.9901 5.16301 24.9191 5.47812L26.9689 3.43005C31.5593 -1.07765 38.9284 -1.04573 43.4795 3.50157C48.0307 8.04887 48.0627 15.4116 43.5511 19.9981L41.205 22.3423C41.3024 22.7129 41.3518 23.0945 41.3519 23.4777ZM30.1377 6.61342L27.9336 8.81565C28.0078 9.14329 28.0455 9.47809 28.0463 9.814C28.0466 10.2928 27.9705 10.7686 27.821 11.2234L35.6529 19.0413C36.0192 18.9466 36.3962 18.899 36.7746 18.8994C37.2259 18.8989 37.6748 18.9649 38.1068 19.0952L40.3672 16.8342C43.1118 13.9985 43.074 9.48777 40.2822 6.69838C37.4905 3.90899 32.9759 3.87118 30.1377 6.61342ZM27.8991 35.6388L35.6306 27.9114C36.4466 28.1245 37.306 28.105 38.1115 27.8551L40.3744 30.1161C43.1189 32.9519 43.0811 37.4625 40.2893 40.2519C37.4976 43.0413 32.983 43.0791 30.1449 40.3369L27.8624 38.0539C27.9836 37.6373 28.0455 37.2056 28.0461 36.7717C28.0461 36.3893 27.9967 36.0086 27.8991 35.6388ZM24.7912 32.3943L32.3831 24.8088L32.3855 24.8137C32.1195 23.9429 32.1195 23.0125 32.3855 22.1417L24.512 14.2748C23.8388 14.4367 23.1372 14.4409 22.4622 14.2871L14.8286 21.9092C15.1976 22.9199 15.1976 24.0282 14.8286 25.0388L22.1756 32.3796C23.0303 32.1301 23.9393 32.1352 24.7912 32.3943ZM19.1205 11.2727L19.1169 11.2764C18.8434 10.469 18.8039 9.60086 19.003 8.77199L16.8405 6.61136C14.0023 3.86911 9.48781 3.90691 6.69604 6.69631C3.90427 9.4857 3.86643 13.9964 6.61102 16.8321L8.96451 19.1812C9.74733 18.8923 10.5947 18.8246 11.4135 18.9854L19.1169 11.2764L19.1181 11.2801L19.1205 11.2727ZM11.4135 27.9704C10.595 28.1312 9.74814 28.0652 8.96451 27.7796L6.61102 30.1164C3.86643 32.9521 3.90427 37.4628 6.69604 40.2522C9.48781 43.0416 14.0023 43.0794 16.8405 40.3372L19.074 38.1031C18.9434 37.6715 18.8774 37.2229 18.8781 36.772C18.8777 36.3721 18.9304 35.9738 19.0348 35.5877L11.4135 27.9704Z" fill="url(#paint0_linear)"/>
<path fill-rule="evenodd" clip-rule="evenodd" d="M81.1725 19.2174V16.9124H85.4362V38.0758H81.1651V35.898C79.4262 37.3169 77.2838 38.1517 75.0426 38.2838C74.8247 38.3033 74.6091 38.3033 74.3961 38.3033C69.6635 38.307 65.4845 35.2195 64.1013 30.6974C62.7181 26.1753 64.4558 21.2812 68.3819 18.6409C72.3081 16.0006 77.5002 16.2346 81.1725 19.2174ZM71.4012 33.5532C74.1162 34.9106 77.4053 34.2768 79.4203 32.0077C80.6018 30.6837 81.2057 28.9433 81.0979 27.1726C80.8857 23.6368 77.9573 20.8759 74.4121 20.8694H74.0031C70.9725 21.0501 68.4412 23.2422 67.8316 26.2138C67.222 29.1855 68.6861 32.1958 71.4012 33.5532Z" fill="#0B2850"/>
<path d="M106.217 13.4114V16.979H96.5677V13.6316C96.5677 10.7247 98.4608 10.02 99.9155 10.02C100.529 9.99086 101.141 10.0806 101.72 10.2842V6.58693C101.544 6.4548 100.665 6.14648 99.2542 6.14648C95.4215 6.14648 92.2917 8.70107 92.2917 13.4114V16.979H88.3733V20.7203H92.2917V38.1522H96.5677V20.7179H106.217V38.1498H110.49V20.7179H115.601V16.979H110.49V13.6316C110.49 10.7247 112.383 10.02 113.838 10.02C114.452 9.99153 115.065 10.0812 115.645 10.2842V6.58693C115.469 6.4548 114.587 6.14648 113.177 6.14648C109.344 6.14648 106.217 8.70107 106.217 13.4114Z" fill="#0B2850"/>
<rect x="119.316" y="16.9766" width="4.0972" height="21.1732" fill="#0B2850"/>
<path d="M121.345 5.96746C119.707 5.97828 118.386 7.30963 118.389 8.94614C118.392 10.5827 119.718 11.9089 121.356 11.9134C122.994 11.9179 124.328 10.599 124.34 8.96249C124.349 8.16578 124.036 7.39896 123.473 6.83533C122.909 6.2717 122.142 5.95884 121.345 5.96746Z" fill="#0B2850"/>
<path d="M151.376 5.96749C149.739 5.97965 148.419 7.31159 148.423 8.94778C148.427 10.584 149.753 11.9094 151.391 11.9134C153.029 11.9175 154.362 10.5987 154.374 8.96252C154.383 8.16538 154.07 7.39818 153.506 6.83448C152.942 6.27078 152.174 5.95821 151.376 5.96749Z" fill="#0B2850"/>
<path d="M138.101 16.3594C135.633 16.3594 133.122 17.3724 131.579 20.0126V16.9784H127.526V38.1516H131.66V25.917C131.66 22.7042 133.335 20.1056 136.595 20.1056C140.298 20.1056 141.53 22.484 141.53 25.4326V38.1565H145.671V24.7229C145.678 20.0126 143.171 16.3594 138.101 16.3594Z" fill="#0B2850"/>
<path d="M189.516 16.9766L183.173 31.592L176.564 16.9766H171.805L180.925 35.8179L175.638 47.0003H180.178L193.966 16.9766H189.516Z" fill="#0B2850"/>
<path d="M165.314 10.2837H161.538V13.7094C161.538 15.5568 160.558 16.9662 158.278 16.9662H157.13V20.7076H161.183V32.3304C161.183 36.1599 163.475 38.3597 167.088 38.3597C168.043 38.3781 168.995 38.2443 169.909 37.9633V34.4519C169.372 34.5638 168.826 34.6228 168.278 34.6281C166.118 34.6281 165.324 33.6493 165.324 31.7236V20.7125H169.909V16.9785H165.314V10.2837Z" fill="#0B2850"/>
<rect x="149.35" y="16.9766" width="4.0972" height="21.1732" fill="#0B2850"/>
<defs>
<linearGradient id="paint0_linear" x1="20.4918" y1="62.3066" x2="58.8653" y2="26.3849" gradientUnits="userSpaceOnUse">
<stop stop-color="#0978E3"/>
<stop offset="1" stop-color="#4726EA"/>
</linearGradient>
</defs>
</svg>
