<svg width="600" height="610" viewBox="0 0 600 610" fill="none" xmlns="http://www.w3.org/2000/svg">
<g clip-path="url(#clip0)">
<path fill-rule="evenodd" clip-rule="evenodd" d="M150 0C67.1305 0 0.0369458 66.4723 0 148.496V295.091C0 300.393 4.33498 304.695 9.70443 304.695H59.335C64.6921 304.695 69.0394 300.393 69.0394 295.091V266.267C69.0394 260.965 73.3867 256.663 78.7438 256.663H221.256C226.613 256.663 230.961 260.965 230.961 266.267V295.091C230.961 300.393 235.296 304.695 240.665 304.695H290.296C295.653 304.695 300 300.393 300 295.091V148.496C299.951 66.4723 232.857 0 150 0ZM69.0394 142.378C69.0394 186.632 105.283 222.501 150 222.501C194.704 222.501 230.961 186.632 230.961 142.378C230.961 98.124 194.704 62.2553 150 62.2553C105.283 62.2553 69.0394 98.124 69.0394 142.378Z" transform="scale(2)" fill="white"/>
</g>
<defs>
<clipPath id="clip0">
<rect width="300" height="304.695" fill="white" transform="scale(2)"/>
</clipPath>
</defs>
</svg>
