<?xml version="1.0" encoding="UTF-8"?>
<svg width="199px" height="32px" viewBox="0 0 199 32" version="1.1" xmlns="http://www.w3.org/2000/svg" xmlns:xlink="http://www.w3.org/1999/xlink">
    <!-- Generator: Sketch 48.1 (47250) - http://www.bohemiancoding.com/sketch -->
    <title>Logo Horizontal Light BG</title>
    <desc>Created with Sketch.</desc>
    <defs></defs>
    <g id="Page-1" stroke="none" stroke-width="1" fill="none" fill-rule="evenodd">
        <g id="Logo-Horizontal-Light-BG">
            <g id="FACTMATA" transform="translate(122.600623, 15.652602) rotate(0.000000) translate(-122.600623, -15.652602) translate(45.572177, 5.080070)" fill="#404754">
                <g id="Group" transform="translate(7.021147, 11.013468) rotate(-0.000000) translate(-7.021147, -11.013468) translate(0.242306, 1.221809)">
                    <path d="M0.45945477,18.5589599 C0.45945477,18.5589599 0.479540225,6.26666178 0.479540225,2.4554468 C0.494102179,2.08888726 0.537788042,2.06880181 0.567414088,1.95331044 C0.755213087,1.2001059 1.57921885,0.622649087 1.57921885,0.622649087 C1.82677208,0.441879998 2.29275462,0.286217726 2.67588467,0.286217726 C4.39670598,0.271153635 12.5965927,0.286217726 12.5965927,0.286217726 C13.006336,0.286217726 13.3382482,0.617627724 13.3382482,1.02937954 L13.3382482,3.29903589 C13.3382482,3.71078771 13.006336,4.0421977 12.5965927,4.0421977 L4.2797082,4.05224043 L4.2797082,8.13963041 L9.34174486,8.13963041 C9.7469689,8.13963041 10.0758682,8.47104041 10.0758682,8.87777086 L10.0758682,11.0771281 C10.0758682,11.4838586 9.7469689,11.8102472 9.34174486,11.8102472 L4.2797082,11.8102472 L4.27518898,18.5589599 C4.27518898,18.9757331 3.93775334,19.3121644 3.52198444,19.3121644 L1.21316145,19.3121644 C0.796890405,19.3121644 0.45945477,18.9757331 0.45945477,18.5589599 Z" id="Shape"></path>
                </g>
                <g id="Group" transform="translate(24.068736, 10.919630) rotate(-0.000000) translate(-24.068736, -10.919630) translate(15.805391, 1.153859)">
                    <path d="M0.0946528543,18.5850128 C0.728175927,16.8572226 6.07931745,2.54410846 6.07931745,2.54410846 C6.64222649,1.04669029 7.19712259,0.355574215 8.24882097,0.370598477 C9.39116573,0.415671265 9.84439766,1.28207041 10.3767574,2.70436727 L10.3812646,2.72439962 C11.9788446,6.89112844 16.3929729,18.5850128 16.3929729,18.5850128 C16.4550732,18.7552878 16.4305336,18.9455951 16.327367,19.0958377 C16.2242004,19.2410723 16.0554278,19.3312179 15.8751367,19.3312179 L13.0610923,19.3312179 C12.8297186,19.3312179 12.6228846,19.1859833 12.543256,18.9656275 L11.5216062,16.2312117 L4.94548644,16.2312117 L3.94386893,18.9656275 C3.86424034,19.1859833 3.65740632,19.3312179 3.42603268,19.3312179 C2.77898777,19.3312179 1.46236156,19.3312179 0.612489105,19.3312179 C0.432197954,19.3312179 0.263425404,19.2410723 0.160258801,19.0958377 C0.0570921978,18.9455951 0.0325525689,18.7552878 0.0946528543,18.5850128 Z M10.113332,12.5753078 L8.20725384,7.62230922 C8.15516973,7.76253567 7.26373015,10.1113287 6.33122425,12.5753078 L10.113332,12.5753078 Z" id="Shape"></path>
                </g>
                <g id="Group" transform="translate(43.850682, 11.151659) rotate(-0.000000) translate(-43.850682, -11.151659) translate(35.837742, 1.536026)">
                    <path d="M15.1549737,17.1107662 C13.1266982,18.4468331 11.2952406,18.9579799 9.54190917,18.9579799 C6.51852673,18.9579799 3.11903691,16.9488187 1.79590019,14.7372231 C1.17539814,13.694686 0.0305493339,11.6247944 0.196317031,8.75022619 C0.368595242,5.76937991 2.14346146,3.02639402 4.57639038,1.31076263 C7.00931931,-0.404868765 12.0118979,-0.526329395 14.9686728,1.48283185 L15.6632946,1.91300492 C15.8651205,2.03952641 15.9282224,2.30775196 15.803521,2.51018635 L14.2890753,4.99000753 C14.1648748,5.19750278 13.8999469,5.25823309 13.6986218,5.13677246 C13.6986218,5.13677246 12.6013498,4.3928261 11.7900397,4.06387023 C9.41720779,3.26931528 6.35526307,3.78552296 4.98404871,6.12364008 C3.47511194,8.6996176 3.96690613,12.3282539 6.62069171,14.1855894 C8.59037254,15.5570823 10.9031074,15.1117267 12.5682965,14.271624 C12.5718021,14.271624 12.5753078,14.271624 12.5788134,14.2665631 L13.6986218,13.5681645 C13.8999469,13.4467039 14.1648748,13.5074342 14.2890753,13.7098686 L15.803521,16.1947506 C15.9282224,16.397185 15.8651205,16.6654106 15.6632946,16.791932 L15.1549737,17.1107662 Z" id="Shape"></path>
                </g>
                <g id="Group" transform="translate(65.131024, 10.919630) rotate(-0.000000) translate(-65.131024, -10.919630) translate(57.368488, 1.153859)">
                    <path d="M1.23249034,0.370598477 L14.3616926,0.370598477 C14.7698517,0.370598477 15.1013871,0.701132254 15.1013871,1.11179543 L15.1013871,2.0883725 C15.1124049,2.16349381 15.1189154,2.23861513 15.1204179,2.31373644 C15.1224211,2.40388201 15.1159106,2.49402759 15.1013871,2.57916508 L15.1013871,3.37545099 C15.1013871,3.78611417 14.7698517,4.11664795 14.3616926,4.11664795 L9.70617444,4.1366803 C9.70617444,8.61391055 9.70867848,18.6100533 9.70867848,18.6100533 C9.70867848,19.0157083 9.35761155,19.3312179 8.94945241,19.3312179 L6.68329281,19.3312179 C6.27513367,19.3312179 5.93057725,18.995676 5.93057725,18.5900209 L5.92807321,4.1366803 L1.23249034,4.11664795 C0.823830399,4.11664795 0.492795813,3.78611417 0.492795813,3.37545099 L0.492795813,1.11179543 C0.492795813,0.701132254 0.823830399,0.370598477 1.23249034,0.370598477 Z" id="Shape"></path>
                </g>
                <g id="Group" transform="translate(87.671447, 10.949837) rotate(-0.000000) translate(-87.671447, -10.949837) translate(78.907294, 1.184066)">
                    <path d="M0.21284372,18.5649805 L0.213845337,2.25864748 C0.295977973,1.29208658 0.884428258,0.320517602 2.17100594,0.320517602 C3.12254257,0.325525689 3.7360333,1.24200571 4.1136431,2.17851808 C4.1136431,2.17851808 8.8628125,12.7856475 8.8628125,12.7856475 C9.84339604,10.4819272 13.8989453,1.49741817 13.8989453,1.49741817 C14.4012565,0.440711703 15.2726637,0.305493339 15.8135372,0.325525689 C16.7675779,0.375606565 17.474219,1.33215128 17.5012627,2.29871218 L17.5052691,18.5649805 C17.5052691,18.9756436 17.1737338,19.3061774 16.7655746,19.3061774 L14.4513374,19.3061774 C14.0431782,19.3061774 13.7116428,18.9756436 13.7116428,18.5649805 L13.7231614,11.0728815 C12.6303967,13.5418687 11.9938688,15.1745052 10.7558696,17.6885652 C10.2740916,18.6200694 9.84339604,19.2310561 8.97048638,19.2510885 C7.98840042,19.2711208 7.35287411,18.6451099 6.95072468,17.7035894 L3.99044414,11.0628654 C3.99044414,13.2013187 3.98193039,18.5649805 3.98193039,18.5649805 C3.98193039,18.9756436 3.650395,19.3061774 3.24223587,19.3061774 L0.952037439,19.3061774 C0.543878306,19.3061774 0.21284372,18.9756436 0.21284372,18.5649805 Z" id="Shape"></path>
                </g>
                <g id="Group" transform="translate(110.207841, 10.919630) rotate(-0.000000) translate(-110.207841, -10.919630) translate(101.944497, 1.153859)">
                    <path d="M0.100161751,18.5850128 C0.733684823,16.8572226 6.08482635,2.54410846 6.08482635,2.54410846 C6.64773539,1.04669029 7.20263148,0.355574215 8.25432987,0.370598477 C9.39667463,0.415671265 9.85040736,1.28207041 10.3822663,2.70436727 L10.3872743,2.72439962 C11.9848543,6.89112844 16.3984818,18.5850128 16.3984818,18.5850128 C16.4605821,18.7552878 16.4360425,18.9455951 16.3328759,19.0958377 C16.2297093,19.2410723 16.0609367,19.3312179 15.8806456,19.3312179 C15.0307731,19.3312179 13.7136461,19.3312179 13.067102,19.3312179 C12.8357283,19.3312179 12.6288943,19.1859833 12.5492657,18.9656275 L11.5271151,16.2312117 L4.95099533,16.2312117 L3.94937783,18.9656275 C3.86974923,19.1859833 3.66341603,19.3312179 3.43154158,19.3312179 C2.78499748,19.3312179 1.46787045,19.3312179 0.617998001,19.3312179 C0.43770685,19.3312179 0.2689343,19.2410723 0.165767697,19.0958377 C0.0626010941,18.9455951 0.0380614652,18.7552878 0.100161751,18.5850128 Z M10.1188409,12.5753078 L8.21326355,7.62230922 C8.16117944,7.76253567 7.26973986,10.1113287 6.33673315,12.5753078 L10.1188409,12.5753078 Z" id="Shape"></path>
                </g>
                <g id="Group" transform="translate(128.443876, 10.919630) rotate(-0.000000) translate(-128.443876, -10.919630) translate(120.681340, 1.153859)">
                    <path d="M1.23249034,0.370598477 L14.3616926,0.370598477 C14.7698517,0.370598477 15.1013871,0.701132254 15.1013871,1.11179543 L15.1013871,3.37545099 C15.1013871,3.78611417 14.7698517,4.11664795 14.3616926,4.11664795 L9.70617444,4.1366803 C9.70617444,8.61391055 9.70867848,18.6100533 9.70867848,18.6100533 C9.70867848,19.0157083 9.35761155,19.3312179 8.94945241,19.3312179 L6.68329281,19.3312179 C6.27513367,19.3312179 5.93057725,18.995676 5.93057725,18.5900209 L5.92807321,4.1366803 L1.23249034,4.11664795 C0.823830399,4.11664795 0.492795813,3.78611417 0.492795813,3.37545099 L0.492795813,1.11179543 C0.492795813,0.701132254 0.823830399,0.370598477 1.23249034,0.370598477 Z" id="Shape"></path>
                </g>
                <g id="Group" transform="translate(145.315806, 10.904526) rotate(-0.000000) translate(-145.315806, -10.904526) translate(137.052462, 1.138755)">
                    <path d="M0.0460744053,18.5850128 C0.679597478,16.8572226 6.03123981,2.54410846 6.03123981,2.54410846 C6.59364804,1.04669029 7.14854414,0.355574215 8.20024252,0.370598477 C9.34308809,0.415671265 9.79632002,1.28207041 10.3281789,2.70436727 L10.333187,2.72439962 C11.9307669,6.89112844 16.3448953,18.5850128 16.3448953,18.5850128 C16.4064947,18.7552878 16.3819551,18.9455951 16.2787885,19.0958377 C16.1756219,19.2410723 16.0068494,19.3312179 15.827059,19.3312179 C14.9766858,19.3312179 13.6600595,19.3312179 13.0130146,19.3312179 C12.781641,19.3312179 12.574807,19.1859833 12.4951784,18.9656275 L11.9012192,17.3480152 L11.4735285,16.2312117 L4.89690799,16.2312117 L3.89579129,18.9656275 C3.8161627,19.1859833 3.60932868,19.3312179 3.37795504,19.3312179 C2.73091013,19.3312179 1.41378311,19.3312179 0.563910656,19.3312179 C0.383619505,19.3312179 0.214846955,19.2410723 0.111680352,19.0958377 C0.0085137488,18.9455951 -0.0160258801,18.7552878 0.0460744053,18.5850128 Z M10.0647535,12.5753078 L8.1591762,7.62230922 C8.10709209,7.76253567 7.21565251,10.1113287 6.28264581,12.5753078 L10.0647535,12.5753078 Z" id="Shape"></path>
                </g>
            </g>
            <g id="Symbol-Color" transform="translate(0.265742, 0.305122)">
                <g id="Group" transform="translate(0.040322, 8.493940)" fill="#27D8D8">
                    <path d="M11.1099373,3.25985927 C7.8469089,3.25985927 8.20313001,4.77474125 6.34310337,4.77474125 L2.30449587,4.77474125 C1.22363565,4.77474125 0.142775429,3.74468045 0.142775429,2.47610363 C0.142775429,1.20752682 1.22363565,0.17767654 2.30449587,0.17767654 L17.272419,0.17767654 C18.3532792,0.17767654 19.4678603,1.20752682 19.4678603,2.47610363 C19.4678603,3.74468045 18.3532792,4.77474125 17.272419,4.77474125 L15.8767712,4.77474125 C14.1860662,4.77474125 14.3729657,3.25985927 11.1099373,3.25985927 Z" id="Shape"></path>
                </g>
                <g id="Group" transform="translate(0.163005, 18.992094)" fill="#FF7976">
                    <path d="M8.55972508,2.27984506 C8.55972508,1.03878118 7.55218263,0.0311356711 6.31112848,0.0311356711 L2.26906377,0.0311356711 C1.02800962,0.0311356711 0.020400708,1.03878118 0.020400708,2.27984506 C0.020400708,3.52090894 1.02800962,4.52855445 2.26906377,4.52855445 L6.31112848,4.52855445 C7.55218263,4.52855445 8.55972508,3.52090894 8.55972508,2.27984506 Z" id="Shape"></path>
                </g>
                <g id="Group" transform="translate(25.783125, 18.992094)" fill="#FF7976">
                    <path d="M7.65868583,2.27984506 C7.65868583,1.03878118 6.65113143,0.0311356711 5.41009029,0.0311356711 L2.26690822,0.0311356711 C1.02580763,0.0311356711 0.018253228,1.03878118 0.018253228,2.27984506 C0.018253228,3.52090894 1.02580763,4.52855445 2.26690822,4.52855445 L5.41009029,4.52855445 C6.65113143,4.52855445 7.65868583,3.52090894 7.65868583,2.27984506 Z" id="Shape"></path>
                </g>
                <g id="Group" transform="translate(16.578629, 2.391958) scale(-1, 1) rotate(-180.000000) translate(-16.578629, -2.391958) translate(6.878774, 0.111319)" fill="#FF7976">
                    <path d="M19.3712863,2.27984506 C19.3712863,1.03878118 18.3637045,0.0311356711 17.1227246,0.0311356711 L2.29488032,0.0311356711 C1.05375009,0.0311356711 0.0461683,1.03878118 0.0461683,2.27984506 C0.0461683,3.52090894 1.05375009,4.52855445 2.29488032,4.52855445 L17.1227246,4.52855445 C18.3637045,4.52855445 19.3712863,3.52090894 19.3712863,2.27984506 Z" id="Shape"></path>
                </g>
                <g id="Group" transform="translate(16.578629, 29.360979) scale(-1, 1) rotate(-180.000000) translate(-16.578629, -29.360979) translate(6.878774, 27.080340)" fill="#27D8D8">
                    <path d="M19.3712863,2.27984506 C19.3712863,1.03878118 18.3637045,0.0311356711 17.1227246,0.0311356711 L2.29488032,0.0311356711 C1.05375009,0.0311356711 0.0461683,1.03878118 0.0461683,2.27984506 C0.0461683,3.52090894 1.05375009,4.52855445 2.29488032,4.52855445 L17.1227246,4.52855445 C18.3637045,4.52855445 19.3712863,3.52090894 19.3712863,2.27984506 Z" id="Shape"></path>
                </g>
                <g id="Group" transform="translate(8.262751, 6.619436)" fill="#597DF2">
                    <path d="M21.8158215,0.0967268298 C24.1398796,0.141168887 26.0221315,3.33315427 23.935969,5.35918922 C19.6930597,9.37204554 15.7168027,13.1025641 11.4320656,17.0552929 C11.2229265,17.2435181 11.1758702,17.274889 11.042544,17.3690015 C9.52367138,18.4460679 7.27804038,18.3153559 5.87419423,17.0082366 C4.23245236,15.4423077 2.60901017,13.8528506 0.977725253,12.2764647 C-0.504548058,10.7968056 0.0810413979,7.80611659 2.28745881,7.16562812 C3.33576851,6.8597622 4.52263285,7.14209997 5.32781836,7.90545766 C6.32122904,8.87011172 7.25974071,9.88705055 8.2871365,10.8151053 C8.83874085,11.3013537 9.73019623,10.2059877 10.5301533,9.45831541 C13.6698539,6.52252542 16.5063028,3.82463114 19.6695316,0.907140809 C19.9100415,0.690159002 20.0302965,0.611731843 20.2368213,0.496705342 C20.7230697,0.222210285 21.1936327,0.0914983525 21.8158215,0.0967268298 Z" id="Shape"></path>
                </g>
            </g>
        </g>
    </g>
</svg>