<?xml version="1.0" encoding="utf-8"?>
<!-- Generator: Adobe Illustrator 16.0.0, SVG Export Plug-In . SVG Version: 6.00 Build 0)  -->
<!DOCTYPE svg PUBLIC "-//W3C//DTD SVG 1.1//EN" "http://www.w3.org/Graphics/SVG/1.1/DTD/svg11.dtd">
<svg version="1.1" id="Layer_1" xmlns="http://www.w3.org/2000/svg" xmlns:xlink="http://www.w3.org/1999/xlink" x="0px" y="0px"
	 width="707.572px" height="121.975px" viewBox="0 0 707.572 121.975" enable-background="new 0 0 707.572 121.975"
	 xml:space="preserve">
<g>
	<g>
		<polygon fill="#FFFFFF" points="52.379,98.472 32.672,84.153 25.146,60.986 32.672,37.82 52.379,23.501 76.74,23.501 
			96.447,37.82 103.973,60.986 96.447,84.153 76.74,98.472 		"/>
		<polygon fill="#9C4F93" points="83.942,0 52.379,23.501 32.672,37.82 44.31,0 		"/>
		<polygon fill="#061B89" points="44.31,0 32.672,37.82 25.146,60.986 12.247,23.295 		"/>
		<polygon fill="#04BDEE" points="12.247,23.295 25.146,60.986 32.672,84.153 0,60.986 		"/>
		<polygon fill="#00D8CB" points="0,60.986 32.672,84.153 52.379,98.472 12.247,98.678 		"/>
		<polygon fill="#7EBA3B" points="12.247,98.678 52.379,98.472 76.74,98.472 44.31,121.974 		"/>
		<polygon fill="#BAD748" points="96.447,84.153 76.74,98.472 44.31,121.974 83.942,121.974 		"/>
		<polygon fill="#FFB840" points="83.942,121.974 96.447,84.153 103.973,60.986 116.005,98.678 		"/>
		<polygon fill="#FF8A32" points="116.005,98.678 103.973,60.986 96.447,37.82 128.251,60.986 		"/>
		<g>
			<path fill="#FFFFFF" d="M96.001,60.405c0,17.365-14.077,31.446-31.442,31.446c-17.365,0-31.442-14.081-31.442-31.446
				c0-17.364,14.078-31.445,31.443-31.445C81.925,28.96,96.001,43.041,96.001,60.405z"/>
			<circle fill="#04BDEE" cx="64.559" cy="60.405" r="19.596"/>
			<path d="M76.597,60.406c0,6.652-5.39,12.04-12.037,12.04c-6.65,0-12.039-5.387-12.039-12.04c0-6.649,5.389-12.04,12.039-12.04
				C71.207,48.366,76.597,53.757,76.597,60.406z"/>
		</g>
		<polygon fill="#E8072B" points="76.74,23.501 96.447,37.82 128.251,60.986 116.005,23.295 		"/>
		<polygon fill="#F573CB" points="83.942,0 116.005,23.295 76.74,23.501 52.379,23.501 		"/>
	</g>
	<g>
		<g>
			<path fill="#FFFFFF" d="M265.49,91.138l-3.355-4.881c-1.844,1.628-4.445,3.47-8.347,4.446c-3.897,1.078-5.308,1.185-12.137,1.409
				c-15.818,0-24.491-8.456-24.491-32.729c0-20.807,9.645-30.886,25.359-30.886c8.24,0,14.091,2.28,17.879,4.553V9.86h11.708v81.278
				H265.49z M260.399,78.999V43.777c-4.005-2.056-9.966-4.441-16.793-4.441c-9.972,0-14.737,4.985-14.737,20.481
				c0,16.794,3.576,22.218,14.411,22.218C250.971,82.035,257.039,80.297,260.399,78.999z"/>
			<path fill="#FFFFFF" d="M290.627,30.454l3.685,5.417c3.036-2.715,8.669-6.501,17.012-6.501c8.777,0,14.736,2.706,17.994,8.456
				c1.948-2.173,8.233-8.456,19.068-8.456c13.542,0,20.811,6.501,20.811,21.129v41.616h-11.926V53.967
				c0-10.723-2.924-13.217-10.837-13.217c-4.875,0-9.423,1.509-14.515,5.417c0.104,1.405,0.212,2.812,0.212,4.331v41.616h-11.812
				V53.967c0-10.723-2.92-13.217-10.942-13.217c-4.549,0-8.885,1.291-13.655,4.767v46.598h-11.704v-61.66H290.627z"/>
			<path fill="#FFFFFF" d="M404.943,28.29c17.881,0,23.948,4.118,23.948,17.231c0,17.66-4.444,19.938-22.76,19.833h-15.708
				c0.214,3.681,0.537,5.738,0.537,5.738c1.629,10.402,4.229,14.74,35.005,9.434l1.623,7.908c0,0-9.104,3.679-24.383,3.679
				c-17.662,0-24.49-7.26-24.49-31.964C378.717,38.694,379.37,28.29,404.943,28.29z M403.967,55.493
				c12.572,0.108,14.193-0.543,14.193-8.029c0-8.011-1.406-8.987-13.867-8.987c-11.164,0-14.192,2.271-14.192,11.595
				c0,1.954-0.115,3.576,0,5.312L403.967,55.493z"/>
			<path fill="#FFFFFF" d="M455.756,38.849v31.644c0,12.895,1.629,11.808,17.56,11.808l-0.761,8.563
				c-24.381,4.007-28.172-2.056-28.172-12.033V38.849h-9.76v-9.425h9.76V12.084h11.373v17.341h20.16l-0.869,9.425H455.756z"/>
			<path fill="#FFFFFF" d="M486.641,30.456l3.146,6.715c3.896-2.488,13.106-7.805,20.149-7.805c5.961,0,11.705,4.553,11.705,4.553
				l-4.657,8.996c0,0-3.359-1.624-9.755-1.624c-4.444,0-11.268,3.898-15.495,6.392v44.432H480.03V30.456H486.641z"/>
			<path fill="#FFFFFF" d="M538.977,10.729v11.16h-12.352v-11.16H538.977z M538.65,30.346v61.767h-11.701V30.346H538.65z"/>
			<path fill="#FFFFFF" d="M574.188,28.393c13.982,0,22.978,3.582,22.978,3.582l-1.949,8.45
				c-30.994-5.207-34.678-0.65-34.678,20.045c0,20.157,5.096,26.659,36.084,19.395l1.41,8.122c0,0-6.72,4.127-23.945,4.127
				c-18.75,0-25.361-7.587-25.361-31.644C548.725,34.893,555.229,28.393,574.188,28.393z"/>
			<path fill="#FFFFFF" d="M618.398,11.054v46.273l24.817-26.872h14.191l-25.359,27.416l27.961,34.242h-14.086l-21.781-26.657
				l-5.743,5.961v20.696h-11.703v-81.06H618.398z"/>
			<path fill="#FFFFFF" d="M683.084,28.393c14.85,0,21.781,2.168,21.781,2.168v9.214c0,0-12.57-1.09-23.84-1.09
				c-5.523,0-8.451,3.037-8.451,7.691c0,7.59,2.815,6.506,15.709,8.129c14.959,1.844,19.289,2.167,19.289,18.748
				c0,14.308-6.609,18.859-18.638,18.859c-11.487,0-25.789-2.178-25.789-2.178v-9.089c0,0,17.662,1.188,24.06,1.188
				c7.037,0,9.426-2.5,9.426-8.456c0-8.882-2.166-7.584-14.736-9.207c-14.52-2.058-20.483-0.324-20.483-16.908
				C661.41,35.219,666.725,28.393,683.084,28.393z"/>
			<path fill="#FFFFFF" d="M202.699,91.138l-3.356-4.881c-1.844,1.628-4.444,3.47-8.347,4.446
				c-3.896,1.078-5.308,1.185-12.136,1.409c-15.818,0-24.49-8.456-24.49-32.729c0-20.807,9.645-30.886,25.359-30.886
				c8.24,0,14.09,2.28,17.879,4.553v-3.135h11.708v61.221L202.699,91.138L202.699,91.138z M197.607,78.999V43.777
				c-4.006-2.056-9.966-4.441-16.794-4.441c-9.971,0-14.737,4.985-14.737,20.481c0,16.794,3.577,22.218,14.411,22.218
				C188.178,82.035,194.247,80.297,197.607,78.999z"/>
		</g>
	</g>
</g>
</svg>
