<?xml version="1.0" encoding="utf-8"?>
<!-- Generator: Adobe Illustrator 25.4.1, SVG Export Plug-In . SVG Version: 6.00 Build 0)  -->
<svg version="1.1" id="Layer_1" xmlns="http://www.w3.org/2000/svg" xmlns:xlink="http://www.w3.org/1999/xlink" x="0px" y="0px"
	 viewBox="0 0 1022.2 252" style="enable-background:new 0 0 1022.2 252;" xml:space="preserve">
<style type="text/css">
	.st0{fill:#FFFFFF;}
	.st1{fill:#F7C340;}
</style>
<g id="Layer_2_00000060023828696875533030000016101680756107685796_">
	<g id="Layer_1-2">
		<circle class="st0" cx="849.4" cy="40.3" r="18.3"/>
		<path class="st0" d="M454.3,206.7c-40.2,0-69.4-28.2-69.4-67s29.2-66.8,69.4-66.8c19.6,0,37.3,6.6,50,18.7
			c12.7,12.1,19.7,29.2,19.7,48.1s-7,36-19.7,48.2S473.9,206.7,454.3,206.7z M454.3,102c-20.9,0-35.5,15.5-35.5,37.6
			s14.6,37.6,35.5,37.6c21.4,0,35.7-15.1,35.7-37.6S475.7,102,454.3,102L454.3,102z"/>
		<rect x="538.9" y="25" class="st0" width="33.7" height="180.1"/>
		<rect x="589.6" y="25" class="st0" width="33.7" height="180.1"/>
		<path class="st0" d="M707.5,206.7c-40.2,0-69.4-28.2-69.4-67s29.2-66.8,69.4-66.8c19.6,0,37.3,6.6,50,18.7s19.7,29.2,19.7,48.1
			s-7,36-19.7,48.2S727.1,206.7,707.5,206.7z M707.5,102c-20.9,0-35.5,15.5-35.5,37.6s14.6,37.6,35.5,37.6
			c21.4,0,35.7-15.1,35.7-37.6S728.9,102,707.5,102L707.5,102z"/>
		<rect x="832.5" y="72.9" class="st0" width="33.7" height="132.1"/>
		<path class="st0" d="M952.6,206.7c-40.2,0-69.4-28.2-69.4-67s29.2-66.8,69.4-66.8c19.6,0,37.3,6.6,50,18.7s19.7,29.2,19.7,48.1
			s-7,36-19.7,48.2S972.2,206.7,952.6,206.7z M952.6,102c-20.9,0-35.5,15.5-35.5,37.6s14.6,37.6,35.5,37.6
			c21.4,0,35.7-15.1,35.7-37.6S974,102,952.6,102L952.6,102z"/>
		<path class="st0" d="M234.4,252V71.9H268v9.6c11-5.8,23.3-8.7,35.7-8.6c19.6,0,37.3,6.6,50,18.7s19.7,29.2,19.7,48.1
			s-7,36-19.7,48.2s-30.4,18.8-50,18.8c-12.4,0.1-24.7-2.9-35.7-8.7v54H234.4z M303.8,102c-20.9,0-35.5,15.5-35.5,37.6
			s14.6,37.6,35.5,37.6c21.4,0,35.7-15.1,35.7-37.6S325.1,102,303.8,102z"/>
		<path class="st0" d="M800.3,205c-8,0-14.5-6.5-14.5-14.5c0-8,6.5-14.5,14.5-14.5c8,0,14.5,6.5,14.5,14.5c0,0,0,0,0,0
			C814.8,198.5,808.3,205,800.3,205z"/>
		<polygon class="st1" points="189.7,39.6 157.9,39.6 174.4,68.1 		"/>
		<path class="st0" d="M207.6,154.1l-21.5-37.2L118.4,0L0,205h63.4c17.2,0,33.2-9.1,41.9-24l32.4-56.5l-18-31.2l-39.1,68.1
			c-4.5,7.7-12.8,12.4-21.7,12.4h-4.8l64.3-111.4L200.7,205H224v-22.7L207.6,154.1L207.6,154.1z"/>
	</g>
</g>
</svg>
