<svg id="Layer_1" data-name="Layer 1" xmlns="http://www.w3.org/2000/svg" viewBox="0 0 1200 300"><defs><style>.cls-1{fill:#fff;}</style></defs><title>Artboard 1 copy 3</title><path class="cls-1" d="M1140.71,84.8H1112L1066.39,150,1112,215.2h28.68L1095.07,150Zm-107,130.39h24.09V84.8H1033.7ZM267.64,83.39A66.61,66.61,0,1,0,334.25,150,66.69,66.69,0,0,0,267.64,83.39Zm0,111.26A44.65,44.65,0,1,1,312.28,150,44.7,44.7,0,0,1,267.64,194.65ZM117.4,84.8H68.93l14.46,20.65v-.1h30.47a44.65,44.65,0,0,1,0,89.29H83.39v-.1L68.93,215.2H117.4a65.2,65.2,0,0,0,0-130.39ZM59.29,105.54v88.91L90.47,150ZM703.46,84.8H645.35V215.2h58.11a65.2,65.2,0,1,0,0-130.39Zm-3.54,109.84H669.45V105.35h30.47a44.65,44.65,0,0,1,0,89.29ZM419.29,83.39A66.61,66.61,0,1,0,485.9,150,66.69,66.69,0,0,0,419.29,83.39Zm0,111.26A44.65,44.65,0,1,1,463.94,150,44.7,44.7,0,0,1,419.29,194.65ZM792.76,215.2h87.87V194.65H816.85V158.5h49.61V138H816.85v-32.6h63.78V84.8H792.76ZM614.88,128.74A44,44,0,0,0,570.95,84.8H509.29V215.2h24.09V172.68h25.89L589,215.2h28.68L586.07,170A44,44,0,0,0,614.88,128.74ZM567.4,152.13h-34V105.35h34a23.39,23.39,0,0,1,0,46.77Zm399.69-46.77a44.44,44.44,0,0,1,28.37,10.2l12.61-18a66.61,66.61,0,1,0,0,104.92l-12.61-18a44.64,44.64,0,1,1-28.37-79.1Z"/></svg>