<?xml version="1.0" encoding="UTF-8"?>
<svg width="194px" height="47px" viewBox="0 0 194 47" version="1.1" xmlns="http://www.w3.org/2000/svg" xmlns:xlink="http://www.w3.org/1999/xlink">
    <!-- Generator: Sketch 43.1 (39012) - http://www.bohemiancoding.com/sketch -->
    <title>Group 2</title>
    <desc>Created with Sketch.</desc>
    <defs></defs>
    <g id="Page-1" stroke="none" stroke-width="1" fill="none" fill-rule="evenodd">
        <g id="Upload-Invoice-Copy-20" transform="translate(-89.000000, -33.000000)" fill="#FFFFFF">
            <g id="Group-2" transform="translate(89.000000, 33.000000)">
                <path d="M76.6308594,12.6191406 L73.1240234,14.6972656 C72.4684212,13.5592391 71.843753,12.817059 71.25,12.4707031 C70.6315073,12.0748678 69.8336637,11.8769531 68.8564453,11.8769531 C67.6565695,11.8769531 66.6608112,12.217119 65.8691406,12.8974609 C65.07747,13.565433 64.6816406,14.4065704 64.6816406,15.4208984 C64.6816406,16.8186919 65.7206927,17.9443317 67.7988281,18.7978516 L70.65625,19.9667969 C72.9817825,20.9069057 74.6826118,22.0541924 75.7587891,23.4086914 C76.8349663,24.7631904 77.3730469,26.4238183 77.3730469,28.390625 C77.3730469,31.0254038 76.4948004,33.2024654 74.7382812,34.921875 C72.9693922,36.6536545 70.7737761,37.5195312 68.1513672,37.5195312 C65.6650266,37.5195312 63.6116617,36.783536 61.9912109,35.3115234 C60.3954998,33.8395109 59.3997416,31.7675915 59.0039062,29.0957031 L63.3828125,28.1308594 C63.5807302,29.8131595 63.9270809,30.9759082 64.421875,31.6191406 C65.3125045,32.856126 66.6113196,33.4746094 68.3183594,33.4746094 C69.6666734,33.4746094 70.7861284,33.0231165 71.6767578,32.1201172 C72.5673873,31.2171179 73.0126953,30.0729236 73.0126953,28.6875 C73.0126953,28.1308566 72.9353849,27.6206078 72.7807617,27.1567383 C72.6261385,26.6928688 72.38493,26.2661152 72.0571289,25.8764648 C71.7293278,25.4868145 71.3056667,25.1219093 70.7861328,24.7817383 C70.266599,24.4415673 69.6481156,24.1168635 68.9306641,23.8076172 L66.1660156,22.6572266 C62.2447721,20.9996662 60.2841797,18.5752113 60.2841797,15.3837891 C60.2841797,13.2314346 61.1067626,11.4316479 62.7519531,9.984375 C64.3971436,8.52473229 66.4443237,7.79492188 68.8935547,7.79492188 C72.1963056,7.79492188 74.7753813,9.40297871 76.6308594,12.6191406 Z M85.9638672,18.9277344 L85.9638672,29.2998047 C85.9638672,32.2933092 87.1451705,33.7900391 89.5078125,33.7900391 C91.8704545,33.7900391 93.0517578,32.2933092 93.0517578,29.2998047 L93.0517578,18.9277344 L97.2265625,18.9277344 L97.2265625,29.3925781 C97.2265625,30.839851 97.0472023,32.0891875 96.6884766,33.140625 C96.3421207,34.0807339 95.7421918,34.9280561 94.8886719,35.6826172 C93.4785086,36.9072327 91.6849067,37.5195312 89.5078125,37.5195312 C87.3430881,37.5195312 85.5556711,36.9072327 84.1455078,35.6826172 C83.2796181,34.9280561 82.6673195,34.0807339 82.3085938,33.140625 C81.9622379,32.299475 81.7890625,31.0501385 81.7890625,29.3925781 L81.7890625,18.9277344 L85.9638672,18.9277344 Z M102.496094,18.9277344 L106.689453,18.9277344 L106.689453,20.5976562 C108.149096,19.1503834 109.794262,18.4267578 111.625,18.4267578 C113.727875,18.4267578 115.366856,19.088535 116.541992,20.4121094 C117.55632,21.537766 118.063477,23.3746617 118.063477,25.9228516 L118.063477,37 L113.870117,37 L113.870117,26.90625 C113.870117,25.1249911 113.622724,23.8942091 113.12793,23.2138672 C112.645505,22.5211554 111.767259,22.1748047 110.493164,22.1748047 C109.10774,22.1748047 108.124352,22.6324824 107.542969,23.5478516 C106.973955,24.4508509 106.689453,26.0279835 106.689453,28.2792969 L106.689453,37 L102.496094,37 L102.496094,18.9277344 Z M127.507812,5.66113281 L127.507812,37 L123.333008,37 L123.333008,5.66113281 L127.507812,5.66113281 Z M136.970703,18.9277344 L136.970703,37 L132.795898,37 L132.795898,18.9277344 L136.970703,18.9277344 Z M132.165039,11.4130859 C132.165039,10.6832646 132.430987,10.0524115 132.962891,9.52050781 C133.494794,8.98860411 134.131832,8.72265625 134.874023,8.72265625 C135.628585,8.72265625 136.271807,8.98860411 136.803711,9.52050781 C137.335615,10.0400417 137.601562,10.6770796 137.601562,11.4316406 C137.601562,12.1862017 137.335615,12.8294244 136.803711,13.3613281 C136.284177,13.8932318 135.647139,14.1591797 134.892578,14.1591797 C134.138017,14.1591797 133.494794,13.8932318 132.962891,13.3613281 C132.430987,12.8294244 132.165039,12.1800169 132.165039,11.4130859 Z M159.737305,36.5732422 C159.737305,37.4267621 159.709473,38.1782194 159.653809,38.8276367 C159.598144,39.477054 159.520834,40.0491512 159.421875,40.5439453 C159.124999,41.9046292 158.543624,43.0735628 157.677734,44.0507812 C156.044914,45.930999 153.799819,46.8710938 150.942383,46.8710938 C148.530261,46.8710938 146.54493,46.2216862 144.986328,44.9228516 C143.378247,43.5869074 142.450522,41.737642 142.203125,39.375 L146.396484,39.375 C146.557292,40.2656295 146.82324,40.952146 147.194336,41.4345703 C148.060226,42.560227 149.321932,43.1230469 150.979492,43.1230469 C154.034846,43.1230469 155.5625,41.2490422 155.5625,37.5009766 L155.5625,34.9775391 C153.90494,36.672209 151.993826,37.5195312 149.829102,37.5195312 C147.367501,37.5195312 145.351245,36.6289152 143.780273,34.8476562 C142.196932,33.0416576 141.405273,30.7841932 141.405273,28.0751953 C141.405273,25.4404165 142.141269,23.2015066 143.613281,21.3583984 C145.196622,19.4039616 147.287096,18.4267578 149.884766,18.4267578 C152.160819,18.4267578 154.053378,19.2740801 155.5625,20.96875 L155.5625,18.9277344 L159.737305,18.9277344 L159.737305,36.5732422 Z M155.729492,28.0009766 C155.729492,26.2444574 155.259445,24.8405 154.319336,23.7890625 C153.366857,22.7128852 152.148445,22.1748047 150.664062,22.1748047 C149.080721,22.1748047 147.831385,22.7623639 146.916016,23.9375 C146.087235,24.9889375 145.672852,26.349601 145.672852,28.0195312 C145.672852,29.6647218 146.087235,31.0130156 146.916016,32.0644531 C147.819015,33.2148495 149.068351,33.7900391 150.664062,33.7900391 C152.259774,33.7900391 153.52148,33.2086647 154.449219,32.0458984 C155.302739,30.9944609 155.729492,29.6461671 155.729492,28.0009766 Z M165.006836,5.66113281 L169.181641,5.66113281 L169.181641,20.4306641 C170.666023,19.0947199 172.305004,18.4267578 174.098633,18.4267578 C176.139659,18.4267578 177.772455,19.088535 178.99707,20.4121094 C180.036138,21.5625058 180.555664,23.3994014 180.555664,25.9228516 L180.555664,37 L176.380859,37 L176.380859,26.3125 C176.380859,24.8652271 176.124189,23.8168978 175.61084,23.1674805 C175.097491,22.5180632 174.271816,22.1933594 173.133789,22.1933594 C171.674146,22.1933594 170.647464,22.6448523 170.053711,23.5478516 C169.472328,24.4632207 169.181641,26.0341686 169.181641,28.2607422 L169.181641,37 L165.006836,37 L165.006836,5.66113281 Z M190.148438,22.8242188 L190.148438,37 L185.973633,37 L185.973633,22.8242188 L184.192383,22.8242188 L184.192383,18.9277344 L185.973633,18.9277344 L185.973633,12.3037109 L190.148438,12.3037109 L190.148438,18.9277344 L193.395508,18.9277344 L193.395508,22.8242188 L190.148438,22.8242188 Z" id="Sunlight"></path>
                <g id="Group-12-Copy" fill-rule="nonzero">
                    <path d="M19.8767987,40.4554186 C19.8767987,42.1481353 21.2466647,43.5203901 22.93648,43.5203901 C24.6266668,43.5203901 25.9961612,42.1481556 25.9961612,40.4554186 L25.9961612,5.42986455 C25.9961612,3.73714786 24.6262953,2.36489307 22.93648,2.36489307 C21.2462932,2.36489307 19.8767987,3.73712754 19.8767987,5.42986455 L19.8767987,40.4554186 Z M17.5643966,5.42986455 C17.5643966,2.45784748 19.9692398,0.0486442362 22.93648,0.0486442362 C25.9034289,0.0486442362 28.3085634,2.45794821 28.3085634,5.42986455 L28.3085634,40.4554186 C28.3085634,43.4274357 25.9037202,45.8366389 22.93648,45.8366389 C19.969531,45.8366389 17.5643966,43.4273349 17.5643966,40.4554186 L17.5643966,5.42986455 Z" id="Rectangle-303-Copy-24"></path>
                    <path d="M40.3811961,25.9949819 C42.0711016,25.9949819 43.4410774,24.6228372 43.4410774,22.9302109 C43.4410774,21.2372124 42.0711219,19.8654398 40.3811961,19.8654398 L5.41381057,19.8654398 C3.72390505,19.8654398 2.35392923,21.2375846 2.35392923,22.9302109 C2.35392923,24.6232094 3.72388477,25.9949819 5.41381057,25.9949819 L40.3811961,25.9949819 Z M5.41381057,28.3112308 C2.44672926,28.3112308 0.0415270942,25.9023872 0.0415270942,22.9302109 C0.0415270942,19.9583264 2.44682983,17.549191 5.41381057,17.549191 L40.3811961,17.549191 C43.3482774,17.549191 45.7534795,19.9580346 45.7534795,22.9302109 C45.7534795,25.9020954 43.3481768,28.3112308 40.3811961,28.3112308 L5.41381057,28.3112308 Z" id="Rectangle-303-Copy-25"></path>
                    <path d="M8.37145415,37.4937592 C9.566334,38.6906268 11.5036947,38.6905489 12.6986383,37.4936175 L37.4243138,12.7268107 C38.6192717,11.5298649 38.6195978,9.5895589 37.4244552,8.3924282 C36.2295754,7.19556065 34.2922147,7.19563846 33.097271,8.39256991 L8.37159563,33.1593767 C7.17663764,34.3563225 7.17631157,36.2966285 8.37145415,37.4937592 Z M31.4621558,6.75473466 C33.560128,4.65327246 36.9616208,4.65315326 39.0595705,6.75459294 C41.1577262,8.85623892 41.1574723,12.2631125 39.059429,14.364646 L14.3337536,39.1314527 C12.2357814,41.2329149 8.83428864,41.2330341 6.73633892,39.1315945 C4.63818323,37.0299485 4.63843709,33.6230749 6.7364804,31.5215414 L31.4621558,6.75473466 Z" id="Rectangle-303-Copy-26" fill-opacity="0.804262908"></path>
                    <path d="M12.6986383,8.39256991 C11.5036947,7.19563846 9.566334,7.19556065 8.37145415,8.3924282 C7.17631157,9.5895589 7.17663764,11.5298649 8.37159563,12.7268107 L33.097271,37.4936175 C34.2922147,38.6905489 36.2295754,38.6906268 37.4244552,37.4937592 C38.6195978,36.2966285 38.6192717,34.3563225 37.4243138,33.1593767 L12.6986383,8.39256991 Z M39.059429,31.5215414 C41.1574723,33.6230749 41.1577262,37.0299485 39.0595705,39.1315945 C36.9616208,41.2330341 33.560128,41.2329149 31.4621558,39.1314527 L6.7364804,14.364646 C4.63843709,12.2631125 4.63818323,8.85623892 6.73633892,6.75459294 C8.83428864,4.65315326 12.2357814,4.65327246 14.3337536,6.75473466 L39.059429,31.5215414 Z" id="Rectangle-303-Copy-27" fill-opacity="0.804262908"></path>
                </g>
            </g>
        </g>
    </g>
</svg>