<?xml version="1.0" encoding="UTF-8"?>
<svg width="910px" height="167px" viewBox="0 0 910 167" version="1.1" xmlns="http://www.w3.org/2000/svg" xmlns:xlink="http://www.w3.org/1999/xlink">
    <!-- Generator: Sketch 52.2 (67145) - http://www.bohemiancoding.com/sketch -->
    <title>Logo Copy 2</title>
    <desc>Created with Sketch.</desc>
    <g id="Page-1" stroke="none" stroke-width="1" fill="none" fill-rule="evenodd">
        <g id="Logo-+-Font-R5-Copy-4" transform="translate(-529.000000, -850.000000)" fill="#4A4A4A">
            <g id="Logo-Copy-2" transform="translate(529.000000, 850.000000)">
                <path d="M384.415003,4.98719232 L384.012841,161.987192 C384.005767,164.748607 386.238602,166.99291 389.000016,166.999984 C389.004286,166.999995 389.008555,167 389.012824,167 L609.604139,167 C612.353067,167 614.586433,164.78089 614.604036,162.032019 L614.753887,138.632019 C614.77157,135.870652 612.547375,133.617786 609.786008,133.600103 C609.775335,133.600034 609.764662,133.6 609.753989,133.6 L420.788889,133.6 L420.575,98.4871795 L586.079996,98.4871795 C588.827497,98.4871795 591.060264,96.2702882 591.079869,93.5228572 L591.2224,73.5484982 C591.242104,70.7871448 589.019559,68.5326521 586.258205,68.5129478 C586.246313,68.5128629 586.23442,68.5128205 586.222527,68.5128205 L420.788889,68.5128205 L420.788889,33.4 L609.818028,33.4 C612.566956,33.4 614.800322,31.1808902 614.817925,28.4320186 L614.967776,5.03201864 C614.985459,2.27065151 612.761264,0.017785926 609.999897,0.00010252037 C609.989224,3.4173632e-05 609.978551,1.83127321e-15 609.967878,1.77635684e-15 L389.414986,8.8817842e-16 C386.658563,1.39452518e-15 384.422064,2.23077801 384.415003,4.98719232 Z" id="Fill-7"></path>
                <path d="M657.414655,4.98720306 L657.01283,161.987203 C657.005762,164.748618 659.238602,166.992916 662.000016,166.999984 C662.004282,166.999995 662.008548,167 662.012813,167 L687.921608,167 C690.675843,167 692.91143,164.772632 692.921574,162.018416 L693.116935,108.978205 L779.669355,108.978205 L865.173837,166.156318 C865.996404,166.706381 866.963691,167 867.953229,167 L904.957333,167 C907.718756,167 909.957333,164.761424 909.957333,162 C909.957333,160.297633 909.091175,158.712235 907.658637,157.792512 L830.959677,108.55 C882.891129,107.265385 899.987903,79.8602564 894.217742,46.0320513 C889.729839,20.3397436 870.282258,0 827.967742,0 L662.414639,8.8817842e-16 C659.658211,1.39452595e-15 657.42171,2.23078453 657.414655,4.98720306 Z M693.116935,33.4 L826.685484,33.4 C847.415323,33.4 854.681452,41.3217949 856.391129,51.3846154 C858.741935,65.3012821 851.689516,77.0769231 825.830645,77.0769231 L693.330645,77.0769231 L693.116935,33.4 Z" id="Fill-10" fill-rule="nonzero"></path>
                <path d="M0.181414909,4.96809724 L0.0321069676,28.3680972 C0.0144875615,31.1294648 2.23873489,33.3822788 5.00010243,33.3998982 C5.01073655,33.3999661 5.02137085,33.4 5.03200519,33.4 L111.672131,33.4 L111.261904,161.984048 C111.253094,164.745458 113.484517,166.991165 116.245927,166.999975 C116.251244,166.999992 116.256562,167 116.261879,167 L143.122724,167 C145.881033,167 148.118317,164.766282 148.122717,162.007976 L148.327869,33.4 L255,33.4 C257.761424,33.4 260,31.1614237 260,28.4 L260,5 C260,2.23857625 257.761424,1.42085566e-14 255,0 L5.18131313,-8.8817842e-16 C2.43234005,-3.83200257e-16 0.198954873,2.21918012 0.181414909,4.96809724 Z" id="Fill-1"></path>
                <path d="M301.410881,4.98731952 L301.012713,161.98732 C301.005709,164.748734 303.238601,166.992981 306.000016,166.999984 C306.004243,166.999995 306.00847,167 306.012697,167 L331.589135,167 C334.345608,167 336.582128,164.769145 336.589119,162.01268 L336.987287,5.01268048 C336.994291,2.25126561 334.761399,0.0070193155 331.999984,1.60794845e-05 C331.995757,5.35983248e-06 331.99153,2.6637588e-15 331.987303,2.66453526e-15 L306.410865,8.8817842e-16 C303.654392,1.3945343e-15 301.417872,2.23085538 301.410881,4.98731952 Z" id="Fill-4"></path>
            </g>
        </g>
    </g>
</svg>