<svg xmlns="http://www.w3.org/2000/svg" viewBox="-15 -15 440.4 309.1" width="150px"><title>logo</title><g id="Layer_2" data-name="Layer 2"><g id="Layer_1-2" data-name="Layer 1"><rect x="368.2" y="80.8" width="42.2" height="140.2"/><rect x="368.2" width="42.2" height="67.7"/><rect x="313" y="31.5" width="42.2" height="36.2"/><path d="M313,221c0,19.5-19.6,15.8-19.6,15.8v32.8s61.9,9.8,61.9-48.7V80.8H313.1V221Z"/><path d="M103,90.5A62,62,0,0,0,90,83c-12.2-5.2-26.6-6.3-42.3-1.2C19.4,91,0,119.1,0,150.7c0,30.9,18.8,58.1,46.1,68.2,17.4,6.5,32.9,5.7,45.6,1.3a63.91,63.91,0,0,0,11.2-5.2c-1.5,22.5-15.4,27.6-29.5,27.6-11.6,0-19.9-8.1-21.3-12.8l-47.7-.6s7.3,49.9,68.3,49.9c14.3,0,72.6-3.9,72.6-66.2V81.8H102.9ZM73.5,181.7a31,31,0,1,1,31-31,31,31,0,0,1-31,31"/><path d="M229.3,77.3a73.5,73.5,0,1,0,73.5,73.5,73.49,73.49,0,0,0-73.5-73.5m0,104.4a31,31,0,1,1,31-31,31,31,0,0,1-31,31"/></g></g></svg>
