<svg width="861" height="150" viewBox="0 0 861 150" fill="none" xmlns="http://www.w3.org/2000/svg">
<path d="M190 75C190 116.42 156.42 150 115 150C73.58 150 40 116.42 40 75C40 33.58 73.58 0 115 0C156.42 0 190 33.58 190 75Z" fill="#A532FF"/>
<path d="M180 75C180 116.42 146.42 150 105 150C63.58 150 30 116.42 30 75C30 33.58 63.58 0 105 0C146.42 0 180 33.58 180 75Z" fill="#00CCE5"/>
<path d="M150 75C150 116.42 116.42 150 75 150C33.58 150 0 116.42 0 75C0 33.58 33.58 0 75 0C116.42 0 150 33.58 150 75Z" fill="#FE5C53"/>
<path d="M160 75C160 116.42 126.42 150 85 150C43.58 150 10 116.42 10 75C10 33.58 43.58 0 85 0C126.42 0 160 33.58 160 75Z" fill="#FFD264"/>
<path d="M169.99 75C169.99 116.42 136.41 150 94.99 150C53.57 150 19.99 116.42 19.99 75C19.99 33.58 53.57 0 94.99 0C136.41 0 169.99 33.58 169.99 75Z" fill="white"/>
<path d="M117.99 75C117.99 87.7 107.69 98 94.99 98C82.29 98 71.99 87.7 71.99 75C71.99 62.3 82.29 52 94.99 52C107.69 52 117.99 62.3 117.99 75Z" fill="black"/>
<path d="M762.556 57.062V116H778.744V89.438C778.744 86.778 779.01 84.308 779.542 82.028C780.074 79.748 780.948 77.772 782.164 76.1C783.456 74.352 785.128 72.984 787.18 71.996C789.232 71.008 791.74 70.514 794.704 70.514C795.692 70.514 796.718 70.59 797.782 70.742C798.846 70.818 799.758 70.932 800.518 71.084V56.036C799.226 55.656 798.048 55.466 796.984 55.466C794.932 55.466 792.956 55.77 791.056 56.378C789.156 56.986 787.37 57.86 785.698 59C784.026 60.064 782.544 61.394 781.252 62.99C779.96 64.51 778.934 66.182 778.174 68.006H777.946V57.062H762.556Z" fill="white"/>
<path d="M820.946 96.882H805.556C805.708 100.834 806.582 104.14 808.178 106.8C809.85 109.384 811.94 111.474 814.448 113.07C817.032 114.666 819.958 115.806 823.226 116.49C826.494 117.174 829.838 117.516 833.258 117.516C836.602 117.516 839.87 117.174 843.062 116.49C846.33 115.882 849.218 114.78 851.726 113.184C854.234 111.588 856.248 109.498 857.768 106.914C859.364 104.254 860.162 100.986 860.162 97.11C860.162 94.374 859.63 92.094 858.566 90.27C857.502 88.37 856.096 86.812 854.348 85.596C852.6 84.304 850.586 83.278 848.306 82.518C846.102 81.758 843.822 81.112 841.466 80.58C839.186 80.048 836.944 79.554 834.74 79.098C832.536 78.642 830.56 78.148 828.812 77.616C827.14 77.008 825.772 76.248 824.708 75.336C823.644 74.424 823.112 73.246 823.112 71.802C823.112 70.586 823.416 69.636 824.024 68.952C824.632 68.192 825.354 67.622 826.19 67.242C827.102 66.862 828.09 66.634 829.154 66.558C830.218 66.406 831.206 66.33 832.118 66.33C835.006 66.33 837.514 66.9 839.642 68.04C841.77 69.104 842.948 71.194 843.176 74.31H858.566C858.262 70.662 857.312 67.66 855.716 65.304C854.196 62.872 852.258 60.934 849.902 59.49C847.546 58.046 844.848 57.02 841.808 56.412C838.844 55.804 835.766 55.5 832.574 55.5C829.382 55.5 826.266 55.804 823.226 56.412C820.186 56.944 817.45 57.932 815.018 59.376C812.586 60.744 810.61 62.644 809.09 65.076C807.646 67.508 806.924 70.624 806.924 74.424C806.924 77.008 807.456 79.212 808.52 81.036C809.584 82.784 810.99 84.266 812.738 85.482C814.486 86.622 816.462 87.572 818.666 88.332C820.946 89.016 823.264 89.624 825.62 90.156C831.396 91.372 835.88 92.588 839.072 93.804C842.34 95.02 843.974 96.844 843.974 99.276C843.974 100.72 843.632 101.936 842.948 102.924C842.264 103.836 841.39 104.596 840.326 105.204C839.338 105.736 838.198 106.154 836.906 106.458C835.69 106.686 834.512 106.8 833.372 106.8C831.776 106.8 830.218 106.61 828.698 106.23C827.254 105.85 825.962 105.28 824.822 104.52C823.682 103.684 822.732 102.658 821.972 101.442C821.288 100.15 820.946 98.63 820.946 96.882Z" fill="white"/>
<path d="M338.556 34.604V116H354.744V34.604H338.556Z" fill="white"/>
<path d="M239.556 34.604V116H257.454V82.37H291.54V68.462H257.454V49.652H296.784V34.604H239.556Z" fill="white"/>
<path d="M367.556 57.062V116H383.744V81.8C383.744 78.912 384.162 76.594 384.998 74.846C385.834 73.022 386.822 71.654 387.962 70.742C389.178 69.754 390.394 69.108 391.61 68.804C392.902 68.424 393.928 68.234 394.688 68.234C397.272 68.234 399.21 68.69 400.502 69.602C401.87 70.438 402.82 71.578 403.352 73.022C403.96 74.466 404.302 76.062 404.378 77.81C404.454 79.482 404.492 81.192 404.492 82.94V116H420.68V83.168C420.68 81.344 420.794 79.558 421.022 77.81C421.326 75.986 421.858 74.39 422.618 73.022C423.454 71.578 424.556 70.438 425.924 69.602C427.368 68.69 429.23 68.234 431.51 68.234C433.79 68.234 435.576 68.614 436.868 69.374C438.236 70.134 439.262 71.16 439.946 72.452C440.63 73.744 441.048 75.264 441.2 77.012C441.352 78.76 441.428 80.622 441.428 82.598V116H457.616V76.556C457.616 72.756 457.084 69.526 456.02 66.866C454.956 64.13 453.474 61.926 451.574 60.254C449.674 58.582 447.394 57.366 444.734 56.606C442.074 55.846 439.186 55.466 436.07 55.466C431.966 55.466 428.394 56.454 425.354 58.43C422.39 60.406 420.034 62.686 418.286 65.27C416.69 61.622 414.334 59.076 411.218 57.632C408.178 56.188 404.796 55.466 401.072 55.466C397.196 55.466 393.738 56.302 390.698 57.974C387.734 59.646 385.188 62.002 383.06 65.042H382.832V57.062H367.556Z" fill="white"/>
<path d="M468.556 57.062V116H484.744V81.8C484.744 78.912 485.162 76.594 485.998 74.846C486.834 73.022 487.822 71.654 488.962 70.742C490.178 69.754 491.394 69.108 492.61 68.804C493.902 68.424 494.928 68.234 495.688 68.234C498.272 68.234 500.21 68.69 501.502 69.602C502.87 70.438 503.82 71.578 504.352 73.022C504.96 74.466 505.302 76.062 505.378 77.81C505.454 79.482 505.492 81.192 505.492 82.94V116H521.68V83.168C521.68 81.344 521.794 79.558 522.022 77.81C522.326 75.986 522.858 74.39 523.618 73.022C524.454 71.578 525.556 70.438 526.924 69.602C528.368 68.69 530.23 68.234 532.51 68.234C534.79 68.234 536.576 68.614 537.868 69.374C539.236 70.134 540.262 71.16 540.946 72.452C541.63 73.744 542.048 75.264 542.2 77.012C542.352 78.76 542.428 80.622 542.428 82.598V116H558.616V76.556C558.616 72.756 558.084 69.526 557.02 66.866C555.956 64.13 554.474 61.926 552.574 60.254C550.674 58.582 548.394 57.366 545.734 56.606C543.074 55.846 540.186 55.466 537.07 55.466C532.966 55.466 529.394 56.454 526.354 58.43C523.39 60.406 521.034 62.686 519.286 65.27C517.69 61.622 515.334 59.076 512.218 57.632C509.178 56.188 505.796 55.466 502.072 55.466C498.196 55.466 494.738 56.302 491.698 57.974C488.734 59.646 486.188 62.002 484.06 65.042H483.832V57.062H468.556Z" fill="white"/>
<path d="M569.38 75.222C569.608 71.422 570.558 68.268 572.23 65.76C573.902 63.252 576.03 61.238 578.614 59.718C581.198 58.198 584.086 57.134 587.278 56.526C590.546 55.842 593.814 55.5 597.082 55.5C600.046 55.5 603.048 55.728 606.088 56.184C609.128 56.564 611.902 57.362 614.41 58.578C616.918 59.794 618.97 61.504 620.566 63.708C622.162 65.836 622.96 68.686 622.96 72.258V102.924C622.96 105.584 623.112 108.13 623.416 110.562C623.72 112.994 624.252 114.818 625.012 116.034H608.596C608.292 115.122 608.026 114.21 607.798 113.298C607.646 112.31 607.532 111.322 607.456 110.334C604.872 112.994 601.832 114.856 598.336 115.92C594.84 116.984 591.268 117.516 587.62 117.516C584.808 117.516 582.186 117.174 579.754 116.49C577.322 115.806 575.194 114.742 573.37 113.298C571.546 111.854 570.102 110.03 569.038 107.826C568.05 105.622 567.556 103 567.556 99.96C567.556 96.616 568.126 93.88 569.266 91.752C570.482 89.548 572.002 87.8 573.826 86.508C575.726 85.216 577.854 84.266 580.21 83.658C582.642 82.974 585.074 82.442 587.506 82.062C589.938 81.682 592.332 81.378 594.688 81.15C597.044 80.922 599.134 80.58 600.958 80.124C602.782 79.668 604.226 79.022 605.29 78.186C606.354 77.274 606.848 75.982 606.772 74.31C606.772 72.562 606.468 71.194 605.86 70.206C605.328 69.142 604.568 68.344 603.58 67.812C602.668 67.204 601.566 66.824 600.274 66.672C599.058 66.444 597.728 66.33 596.284 66.33C593.092 66.33 590.584 67.014 588.76 68.382C586.936 69.75 585.872 72.03 585.568 75.222H569.38ZM606.772 87.192C606.088 87.8 605.214 88.294 604.15 88.674C603.162 88.978 602.06 89.244 600.844 89.472C599.704 89.7 598.488 89.89 597.196 90.042C595.904 90.194 594.612 90.384 593.32 90.612C592.104 90.84 590.888 91.144 589.672 91.524C588.532 91.904 587.506 92.436 586.594 93.12C585.758 93.728 585.074 94.526 584.542 95.514C584.01 96.502 583.744 97.756 583.744 99.276C583.744 100.72 584.01 101.936 584.542 102.924C585.074 103.912 585.796 104.71 586.708 105.318C587.62 105.85 588.684 106.23 589.9 106.458C591.116 106.686 592.37 106.8 593.662 106.8C596.854 106.8 599.324 106.268 601.072 105.204C602.82 104.14 604.112 102.886 604.948 101.442C605.784 99.922 606.278 98.402 606.43 96.882C606.658 95.362 606.772 94.146 606.772 93.234V87.192Z" fill="white"/>
<path d="M635.556 34.604V116H651.744V95.708L658.014 89.666L674.202 116H693.81L669.072 78.722L691.302 57.062H672.15L651.744 78.266V34.604H635.556Z" fill="white"/>
<path d="M737.078 80.238H710.744C710.82 79.098 711.048 77.806 711.428 76.362C711.884 74.918 712.606 73.55 713.594 72.258C714.658 70.966 716.026 69.902 717.698 69.066C719.446 68.154 721.612 67.698 724.196 67.698C728.148 67.698 731.074 68.762 732.974 70.89C734.95 73.018 736.318 76.134 737.078 80.238ZM710.744 90.498H753.266C753.57 85.938 753.19 81.568 752.126 77.388C751.062 73.208 749.314 69.484 746.882 66.216C744.526 62.948 741.486 60.364 737.762 58.464C734.038 56.488 729.668 55.5 724.652 55.5C720.168 55.5 716.064 56.298 712.34 57.894C708.692 59.49 705.538 61.694 702.878 64.506C700.218 67.242 698.166 70.51 696.722 74.31C695.278 78.11 694.556 82.214 694.556 86.622C694.556 91.182 695.24 95.362 696.608 99.162C698.052 102.962 700.066 106.23 702.65 108.966C705.234 111.702 708.388 113.83 712.112 115.35C715.836 116.794 720.016 117.516 724.652 117.516C731.34 117.516 737.04 115.996 741.752 112.956C746.464 109.916 749.96 104.862 752.24 97.794H737.99C737.458 99.618 736.014 101.366 733.658 103.038C731.302 104.634 728.49 105.432 725.222 105.432C720.662 105.432 717.166 104.254 714.734 101.898C712.302 99.542 710.972 95.742 710.744 90.498Z" fill="white"/>
<path d="M325.744 47.942V34.604H309.556V47.942H325.744ZM309.556 57.062V116H325.744V57.062H309.556Z" fill="white"/>
</svg>
