<svg width="20" height="20" viewBox="0 0 20 20" fill="none" xmlns="http://www.w3.org/2000/svg">
<path d="M15 2.5H5C4.33696 2.5 3.70107 2.76339 3.23223 3.23223C2.76339 3.70107 2.5 4.33696 2.5 5V15C2.5 15.663 2.76339 16.2989 3.23223 16.7678C3.70107 17.2366 4.33696 17.5 5 17.5H15C15.663 17.5 16.2989 17.2366 16.7678 16.7678C17.2366 16.2989 17.5 15.663 17.5 15V5C17.5 4.33696 17.2366 3.70107 16.7678 3.23223C16.2989 2.76339 15.663 2.5 15 2.5ZM10 5C10.1648 5 10.3259 5.04887 10.463 5.14044C10.6 5.23201 10.7068 5.36216 10.7699 5.51443C10.833 5.6667 10.8495 5.83426 10.8173 5.99591C10.7852 6.15756 10.7058 6.30605 10.5893 6.42259C10.4727 6.53913 10.3242 6.6185 10.1626 6.65065C10.0009 6.68281 9.83337 6.66631 9.6811 6.60323C9.52882 6.54016 9.39868 6.43335 9.30711 6.29631C9.21554 6.15927 9.16667 5.99815 9.16667 5.83333C9.16667 5.61232 9.25446 5.40036 9.41074 5.24408C9.56702 5.0878 9.77899 5 10 5ZM6.66667 5C6.83148 5 6.9926 5.04887 7.12964 5.14044C7.26668 5.23201 7.37349 5.36216 7.43657 5.51443C7.49964 5.6667 7.51614 5.83426 7.48399 5.99591C7.45183 6.15756 7.37247 6.30605 7.25592 6.42259C7.13938 6.53913 6.99089 6.6185 6.82924 6.65065C6.66759 6.68281 6.50004 6.66631 6.34776 6.60323C6.19549 6.54016 6.06534 6.43335 5.97378 6.29631C5.88221 6.15927 5.83333 5.99815 5.83333 5.83333C5.83333 5.61232 5.92113 5.40036 6.07741 5.24408C6.23369 5.0878 6.44565 5 6.66667 5ZM15.8333 15C15.8333 15.221 15.7455 15.433 15.5893 15.5893C15.433 15.7455 15.221 15.8333 15 15.8333H5C4.77899 15.8333 4.56702 15.7455 4.41074 15.5893C4.25446 15.433 4.16667 15.221 4.16667 15V9.16667H15.8333V15Z" fill="#425466"/>
</svg>
