<svg width="118" height="43" xmlns="http://www.w3.org/2000/svg"><g fill="none" fill-rule="evenodd"><path d="M49 13.45C49 9.25 52.096 6 56.72 6c4.625 0 7.741 3.27 7.741 7.328 0 1.696-.55 2.928-1.303 4.119l.346.262c.692.525.774 1.191.183 1.837l-.631.707c-.652.727-1.223.626-1.752.162l-.53-.445c-1.16.667-2.505 1.03-4.033 1.03C52.117 21 49 17.669 49 13.45zm4.44-.02c0 2.079 1.386 3.754 3.566 3.754.244 0 .509-.04.672-.1l-.326-.263c-.55-.444-.835-1.191-.265-1.817l.632-.686c.55-.606 1.08-.606 1.71-.081l.51.424a9.09 9.09 0 0 0 .102-1.171c0-2.16-1.426-3.614-3.32-3.614-1.936 0-3.28 1.514-3.28 3.553zm11.78 1.897V7.555c0-.869.47-1.313 1.325-1.313h1.65c.855 0 1.324.444 1.324 1.313v7.772c0 1.211.794 1.797 1.996 1.797 1.223 0 2.017-.586 2.017-1.777V7.555c0-.869.448-1.313 1.324-1.313h1.63c.876 0 1.324.444 1.324 1.313v7.772c0 3.29-2.465 5.673-6.274 5.673-3.85 0-6.315-2.382-6.315-5.673zm13.98 4.118V7.555c0-.869.47-1.313 1.345-1.313h6.824c.856 0 1.325.444 1.325 1.313v1.009c0 .848-.469 1.312-1.325 1.312H83.5v1.757h2.77c.876 0 1.345.464 1.345 1.312v1.01c0 .867-.469 1.311-1.345 1.311H83.5v1.858h4.115c.876 0 1.344.464 1.344 1.312v1.01c0 .847-.468 1.312-1.344 1.312h-7.069c-.876 0-1.344-.465-1.344-1.313zm10.6 0V7.555c0-.869.468-1.313 1.344-1.313h3.972c1.345 0 2.261.081 2.913.303 1.65.545 2.872 2.22 2.872 4.36 0 1.475-.61 3.19-2.037 4.059v.04s.326.363.652.929l1.834 3.23c.57 1.01.06 1.595-.917 1.595h-1.895c-.631 0-1.201-.243-1.568-.929l-1.854-3.553h-1.018v3.17c0 .847-.449 1.312-1.324 1.312h-1.63c-.876 0-1.345-.465-1.345-1.313zm4.298-6.803h.916c1.019 0 1.528-.444 1.528-1.534 0-.384-.061-.828-.652-1.07-.326-.142-.672-.162-1.14-.162h-.652v2.766zm7.44.767c0-4.159 3.077-7.409 7.721-7.409C113.904 6 117 9.25 117 13.41c0 4.259-3.096 7.59-7.74 7.59-4.645 0-7.721-3.331-7.721-7.59zm4.442 0c0 2.12 1.344 3.715 3.28 3.715 1.955 0 3.3-1.595 3.3-3.715 0-2.019-1.345-3.533-3.3-3.533-1.936 0-3.28 1.514-3.28 3.533z" fill="#F58123"/><g><ellipse fill="#DE9E1F" cx="12.737" cy="30.216" rx="2.316" ry="2.324"/><path d="M44 21.53C44 9.643 34.146 0 22 0S0 9.613 0 21.5 9.854 43 22 43h19.831l-5.562-5.125C41.009 33.933 44 28.08 44 21.53z" fill="#FC8400"/><path d="M15.701 29.844c-.945-.697-1.028-1.562-.361-2.538l1-1.478c.917-1.339 1.945-.809 2.557-.474 1 .53 1.945.976 3.057.976.917 0 1.556-.307 1.556-.893 0-2.147-8.754-1.785-8.754-8.088 0-3.068 2.057-5.467 5.364-6.164v-.781c0-1.2.528-1.841 1.723-1.841h.138c1.14 0 1.668.53 1.668 1.478v1.032c1.806.251 3.307.92 3.918 1.311.917.586 1.112 1.478.584 2.482l-.834 1.59c-.75 1.45-1.667 1.032-2.445.67-.917-.419-1.668-.753-2.752-.753-.917 0-1.528.25-1.528.836 0 2.204 8.754 1.73 8.754 8.005 0 2.929-1.918 5.69-5.697 6.36v.697c0 1.2-.528 1.84-1.668 1.84h-.138c-1.195 0-1.723-.53-1.723-1.477v-1.06c-1.89-.307-3.696-1.2-4.419-1.73z" fill="#FFF"/></g><path d="M50 41.031V25.969c0-1.1.555-1.662 1.592-1.662H57.6c3.473 0 5.765 2.787 5.765 6.572 0 3.81-2.292 6.649-5.765 6.649h-2.51v3.503c0 1.074-.53 1.662-1.567 1.662h-1.93c-1.037 0-1.592-.588-1.592-1.662zm5.09-8.106h1.423c1.206 0 1.689-.921 1.689-2.046 0-1.125-.483-1.97-1.592-1.97h-1.52v4.016zm8.716 7.85l4.704-15.113c.289-.92.844-1.355 1.785-1.355h2.629c.917 0 1.496.435 1.785 1.355l4.704 15.113c.386 1.151-.145 1.918-1.278 1.918H76.18c-.941 0-1.496-.46-1.786-1.406l-.361-1.79h-4.897l-.362 1.79c-.241.946-.82 1.406-1.737 1.406h-1.954c-1.134 0-1.664-.767-1.278-1.918zm6.489-5.549h2.58l-.53-2.557c-.314-1.253-.724-3.401-.724-3.401h-.048s-.386 2.148-.7 3.4l-.578 2.558zm23.189 6.316h.006l.003.03a.242.242 0 0 0-.01.073v-.103zm.006 0a1.313 1.313 0 0 1-.006-.127v.127h-.024S92.06 43 89.19 43c-4.366 0-8.564-3.452-8.564-9.36 0-5.676 3.836-9.64 9.264-9.64 2.701 0 4.897 1.048 5.596 1.585.869.665.965 1.33.41 2.302l-.748 1.279c-.554.92-1.23.971-2.195.46-.82-.41-1.495-.716-2.726-.716-3.232 0-4.342 2.148-4.342 4.398 0 3.043 2.075 4.782 4.294 4.782 2.147 0 2.919-1.1 2.919-1.1v-.639h-.7c-1.037 0-1.568-.588-1.568-1.687v-1.228c0-1.1.531-1.662 1.568-1.662h3.595c1.037 0 1.592.562 1.592 1.662v7.595c0 1.074-.555 1.662-1.592 1.662h-.941c-.957 0-1.483-.5-1.559-1.12.007-.022.015-.03.015-.03h-.018zm6.2-8.157c0-5.268 3.643-9.385 9.143-9.385 5.5 0 9.167 4.117 9.167 9.385 0 5.396-3.667 9.615-9.167 9.615s-9.142-4.22-9.142-9.615zm5.26 0c0 2.685 1.592 4.705 3.883 4.705 2.316 0 3.908-2.02 3.908-4.705 0-2.557-1.592-4.475-3.908-4.475-2.291 0-3.883 1.918-3.883 4.475z" fill="#05869B"/></g></svg>