<?xml version="1.0" encoding="utf-8"?>
<!-- Generator: Adobe Illustrator 21.0.0, SVG Export Plug-In . SVG Version: 6.00 Build 0)  -->
<svg version="1.1" id="Layer_1" xmlns="http://www.w3.org/2000/svg" xmlns:xlink="http://www.w3.org/1999/xlink" x="0px" y="0px"
	 viewBox="0 0 16 16" style="enable-background:new 0 0 16 16;" xml:space="preserve">
<style type="text/css">
	.st0{fill:#2F9A41;}
</style>
<g id="search_1_">
	<g id="search">
		<path class="st0" d="M15.4,13.5l-3.9-3.9c0.6-1,1-2.1,1-3.4C12.5,2.8,9.7,0,6.3,0C2.8,0,0,2.8,0,6.3s2.8,6.3,6.3,6.3
			c1.2,0,2.4-0.4,3.4-1l3.9,3.9c0.1,0.1,0.3,0.1,0.5,0l1.4-1.4C15.5,13.9,15.5,13.7,15.4,13.5z M2,6.3C2,3.9,3.9,2,6.3,2
			c2.4,0,4.3,1.9,4.3,4.3c0,2.4-1.9,4.3-4.3,4.3C3.9,10.5,2,8.6,2,6.3z"/>
	</g>
</g>
</svg>
