<svg width="20" height="20" viewBox="0 0 20 20" fill="none" xmlns="http://www.w3.org/2000/svg">
<path d="M12.682 6.74796C11.5816 5.64381 10.0916 5.01607 8.53289 5L8.50235 5C7.2847 5.11994 6.14673 5.65985 5.28365 6.52712L4.64696 7.16381L0.887897 10.9229C0.852748 10.9581 0.833008 11.0058 0.833008 11.0556C0.833008 11.1054 0.852748 11.1531 0.887897 11.1884L1.05471 11.3528C1.56566 11.8629 2.17211 12.2673 2.83941 12.5429C3.50672 12.8185 4.22179 12.9599 4.94376 12.959C5.66573 12.9581 6.38046 12.815 7.04709 12.5378C7.71373 12.2606 8.3192 11.8547 8.82892 11.3434L12.9239 7.25309C12.9591 7.21785 12.9788 7.17012 12.9788 7.12035C12.9788 7.07058 12.9591 7.02284 12.9239 6.9876L12.682 6.74796Z" fill="#00A69C"/>
<path style="mix-blend-mode:multiply" d="M13.0574 7.11447L12.6815 6.74796C11.5768 5.64168 10.0816 5.0139 8.51832 5C7.29487 5.11802 6.15084 5.65888 5.28318 6.52947L4.64648 7.16381L8.82844 11.3434L10.708 13.2229C11.2628 13.7793 11.9219 14.2207 12.6476 14.5219C13.3732 14.8231 14.1512 14.9781 14.9369 14.9781C15.7226 14.9781 16.5006 14.8231 17.2263 14.5219C17.952 14.2207 18.6111 13.7793 19.1659 13.2229L13.0574 7.11447Z" fill="url(#paint0_linear)"/>
<defs>
<linearGradient id="paint0_linear" x1="4.64648" y1="9.99016" x2="19.1635" y2="9.99016" gradientUnits="userSpaceOnUse">
<stop stop-color="#FFF100"/>
<stop offset="0.17" stop-color="#C8E122"/>
<stop offset="0.39" stop-color="#82CC4D"/>
<stop offset="0.6" stop-color="#4ABC6F"/>
<stop offset="0.78" stop-color="#22B087"/>
<stop offset="0.92" stop-color="#09A996"/>
<stop offset="1" stop-color="#00A69C"/>
</linearGradient>
</defs>
</svg>
