<?xml version="1.0" encoding="UTF-8"?>
<svg width="38px" height="36px" viewBox="0 0 38 36" version="1.1" xmlns="http://www.w3.org/2000/svg" xmlns:xlink="http://www.w3.org/1999/xlink">
    <!-- Generator: Sketch 42 (36781) - http://www.bohemiancoding.com/sketch -->
    <title>tree</title>
    <desc>Created with Sketch.</desc>
    <defs></defs>
    <g id="Page-1" stroke="none" stroke-width="1" fill="none" fill-rule="evenodd">
        <g id="Docs-Home-V2" transform="translate(-694.000000, -1058.000000)" fill-rule="nonzero" fill="#47AB48">
            <g id="tree" transform="translate(694.000000, 1058.000000)">
                <g id="bonsai-logomark-color">
                    <g>
                        <g id="Page-1">
                            <g id="bonsai-logomark-color">
                                <g id="Page-1">
                                    <path d="M7.96890735,6.5814281 C8.08488736,6.5814281 8.17997655,6.48871907 8.17997655,6.37564213 L8.17997655,5.15005685 C8.17997655,5.03697994 8.27434538,4.94427091 8.39104576,4.94427091 L13.4286123,4.94427091 C13.5445924,4.94427091 13.6389612,4.85156186 13.6389612,4.73848495 L13.6389612,4.52567559 C13.6389612,4.41259865 13.5445924,4.31988963 13.4286123,4.31988963 L11.1111732,4.31988963 C10.9951932,4.31988963 10.900104,4.22788294 10.900104,4.11480603 L10.900104,3.49604348 C10.900104,3.38296657 10.9951932,3.29025751 11.1111732,3.29025751 L14.5653605,3.29025751 C14.6813405,3.29025751 14.7757094,3.38296657 14.7757094,3.49604348 L14.7757094,5.76811706 C14.7757094,5.88119397 14.6813405,5.973903 14.5653605,5.973903 L12.2479214,5.973903 C12.1319414,5.973903 12.0368522,6.06661205 12.0368522,6.17968897 L12.0368522,8.02965553 C12.0368522,8.14273244 12.1319414,8.23544147 12.2479214,8.23544147 L15.4593431,8.23544147 C15.5753231,8.23544147 15.6704123,8.32744816 15.6704123,8.44122743 L15.6704123,9.05858528 C15.6704123,9.17166222 15.5753231,9.26437124 15.4593431,9.26437124 L10.2171907,9.26437124 C10.1012107,9.26437124 10.0061215,9.17166222 10.0061215,9.05858528 L10.0061215,8.44122743 C10.0061215,8.32744816 10.1012107,8.23544147 10.2171907,8.23544147 L10.6897552,8.23544147 C10.8057352,8.23544147 10.900104,8.14273244 10.900104,8.02965553 L10.900104,6.17968897 C10.900104,6.06661205 10.8057352,5.973903 10.6897552,5.973903 L9.52779395,5.973903 C9.41109357,5.973903 9.31672474,6.06661205 9.31672474,6.17968897 L9.31672474,7.40527424 C9.31672474,7.51835118 9.22163555,7.61035787 9.10565554,7.61035787 L5.67019791,7.61035787 C5.55421792,7.61035787 5.4591287,7.51835118 5.4591287,7.40527424 L5.4591287,6.78721403 C5.4591287,6.67413712 5.55421792,6.5814281 5.67019791,6.5814281 L7.96890735,6.5814281 Z" id="Fill-1"></path>
                                    <path d="M21.5768205,8.02965553 C21.5768205,8.14273244 21.6719097,8.23544147 21.7878897,8.23544147 L26.6021407,8.23544147 C26.7181207,8.23544147 26.81321,8.14273244 26.81321,8.02965553 L26.81321,7.81614381 C26.81321,7.7030669 26.7181207,7.61035787 26.6021407,7.61035787 L25.2161436,7.61035787 C25.1001635,7.61035787 25.0057947,7.51835118 25.0057947,7.40527424 L25.0057947,6.78721403 C25.0057947,6.67413712 25.1001635,6.5814281 25.2161436,6.5814281 L27.7381685,6.5814281 C27.8541485,6.5814281 27.9492376,6.67413712 27.9492376,6.78721403 L27.9492376,9.05858528 C27.9492376,9.17166222 27.8541485,9.26437124 27.7381685,9.26437124 L25.4394591,9.26437124 C25.3234791,9.26437124 25.2291103,9.35708027 25.2291103,9.47015718 L25.2291103,9.66611037 C25.2291103,9.77918729 25.3234791,9.87189631 25.4394591,9.87189631 L29.5455836,9.87189631 C29.6615637,9.87189631 29.756653,9.96460534 29.756653,10.0776823 L29.756653,12.9741371 C29.756653,13.087214 29.8517422,13.1799231 29.9677222,13.1799231 L31.81908,13.1799231 C31.93506,13.1799231 32.0301494,13.2719298 32.0301494,13.3850067 L32.0301494,13.9862107 C32.0301494,14.0992876 31.93506,14.1919966 31.81908,14.1919966 L28.8497036,14.1919966 C28.7337235,14.1919966 28.6386344,14.0992876 28.6386344,13.9862107 L28.6386344,11.1073144 C28.6386344,10.9942375 28.5435453,10.9015284 28.4275653,10.9015284 L24.3034313,10.9015284 C24.1874513,10.9015284 24.0923621,10.8088194 24.0923621,10.6957425 L24.0923621,9.47015718 C24.0923621,9.35708027 23.9972729,9.26437124 23.8812929,9.26437124 L23.6140346,9.26437124 C23.4980546,9.26437124 23.4029654,9.35708027 23.4029654,9.47015718 L23.4029654,10.6957425 C23.4029654,10.8088194 23.3078762,10.9015284 23.1918961,10.9015284 L22.4772864,10.9015284 C22.3613064,10.9015284 22.2662172,10.8088194 22.2662172,10.6957425 L22.2662172,9.47015718 C22.2662172,9.35708027 22.171128,9.26437124 22.055148,9.26437124 L20.6698712,9.26437124 C20.5538912,9.26437124 20.458802,9.17166222 20.458802,9.05858528 L20.458802,7.81614381 C20.458802,7.7030669 20.3637128,7.61035787 20.2477328,7.61035787 L19.9804745,7.61035787 C19.8644945,7.61035787 19.7694053,7.7030669 19.7694053,7.81614381 L19.7694053,9.05858528 C19.7694053,9.17166222 19.674316,9.26437124 19.558336,9.26437124 L17.4836626,9.26437124 C17.3676825,9.26437124 17.2725933,9.17166222 17.2725933,9.05858528 L17.2725933,8.44122743 C17.2725933,8.32744816 17.3676825,8.23544147 17.4836626,8.23544147 L18.4223082,8.23544147 C18.5382883,8.23544147 18.6333774,8.14273244 18.6333774,8.02965553 L18.6333774,6.78721403 C18.6333774,6.67413712 18.7277463,6.5814281 18.8437263,6.5814281 L21.3657513,6.5814281 C21.4817313,6.5814281 21.5768205,6.67413712 21.5768205,6.78721403 L21.5768205,8.02965553 Z" id="Fill-3"></path>
                                    <path d="M18.6204107,12.5551204 C18.5044307,12.5551204 18.4093415,12.6478294 18.4093415,12.7609064 L18.4093415,13.1766923 C18.4093415,13.2897692 18.3149727,13.3817759 18.1982723,13.3817759 L15.6575176,13.3817759 C15.5415376,13.3817759 15.4471688,13.2897692 15.4471688,13.1766923 L15.4471688,12.5586321 C15.4471688,12.4455552 15.5415376,12.3528461 15.6575176,12.3528461 L17.0615241,12.3528461 C17.1782245,12.3528461 17.2725933,12.2601371 17.2725933,12.1470602 L17.2725933,11.7312742 C17.2725933,11.6181973 17.3676825,11.5261906 17.4836626,11.5261906 L19.558336,11.5261906 C19.674316,11.5261906 19.7694053,11.6181973 19.7694053,11.7312742 L19.7694053,12.3493345 C19.7694053,12.4624114 19.674316,12.5551204 19.558336,12.5551204 L18.6204107,12.5551204 Z" id="Fill-5"></path>
                                    <path d="M9.52743378,2.66629766 C9.41145376,2.66629766 9.31636455,2.75900669 9.31636455,2.8720836 L9.31636455,4.1145251 C9.31636455,4.22760201 9.22199572,4.32031103 9.10529534,4.32031103 L8.39068559,4.32031103 C8.27470557,4.32031103 8.17961635,4.22760201 8.17961635,4.1145251 L8.17961635,1.85930769 C8.17961635,1.74623077 8.27470557,1.65352174 8.39068559,1.65352174 L12.291504,1.65352174 C12.4082044,1.65352174 12.5025732,1.74623077 12.5025732,1.85930769 L12.5025732,2.46051171 C12.5025732,2.57358863 12.4082044,2.66629766 12.291504,2.66629766 L9.52743378,2.66629766 Z" id="Fill-7"></path>
                                    <path d="M19.3037563,1.44815719 C19.3037563,1.56123411 19.3988455,1.65394314 19.5148255,1.65394314 L20.918832,1.65394314 C21.034812,1.65394314 21.1299012,1.74665217 21.1299012,1.8597291 L21.1299012,2.46093311 C21.1299012,2.57401003 21.034812,2.66601673 20.918832,2.66601673 L18.396807,2.66601673 C18.280827,2.66601673 18.1857378,2.57401003 18.1857378,2.46093311 L18.1857378,1.23534783 C18.1857378,1.1222709 18.0906486,1.02956187 17.9746686,1.02956187 L14.9865625,1.02956187 C14.8705825,1.02956187 14.7762136,1.1222709 14.7762136,1.23534783 L14.7762136,1.44815719 C14.7762136,1.56123411 14.8705825,1.65394314 14.9865625,1.65394314 L16.3725596,1.65394314 C16.4885396,1.65394314 16.5829085,1.74665217 16.5829085,1.8597291 L16.5829085,3.08531439 C16.5829085,3.1983913 16.6779977,3.29039799 16.7939777,3.29039799 L21.3661835,3.29039799 C21.4821635,3.29039799 21.5765323,3.38310702 21.5765323,3.49618396 L21.5765323,5.76825751 C21.5765323,5.88133445 21.4821635,5.97404348 21.3661835,5.97404348 L20.669583,5.97404348 C20.553603,5.97404348 20.4592342,5.88133445 20.4592342,5.76825751 L20.4592342,4.52581604 C20.4592342,4.41273913 20.364145,4.3200301 20.248165,4.3200301 L15.6579499,4.3200301 C15.5419699,4.3200301 15.4468806,4.22732108 15.4468806,4.11424414 L15.4468806,2.87180267 C15.4468806,2.75872576 15.3517915,2.66601673 15.2358114,2.66601673 L13.8498143,2.66601673 C13.7338343,2.66601673 13.6394655,2.57401003 13.6394655,2.46093311 L13.6394655,0.205715719 C13.6394655,0.0926387961 13.7338343,-7.02341135e-05 13.8498143,-7.02341135e-05 L19.0926871,-7.02341135e-05 C19.2086671,-7.02341135e-05 19.3037563,0.0926387961 19.3037563,0.205715719 L19.3037563,1.44815719 Z" id="Fill-9"></path>
                                    <path d="M28.6387784,6.17954849 C28.6387784,6.06647157 28.5436893,5.97376255 28.4277093,5.97376255 L23.6141787,5.97376255 C23.4981986,5.97376255 23.4031094,6.06647157 23.4031094,6.17954849 L23.4031094,7.40513379 C23.4031094,7.5182107 23.3080202,7.61091973 23.1920402,7.61091973 L22.4774305,7.61091973 C22.3614505,7.61091973 22.2663613,7.5182107 22.2663613,7.40513379 L22.2663613,5.1499164 C22.2663613,5.03683946 22.3614505,4.94413043 22.4774305,4.94413043 L24.7948696,4.94413043 C24.9108496,4.94413043 25.0052184,4.85212375 25.0052184,4.73904683 L25.0052184,4.52553511 C25.0052184,4.4124582 24.9108496,4.32045151 24.7948696,4.32045151 L22.9427913,4.32045151 C22.8268112,4.32045151 22.7324424,4.22774249 22.7324424,4.11466555 L22.7324424,3.495903 C22.7324424,3.38282609 22.8268112,3.2908194 22.9427913,3.2908194 L25.9128881,3.2908194 C26.0288681,3.2908194 26.1232369,3.38282609 26.1232369,3.495903 L26.1232369,4.73904683 C26.1232369,4.85212375 26.2183261,4.94413043 26.3343061,4.94413043 L29.5457279,4.94413043 C29.6617079,4.94413043 29.756797,5.03683946 29.756797,5.1499164 L29.756797,6.57847826 C29.756797,6.69155517 29.6617079,6.78356186 29.5457279,6.78356186 L28.8498478,6.78356186 C28.7338678,6.78356186 28.6387784,6.69155517 28.6387784,6.57847826 L28.6387784,6.17954849 Z" id="Fill-11"></path>
                                    <path d="M30.4461216,8.64322075 C30.4461216,8.53014381 30.3510325,8.43743478 30.2350524,8.43743478 L28.8497758,8.43743478 C28.7337958,8.43743478 28.6387064,8.34472576 28.6387064,8.23164882 L28.6387064,7.61429097 C28.6387064,7.50121403 28.7337958,7.40850501 28.8497758,7.40850501 L31.3718008,7.40850501 C31.4877808,7.40850501 31.5828699,7.50121403 31.5828699,7.61429097 L31.5828699,10.6961639 C31.5828699,10.8092408 31.4877808,10.9012475 31.3718008,10.9012475 L30.657191,10.9012475 C30.5412109,10.9012475 30.4461216,10.8092408 30.4461216,10.6961639 L30.4461216,8.64322075 Z" id="Fill-13"></path>
                                    <path d="M35.4584752,14.3977826 C35.4584752,14.2847057 35.3633861,14.1919966 35.247406,14.1919966 L33.8433994,14.1919966 C33.7274194,14.1919966 33.6323303,14.09999 33.6323303,13.9862107 L33.6323303,12.7606254 C33.6323303,12.6475485 33.5372412,12.5548395 33.4212612,12.5548395 L30.657191,12.5548395 C30.5412109,12.5548395 30.4461216,12.4628328 30.4461216,12.3497559 L30.4461216,11.7316957 C30.4461216,11.6186187 30.5412109,11.5259097 30.657191,11.5259097 L34.5580092,11.5259097 C34.6739893,11.5259097 34.7690786,11.6186187 34.7690786,11.7316957 L34.7690786,12.9741371 C34.7690786,13.087214 34.8641677,13.1799231 34.9801478,13.1799231 L36.3654244,13.1799231 C36.4814044,13.1799231 36.5764938,13.2719298 36.5764938,13.3850067 L36.5764938,15.6402241 C36.5764938,15.753301 36.4814044,15.84601 36.3654244,15.84601 L35.6695446,15.84601 C35.5535645,15.84601 35.4584752,15.753301 35.4584752,15.6402241 L35.4584752,14.3977826 Z" id="Fill-15"></path>
                                    <path d="M33.1538587,16.3174916 C33.0378786,16.3174916 32.9427895,16.4102007 32.9427895,16.5232776 L32.9427895,17.3436121 C32.9427895,17.456689 32.8477004,17.549398 32.7317204,17.549398 L32.0171106,17.549398 C31.9011306,17.549398 31.8067616,17.456689 31.8067616,17.3436121 L31.8067616,15.4936455 C31.8067616,15.3805686 31.9011306,15.2878595 32.0171106,15.2878595 L34.5578653,15.2878595 C34.6738453,15.2878595 34.7689344,15.3805686 34.7689344,15.4936455 L34.7689344,16.1117057 C34.7689344,16.2247826 34.6738453,16.3174916 34.5578653,16.3174916 L33.1538587,16.3174916 Z" id="Fill-17"></path>
                                    <path d="M18.1545457,5.973903 C18.0385657,5.973903 17.9434765,6.06661205 17.9434765,6.17968897 L17.9434765,7.40527424 C17.9434765,7.51835118 17.8491076,7.61035787 17.7324073,7.61035787 L13.8503185,7.61035787 C13.7343385,7.61035787 13.6392493,7.51835118 13.6392493,7.40527424 L13.6392493,6.78721403 C13.6392493,6.67413712 13.7343385,6.5814281 13.8503185,6.5814281 L16.6143888,6.5814281 C16.7303688,6.5814281 16.825458,6.48871907 16.825458,6.37564213 L16.825458,6.17968897 C16.825458,6.06661205 16.7303688,5.973903 16.6143888,5.973903 L16.1238149,5.973903 C16.0078349,5.973903 15.9127457,5.88119397 15.9127457,5.76811706 L15.9127457,5.15005685 C15.9127457,5.03697994 16.0078349,4.94427091 16.1238149,4.94427091 L18.6458399,4.94427091 C18.7618199,4.94427091 18.8561887,5.03697994 18.8561887,5.15005685 L18.8561887,5.76811706 C18.8561887,5.88119397 18.7618199,5.973903 18.6458399,5.973903 L18.1545457,5.973903 Z" id="Fill-19"></path>
                                    <path d="M28.6075143,17.4827458 C28.4915343,17.4827458 28.3964452,17.5754548 28.3964452,17.6885318 L28.3964452,18.9309733 C28.3964452,19.0440502 28.3020762,19.1367592 28.1853758,19.1367592 L27.489496,19.1367592 C27.373516,19.1367592 27.2784266,19.0440502 27.2784266,18.9309733 L27.2784266,16.6757559 C27.2784266,16.5626789 27.373516,16.4699699 27.489496,16.4699699 L29.7882054,16.4699699 C29.9041854,16.4699699 29.9992745,16.3779632 29.9992745,16.2648863 L29.9992745,16.0513746 C29.9992745,15.9382977 29.9041854,15.846291 29.7882054,15.846291 L26.1107024,15.846291 C25.9947224,15.846291 25.8996332,15.7535819 25.8996332,15.640505 L25.8996332,12.7609064 C25.8996332,12.6478294 25.804544,12.5551204 25.688564,12.5551204 L25.4400354,12.5551204 C25.3240554,12.5551204 25.2289662,12.6478294 25.2289662,12.7609064 L25.2289662,16.2648863 C25.2289662,16.3779632 25.133877,16.4699699 25.017897,16.4699699 L22.4771423,16.4699699 C22.3611623,16.4699699 22.2660731,16.3779632 22.2660731,16.2648863 L22.2660731,13.5875619 C22.2660731,13.4744849 22.1717043,13.3817759 22.0557243,13.3817759 L20.6697271,13.3817759 C20.5537471,13.3817759 20.4586579,13.2897692 20.4586579,13.1766923 L20.4586579,11.106893 C20.4586579,10.993816 20.3642891,10.9018094 20.248309,10.9018094 L15.6573736,10.9018094 C15.5413936,10.9018094 15.4470247,10.8091003 15.4470247,10.6960234 L15.4470247,10.0779632 C15.4470247,9.9648863 15.5413936,9.87217727 15.6573736,9.87217727 L21.3656072,9.87217727 C21.4815872,9.87217727 21.5766764,9.9648863 21.5766764,10.0779632 L21.5766764,12.1470602 C21.5766764,12.2601371 21.6717656,12.3528461 21.7877456,12.3528461 L23.1924725,12.3528461 C23.3084525,12.3528461 23.4028213,12.4455552 23.4028213,12.5586321 L23.4028213,15.127796 C23.4028213,15.2408729 23.4979105,15.3328796 23.6138905,15.3328796 L23.8818692,15.3328796 C23.9978492,15.3328796 24.092218,15.2408729 24.092218,15.127796 L24.092218,11.7312742 C24.092218,11.6181973 24.1873072,11.5261906 24.3032872,11.5261906 L27.7387449,11.5261906 C27.8547249,11.5261906 27.9490937,11.6181973 27.9490937,11.7312742 L27.9490937,12.3493345 C27.9490937,12.4624114 27.8547249,12.5551204 27.7387449,12.5551204 L27.2474507,12.5551204 C27.1314707,12.5551204 27.0363813,12.6478294 27.0363813,12.7609064 L27.0363813,14.6108729 C27.0363813,14.7239498 27.1314707,14.8166589 27.2474507,14.8166589 L30.9249534,14.8166589 C31.0409334,14.8166589 31.1353024,14.9086655 31.1353024,15.0217425 L31.1353024,17.2769599 C31.1353024,17.3900368 31.0409334,17.4827458 30.9249534,17.4827458 L28.6075143,17.4827458 Z" id="Fill-21"></path>
                                    <path d="M32.7245887,19.6083813 C32.6086087,19.6083813 32.5135193,19.7010903 32.5135193,19.8141672 L32.5135193,22.2885151 C32.5135193,22.401592 32.4191506,22.494301 32.3024502,22.494301 L31.6065701,22.494301 C31.4905901,22.494301 31.395501,22.401592 31.395501,22.2885151 L31.395501,19.8141672 C31.395501,19.7010903 31.301132,19.6083813 31.185152,19.6083813 L29.7804253,19.6083813 C29.6644452,19.6083813 29.5693561,19.5156722 29.5693561,19.4025953 L29.5693561,18.7845351 C29.5693561,18.6714582 29.6644452,18.5787492 29.7804253,18.5787492 L33.9052795,18.5787492 C34.0212595,18.5787492 34.1156285,18.4867425 34.1156285,18.3736655 L34.1156285,17.1473779 C34.1156285,17.034301 34.2107176,16.941592 34.3266976,16.941592 L35.0420278,16.941592 C35.1580078,16.941592 35.2523765,17.034301 35.2523765,17.1473779 L35.2523765,19.4025953 C35.2523765,19.5156722 35.1580078,19.6083813 35.0420278,19.6083813 L32.7245887,19.6083813 Z" id="Fill-23"></path>
                                    <path d="M34.5505174,21.262184 C34.4345373,21.262184 34.3394482,21.354893 34.3394482,21.4679699 L34.3394482,21.6639231 C34.3394482,21.777 34.4345373,21.869709 34.5505174,21.869709 L37.7619391,21.869709 C37.8779191,21.869709 37.9730082,21.9617157 37.9730082,22.0747927 L37.9730082,24.3475686 C37.9730082,24.4606455 37.8779191,24.5533545 37.7619391,24.5533545 L35.6872657,24.5533545 C35.5712857,24.5533545 35.4761963,24.4606455 35.4761963,24.3475686 L35.4761963,23.728806 C35.4761963,23.6157291 35.5712857,23.5230201 35.6872657,23.5230201 L36.625191,23.5230201 C36.7411711,23.5230201 36.8362602,23.4310134 36.8362602,23.3179365 L36.8362602,23.1051271 C36.8362602,22.9920502 36.7411711,22.8993411 36.625191,22.8993411 L34.5505174,22.8993411 C34.4345373,22.8993411 34.3394482,22.9920502 34.3394482,23.1051271 L34.3394482,24.3475686 C34.3394482,24.4606455 34.2450795,24.5533545 34.1283791,24.5533545 L32.7243725,24.5533545 C32.6083925,24.5533545 32.5140238,24.6453612 32.5140238,24.7584381 L32.5140238,24.9712475 C32.5140238,25.0843244 32.6083925,25.1770334 32.7243725,25.1770334 L36.8492267,25.1770334 C36.9652067,25.1770334 37.0602961,25.2697425 37.0602961,25.3828194 L37.0602961,25.9840234 C37.0602961,26.0971004 36.9652067,26.1898093 36.8492267,26.1898093 L31.6070743,26.1898093 C31.4910943,26.1898093 31.3960052,26.0971004 31.3960052,25.9840234 L31.3960052,24.7584381 C31.3960052,24.6453612 31.300916,24.5533545 31.184936,24.5533545 L29.780209,24.5533545 C29.664229,24.5533545 29.5698603,24.4606455 29.5698603,24.3475686 L29.5698603,23.1051271 C29.5698603,22.9920502 29.4747712,22.8993411 29.3587912,22.8993411 L26.7985864,22.8993411 C26.6826064,22.8993411 26.5882375,22.8066321 26.5882375,22.6935552 L26.5882375,20.4383378 C26.5882375,20.3252609 26.6826064,20.2332542 26.7985864,20.2332542 L29.5821067,20.2332542 C29.6980867,20.2332542 29.7931759,20.3252609 29.7931759,20.4383378 L29.7931759,21.056398 C29.7931759,21.1694749 29.6980867,21.262184 29.5821067,21.262184 L27.9475809,21.262184 C27.8316009,21.262184 27.7365118,21.354893 27.7365118,21.4679699 L27.7365118,21.6639231 C27.7365118,21.777 27.8316009,21.869709 27.9475809,21.869709 L30.4955392,21.869709 C30.6115192,21.869709 30.7066084,21.9617157 30.7066084,22.0747927 L30.7066084,23.3179365 C30.7066084,23.4310134 30.8009773,23.5230201 30.9169574,23.5230201 L32.9923512,23.5230201 C33.1083312,23.5230201 33.2034203,23.4310134 33.2034203,23.3179365 L33.2034203,20.4383378 C33.2034203,20.3252609 33.2977893,20.2332542 33.4137693,20.2332542 L35.7312084,20.2332542 C35.8471884,20.2332542 35.9422775,20.1405452 35.9422775,20.0274682 L35.9422775,18.7850267 C35.9422775,18.6719498 36.0366465,18.5792408 36.1533466,18.5792408 L36.8492267,18.5792408 C36.9652067,18.5792408 37.0602961,18.6719498 37.0602961,18.7850267 L37.0602961,21.056398 C37.0602961,21.1694749 36.9652067,21.262184 36.8492267,21.262184 L34.5505174,21.262184 Z" id="Fill-25"></path>
                                    <path d="M3.1550165,9.2645117 C3.03903649,9.2645117 2.94394729,9.35722075 2.94394729,9.47029766 L2.94394729,9.66625083 C2.94394729,9.77932777 3.03903649,9.87203679 3.1550165,9.87203679 L5.4724556,9.87203679 C5.58843561,9.87203679 5.68280444,9.96474582 5.68280444,10.0778227 L5.68280444,11.3202642 C5.68280444,11.4333411 5.77789366,11.5260502 5.89387367,11.5260502 L7.96926752,11.5260502 C8.08524753,11.5260502 8.17961635,11.4333411 8.17961635,11.3202642 L8.17961635,8.44066555 C8.17961635,8.32758863 8.27470557,8.23558195 8.39068559,8.23558195 L9.10601571,8.23558195 C9.22199572,8.23558195 9.31636455,8.32758863 9.31636455,8.44066555 L9.31636455,9.66625083 C9.31636455,9.77932777 9.41145376,9.87203679 9.52743378,9.87203679 L12.7395758,9.87203679 C12.8555558,9.87203679 12.9499247,9.96474582 12.9499247,10.0778227 L12.9499247,12.349194 C12.9499247,12.4622709 12.8555558,12.5549799 12.7395758,12.5549799 L11.1115334,12.5549799 C10.9955534,12.5549799 10.9004642,12.4622709 10.9004642,12.349194 L10.9004642,11.7318361 C10.9004642,11.6187592 10.9955534,11.5260502 11.1115334,11.5260502 L11.6028276,11.5260502 C11.7188076,11.5260502 11.8131765,11.4333411 11.8131765,11.3202642 L11.8131765,11.1074548 C11.8131765,10.9943779 11.7188076,10.9016689 11.6028276,10.9016689 L9.52743378,10.9016689 C9.41145376,10.9016689 9.31636455,10.9943779 9.31636455,11.1074548 L9.31636455,12.349194 C9.31636455,12.4622709 9.22199572,12.5549799 9.10601571,12.5549799 L5.89387367,12.5549799 C5.77789366,12.5549799 5.68280444,12.647689 5.68280444,12.7607659 L5.68280444,13.5818027 C5.68280444,13.6948796 5.58843561,13.7875886 5.4724556,13.7875886 L4.75784585,13.7875886 C4.64186584,13.7875886 4.54677664,13.6948796 4.54677664,13.5818027 L4.54677664,11.1074548 C4.54677664,10.9943779 4.45168742,10.9016689 4.33570741,10.9016689 L2.036998,10.9016689 C1.92101799,10.9016689 1.82592879,10.8089599 1.82592879,10.6958829 L1.82592879,8.44066555 C1.82592879,8.32758863 1.92101799,8.23558195 2.036998,8.23558195 L7.27987082,8.23558195 C7.39585083,8.23558195 7.49021966,8.32758863 7.49021966,8.44066555 L7.49021966,9.05872576 C7.49021966,9.17180267 7.39585083,9.2645117 7.27987082,9.2645117 L3.1550165,9.2645117 Z" id="Fill-27"></path>
                                    <path d="M14.7759255,13.7839365 C14.7759255,13.8970134 14.8710147,13.9897224 14.9869947,13.9897224 L16.3722715,13.9897224 C16.4882515,13.9897224 16.5833407,14.0817291 16.5833407,14.1955084 L16.5833407,14.8135686 C16.5833407,14.9266455 16.4882515,15.0193545 16.3722715,15.0193545 L13.8502465,15.0193545 C13.7342665,15.0193545 13.6391773,14.9266455 13.6391773,14.8135686 L13.6391773,10.0776823 C13.6391773,9.96460534 13.7342665,9.87189631 13.8502465,9.87189631 L14.5648563,9.87189631 C14.6808363,9.87189631 14.7759255,9.96460534 14.7759255,10.0776823 L14.7759255,13.7839365 Z" id="Fill-29"></path>
                                    <path d="M3.1550165,12.5551204 C3.03903649,12.5551204 2.94394729,12.6478294 2.94394729,12.7609064 L2.94394729,14.8131472 C2.94394729,14.9262241 2.84885807,15.0189331 2.73287806,15.0189331 L2.036998,15.0189331 C1.92101799,15.0189331 1.82592879,14.9262241 1.82592879,14.8131472 L1.82592879,11.7312742 C1.82592879,11.6181973 1.92101799,11.5261906 2.036998,11.5261906 L3.64631071,11.5261906 C3.76229073,11.5261906 3.85737992,11.6181973 3.85737992,11.7312742 L3.85737992,12.3493345 C3.85737992,12.4624114 3.76229073,12.5551204 3.64631071,12.5551204 L3.1550165,12.5551204 Z" id="Fill-31"></path>
                                    <path d="M1.13674818,15.4377391 C1.13674818,15.550816 1.23183739,15.6435251 1.3478174,15.6435251 L3.4224909,15.6435251 C3.53847091,15.6435251 3.63356011,15.550816 3.63356011,15.4377391 L3.63356011,15.0219532 C3.63356011,14.9088763 3.7286493,14.8161672 3.84462931,14.8161672 L7.05605101,14.8161672 C7.17203102,14.8161672 7.26639985,14.7241605 7.26639985,14.6110836 L7.26639985,13.3854983 C7.26639985,13.2724214 7.36148904,13.1797124 7.47746905,13.1797124 L12.7390716,13.1797124 C12.8550516,13.1797124 12.9501408,13.2724214 12.9501408,13.3854983 L12.9501408,15.4377391 C12.9501408,15.550816 13.04523,15.6435251 13.16121,15.6435251 L14.5652164,15.6435251 C14.6811965,15.6435251 14.7762857,15.7355318 14.7762857,15.849311 L14.7762857,16.4673712 C14.7762857,16.5804482 14.6811965,16.6731572 14.5652164,16.6731572 L12.0244618,16.6731572 C11.9084818,16.6731572 11.8133926,16.5804482 11.8133926,16.4673712 L11.8133926,16.0515853 C11.8133926,15.9385084 11.7183034,15.8457993 11.6023234,15.8457993 L10.2170466,15.8457993 C10.1010666,15.8457993 10.0059774,15.7537927 10.0059774,15.6407157 L10.0059774,15.0219532 C10.0059774,14.9088763 10.1010666,14.8161672 10.2170466,14.8161672 L11.6023234,14.8161672 C11.7183034,14.8161672 11.8133926,14.7241605 11.8133926,14.6110836 L11.8133926,14.3975719 C11.8133926,14.284495 11.7183034,14.1924883 11.6023234,14.1924883 L8.61421724,14.1924883 C8.49823723,14.1924883 8.40314804,14.284495 8.40314804,14.3975719 L8.40314804,17.2771706 C8.40314804,17.3902475 8.30877921,17.4829565 8.1927992,17.4829565 L6.80680202,17.4829565 C6.69082204,17.4829565 6.59645318,17.5749632 6.59645318,17.6880401 L6.59645318,18.931184 C6.59645318,19.0442609 6.50136399,19.1369699 6.38538398,19.1369699 L3.15523262,19.1369699 C3.0392526,19.1369699 2.94416338,19.2296789 2.94416338,19.3427559 L2.94416338,19.7578395 C2.94416338,19.8709164 2.84907419,19.9636254 2.73309418,19.9636254 L2.03721411,19.9636254 C1.9212341,19.9636254 1.8261449,19.8709164 1.8261449,19.7578395 L1.8261449,17.4857659 C1.8261449,17.372689 1.9212341,17.2799799 2.03721411,17.2799799 L2.73309418,17.2799799 C2.84907419,17.2799799 2.94416338,17.372689 2.94416338,17.4857659 L2.94416338,17.9022542 C2.94416338,18.0153311 3.0392526,18.1073378 3.15523262,18.1073378 L5.24863579,18.1073378 C5.3646158,18.1073378 5.45970502,18.0153311 5.45970502,17.9022542 L5.45970502,16.6759666 C5.45970502,16.5628896 5.55407385,16.4701806 5.67005386,16.4701806 L7.05605101,16.4701806 C7.17203102,16.4701806 7.26639985,16.3774716 7.26639985,16.2643947 L7.26639985,16.0515853 C7.26639985,15.9385084 7.17203102,15.8457993 7.05605101,15.8457993 L4.98065714,15.8457993 C4.86467712,15.8457993 4.7703083,15.9385084 4.7703083,16.0515853 L4.7703083,16.4673712 C4.7703083,16.5804482 4.6752191,16.6731572 4.55923909,16.6731572 L0.211069213,16.6731572 C0.0950892018,16.6731572 0,16.5804482 0,16.4673712 L0,13.3854983 C0,13.2724214 0.0950892018,13.1797124 0.211069213,13.1797124 L0.925678972,13.1797124 C1.04165898,13.1797124 1.13674818,13.2724214 1.13674818,13.3854983 L1.13674818,15.4377391 Z" id="Fill-33"></path>
                                    <path d="M21.483172,13.9898629 L21.483172,14.813709 C21.483172,14.926786 21.3880828,15.0187927 21.2721028,15.0187927 L18.1514481,15.0187927 C18.0354681,15.0187927 17.9410993,14.926786 17.9410993,14.813709 L17.9410993,13.9898629" id="Fill-35"></path>
                                    <path d="M29.9425092,25.3953211 C29.9425092,25.3047191 27.7619407,25.0546856 26.3867493,24.6325786 C25.3018679,24.2989666 24.6722621,24.0124114 24.1687216,23.7553545 C23.835189,23.5853879 24.0577842,23.227194 24.1860105,23.0965585 C24.6693806,22.6056221 25.821977,21.7866923 25.7506601,21.6799365 C25.663495,21.5485987 24.3913168,22.5403043 23.4317803,23.1176288 C23.2696964,23.2152542 23.0751958,23.2391338 22.8936618,23.1843512 C20.4278259,22.4412742 17.2725933,21.5577291 17.2725933,20.2738495 C17.2725933,18.9611739 19.2557795,18.7364247 22.0846832,18.7785652 C23.0190067,18.7919097 24.8307441,18.2504047 25.5266242,17.9329465 C25.5748892,17.9111739 25.559041,17.8346187 25.5078945,17.8500702 C24.4972116,18.1612073 22.9772251,18.5264247 21.7533118,18.3796354 C19.6505438,18.127495 19.270187,17.9743846 18.5685439,18.1668261 C18.4597676,18.1963244 18.3970952,18.0853545 18.4482417,17.9870267 C18.7558408,17.4026789 19.4084985,16.8070936 20.8341162,16.2901706 C20.8758978,16.2747191 20.8449218,16.2178294 20.8016994,16.2248528 C19.5302415,16.4306388 18.1572111,16.7867258 17.5117571,17.4307726 C17.4663736,17.4771271 17.3835307,17.4384983 17.3770474,17.3745853 C17.2891619,16.4453879 16.0522819,16.027495 15.6892141,15.9565585 C15.6531954,15.9495351 15.6186175,15.9839498 15.6495935,16.002913 C16.1545749,16.3049197 17.1119502,17.2074281 16.541415,18.0832475 C15.0624898,20.3525117 12.2940973,20.7921773 11.7876753,22.776291 C11.350409,24.4836823 15.6553565,27.1883979 15.6553565,28.7693679 C15.6553565,31.1608396 10.7085569,32.5872944 10.7085569,32.5872944 C10.515497,32.6736822 10.5788898,32.9553211 10.7906794,32.9553211 L16.8562179,32.9553211 L24.0491397,32.9553211 L26.3817066,32.9553211 C26.5754869,32.9553211 26.6864243,32.8078294 26.6331167,32.625923 C25.443061,28.5375952 17.1969542,25.8174281 15.4975949,24.3298696 C15.0696935,23.9548194 14.7339998,23.5460569 14.9746043,23.0361572 C15.7807014,21.3287659 23.7624314,24.6845518 26.9637678,25.2372943 C27.6445202,25.3552876 29.9425092,25.4824114 29.9425092,25.3953211" id="Fill-37"></path>
                                    <path d="M13.0732525,20.1715886 C12.3622446,19.4615217 10.7752634,18.1298829 10.2760451,17.7133947 C10.2465098,17.6888127 10.2047282,17.7225251 10.2241783,17.7555351 C10.6153407,18.4164381 11.0915071,19.2810201 11.3249078,19.6504515 C11.3710117,19.7227927 11.3148226,19.814097 11.2276575,19.8091806 C10.5512275,19.7726589 9.02331692,19.7248997 8.13797882,19.698913 C8.08827311,19.6975084 8.08034901,19.7677425 8.12933435,19.7761706 C9.23582689,19.9594816 10.6974632,20.3064381 12.2376201,20.9188796 C12.3103777,20.9476756 12.3910595,20.9385452 12.4537319,20.892893 C12.6381473,20.7580435 12.8340887,20.6245987 13.0379542,20.4876421 C13.1467305,20.4145987 13.1654602,20.2635953 13.0732525,20.1715886" id="Fill-39"></path>
                                    <path d="M26.8623394,35.9927358 C27.9529836,35.9927358 28.8577719,35.0544081 28.9910408,33.8491907 C29.0097705,33.6855451 28.8808237,33.5401604 28.7115361,33.5401604 L8.73992229,33.5401604 C8.5706347,33.5401604 8.44240835,33.6855451 8.46041765,33.8491907 C8.59368662,35.0544081 9.49847478,35.9927358 10.5891191,35.9927358 L26.8623394,35.9927358 Z" id="Fill-41"></path>
                                </g>
                            </g>
                        </g>
                    </g>
                </g>
            </g>
        </g>
    </g>
</svg>