<?xml version="1.0" encoding="utf-8"?>
<!-- Generator: Adobe Illustrator 21.0.2, SVG Export Plug-In . SVG Version: 6.00 Build 0)  -->
<svg version="1.1" id="Layer_1" xmlns="http://www.w3.org/2000/svg" xmlns:xlink="http://www.w3.org/1999/xlink" x="0px" y="0px"
	 viewBox="0 0 1000 1000" style="enable-background:new 0 0 1000 1000;" xml:space="preserve">
<path d="M506.8,689.7c-94.3,94.4-182.9,183.1-270.9,271.2c-65.6-68-126.7-131.4-188.3-195.3c86.1-83.6,176.6-171.6,268.7-261
	c-95.1-94.9-183.7-183.4-269.8-269.4C114.2,168.9,177.9,106.5,244.9,41c82.7,85.1,170,175,258.2,265.8
	c90.6-90.4,179.2-178.8,267.4-266.8c66,68.9,126.9,132.4,189.4,197.7c-85.5,82.4-176.3,169.9-269.8,260
	c95.2,95.2,183.7,183.9,272.4,272.6c-67,63.7-130.8,124.4-197.9,188.1C682.6,873,595.4,782.1,506.8,689.7z"/>
</svg>
